<svg width="21" height="21" viewBox="0 0 21 21" fill="none" xmlns="http://www.w3.org/2000/svg">
<path d="M20.3738 3.64784C20.1215 3.34581 19.8056 3.1029 19.4486 2.93636C19.0916 2.76982 18.7021 2.68373 18.308 2.68421H3.80512L3.76745 2.37016C3.69035 1.71737 3.3758 1.1155 2.88343 0.678638C2.39107 0.241779 1.75512 0.000305815 1.09615 0L0.897012 0C0.659109 0 0.430951 0.0942667 0.262729 0.262062C0.0945063 0.429858 0 0.657438 0 0.894737C0 1.13204 0.0945063 1.35962 0.262729 1.52741C0.430951 1.69521 0.659109 1.78947 0.897012 1.78947H1.09615C1.31586 1.7895 1.52791 1.86996 1.6921 2.01559C1.85628 2.16121 1.96117 2.36188 1.98688 2.57953L3.22117 13.0479C3.34931 14.1367 3.87372 15.1405 4.69488 15.8691C5.51603 16.5976 6.57676 17 7.67573 17H17.0432C17.2811 17 17.5093 16.9057 17.6775 16.7379C17.8457 16.5701 17.9402 16.3426 17.9402 16.1053C17.9402 15.868 17.8457 15.6404 17.6775 15.4726C17.5093 15.3048 17.2811 15.2105 17.0432 15.2105H7.67573C7.12053 15.209 6.5794 15.0362 6.12653 14.7158C5.67366 14.3954 5.33122 13.9432 5.14615 13.4211H15.8385C16.8901 13.4211 17.9082 13.0526 18.7151 12.38C19.5219 11.7073 20.0662 10.7733 20.2527 9.741L20.9569 5.84532C21.0272 5.4588 21.0114 5.06159 20.9106 4.68183C20.8099 4.30208 20.6266 3.94908 20.3738 3.64784Z" fill="#2C4186"/>
<path d="M6.5 21C7.32843 21 8 20.3284 8 19.5C8 18.6716 7.32843 18 6.5 18C5.67157 18 5 18.6716 5 19.5C5 20.3284 5.67157 21 6.5 21Z" fill="#2C4186"/>
<path d="M15.5 21C16.3284 21 17 20.3284 17 19.5C17 18.6716 16.3284 18 15.5 18C14.6716 18 14 18.6716 14 19.5C14 20.3284 14.6716 21 15.5 21Z" fill="#2C4186"/>
</svg>
