<svg width="19" height="21" viewBox="0 0 19 21" fill="none" xmlns="http://www.w3.org/2000/svg">
<path d="M15.3799 12.1628C15.5797 12.6238 15.6959 13.188 15.7215 13.8404C16.3956 13.9949 16.9001 14.5979 16.9001 15.3179C16.9001 16.1542 16.2197 16.8346 15.3834 16.8346C14.5472 16.8346 13.8668 16.1542 13.8668 15.3179C13.8668 14.606 14.3603 14.0094 15.0225 13.8463C14.9933 13.1983 14.8384 12.2125 14.2042 11.7257C13.8805 11.642 13.5478 11.5813 13.2064 11.55C13.1812 12.6852 9.42924 15.4866 9.42924 15.4866C9.42924 15.4866 5.67607 12.6857 5.65063 11.5505C5.27147 11.585 4.90257 11.6543 4.54627 11.7542C4.08357 12.1205 3.84417 12.803 3.8318 13.7952C3.96783 13.8733 4.07773 13.9954 4.14517 14.1431C4.64357 14.3785 5.08387 14.8736 5.42103 15.5785C5.4775 15.6971 5.48497 15.831 5.44343 15.9533C5.6455 16.4734 5.761 17.0418 5.761 17.5192C5.761 18.1882 5.761 18.8207 5.03183 18.9831C4.95297 19.0487 4.85403 19.0849 4.7502 19.0849H4.263C4.0187 19.0849 3.8199 18.8856 3.8199 18.642L3.82037 18.6247C3.8297 18.3891 4.02687 18.1989 4.263 18.1989H4.7502C4.80013 18.1989 4.8489 18.2073 4.89603 18.2236C4.92543 18.2155 4.93477 18.2087 4.935 18.2085C4.98913 18.1123 4.98913 17.7119 4.98913 17.5197C4.98913 17.1319 4.89207 16.6636 4.72197 16.2284C4.63377 16.1782 4.56237 16.1024 4.5185 16.0107C4.2231 15.3921 3.8213 14.9926 3.4951 14.9926C3.16143 14.9926 2.73957 15.4248 2.44533 16.0669C2.39727 16.1717 2.31303 16.2568 2.20943 16.308C2.05567 16.7242 1.9712 17.1529 1.9712 17.5194C1.9712 17.6809 1.9712 18.1093 2.0328 18.2101C2.0335 18.2101 2.04727 18.2185 2.086 18.2281C2.1364 18.2087 2.19053 18.1987 2.24467 18.1987H2.7328C2.9603 18.1987 3.15047 18.3718 3.17333 18.597L3.17567 18.6243C3.17567 18.8858 2.97687 19.0851 2.7328 19.0851H2.24467C2.14783 19.0851 2.05427 19.0527 1.97727 18.9939C1.69843 18.9414 1.50197 18.8184 1.3776 18.6182C1.22687 18.3762 1.19933 18.0584 1.19933 17.5194C1.19933 17.0467 1.30853 16.5021 1.50687 15.982C1.4777 15.8707 1.4875 15.7545 1.53603 15.6497C1.74253 15.198 2.00527 14.8111 2.29553 14.5313C2.45513 14.3776 2.62663 14.2539 2.80607 14.1636C2.87327 14.0063 2.98993 13.8773 3.1325 13.7959C3.13997 13.174 3.23563 12.6371 3.4125 12.1945C1.38763 13.2216 0 15.3224 0 17.7483C0 20.8484 2.26497 21.0001 5.22993 21.0001C5.55357 21.0001 5.8849 20.9982 6.22347 20.9982H12.6324C12.9705 20.9982 13.3019 21.0001 13.6255 21.0001C16.5909 21.0001 18.8568 20.8484 18.8568 17.7483C18.8566 15.2967 17.4393 13.1775 15.3799 12.1628Z" fill="#2B4186"/>
<path d="M9.43031 12.3648C12.2966 12.3648 14.6199 8.0549 14.6199 5.18887C14.6199 2.3233 12.2966 0 9.43031 0C6.56451 0 4.24121 2.3233 4.24121 5.18887C4.24121 8.0549 6.56451 12.3648 9.43031 12.3648Z" fill="#2B4186"/>
<path d="M15.3831 16.0179C15.7697 16.0179 16.0831 15.7045 16.0831 15.3179C16.0831 14.9313 15.7697 14.6179 15.3831 14.6179C14.9965 14.6179 14.6831 14.9313 14.6831 15.3179C14.6831 15.7045 14.9965 16.0179 15.3831 16.0179Z" fill="#2B4186"/>
</svg>
