<svg width="20" height="21" viewBox="0 0 20 21" fill="none" xmlns="http://www.w3.org/2000/svg">
<path d="M15.9515 12.1628C16.1512 12.6238 16.2674 13.188 16.2931 13.8404C16.9672 13.9949 17.4716 14.5979 17.4716 15.3179C17.4716 16.1542 16.7912 16.8346 15.955 16.8346C15.1187 16.8346 14.4383 16.1542 14.4383 15.3179C14.4383 14.606 14.9318 14.0094 15.594 13.8463C15.5648 13.1983 15.4099 12.2125 14.7757 11.7257C14.4521 11.642 14.1193 11.5813 13.778 11.55C13.7528 12.6852 10.0008 15.4866 10.0008 15.4866C10.0008 15.4866 6.2476 12.6857 6.22217 11.5505C5.843 11.585 5.4741 11.6543 5.1178 11.7542C4.6551 12.1205 4.4157 12.803 4.40333 13.7952C4.53937 13.8733 4.64927 13.9954 4.7167 14.1431C5.2151 14.3785 5.6554 14.8736 5.99257 15.5785C6.04903 15.6971 6.0565 15.831 6.01497 15.9533C6.21703 16.4734 6.33253 17.0418 6.33253 17.5192C6.33253 18.1882 6.33253 18.8207 5.60337 18.9831C5.5245 19.0487 5.42557 19.0849 5.32173 19.0849H4.83453C4.59023 19.0849 4.39143 18.8856 4.39143 18.642L4.3919 18.6247C4.40123 18.3891 4.5984 18.1989 4.83453 18.1989H5.32173C5.37167 18.1989 5.42043 18.2073 5.46757 18.2236C5.49697 18.2155 5.5063 18.2087 5.50653 18.2085C5.56067 18.1123 5.56067 17.7119 5.56067 17.5197C5.56067 17.1319 5.4636 16.6636 5.2935 16.2284C5.2053 16.1782 5.1339 16.1024 5.09003 16.0107C4.79463 15.3921 4.39283 14.9926 4.06663 14.9926C3.73297 14.9926 3.3111 15.4248 3.01687 16.0669C2.9688 16.1717 2.88457 16.2568 2.78097 16.308C2.6272 16.7242 2.54273 17.1529 2.54273 17.5194C2.54273 17.6809 2.54273 18.1093 2.60433 18.2101C2.60503 18.2101 2.6188 18.2185 2.65753 18.2281C2.70793 18.2087 2.76207 18.1987 2.8162 18.1987H3.30433C3.53183 18.1987 3.722 18.3718 3.74487 18.597L3.7472 18.6243C3.7472 18.8858 3.5484 19.0851 3.30433 19.0851H2.8162C2.71937 19.0851 2.6258 19.0527 2.5488 18.9939C2.26997 18.9414 2.0735 18.8184 1.94913 18.6182C1.7984 18.3762 1.77087 18.0584 1.77087 17.5194C1.77087 17.0467 1.88007 16.5021 2.0784 15.982C2.04923 15.8707 2.05903 15.7545 2.10757 15.6497C2.31407 15.198 2.5768 14.8111 2.86707 14.5313C3.02667 14.3776 3.19817 14.2539 3.3776 14.1636C3.4448 14.0063 3.56147 13.8773 3.70403 13.7959C3.7115 13.174 3.80717 12.6371 3.98403 12.1945C1.95917 13.2216 0.571533 15.3224 0.571533 17.7483C0.571533 20.8484 2.8365 21.0001 5.80147 21.0001C6.1251 21.0001 6.45643 20.9982 6.795 20.9982H13.204C13.5421 20.9982 13.8734 21.0001 14.197 21.0001C17.1625 21.0001 19.4284 20.8484 19.4284 17.7483C19.4281 15.2967 18.0109 13.1775 15.9515 12.1628Z" fill="#989898"/>
<path d="M10.0018 12.3648C12.8681 12.3648 15.1914 8.0549 15.1914 5.18887C15.1914 2.3233 12.8681 0 10.0018 0C7.13604 0 4.81274 2.3233 4.81274 5.18887C4.81274 8.0549 7.13604 12.3648 10.0018 12.3648Z" fill="#989898"/>
<path d="M15.9546 16.0179C16.3412 16.0179 16.6546 15.7045 16.6546 15.3179C16.6546 14.9313 16.3412 14.6179 15.9546 14.6179C15.568 14.6179 15.2546 14.9313 15.2546 15.3179C15.2546 15.7045 15.568 16.0179 15.9546 16.0179Z" fill="#989898"/>
</svg>
