<svg width="21" height="21" viewBox="0 0 21 21" fill="none" xmlns="http://www.w3.org/2000/svg">
<path d="M3.4 12.5H0.6C0.26864 12.5 0 12.7239 0 13C0 13.2761 0.26864 13.5 0.6 13.5H3.4C3.73136 13.5 4 13.2761 4 13C4 12.7239 3.73136 12.5 3.4 12.5Z" fill="#2C4186"/>
<path d="M3.35714 10H1.64286C1.28783 10 1 10.2239 1 10.5C1 10.7761 1.28783 11 1.64286 11H3.35714C3.71217 11 4 10.7761 4 10.5C4 10.2239 3.71217 10 3.35714 10Z" fill="#2C4186"/>
<path d="M3.35714 15H1.64286C1.28783 15 1 15.2239 1 15.5C1 15.7761 1.28783 16 1.64286 16H3.35714C3.71217 16 4 15.7761 4 15.5C4 15.2239 3.71217 15 3.35714 15Z" fill="#2C4186"/>
<path d="M7.5 5.40234C6.91812 4.85547 6.0032 4.86596 5.43458 5.4346C4.86601 6.00321 4.85548 6.91809 5.4022 7.5C5.97989 6.68979 6.68975 5.98001 7.5 5.40234Z" fill="#2C4186"/>
<path d="M20.5978 7.5C21.1445 6.91809 21.134 6.00321 20.5654 5.4346C19.9968 4.86596 19.0819 4.85547 18.5 5.40234C19.3102 5.98001 20.0201 6.68979 20.5978 7.5Z" fill="#2C4186"/>
<path d="M9.63158 2.42888H10.6842V4C11.4256 3.82022 12.2013 3.72428 13 3.72428C13.7987 3.72428 14.5744 3.82022 15.3158 4V2.42888H16.3684C16.7172 2.42888 17 2.15701 17 1.82166V0.60722C17 0.271873 16.7172 0 16.3684 0H9.63158C9.28278 0 9 0.271873 9 0.60722V1.82166C9 2.15701 9.28278 2.42888 9.63158 2.42888Z" fill="#2C4186"/>
<path d="M12.6648 12.0266C12.5607 11.8131 12.5899 11.5596 12.7401 11.3747L14.2613 9.5H11.2271L9.5 13.5673H12.6031C12.7949 13.5673 12.9762 13.6541 13.0947 13.8029C13.2132 13.9516 13.2558 14.1458 13.2104 14.3296L12.9208 15.5L16 12.3759H13.2282C12.9879 12.3759 12.7689 12.24 12.6648 12.0266Z" fill="#2C4186"/>
<path d="M13 5C8.5888 5 5 8.5888 5 13C5 17.4112 8.5888 21 13 21C17.4112 21 21 17.4112 21 13C21 8.5888 17.4112 5 13 5ZM17.9131 12.2801L12.2926 18.0647C12.1737 18.1872 12.0134 18.2513 11.851 18.2513C11.7494 18.2513 11.647 18.2262 11.5535 18.1744C11.3106 18.0401 11.1877 17.7598 11.2534 17.4901L11.8883 14.8872H8.69231C8.48636 14.8872 8.29407 14.7842 8.17998 14.6128C8.06589 14.4413 8.04513 14.2241 8.12464 14.0342L10.34 8.74187C10.4358 8.51307 10.6596 8.3641 10.9077 8.3641H15.5846C15.8211 8.3641 16.0368 8.49973 16.1392 8.7129C16.2417 8.92611 16.2129 9.1792 16.0651 9.3639L14.5675 11.2359H17.4718C17.7191 11.2359 17.9424 11.3839 18.0386 11.6117C18.1349 11.8395 18.0855 12.1028 17.9131 12.2801Z" fill="#2C4186"/>
</svg>
