<svg width="21" height="20" viewBox="0 0 21 20" fill="none" xmlns="http://www.w3.org/2000/svg">
<path d="M20.0833 11.25C20.0833 7.34417 16.9058 4.16667 13 4.16667H10.9166C10.9166 3.08167 10.2175 2.165 9.24996 1.82V0.833333C9.24996 0.373333 8.87746 0 8.41663 0C7.95579 0 7.58329 0.373333 7.58329 0.833333V1.82C6.61579 2.165 5.91663 3.08167 5.91663 4.16667V10.8333C5.91663 11.2933 6.28913 11.6667 6.74996 11.6667H10.0833C10.5441 11.6667 10.9166 11.2933 10.9166 10.8333V5.83333H13C15.9866 5.83333 18.4166 8.26333 18.4166 11.25C18.4166 14.2367 15.9866 16.6667 13 16.6667H9.24996V15H12.5833C13.0441 15 13.4166 14.6267 13.4166 14.1667C13.4166 13.7067 13.0441 13.3333 12.5833 13.3333H4.24996C3.78913 13.3333 3.41663 13.7067 3.41663 14.1667C3.41663 14.6267 3.78913 15 4.24996 15H7.58329V16.6667H1.74996C1.28913 16.6667 0.916626 17.04 0.916626 17.5C0.916626 17.96 1.28913 18.3333 1.74996 18.3333H2.58329V19.1667C2.58329 19.6267 2.95579 20 3.41663 20C3.87746 20 4.24996 19.6267 4.24996 19.1667V18.3333H12.5833V19.1667C12.5833 19.6267 12.9558 20 13.4166 20C13.8775 20 14.25 19.6267 14.25 19.1667V18.2158C17.5608 17.6225 20.0833 14.7283 20.0833 11.25Z" fill="#2C4186"/>
</svg>
