<svg width="22" height="22" viewBox="0 0 22 22" fill="none" xmlns="http://www.w3.org/2000/svg">
<path d="M6.74648 0H2.74857C1.23058 0 0 1.23058 0 2.74857V6.74648C0 8.26447 1.23058 9.49505 2.74857 9.49505H6.74648C8.26447 9.49505 9.49505 8.26447 9.49505 6.74648V2.74857C9.49505 1.23058 8.26447 0 6.74648 0Z" fill="#2B4186"/>
<path d="M18.6782 0H14.6803C13.1623 0 11.9318 1.23058 11.9318 2.74857V6.74648C11.9318 8.26447 13.1623 9.49505 14.6803 9.49505H18.6782C20.1962 9.49505 21.4268 8.26447 21.4268 6.74648V2.74857C21.4268 1.23058 20.1962 0 18.6782 0Z" fill="#2B4186"/>
<path d="M6.74648 11.9937H2.74857C1.23058 11.9937 0 13.2243 0 14.7423V18.7402C0 20.2582 1.23058 21.4888 2.74857 21.4888H6.74648C8.26447 21.4888 9.49505 20.2582 9.49505 18.7402V14.7423C9.49505 13.2243 8.26447 11.9937 6.74648 11.9937Z" fill="#2B4186"/>
<path d="M21.4882 14.9081L17.9042 11.324C17.5758 10.9968 17.1311 10.813 16.6675 10.813C16.2039 10.813 15.7592 10.9968 15.4309 11.324L11.8468 14.9081C11.5191 15.2362 11.3351 15.681 11.3351 16.1447C11.3351 16.6085 11.5191 17.0532 11.8468 17.3814L15.4309 20.9655C15.7591 21.293 16.2038 21.4769 16.6675 21.4769C17.1312 21.4769 17.5759 21.293 17.9042 20.9655L21.4882 17.3814C21.8159 17.0532 21.9999 16.6085 21.9999 16.1447C21.9999 15.681 21.8159 15.2362 21.4882 14.9081Z" fill="#2B4186"/>
</svg>
