<svg width="24" height="18" viewBox="0 0 24 18" fill="none" xmlns="http://www.w3.org/2000/svg">
<path d="M21.4663 13.0429V4.79347C21.4663 2.39997 19.5185 0.452179 17.125 0.452179H6.51295C4.11945 0.452179 2.17165 2.39997 2.17165 4.79347V13.0429C1.07186 13.2667 0.242188 14.2411 0.242188 15.4055C0.242188 16.7359 1.32462 17.8174 2.65402 17.8174H20.9839C22.3133 17.8174 23.3958 16.7359 23.3958 15.4055C23.3958 14.2401 22.5661 13.2667 21.4663 13.0429ZM3.13638 4.79347C3.13638 2.93154 4.65101 1.41691 6.51295 1.41691H17.125C18.9869 1.41691 20.5016 2.93154 20.5016 4.79347V12.9937H15.1955C15.0672 12.9937 14.9447 13.0448 14.854 13.1346L14.0301 13.9584H9.60588L8.782 13.1346C8.69131 13.0439 8.56879 12.9937 8.44048 12.9937H3.13638V4.79347ZM20.9839 16.8526H2.65402C1.85618 16.8526 1.20692 16.2034 1.20692 15.4055C1.20692 14.6077 1.85618 13.9584 2.65402 13.9584H8.24271L9.0666 14.7823C9.15728 14.873 9.2798 14.9232 9.40811 14.9232H14.2318C14.3601 14.9232 14.4826 14.872 14.5733 14.7823L15.3972 13.9584H20.9859C21.7837 13.9584 22.433 14.6077 22.433 15.4055C22.433 16.2034 21.7837 16.8526 20.9859 16.8526H20.9839Z" fill="#616161"/>
<path d="M15.4797 11.3159C15.4797 11.5197 15.3166 11.6828 15.1128 11.6828H8.52316C8.31932 11.6828 8.15625 11.5197 8.15625 11.3159C8.15625 10.0261 8.9049 8.91056 9.98712 8.36946V9.5888C9.76845 9.71481 9.6202 9.9483 9.6202 10.2189C9.6202 10.6228 9.94635 10.9527 10.354 10.9527C10.7617 10.9527 11.0879 10.6265 11.0879 10.2189C11.0879 9.9483 10.9396 9.71481 10.7209 9.5888V8.10632C10.9581 8.05072 11.2028 8.02107 11.4548 8.02107H12.1886C12.3109 8.02107 12.4332 8.02848 12.5555 8.04331V9.55174C12.1293 9.70369 11.8217 10.1077 11.8217 10.5821V10.949C11.8217 11.1528 11.9848 11.3159 12.1886 11.3159C12.3924 11.3159 12.5555 11.1528 12.5555 10.949V10.5821C12.5555 10.3782 12.7186 10.2151 12.9224 10.2151C13.1263 10.2151 13.2894 10.3782 13.2894 10.5821V10.949C13.2894 11.1528 13.4524 11.3159 13.6563 11.3159C13.8601 11.3159 14.0232 11.1528 14.0232 10.949V10.5821C14.0232 10.104 13.7156 9.70369 13.2894 9.55174V8.2138C14.5606 8.66595 15.4797 9.88159 15.4797 11.3159ZM14.0158 5.08946C14.0158 3.87753 13.0299 2.89168 11.818 2.89168C10.6061 2.89168 9.6202 3.87753 9.6202 5.08946C9.6202 6.30139 10.6061 7.28724 11.818 7.28724C13.0299 7.28724 14.0158 6.30139 14.0158 5.08946Z" stroke="#616161" stroke-width="0.578839" stroke-miterlimit="10" stroke-linecap="round"/>
</svg>
