<svg width="34" height="25" viewBox="0 0 34 25" fill="none" xmlns="http://www.w3.org/2000/svg">
<g opacity="0.6">
<mask id="path-1-outside-1_2001_1245" maskUnits="userSpaceOnUse" x="-1" y="-1" width="36" height="27" fill="black">
<rect fill="white" x="-1" y="-1" width="36" height="27"/>
<path d="M10.0114 24.5114C8.05682 24.5038 6.375 24.0227 4.96591 23.0682C3.56439 22.1136 2.48485 20.7311 1.72727 18.9205C0.977273 17.1098 0.606061 14.9318 0.613636 12.3864C0.613636 9.84848 0.988636 7.68561 1.73864 5.89773C2.49621 4.10985 3.57576 2.75 4.97727 1.81818C6.38636 0.878787 8.06439 0.40909 10.0114 0.40909C11.9583 0.40909 13.6326 0.878787 15.0341 1.81818C16.4432 2.75758 17.5265 4.12121 18.2841 5.90909C19.0417 7.68939 19.4167 9.84848 19.4091 12.3864C19.4091 14.9394 19.0303 17.1212 18.2727 18.9318C17.5227 20.7424 16.447 22.125 15.0455 23.0795C13.6439 24.0341 11.9659 24.5114 10.0114 24.5114ZM10.0114 20.4318C11.3447 20.4318 12.4091 19.7614 13.2045 18.4205C14 17.0795 14.3939 15.0682 14.3864 12.3864C14.3864 10.6212 14.2045 9.15151 13.8409 7.97727C13.4848 6.80303 12.9773 5.92045 12.3182 5.32954C11.6667 4.73864 10.8977 4.44318 10.0114 4.44318C8.68561 4.44318 7.625 5.10606 6.82955 6.43182C6.03409 7.75758 5.63258 9.74242 5.625 12.3864C5.625 14.1742 5.80303 15.6667 6.15909 16.8636C6.52273 18.053 7.03409 18.947 7.69318 19.5455C8.35227 20.1364 9.125 20.4318 10.0114 20.4318ZM33.0426 0.727272V24H28.1222V5.39773H27.9858L22.6562 8.73864V4.375L28.4176 0.727272H33.0426Z"/>
</mask>
<path d="M10.0114 24.5114C8.05682 24.5038 6.375 24.0227 4.96591 23.0682C3.56439 22.1136 2.48485 20.7311 1.72727 18.9205C0.977273 17.1098 0.606061 14.9318 0.613636 12.3864C0.613636 9.84848 0.988636 7.68561 1.73864 5.89773C2.49621 4.10985 3.57576 2.75 4.97727 1.81818C6.38636 0.878787 8.06439 0.40909 10.0114 0.40909C11.9583 0.40909 13.6326 0.878787 15.0341 1.81818C16.4432 2.75758 17.5265 4.12121 18.2841 5.90909C19.0417 7.68939 19.4167 9.84848 19.4091 12.3864C19.4091 14.9394 19.0303 17.1212 18.2727 18.9318C17.5227 20.7424 16.447 22.125 15.0455 23.0795C13.6439 24.0341 11.9659 24.5114 10.0114 24.5114ZM10.0114 20.4318C11.3447 20.4318 12.4091 19.7614 13.2045 18.4205C14 17.0795 14.3939 15.0682 14.3864 12.3864C14.3864 10.6212 14.2045 9.15151 13.8409 7.97727C13.4848 6.80303 12.9773 5.92045 12.3182 5.32954C11.6667 4.73864 10.8977 4.44318 10.0114 4.44318C8.68561 4.44318 7.625 5.10606 6.82955 6.43182C6.03409 7.75758 5.63258 9.74242 5.625 12.3864C5.625 14.1742 5.80303 15.6667 6.15909 16.8636C6.52273 18.053 7.03409 18.947 7.69318 19.5455C8.35227 20.1364 9.125 20.4318 10.0114 20.4318ZM33.0426 0.727272V24H28.1222V5.39773H27.9858L22.6562 8.73864V4.375L28.4176 0.727272H33.0426Z" fill="#001E3A"/>
<path d="M10.0114 24.5114L10.0075 25.5114H10.0114V24.5114ZM4.96591 23.0682L4.40299 23.8947L4.40506 23.8961L4.96591 23.0682ZM1.72727 18.9205L0.803391 19.3032L0.804768 19.3064L1.72727 18.9205ZM0.613636 12.3864L1.61364 12.3893V12.3864H0.613636ZM1.73864 5.89773L0.817879 5.50757L0.816487 5.51089L1.73864 5.89773ZM4.97727 1.81818L5.53093 2.65093L5.53197 2.65023L4.97727 1.81818ZM15.0341 1.81818L14.4773 2.64885L14.4794 2.65023L15.0341 1.81818ZM18.2841 5.90909L17.3633 6.29924L17.3639 6.30065L18.2841 5.90909ZM19.4091 12.3864L18.4091 12.3834V12.3864H19.4091ZM18.2727 18.9318L17.3502 18.5458L17.3489 18.5491L18.2727 18.9318ZM15.0455 23.0795L15.6084 23.9061L15.6084 23.9061L15.0455 23.0795ZM13.2045 18.4205L14.0646 18.9307L14.0646 18.9307L13.2045 18.4205ZM14.3864 12.3864L13.3864 12.3864L13.3864 12.3892L14.3864 12.3864ZM13.8409 7.97727L12.8839 8.26746L12.8857 8.27309L13.8409 7.97727ZM12.3182 5.32954L11.6464 6.07028L11.6506 6.07411L12.3182 5.32954ZM6.82955 6.43182L5.97205 5.91732L5.97205 5.91732L6.82955 6.43182ZM5.625 12.3864L4.625 12.3835V12.3864H5.625ZM6.15909 16.8636L5.20057 17.1488L5.20279 17.156L6.15909 16.8636ZM7.69318 19.5455L7.02092 20.2858L7.02564 20.29L7.69318 19.5455ZM10.0152 23.5114C8.22898 23.5044 6.74795 23.0675 5.52676 22.2403L4.40506 23.8961C6.00205 24.9779 7.88466 25.5031 10.0075 25.5114L10.0152 23.5114ZM5.52883 22.2417C4.31125 21.4124 3.34469 20.1953 2.64978 18.5345L0.804768 19.3064C1.62501 21.2668 2.81754 22.8149 4.40299 23.8947L5.52883 22.2417ZM2.65115 18.5378C1.96447 16.88 1.60634 14.8402 1.61363 12.3893L-0.386359 12.3834C-0.394216 15.0234 -0.00991963 17.3397 0.803397 19.3031L2.65115 18.5378ZM1.61364 12.3864C1.61364 9.94226 1.97539 7.91844 2.66079 6.28456L0.816487 5.51089C0.0018855 7.45277 -0.386364 9.75471 -0.386364 12.3864H1.61364ZM2.65939 6.28788C3.35262 4.65185 4.31642 3.45841 5.53093 2.65092L4.42361 0.98544C2.83509 2.04159 1.6398 3.56785 0.817885 5.50758L2.65939 6.28788ZM5.53197 2.65023C6.75322 1.83607 8.23144 1.40909 10.0114 1.40909V-0.59091C7.89735 -0.59091 6.01951 -0.0784934 4.42257 0.986132L5.53197 2.65023ZM10.0114 1.40909C11.7914 1.40909 13.2648 1.83611 14.4773 2.64885L15.5909 0.987516C14.0004 -0.0785323 12.1252 -0.59091 10.0114 -0.59091V1.40909ZM14.4794 2.65023C15.703 3.466 16.6705 4.66416 17.3633 6.29924L19.2048 5.51894C18.3825 3.57826 17.1833 2.04915 15.5888 0.986132L14.4794 2.65023ZM17.3639 6.30065C18.0547 7.92386 18.4164 9.94082 18.4091 12.3834L20.4091 12.3893C20.4169 9.75614 20.0287 7.45493 19.2042 5.51753L17.3639 6.30065ZM18.4091 12.3864C18.4091 14.8449 18.0438 16.8882 17.3502 18.5458L19.1952 19.3178C20.0168 17.3542 20.4091 15.0339 20.4091 12.3864H18.4091ZM17.3489 18.5491C16.6615 20.2085 15.6992 21.4244 14.4825 22.253L15.6084 23.9061C17.1948 22.8256 18.384 21.2763 19.1966 19.3145L17.3489 18.5491ZM14.4825 22.253C13.2713 23.078 11.7967 23.5114 10.0114 23.5114V25.5114C12.1351 25.5114 14.0166 24.9902 15.6084 23.9061L14.4825 22.253ZM10.0114 21.4318C11.7632 21.4318 13.1251 20.5143 14.0646 18.9307L12.3445 17.9103C11.693 19.0084 10.9262 19.4318 10.0114 19.4318V21.4318ZM14.0646 18.9307C14.9967 17.3593 15.3941 15.1318 15.3864 12.3835L13.3864 12.3892C13.3938 15.0045 13.0033 16.7998 12.3445 17.9103L14.0646 18.9307ZM15.3864 12.3864C15.3864 10.5607 15.1993 8.98325 14.7962 7.68145L12.8857 8.27309C13.2098 9.31978 13.3864 10.6817 13.3864 12.3864H15.3864ZM14.7979 7.68709C14.4084 6.40252 13.8239 5.33643 12.9857 4.58497L11.6506 6.07411C12.1307 6.50447 12.5613 7.20354 12.8839 8.26745L14.7979 7.68709ZM12.99 4.58882C12.1529 3.82964 11.144 3.44318 10.0114 3.44318V5.44318C10.6515 5.44318 11.1804 5.64763 11.6464 6.07026L12.99 4.58882ZM10.0114 3.44318C8.2704 3.44318 6.91271 4.34956 5.97205 5.91732L7.68704 6.94631C8.33729 5.86256 9.10081 5.44318 10.0114 5.44318V3.44318ZM5.97205 5.91732C5.03933 7.47186 4.63277 9.67186 4.625 12.3835L6.625 12.3892C6.63238 9.81298 7.02885 8.04329 7.68704 6.94631L5.97205 5.91732ZM4.625 12.3864C4.625 14.2329 4.80797 15.8288 5.2006 17.1488L7.11758 16.5785C6.79809 15.5045 6.625 14.1156 6.625 12.3864H4.625ZM5.20279 17.156C5.59913 18.4524 6.18582 19.5275 7.02093 20.2858L8.36543 18.8051C7.88236 18.3665 7.44632 17.6537 7.1154 16.5713L5.20279 17.156ZM7.02564 20.29C7.86845 21.0456 8.87898 21.4318 10.0114 21.4318V19.4318C9.37102 19.4318 8.8361 19.2271 8.36073 18.8009L7.02564 20.29ZM33.0426 0.727272H34.0426V-0.272728H33.0426V0.727272ZM33.0426 24V25H34.0426V24H33.0426ZM28.1222 24H27.1222V25H28.1222V24ZM28.1222 5.39773H29.1222V4.39773H28.1222V5.39773ZM27.9858 5.39773V4.39773H27.6983L27.4547 4.55044L27.9858 5.39773ZM22.6562 8.73864H21.6562V10.5457L23.1874 9.58592L22.6562 8.73864ZM22.6562 4.375L22.1213 3.53011L21.6562 3.82456V4.375H22.6562ZM28.4176 0.727272V-0.272728H28.1277L27.8827 -0.117622L28.4176 0.727272ZM32.0426 0.727272V24H34.0426V0.727272H32.0426ZM33.0426 23H28.1222V25H33.0426V23ZM29.1222 24V5.39773H27.1222V24H29.1222ZM28.1222 4.39773H27.9858V6.39773H28.1222V4.39773ZM27.4547 4.55044L22.1251 7.89135L23.1874 9.58592L28.5169 6.24501L27.4547 4.55044ZM23.6562 8.73864V4.375H21.6562V8.73864H23.6562ZM23.1912 5.21989L28.9525 1.57217L27.8827 -0.117622L22.1213 3.53011L23.1912 5.21989ZM28.4176 1.72727H33.0426V-0.272728H28.4176V1.72727Z" fill="#001E3A" mask="url(#path-1-outside-1_2001_1245)"/>
</g>
</svg>
