<svg width="170" height="39" viewBox="0 0 170 39" fill="none" xmlns="http://www.w3.org/2000/svg">
<g clip-path="url(#clip0_11_4856)">
<path fill-rule="evenodd" clip-rule="evenodd" d="M13.1184 18.8786C13.1184 15.2737 10.1889 12.351 6.57407 12.351C2.9586 12.351 0.0280762 15.2737 0.0280762 18.8786C0.0280762 22.4838 2.9586 25.4065 6.57407 25.4065C10.1889 25.4065 13.1184 22.4838 13.1184 18.8786ZM169.936 18.8786C169.936 15.2737 167.005 12.351 163.391 12.351C159.777 12.351 156.846 15.2737 156.846 18.8786C156.846 22.4838 159.777 25.4065 163.391 25.4065C167.005 25.4065 169.936 22.4838 169.936 18.8786Z" fill="#ED9B2D"/>
<path fill-rule="evenodd" clip-rule="evenodd" d="M100.472 24.7377C97.2921 24.7377 94.7138 22.3996 94.7138 18.8785C94.7138 15.3574 97.2921 13.0207 100.472 13.0207C102.52 13.0207 104.291 13.9766 105.355 15.6515L110.678 11.8373C108.44 8.60933 104.705 6.49305 100.472 6.49305C93.622 6.49305 88.0683 12.0332 88.0683 18.8677C88.0683 25.7016 93.622 31.242 100.472 31.242C104.538 31.242 108.172 29.4366 110.945 25.6362L105.567 21.9215C104.437 23.5902 102.699 24.7377 100.472 24.7377ZM72.625 24.7377C69.4437 24.7377 66.8647 22.3996 66.8647 18.8785C66.8647 15.3574 69.4437 13.0207 72.625 13.0207C75.8056 13.0207 78.3846 15.3748 78.3846 18.8785C78.3846 22.3829 75.8056 24.7377 72.625 24.7377ZM78.5124 9.22482C76.8598 7.66127 74.6561 6.49305 71.5635 6.49305C65.6757 6.49305 60.2186 11.443 60.2186 18.8677C60.2186 26.2921 65.6237 31.242 71.5635 31.242C74.4274 31.242 76.6124 30.1303 78.265 28.5089V30.5437H84.9111V7.20318H78.5124V9.22482ZM50.6103 9.9228V7.20318H44.205V30.5437H50.8462V19.4737C50.8462 14.8241 53.4347 13.5612 56.3079 13.5612C57.0136 13.5612 57.7668 13.6082 58.568 13.7949V7.20318C58.0966 7.06221 57.3899 6.96855 56.6839 6.96855C54.8007 6.96855 52.0912 7.58471 50.6103 9.9228ZM119.916 0.394287H113.27V23.1581C113.27 27.807 116.114 30.7264 121.746 30.7264C124.004 30.7264 126.115 30.3965 127.518 30.0245V24.092C126.216 24.465 124.766 24.7466 122.967 24.7466C121.112 24.7466 119.916 24.2294 119.916 22.3047V13.0207H127.631V7.16901H119.916V0.394287ZM141.687 24.7377C138.505 24.7377 135.926 22.3996 135.926 18.8785C135.926 15.3574 138.505 13.0207 141.687 13.0207C144.867 13.0207 147.446 15.3748 147.446 18.8785C147.446 22.3829 144.867 24.7377 141.687 24.7377ZM141.687 6.49305C134.835 6.49305 129.282 12.0332 129.282 18.8677C129.282 25.7016 134.835 31.242 141.687 31.242C148.538 31.242 154.092 25.7016 154.092 18.8677C154.092 12.0332 148.538 6.49305 141.687 6.49305ZM28.6411 24.7377C25.4595 24.7377 22.8809 22.3829 22.8809 18.8785C22.8809 15.3748 25.4595 13.0207 28.6411 13.0207C31.8217 13.0207 34.4004 15.3574 34.4004 18.8785C34.4004 22.3996 31.8217 24.7377 28.6411 24.7377ZM29.7026 6.49305C26.6097 6.49305 24.4056 7.66127 22.7534 9.22482V7.20318H16.355V38.8425H23.0011L23.0005 28.5089C24.6537 30.1303 26.8386 31.242 29.7026 31.242C35.6417 31.242 41.0475 26.2921 41.0475 18.8677C41.0475 11.443 35.5897 6.49305 29.7026 6.49305Z" fill="#26317A"/>
</g>
<defs>
<clipPath id="clip0_11_4856">
<rect width="170" height="39" fill="white"/>
</clipPath>
</defs>
</svg>
