<svg width="47" height="41" viewBox="0 0 47 41" fill="none" xmlns="http://www.w3.org/2000/svg">
<path d="M24.4213 10.0471L24.5141 10.0748L24.5197 10.0684C24.8309 10.1108 25.1336 9.92079 25.2251 9.61186C26.0137 6.9624 28.4982 5.11119 31.266 5.11119C31.6229 5.11119 31.9123 4.82176 31.9123 4.46491C31.9123 4.10804 31.6229 3.81863 31.266 3.81863C27.8162 3.81863 24.9173 6.11556 23.9865 9.24347C23.8845 9.58566 24.0794 9.94518 24.4213 10.0471Z" fill="#27B3A4" stroke="#F9FFF9" stroke-width="0.3"/>
<path d="M38.2134 28.7826H35.2358C34.9618 28.7826 34.7396 28.5603 34.7396 28.2863C34.7396 28.0123 34.9618 27.79 35.2358 27.79H38.2134C42.3179 27.79 45.6575 24.4504 45.6575 20.3459C45.6575 16.2414 42.3179 12.9018 38.2134 12.9018H38.1418C37.9979 12.9018 37.8611 12.8394 37.7668 12.7306C37.6725 12.6218 37.63 12.4775 37.6505 12.335C37.6948 12.0259 37.7172 11.7154 37.7172 11.413C37.7172 7.85578 34.8228 4.96139 31.2656 4.96139C29.8817 4.96139 28.5619 5.39386 27.4488 6.21234C27.2042 6.39207 26.8568 6.31231 26.7154 6.04325C23.563 0.0404892 15.3293 -0.765621 11.0606 4.45626C9.2623 6.65616 8.55574 9.51788 9.12192 12.307C9.18431 12.615 8.94857 12.9022 8.63556 12.9022H8.4367C4.33219 12.9022 0.992596 16.2418 0.992596 20.3463C0.992596 24.4508 4.33219 27.7904 8.4367 27.7904H11.4143C11.6883 27.7904 11.9106 28.0127 11.9106 28.2867C11.9106 28.5607 11.6883 28.783 11.4143 28.783H8.4367C3.78481 28.783 0 24.9982 0 20.3463C0 15.8249 3.57527 12.1226 8.04712 11.9184C7.62706 9.02478 8.43032 6.10598 10.292 3.82813C14.8623 -1.7631 23.621 -1.1364 27.3235 5.09823C28.5047 4.35771 29.8563 3.96924 31.2654 3.96924C35.5752 3.96924 38.9903 7.63743 38.6915 11.9231C43.1221 12.1716 46.6499 15.8543 46.6499 20.3459C46.6499 24.9982 42.8651 28.7826 38.2132 28.7826L38.2134 28.7826Z" fill="#27B3A4"/>
<path d="M10.7016 28.006C10.7016 34.9301 16.3345 40.563 23.2586 40.563C30.1827 40.563 35.8156 34.93 35.8156 28.006C35.8156 21.0819 30.1827 15.449 23.2586 15.449C16.3344 15.449 10.7016 21.082 10.7016 28.006ZM11.9943 28.006C11.9943 21.7951 17.0476 16.7418 23.2586 16.7418C29.4694 16.7418 34.5228 21.795 34.5228 28.006C34.5228 34.2169 29.4694 39.2702 23.2586 39.2702C17.0477 39.2702 11.9943 34.2169 11.9943 28.006Z" fill="#27B3A4" stroke="#F9FFF9" stroke-width="0.3"/>
<path d="M22.972 33.0006C22.972 33.2841 23.2019 33.514 23.4853 33.514C23.7687 33.514 23.9987 33.2844 23.9987 33.0006V23.554C23.9987 23.2705 23.7688 23.0407 23.4853 23.0407C23.2019 23.0407 22.972 23.2706 22.972 23.554V33.0006Z" fill="#27B3A4" stroke="#27B3A4" stroke-width="0.3"/>
<path d="M23.4853 24.281L20.9417 26.8245L20.9417 26.8246L23.4853 24.281ZM23.4853 24.281L26.0289 26.8246C26.129 26.9247 26.2608 26.975 26.3919 26.975L23.4853 24.281ZM23.8483 23.1921C23.6478 22.9916 23.3226 22.9914 23.1222 23.1921L26.3919 26.975C26.5227 26.975 26.6546 26.9252 26.755 26.8245C26.9554 26.624 26.9554 26.2992 26.7549 26.0987L23.8483 23.1921Z" fill="#27B3A4" stroke="#27B3A4" stroke-width="0.3"/>
</svg>
