<svg width="22" height="28" viewBox="0 0 22 28" fill="none" xmlns="http://www.w3.org/2000/svg">
<g opacity="0.5">
<path d="M21.8322 0.734919C21.6799 0.288601 21.2768 0.000225826 20.8052 0.000225826C20.5799 0.000225826 20.3634 0.0689153 20.1794 0.198857L14.2914 4.35506L14.1944 3.09371C14.0736 1.5231 12.8975 0.235061 11.3979 0.0310158C10.4937 -0.0919253 9.60807 0.153137 8.9045 0.721411C8.21065 1.28181 7.77352 2.11287 7.70516 3.00156L7.60104 4.35506L1.7131 0.198857C1.52901 0.0689153 1.31261 0.000225826 1.08723 0.000225826C0.61565 0.000225826 0.212537 0.288601 0.0601728 0.734919C-0.0921911 1.18118 0.0504928 1.65588 0.423637 1.9442L6.50747 6.64533C6.58212 6.70303 6.67039 6.73098 6.758 6.73098C6.88067 6.73098 7.00202 6.67618 7.08286 6.57156C7.22138 6.39229 7.18835 6.1347 7.00908 5.99617L0.925299 1.2951C0.789944 1.19053 0.818164 1.05381 0.836539 0.999943C0.854915 0.946019 0.916221 0.820617 1.08723 0.820617C1.1422 0.820617 1.19503 0.837407 1.23998 0.869126L8.29969 5.8524L7.91364 7.7827C7.90833 7.80917 7.90565 7.83613 7.90565 7.86315C7.90565 8.50613 8.25949 9.06773 8.78243 9.36448V10.1214C8.78243 10.3105 8.74349 10.4941 8.66665 10.667L7.95826 12.2609C7.33913 13.6539 7.16407 15.1814 7.45195 16.6783L9.19391 25.7365L7.98769 27.3448C7.89444 27.4691 7.87946 27.6354 7.94897 27.7744C8.01842 27.9133 8.16045 28.0011 8.31582 28.0011H10.9462C11.1727 28.0011 11.3564 27.8175 11.3564 27.5909V14.9909L14.4645 18.0991L13.837 24.4745L12.8712 25.8025C12.7379 25.9858 12.7784 26.2423 12.9616 26.3755L15.0888 27.9226C15.1603 27.9746 15.245 28.0011 15.3301 28.0011C15.3947 28.0011 15.4594 27.9859 15.5189 27.955C15.6568 27.8835 15.7425 27.7402 15.7402 27.5849L15.7086 25.4397L17.3146 17.9489C17.448 17.3267 17.302 16.6805 16.9139 16.1761L13.1098 11.2308V10.9319C13.1098 10.7054 12.9262 10.5218 12.6996 10.5218C12.4731 10.5218 12.2895 10.7054 12.2895 10.9319V10.9601H9.43274C9.54507 10.6934 9.60266 10.4116 9.60266 10.1214V9.58777C9.61206 9.58788 9.62141 9.58848 9.63088 9.58848H12.2613C13.2126 9.58848 13.9866 8.81452 13.9866 7.86315C13.9866 7.83613 13.9839 7.80917 13.9786 7.7827L13.9698 7.73873L21.4687 1.9442C21.8419 1.65588 21.9846 1.18124 21.8322 0.734919ZM8.19977 16.1644H10.536V25.4272H9.96984L8.25758 16.5233C8.23461 16.4039 8.21612 16.2842 8.19977 16.1644ZM10.536 27.1807H9.13616L9.83607 26.2475H10.536L10.536 27.1807ZM13.7758 25.9533L14.3247 25.1986L14.8908 25.6103L14.9079 26.7767L13.7758 25.9533ZM16.5126 17.777L15.0291 24.6965L14.6655 24.432L15.2999 17.9864C15.312 17.8642 15.2686 17.743 15.1818 17.6562L13.2798 15.7542L14.5656 14.4685L16.2638 16.6762C16.5047 16.9894 16.5954 17.3906 16.5126 17.777ZM14.0612 13.8128L12.6998 15.1742L11.2363 13.7106C11.119 13.5933 10.9425 13.5583 10.7893 13.6217C10.636 13.6852 10.5361 13.8348 10.5361 14.0006V15.344H8.13907C8.1284 14.4022 8.31938 13.4682 8.708 12.5939L9.06955 11.7804H12.4978L14.0612 13.8128ZM8.52309 3.06451C8.57423 2.40009 8.9011 1.77866 9.41994 1.35963C9.94599 0.934808 10.6093 0.751599 11.2874 0.843915C12.4065 0.996169 13.2851 1.96881 13.3765 3.15666L13.5111 4.90595L13.008 5.26099H12.2332V4.78257C12.5975 4.5123 12.8782 4.12947 13.0115 3.69097C13.0593 3.53352 13.0901 3.37318 13.1029 3.21458C13.1394 2.76405 12.934 2.34163 12.5535 2.08459C12.1628 1.82077 11.6602 1.78686 11.2416 1.9961L9.06293 3.08546C8.89202 3.17094 8.80277 3.363 8.84767 3.54873C8.97247 4.06488 9.26736 4.49009 9.65931 4.78049V5.26093H8.88448L8.38145 4.90589L8.52309 3.06451ZM12.2265 3.45248C12.0919 3.89568 11.7133 4.24738 11.262 4.34856C10.7069 4.47303 10.0484 4.24175 9.75442 3.65685L11.6084 2.72987C11.7648 2.65166 11.9465 2.66457 12.0942 2.76443C12.1575 2.80714 12.3029 2.93014 12.2852 3.1484C12.2771 3.24865 12.2574 3.35097 12.2265 3.45248ZM10.4796 5.15336C10.6312 5.18661 10.7879 5.20422 10.9476 5.20422C11.1006 5.20422 11.2564 5.18765 11.4128 5.15467V5.67116C11.4128 5.92847 11.2035 6.13776 10.9462 6.13776C10.6889 6.13776 10.4796 5.92847 10.4796 5.67116V5.15336ZM12.2614 8.76815H9.63104C9.14442 8.76815 8.74622 8.38199 8.72676 7.90007L9.09049 6.08133H9.72664C9.8983 6.59043 10.38 6.9581 10.9462 6.9581C11.5125 6.9581 11.994 6.59037 12.1658 6.08133H12.8019L13.1657 7.90007C13.1462 8.38199 12.748 8.76815 12.2614 8.76815ZM20.9672 1.2951L13.7904 6.84079L13.5927 5.8524L20.6524 0.869126C20.6974 0.837407 20.7502 0.820617 20.8052 0.820617C20.9762 0.820617 21.0375 0.946019 21.0559 0.999943C21.0743 1.05387 21.1025 1.19053 20.9672 1.2951Z" fill="black"/>
</g>
</svg>
