<svg xmlns="http://www.w3.org/2000/svg" width="23" height="23" viewBox="0 0 23 23" fill="none">
  <path d="M11.5 0C5.14894 0 0 5.14894 0 11.5C0 17.8511 5.14894 23 11.5 23C17.8511 23 23 17.8511 23 11.5C23 5.14894 17.8511 0 11.5 0ZM3.534 7.51094C3.57253 7.36341 3.63974 7.22492 3.7318 7.10338C3.82386 6.98184 3.93897 6.87962 4.07054 6.80257C4.20211 6.72552 4.34757 6.67515 4.49862 6.65433C4.64966 6.63351 4.80333 6.64265 4.95084 6.68123L9.59576 7.89412C9.74328 7.9326 9.88177 7.99976 10.0033 8.09177C10.1249 8.18378 10.2271 8.29883 10.3042 8.43036C10.3813 8.56189 10.4317 8.70731 10.4526 8.85833C10.4735 9.00935 10.4644 9.163 10.4259 9.31051C10.3481 9.60847 10.1551 9.86332 9.88942 10.019C9.62371 10.1747 9.30705 10.2184 9.00908 10.1407L4.36416 8.92777C4.0662 8.84996 3.81135 8.65697 3.65567 8.39127C3.49999 8.12557 3.45622 7.80891 3.534 7.51094ZM5.80346 11.7601C5.80346 11.4314 5.90094 11.11 6.08357 10.8367C6.26621 10.5633 6.52579 10.3503 6.8295 10.2245C7.13322 10.0987 7.46741 10.0658 7.78983 10.1299C8.11225 10.1941 8.40841 10.3524 8.64085 10.5848C8.87331 10.8173 9.03161 11.1134 9.09574 11.4358C9.15987 11.7583 9.12696 12.0924 9.00115 12.3962C8.87535 12.6999 8.66232 12.9595 8.38898 13.1421C8.11565 13.3247 7.7943 13.4222 7.46557 13.4222C7.02475 13.4222 6.60198 13.2471 6.29028 12.9354C5.97857 12.6237 5.80346 12.2009 5.80346 11.7601ZM15.9688 18.5469C15.7671 18.6322 15.5061 18.6408 15.229 18.555C14.6284 18.369 14.0349 18.1507 13.4231 18.0159C11.615 17.6193 9.84059 17.7823 8.10705 18.4243C7.90535 18.4993 7.70051 18.5864 7.49027 18.6143C6.85777 18.6974 6.50199 18.21 6.74682 17.626C7.48848 15.8673 9.45336 14.587 11.4434 14.5924C13.6473 14.5924 15.3934 15.7357 16.2729 17.6992C16.4163 18.0195 16.2914 18.4103 15.9688 18.5469ZM15.5344 13.4222C15.2057 13.4222 14.8843 13.3247 14.611 13.1421C14.3377 12.9595 14.1246 12.6999 13.9988 12.3962C13.873 12.0924 13.8401 11.7583 13.9043 11.4358C13.9684 11.1134 14.1267 10.8173 14.3591 10.5848C14.5916 10.3524 14.8878 10.1941 15.2102 10.1299C15.5326 10.0658 15.8668 10.0987 16.1705 10.2245C16.4742 10.3503 16.7338 10.5633 16.9164 10.8367C17.0991 11.11 17.1965 11.4314 17.1965 11.7601C17.1965 11.9784 17.1536 12.1945 17.07 12.3962C16.9865 12.5978 16.8641 12.781 16.7097 12.9354C16.5554 13.0897 16.3722 13.2122 16.1705 13.2957C15.9688 13.3792 15.7527 13.4222 15.5344 13.4222ZM18.634 8.92777L13.9891 10.1407C13.6912 10.2184 13.3745 10.1747 13.1088 10.019C12.8431 9.86332 12.6501 9.60847 12.5723 9.31051C12.5338 9.163 12.5247 9.00935 12.5456 8.85833C12.5665 8.70731 12.6169 8.56189 12.694 8.43036C12.7711 8.29883 12.8733 8.18378 12.9949 8.09177C13.1164 7.99976 13.2549 7.9326 13.4024 7.89412L18.0474 6.68123C18.1949 6.64265 18.3485 6.63351 18.4996 6.65433C18.6506 6.67515 18.7961 6.72552 18.9277 6.80257C19.0592 6.87962 19.1743 6.98184 19.2664 7.10338C19.3585 7.22492 19.4257 7.36341 19.4642 7.51094C19.542 7.80866 19.4985 8.12511 19.3432 8.39077C19.1879 8.65642 18.9335 8.84957 18.6358 8.92777H18.634Z" fill="#656565"/>
</svg>