<svg xmlns="http://www.w3.org/2000/svg" width="23" height="23" viewBox="0 0 23 23" fill="none">
  <path fill-rule="evenodd" clip-rule="evenodd" d="M11.5 0C5.15356 0 0 5.15356 0 11.5C0 17.8472 5.15356 23 11.5 23C17.8472 23 23 17.8472 23 11.5C23 5.15356 17.8472 0 11.5 0ZM11.4096 16.9873L13.0305 15.7164C13.2425 15.5503 13.5404 15.5503 13.7524 15.7164L15.3835 16.995L17.0122 15.718C17.2656 15.5192 17.6336 15.5636 17.8332 15.8178C18.032 16.0719 17.9876 16.4392 17.7334 16.6387L15.7445 18.1981C15.5324 18.3641 15.2346 18.3641 15.0225 18.1981L13.3915 16.9194L11.7705 18.1903C11.5585 18.3563 11.2606 18.3563 11.0486 18.1903L9.43 16.921L7.80129 18.1981C7.59 18.3641 7.29217 18.3641 7.0801 18.1981L5.09041 16.6387C4.83702 16.4392 4.7918 16.0719 4.99139 15.8178C5.1902 15.5636 5.5582 15.5192 5.81237 15.718L7.44108 16.995L9.06902 15.718C9.28108 15.5519 9.57891 15.5519 9.79098 15.718L11.4096 16.9873ZM15.0537 9.98278L16.5834 11.1032C16.8438 11.2934 16.8999 11.6598 16.7097 11.9202C16.5187 12.1806 16.1522 12.2376 15.8918 12.0465L13.7181 10.4545C13.5677 10.3438 13.4788 10.1691 13.4788 9.98278C13.4788 9.79644 13.5677 9.62102 13.7181 9.51108L15.8918 7.91824C16.1522 7.728 16.5187 7.78414 16.7097 8.04454C16.8999 8.30495 16.8438 8.67139 16.5834 8.86163L15.0537 9.98278ZM7.958 9.98278L6.4283 8.86163C6.1679 8.67139 6.11098 8.30495 6.302 8.04454C6.49302 7.78414 6.85868 7.728 7.11908 7.91824L9.29278 9.51108C9.44325 9.62102 9.53214 9.79644 9.53214 9.98278C9.53214 10.1691 9.44325 10.3438 9.29278 10.4545L7.11908 12.0465C6.85868 12.2376 6.49302 12.1806 6.302 11.9202C6.11098 11.6598 6.1679 11.2934 6.4283 11.1032L7.958 9.98278ZM14.4378 5.00854L16.9537 6.46183C17.2336 6.624 17.5915 6.5281 17.7529 6.2482C17.9143 5.96908 17.8184 5.61122 17.5393 5.44983L15.0233 3.99654C14.7434 3.83437 14.3855 3.93027 14.2241 4.21017C14.0627 4.48929 14.1586 4.84715 14.4378 5.00854ZM7.97749 3.99654L5.46153 5.44983C5.18241 5.61122 5.08651 5.96908 5.2479 6.2482C5.40929 6.5281 5.76715 6.624 6.04705 6.46183L8.56224 5.00854C8.84214 4.84715 8.93803 4.48929 8.77664 4.21017C8.61525 3.93027 8.25661 3.83437 7.97749 3.99654Z" fill="#656565"/>
</svg>