<svg width="31" height="29" viewBox="0 0 31 29" fill="none" xmlns="http://www.w3.org/2000/svg">
<rect width="31" height="29" rx="5" fill="#D9D9D9"/>
<path d="M13 9.55033L13 19.4506C13.0003 19.5508 13.0238 19.6491 13.068 19.7348C13.1122 19.8205 13.1754 19.8904 13.2508 19.9369C13.3263 19.9835 13.4111 20.005 13.4962 19.999C13.5812 19.9931 13.6633 19.96 13.7335 19.9033L19.811 14.9531C20.063 14.748 20.063 14.2541 19.811 14.0484L13.7335 9.09822C13.6634 9.04092 13.5813 9.00732 13.4961 9.00107C13.4109 8.99481 13.3259 9.01615 13.2503 9.06275C13.1747 9.10935 13.1114 9.17944 13.0673 9.2654C13.0231 9.35136 12.9999 9.44991 13 9.55033Z" fill="#6D7073"/>
</svg>
