<svg xmlns="http://www.w3.org/2000/svg" width="29" height="22" viewBox="0 0 29 22" fill="pink">
  <path d="M3.62657 4.58333C3.62657 3.36776 4.10407 2.20197 4.95403 1.34243C5.804 0.482886 6.9568 0 8.15883 0H15.4105C16.6125 0 17.7653 0.482886 18.6152 1.34243C19.4652 2.20197 19.9427 3.36776 19.9427 4.58333V13.75C19.9426 14.641 19.6856 15.5126 19.2033 16.2583C18.721 17.0039 18.0342 17.5912 17.227 17.9483C18.0903 16.0442 18.3458 13.9154 17.9579 11.8577C17.57 9.79997 16.558 7.91551 15.0625 6.46607C13.5671 5.01663 11.6623 4.07418 9.6129 3.76963C7.56349 3.46509 5.47116 3.81357 3.62657 4.76667V4.58333ZM25.4467 16.093L21.5743 13.3907C21.5985 13.2196 21.6106 13.0466 21.6106 12.8718V5.46517C21.6106 5.28917 21.5985 5.11622 21.5743 4.94633L25.4467 2.244C25.7867 2.00669 26.1844 1.8679 26.5968 1.84263C27.0092 1.81737 27.4206 1.90659 27.7864 2.10064C28.1523 2.2947 28.4588 2.58621 28.6727 2.94366C28.8865 3.3011 28.9997 3.71087 29 4.12867V14.2083C28.9997 14.6261 28.8865 15.0359 28.6727 15.3933C28.4588 15.7508 28.1523 16.0423 27.7864 16.2364C27.4206 16.4304 27.0092 16.5196 26.5968 16.4944C26.1844 16.4691 25.7867 16.3303 25.4467 16.093ZM8.15883 22C9.94861 21.9998 11.6887 21.4045 13.1109 20.3057C14.5331 19.2068 15.5585 17.6655 16.0291 15.9193C16.4997 14.173 16.3894 12.3187 15.7152 10.6421C15.0409 8.96552 13.8402 7.55965 12.298 6.64118C10.7558 5.7227 8.95769 5.34259 7.1808 5.55941C5.40391 5.77623 3.74684 6.57795 2.46493 7.84103C1.18302 9.10411 0.347425 10.7584 0.0869015 12.5491C-0.173622 14.3398 0.155388 16.1674 1.02323 17.7503L0.0351981 21.0302C-0.00305646 21.16 -0.0058961 21.2979 0.0269796 21.4292C0.0598553 21.5606 0.127224 21.6805 0.221959 21.7763C0.316694 21.8721 0.435273 21.9402 0.565152 21.9735C0.695032 22.0067 0.831382 22.0039 0.95978 21.9652L4.20488 20.9678C5.41503 21.6453 6.77563 22.0005 8.15883 22ZM3.62657 11.9167C3.62657 11.6736 3.72207 11.4404 3.89206 11.2685C4.06205 11.0966 4.29261 11 4.53302 11H11.7846C12.025 11 12.2556 11.0966 12.4256 11.2685C12.5956 11.4404 12.6911 11.6736 12.6911 11.9167C12.6911 12.1598 12.5956 12.3929 12.4256 12.5648C12.2556 12.7368 12.025 12.8333 11.7846 12.8333H4.53302C4.29261 12.8333 4.06205 12.7368 3.89206 12.5648C3.72207 12.3929 3.62657 12.1598 3.62657 11.9167ZM4.53302 16.5C4.29261 16.5 4.06205 16.4034 3.89206 16.2315C3.72207 16.0596 3.62657 15.8264 3.62657 15.5833C3.62657 15.3402 3.72207 15.1071 3.89206 14.9352C4.06205 14.7632 4.29261 14.6667 4.53302 14.6667H8.15883C8.39924 14.6667 8.6298 14.7632 8.79979 14.9352C8.96978 15.1071 9.06528 15.3402 9.06528 15.5833C9.06528 15.8264 8.96978 16.0596 8.79979 16.2315C8.6298 16.4034 8.39924 16.5 8.15883 16.5H4.53302Z" fill="#00C9AA"></path>
</svg>
