<svg xmlns="http://www.w3.org/2000/svg" width="68" height="68" viewBox="0 0 68 68" fill="none">
  <circle cx="34" cy="34" r="34" fill="#C2CBF8"/>
  <path d="M44.0803 44.9045C43.1107 44.5813 41.9794 44.1503 40.7404 43.5039C38.8549 45.0661 35.7844 46.79 35.6228 46.8977C35.515 46.9516 35.4612 46.9516 35.3534 46.9516C35.2457 46.9516 35.1379 46.8977 35.0841 46.8977C34.9763 46.8438 32.1212 45.12 30.2897 43.5578C29.0507 44.2042 27.9194 44.6352 26.9497 44.9584C23.933 45.8742 23.2327 49.9683 23.125 51.4766H47.9051C47.7973 49.9683 47.097 45.8742 44.0803 44.9045Z" fill="black"/>
  <path d="M35.5144 27.9902C33.5751 27.9902 30.2891 28.6905 30.2891 33.4849C30.2891 37.7945 32.8748 42.0502 35.5144 42.0502C38.154 42.0502 40.7398 37.7945 40.7398 33.4849C40.7398 28.6905 37.4537 27.9902 35.5144 27.9902Z" fill="black"/>
  <path d="M32.7678 42.1035C32.3907 42.319 31.9059 42.6422 31.3672 42.9116C32.7678 44.0428 34.7071 45.2818 35.4074 45.7128C36.1616 45.2818 38.2086 44.0967 39.717 42.9116C39.286 42.6422 38.8012 42.3729 38.3164 42.1035C37.5083 42.75 36.5387 43.127 35.569 43.127C34.5455 43.1809 33.5758 42.75 32.7678 42.1035Z" fill="black"/>
  <path d="M35.5136 24.865C35.8907 24.865 36.1601 24.5956 36.1601 24.2185V17.6464C36.1601 17.2693 35.8907 17 35.5136 17C35.1365 17 34.8672 17.2693 34.8672 17.6464V24.2185C34.8672 24.5956 35.1365 24.865 35.5136 24.865Z" fill="black"/>
  <path d="M30.776 25.672C30.8838 25.8875 31.0993 25.9952 31.3686 25.9952C31.4764 25.9952 31.5841 25.9414 31.6918 25.8875C32.015 25.7259 32.1228 25.2949 31.9073 24.9717L28.6213 19.3154C28.5135 19.0999 28.298 18.9922 28.0287 18.9922C27.921 18.9922 27.8132 19.0461 27.7055 19.0999C27.4361 19.2615 27.3284 19.6925 27.49 19.9618L30.776 25.672Z" fill="black"/>
  <path d="M22.2602 25.6726L27.9703 28.9586C28.0781 29.0125 28.1858 29.0664 28.2936 29.0664C28.509 29.0664 28.7245 28.9586 28.8861 28.7432C29.0477 28.42 28.94 28.0429 28.6707 27.8274L22.9605 24.5413C22.8527 24.4875 22.745 24.4336 22.6372 24.4336C22.4218 24.4336 22.2063 24.5413 22.0447 24.7568C21.8831 25.08 21.9908 25.511 22.2602 25.6726Z" fill="black"/>
  <path d="M27.8111 32.5683C27.8111 32.1912 27.5418 31.9219 27.1647 31.9219H20.6464C20.2693 31.9219 20 32.1912 20 32.5683C20 32.9454 20.2693 33.2147 20.6464 33.2147H27.2185C27.5418 33.2147 27.8111 32.8915 27.8111 32.5683Z" fill="black"/>
  <path d="M28.8323 36.3935C28.7245 36.1781 28.509 36.0703 28.2397 36.0703C28.132 36.0703 28.0242 36.1242 27.9165 36.1781L22.2602 39.4102C21.9908 39.6257 21.8831 40.0028 22.0447 40.326C22.1524 40.5415 22.3679 40.6492 22.6372 40.6492C22.745 40.6492 22.8527 40.5954 22.9605 40.5415L28.6168 37.2554C28.94 37.0938 29.0477 36.7167 28.8323 36.3935Z" fill="black"/>
  <path d="M48.7683 39.4102L43.0581 36.1781C42.9504 36.1242 42.8426 36.0703 42.7349 36.0703C42.5194 36.0703 42.3039 36.1781 42.1423 36.3935C41.9807 36.7167 42.0885 37.0938 42.3578 37.3093L48.0141 40.5954C48.1219 40.6492 48.2296 40.7031 48.3374 40.7031C48.5528 40.7031 48.7683 40.5954 48.9299 40.3799C49.1454 40.0028 49.0377 39.6257 48.7683 39.4102Z" fill="black"/>
  <path d="M50.3834 31.8672H43.8652C43.4881 31.8672 43.2188 32.1365 43.2188 32.5136C43.2188 32.8907 43.4881 33.1601 43.8652 33.1601H50.4373C50.8144 33.1601 51.0837 32.8907 51.0837 32.5136C51.0837 32.1365 50.7605 31.8672 50.3834 31.8672Z" fill="black"/>
  <path d="M42.1941 28.6904C42.3019 28.9059 42.5174 29.0137 42.7867 29.0137C42.8944 29.0137 43.0022 28.9598 43.1099 28.9059L48.7662 25.6199C49.0895 25.4583 49.1972 25.0273 48.9817 24.7041C48.874 24.4886 48.6585 24.3809 48.3892 24.3809C48.2814 24.3809 48.1737 24.4347 48.0659 24.4886L42.4096 27.7746C42.0864 27.9901 41.9787 28.3672 42.1941 28.6904Z" fill="black"/>
  <path d="M39.3397 25.8895C39.4474 25.9433 39.5552 25.9972 39.6629 25.9972C39.8784 25.9972 40.0939 25.8895 40.2555 25.674L43.5415 20.0177C43.7031 19.6944 43.5954 19.2635 43.2722 19.1019C43.1644 19.048 43.0567 18.9941 42.949 18.9941C42.7335 18.9941 42.518 19.1019 42.3564 19.3174L39.0703 24.9737C38.9087 25.2969 39.0165 25.7279 39.3397 25.8895Z" fill="black"/>
</svg>