<svg width="26" height="26" viewBox="0 0 26 26" fill="none" xmlns="http://www.w3.org/2000/svg">
<path d="M13 25C6.37258 25 1 19.6274 1 13C1 6.37258 6.37258 1 13 1C19.6274 1 25 6.37258 25 13C25 19.6274 19.6274 25 13 25Z" fill="white" stroke="#262525" stroke-linecap="round" stroke-linejoin="round"/>
<path d="M7.46124 18.2307L12.8459 15.1538L18.2305 18.2307" stroke="#262525" stroke-linecap="round" stroke-linejoin="round"/>
<path d="M20.3848 11.1538L17.3078 13L20.3848 14.8461" stroke="#262525" stroke-linecap="round" stroke-linejoin="round"/>
<path d="M5.30784 11.1538L8.38477 13L5.30784 14.8461" stroke="#262525" stroke-linecap="round" stroke-linejoin="round"/>
<path d="M9 11.4613L8.69928 11.4037C7.91169 11.2528 7.19043 10.8749 6.63126 10.3203L6.23077 9.92285" stroke="#262525" stroke-linecap="round" stroke-linejoin="round"/>
<path d="M16.6927 11.4613L16.9936 11.4037C17.7816 11.2528 18.5032 10.8749 19.0626 10.3203L19.4619 9.92285" stroke="#262525" stroke-linecap="round" stroke-linejoin="round"/>
</svg>
