<svg xmlns="http://www.w3.org/2000/svg" width="82" height="81" viewBox="0 0 82 81" fill="none">
  <path d="M41 79.5C19.4609 79.5 2 62.0391 2 40.5C2 18.9609 19.4609 1.5 41 1.5C62.5391 1.5 80 18.9609 80 40.5C80 62.0391 62.5391 79.5 41 79.5Z" fill="white" stroke="#262525" stroke-width="3" stroke-linecap="round" stroke-linejoin="round"/>
  <path d="M23 57.5L40.5 47.5L58 57.5" stroke="#262525" stroke-width="3" stroke-linecap="round" stroke-linejoin="round"/>
  <path d="M65 34.5L55 40.5L65 46.5" stroke="#262525" stroke-width="3" stroke-linecap="round" stroke-linejoin="round"/>
  <path d="M16 34.5L26 40.5L16 46.5" stroke="#262525" stroke-width="3" stroke-linecap="round" stroke-linejoin="round"/>
  <path d="M28 35.5L27.0226 35.3128C24.463 34.8223 22.1189 33.5942 20.3016 31.7917L19 30.5" stroke="#262525" stroke-width="3" stroke-linecap="round" stroke-linejoin="round"/>
  <path d="M53 35.5L53.9779 35.3128C56.5388 34.8223 58.8841 33.5942 60.7024 31.7917L62 30.5" stroke="#262525" stroke-width="3" stroke-linecap="round" stroke-linejoin="round"/>
</svg>