<svg xmlns="http://www.w3.org/2000/svg" width="29" height="23" viewBox="0 0 29 23" fill="none">
  <path d="M12 0C5.65871 0 0.5 5.15871 0.5 11.5C0.5 17.8413 5.65871 23 12 23C18.3413 23 23.5 17.8413 23.5 11.5C23.5 5.15871 18.3413 0 12 0ZM12 21.0833C6.71575 21.0833 2.41667 16.7843 2.41667 11.5C2.41667 6.21575 6.71575 1.91667 12 1.91667C17.2843 1.91667 21.5833 6.21575 21.5833 11.5C21.5833 16.7843 17.2843 21.0833 12 21.0833ZM5.64529 8.94508L4.93613 7.16546C6.07463 6.71121 7.10867 5.84967 7.8485 4.73992L9.44317 5.80271C8.47525 7.25362 7.16233 8.34037 5.64529 8.94508ZM14.5568 5.80271L16.1515 4.73992C16.8913 5.84967 17.9263 6.71217 19.0639 7.16546L18.3547 8.94508C16.8377 8.34037 15.5247 7.25267 14.5568 5.80271ZM9.125 16.2917H14.875V18.2083H9.125V16.2917ZM11.0091 13.1522C10.1485 14.0214 9.11637 14.3951 8.11587 14.3951C7.00421 14.3951 5.92992 13.9351 5.17092 13.1828L6.51833 11.8201C7.14988 12.4449 8.50496 12.9567 9.64633 11.8038L11.0091 13.1512V13.1522ZM17.5555 11.8038L18.9029 13.1665C18.1918 13.869 17.2143 14.3089 16.2215 14.376C16.1352 14.3817 16.048 14.3846 15.9618 14.3846C14.8923 14.3846 13.8735 13.9457 13.0705 13.133L14.4351 11.7856C14.9181 12.2753 15.4711 12.4986 16.094 12.4631C16.6268 12.4277 17.1721 12.1814 17.5535 11.8038H17.5555Z" fill="#656565"/>
  <path d="M25.9968 4.66667H27.3333C27.9777 4.66667 28.5 5.189 28.5 5.83333C28.5 6.47767 27.9777 7 27.3333 7H24.0698C23.2028 7 22.5 6.29718 22.5 5.43021C22.5 5.00622 22.6715 4.60025 22.9755 4.30469L25.0032 2.33333H23.6667C23.0223 2.33333 22.5 1.811 22.5 1.16667C22.5 0.522334 23.0223 0 23.6667 0H26.9302C27.7972 0 28.5 0.702817 28.5 1.56979C28.5 1.99378 28.3285 2.39975 28.0245 2.69531L25.9968 4.66667Z" fill="#656565"/>
</svg>