<svg xmlns="http://www.w3.org/2000/svg" width="27" height="24" viewBox="0 0 27 24" fill="none">
  <path d="M20.4386 9.02481L23.4452 7.28892C22.4004 5.48624 20.896 3.98182 19.0933 2.93701L17.3574 5.94367C18.6337 6.68338 19.6988 7.74851 20.4386 9.02481Z" fill="#EF510B"/>
  <path d="M25.0407 13.2334C25.0407 11.0693 24.4594 9.03855 23.4451 7.28857L20.4385 9.02447C21.1566 10.2635 21.5682 11.7012 21.5682 13.2334H25.0407Z" fill="#EF510B"/>
  <path d="M13.1484 4.81389C14.6806 4.81389 16.1184 5.22548 17.3574 5.94358L19.0933 2.93692C17.3433 1.92265 15.3125 1.34131 13.1485 1.34131L13.1484 4.81389Z" fill="#FA9600"/>
  <path d="M8.93935 5.94366L7.20347 2.93701C5.40079 3.98183 3.89638 5.48624 2.85156 7.28892L5.85821 9.02481C6.59793 7.74851 7.66306 6.68338 8.93935 5.94366Z" fill="#9CCC65"/>
  <path d="M13.1484 4.81387V1.34131C10.9843 1.34131 8.95358 1.92266 7.20361 2.93692L8.93951 5.94356C10.1785 5.22547 11.6162 4.81387 13.1484 4.81387Z" fill="#FA9600"/>
  <path d="M4.72842 13.2334C4.72842 11.7012 5.14002 10.2635 5.85812 9.02447L2.85147 7.28857C1.8372 9.03855 1.25586 11.0693 1.25586 13.2334H4.72842Z" fill="#9CCC65"/>
  <path d="M2.96338 16.0571C3.45035 15.9861 4.42423 15.915 5.36165 15.915C6.49381 15.915 7.18774 16.0063 7.79645 16.3005C8.36863 16.5542 8.77032 17.0208 8.77032 17.6497C8.77032 18.2483 8.3443 18.8062 7.41901 19.1004V19.1207C8.35641 19.3236 9.05034 19.9221 9.05034 20.7946C9.05034 21.4236 8.70945 21.9105 8.19814 22.2554C7.60162 22.651 6.60341 22.8742 4.97208 22.8742C4.05907 22.8742 3.37728 22.8235 2.96338 22.7728V16.0571ZM4.80166 18.6744H5.41038C6.39646 18.6744 6.90777 18.3396 6.90777 17.8324C6.90777 17.315 6.43293 17.0411 5.59293 17.0411C5.17903 17.0411 4.94774 17.0614 4.80166 17.0817V18.6744ZM4.80166 21.7076C4.98428 21.7279 5.20335 21.7279 5.51992 21.7279C6.35992 21.7279 7.10252 21.454 7.10252 20.7337C7.10252 20.054 6.35992 19.7801 5.43471 19.7801H4.80166V21.7076Z" fill="#8E8E99"/>
  <path d="M17.7424 20.1865C17.7059 19.3648 17.6693 18.3706 17.6693 17.3764H17.645C17.3772 18.2489 17.0363 19.2227 16.7198 20.0241L15.7215 22.6922H14.2728L13.3963 20.0546C13.1285 19.243 12.8607 18.2691 12.6536 17.3764H12.6293C12.5928 18.2996 12.5441 19.3546 12.4954 20.2068L12.3372 22.8038H10.6206L11.1441 15.9663H13.6154L14.4189 18.2489C14.6867 19.0401 14.9302 19.8923 15.1128 20.6937H15.1615C15.3806 19.9024 15.6606 18.9996 15.9407 18.2387L16.805 15.9663H19.2398L19.678 22.8038H17.8763L17.7424 20.1865Z" fill="#8E8E99"/>
  <path d="M23.4515 15.9663V22.8038H21.6011V15.9663H23.4515Z" fill="#8E8E99"/>
  <path d="M19.5907 6.84766L16.4347 8.06244L12.814 12.5182L13.3671 13.0713L13.9202 13.6244L18.376 10.0037L19.5907 6.84766Z" fill="#8E8E99"/>
  <path d="M14.2818 12.2577C13.6931 11.6654 12.7323 11.6624 12.14 12.2512C11.5477 12.8399 11.5448 13.8007 12.1335 14.393C12.7222 14.9853 13.683 14.9882 14.2753 14.3995C14.8676 13.8108 14.8706 12.85 14.2818 12.2577Z" fill="#5F5F68"/>
  <path d="M0.328125 13.869V13.2468C0.328125 6.14494 6.1059 0.367188 13.2078 0.367188C20.3096 0.367188 26.0874 6.14494 26.0874 13.2468V13.869H24.5149V13.2468C24.5149 7.01201 19.4425 1.93964 13.2077 1.93964C6.97296 1.93964 1.90056 7.01201 1.90056 13.2468V13.869H0.328125Z" fill="#8E8E99"/>
  <path d="M8.25916 19.0718C8.80057 18.7208 9.09881 18.2263 9.09881 17.6496C9.09881 16.9325 8.67466 16.3325 7.93477 16.0027C7.30527 15.6997 6.60708 15.5869 5.36205 15.5869C4.41123 15.5869 3.41204 15.6601 2.91644 15.7324C2.75523 15.7559 2.63574 15.8941 2.63574 16.057V22.7727C2.63574 22.9384 2.75934 23.0781 2.92387 23.0983C3.24038 23.1371 3.92736 23.2022 4.97248 23.2022C6.60438 23.2022 7.68712 22.9882 8.38197 22.5272C9.03409 22.0874 9.37879 21.4882 9.37879 20.7945C9.37881 20.0551 8.96491 19.4379 8.25916 19.0718ZM8.01723 21.9819C7.44488 22.3615 6.44896 22.5461 4.9725 22.5461C4.21153 22.5461 3.65102 22.5109 3.29184 22.4777V16.3467C3.80858 16.291 4.59889 16.243 5.36205 16.243C6.50072 16.243 7.12195 16.3386 7.65413 16.5958C7.6574 16.5974 7.66066 16.5989 7.66393 16.6003C7.95482 16.7293 8.44272 17.037 8.44272 17.6497C8.44272 18.1461 8.0335 18.5609 7.32 18.7877C7.18384 18.831 7.09139 18.9575 7.09139 19.1004V19.1206C7.09139 19.2751 7.1991 19.4086 7.35005 19.4413C8.20956 19.6273 8.72271 20.1332 8.72271 20.7945C8.72272 21.2666 8.48463 21.6666 8.01723 21.9819Z" fill="black"/>
  <path d="M5.43477 19.4526H4.80168C4.62049 19.4526 4.47363 19.5995 4.47363 19.7807V21.7081C4.47363 21.8753 4.59928 22.0157 4.76541 22.0342C4.96615 22.0565 5.19847 22.0565 5.51998 22.0565C6.71632 22.0565 7.43058 21.5622 7.43058 20.7343C7.43059 19.9317 6.68448 19.4526 5.43477 19.4526ZM5.51999 21.4004C5.37051 21.4004 5.24172 21.4004 5.12973 21.3982V20.1087H5.43478C5.8376 20.1087 6.77452 20.1697 6.77452 20.7343C6.7745 21.3355 5.89717 21.4004 5.51999 21.4004Z" fill="black"/>
  <path d="M4.80168 19.0028H5.41042C7.10421 19.0028 7.23588 18.1072 7.23588 17.8327C7.23588 17.4962 7.07577 16.7134 5.59296 16.7134C5.24205 16.7134 4.96846 16.7277 4.75657 16.7571C4.59441 16.7796 4.47363 16.9183 4.47363 17.082V18.6747C4.47363 18.8559 4.62049 19.0028 4.80168 19.0028ZM5.12972 17.3808C5.26242 17.3732 5.41605 17.3695 5.59296 17.3695C6.04312 17.3695 6.57979 17.4498 6.57979 17.8327C6.57979 18.2117 5.97572 18.3467 5.41042 18.3467H5.12972V17.3808Z" fill="black"/>
  <path d="M19.2397 15.6382H16.8049C16.6688 15.6382 16.5467 15.7223 16.4983 15.8496L15.6327 18.1254C15.4772 18.5478 15.3155 19.03 15.1583 19.5378C15.029 19.0717 14.8842 18.6005 14.7283 18.1399L13.9247 15.8573C13.8785 15.726 13.7545 15.6382 13.6153 15.6382H11.144C10.9726 15.6382 10.83 15.7702 10.817 15.9412L10.2934 22.7787C10.2865 22.8698 10.3178 22.9597 10.3799 23.0267C10.442 23.0937 10.5292 23.1318 10.6205 23.1318H12.3371C12.5105 23.1318 12.654 22.9968 12.6645 22.8237L12.8229 20.2254C12.8365 19.9871 12.8504 19.7275 12.8643 19.4537C12.9377 19.6995 13.0117 19.9361 13.0849 20.158L13.9614 22.7956C14.006 22.9297 14.1314 23.0202 14.2727 23.0202H15.7215C15.8583 23.0202 15.9808 22.9353 16.0287 22.8071L17.0249 20.1446C17.141 19.8506 17.2591 19.5369 17.3754 19.215C17.3875 19.5719 17.4015 19.9048 17.4146 20.201C17.4147 20.2017 17.4147 20.2024 17.4147 20.2031L17.5486 22.8205C17.5575 22.9949 17.7016 23.1318 17.8762 23.1318H19.678C19.7686 23.1318 19.8553 23.0943 19.9172 23.0281C19.9792 22.9621 20.0111 22.8732 20.0054 22.7828L19.5671 15.9453C19.556 15.7726 19.4128 15.6382 19.2397 15.6382ZM18.1879 22.4757L18.07 20.1706C18.0361 19.409 17.9973 18.4034 17.9973 17.3764C17.9973 17.1952 17.8504 17.0483 17.6693 17.0483H17.6449C17.5008 17.0483 17.3736 17.1423 17.3313 17.2801C17.0666 18.1422 16.7325 19.0985 16.4125 19.9091L15.4939 22.3641H14.5094L13.7077 19.9517C13.4507 19.173 13.183 18.2073 12.9731 17.3023C12.9387 17.1536 12.8062 17.0483 12.6536 17.0483H12.6292C12.4531 17.0483 12.3084 17.1874 12.3014 17.3634C12.2618 18.3662 12.2131 19.3958 12.1679 20.1867L12.0284 22.4757H10.9747L11.4479 16.2943H13.383L14.1081 18.354C14.3784 19.1524 14.6152 19.9867 14.7929 20.7665C14.8269 20.9157 14.9596 21.0217 15.1127 21.0217H15.1615C15.3089 21.0217 15.4382 20.9232 15.4776 20.7811C15.7153 19.9226 15.9962 19.0371 16.2471 18.3553L17.0311 16.2942H18.9321L19.3282 22.4757L18.1879 22.4757Z" fill="black"/>
  <path d="M23.4514 15.6382H21.601C21.4198 15.6382 21.2729 15.7851 21.2729 15.9662V22.8037C21.2729 22.9849 21.4198 23.1318 21.601 23.1318H23.4514C23.6326 23.1318 23.7794 22.9849 23.7794 22.8037V15.9662C23.7794 15.7851 23.6326 15.6382 23.4514 15.6382ZM23.1233 22.4757H21.929V16.2943H23.1233V22.4757Z" fill="black"/>
  <path d="M13.2077 0C5.92492 0 0 5.92492 0 13.2077V13.8299C0 14.0111 0.146857 14.1579 0.328045 14.1579H1.90048C2.08167 14.1579 2.22852 14.0111 2.22852 13.8299V13.5619H4.69467C4.69467 13.5619 4.73159 13.0147 4.73579 12.9058H2.23284C2.25323 12.1545 2.34942 11.4218 2.5141 10.7151L3.55715 10.9946C3.60742 10.7808 3.6647 10.5696 3.72862 10.3613L2.68281 10.0811C2.89377 9.37221 3.17437 8.69313 3.51696 8.05182L5.69985 9.31211C5.80229 9.11831 5.91194 8.92892 6.02872 8.7444L3.84303 7.48249C4.23591 6.84223 4.69273 6.24537 5.20427 5.70035L5.98534 6.48142C6.13513 6.322 6.29018 6.16763 6.45012 6.01836L5.66703 5.23529C6.19287 4.73767 6.76787 4.29169 7.38366 3.9048L8.65912 6.11398C8.84364 5.99722 9.03304 5.88757 9.22684 5.78512L7.94917 3.57212C8.60915 3.2105 9.31025 2.91514 10.0433 2.6941L10.3333 3.77641C10.5418 3.71311 10.753 3.65598 10.967 3.60635L10.6769 2.52348C11.3686 2.35963 12.0855 2.26172 12.8205 2.23612V4.82107C12.9294 4.81688 13.3677 4.81688 13.4766 4.82107V2.23197C14.254 2.25076 15.0114 2.35112 15.741 2.52411L15.4509 3.60698C15.6649 3.65668 15.8761 3.71382 16.0845 3.77717L16.3746 2.69486C17.0735 2.9058 17.7432 3.18448 18.376 3.52359L17.0703 5.78513C17.2641 5.88757 17.4535 5.99722 17.638 6.114L18.9448 3.85054C19.594 4.25008 20.1988 4.71512 20.7497 5.23662L19.9666 6.0197C20.1265 6.16899 20.2815 6.32339 20.4313 6.48285L21.2123 5.70179C21.7099 6.23211 22.1555 6.81168 22.5409 7.43238L20.2684 8.74443C20.3852 8.92894 20.4948 9.11834 20.5973 9.31214L22.8707 7.99956C23.2261 8.65636 23.516 9.35346 23.7327 10.0818L22.6869 10.362C22.7508 10.5703 22.8081 10.7815 22.8583 10.9953L23.9014 10.7158C24.0659 11.4223 24.1621 12.1548 24.1825 12.9058H21.5613C21.5655 13.0147 21.5692 13.5619 21.5692 13.5619H24.1868V13.8299C24.1868 14.0111 24.3336 14.1579 24.5148 14.1579H26.0873C26.2685 14.1579 26.4154 14.0111 26.4154 13.8299V13.2077C26.4154 5.92492 20.4904 0 13.2077 0ZM25.7593 13.5018H24.8429V13.2077C24.8429 6.79201 19.6233 1.57247 13.2076 1.57247C6.79199 1.57247 1.57242 6.792 1.57242 13.2077V13.5018H0.65609V13.2077C0.65609 6.2867 6.28668 0.65609 13.2077 0.65609C20.1286 0.65609 25.7593 6.2867 25.7593 13.2077L25.7593 13.5018Z" fill="black"/>
  <path d="M18.6816 10.1215L19.8964 6.96542C19.943 6.84442 19.9139 6.70731 19.8222 6.61562C19.7305 6.52393 19.5934 6.49487 19.4724 6.54142L16.3163 7.75617C16.2628 7.77678 16.2157 7.81099 16.1795 7.85546L13.2313 11.4837C12.7534 11.4776 12.2736 11.6554 11.9087 12.018C11.5601 12.3646 11.3672 12.8267 11.3657 13.3193C11.3643 13.8119 11.5542 14.2752 11.9008 14.6239C12.2472 14.9725 12.7094 15.1653 13.202 15.1668H13.2078C13.6982 15.1668 14.1593 14.9769 14.5065 14.6318C14.9161 14.2247 15.0937 13.6713 15.0395 13.1371L18.5823 10.2582C18.6268 10.2221 18.661 10.1749 18.6816 10.1215ZM14.044 14.1664C13.8206 14.3885 13.5237 14.5107 13.2077 14.5107C13.2064 14.5107 13.2052 14.5107 13.204 14.5107C12.8866 14.5097 12.589 14.3856 12.3661 14.1613C12.1431 13.937 12.0209 13.6387 12.0218 13.3213C12.0228 13.0039 12.1469 12.7063 12.3711 12.4834C12.6022 12.2537 12.9049 12.139 13.2075 12.139C13.5126 12.139 13.8176 12.2556 14.0492 12.4885C14.5103 12.9525 14.508 13.7052 14.044 14.1664ZM14.8338 12.4589C14.7511 12.3034 14.6449 12.1572 14.5145 12.026C14.3473 11.8578 14.1553 11.7293 13.9503 11.6392L16.6336 8.33709L19.0188 7.41904L18.1007 9.80419L14.8338 12.4589Z" fill="black"/>
</svg>