<svg xmlns="http://www.w3.org/2000/svg" width="24" height="24" viewBox="0 0 24 24" fill="none">
  <g clip-path="url(#clip0_302_3140)">
    <path d="M20.4853 3.51471C18.2187 1.2482 15.2053 0 12 0C8.79473 0 5.78122 1.2482 3.51471 3.51471C1.2482 5.78122 0 8.79468 0 12C0 15.2053 1.2482 18.2188 3.51471 20.4853C5.78122 22.7518 8.79468 24 12 24C15.2053 24 18.2188 22.7518 20.4853 20.4853C22.7518 18.2188 24 15.2053 24 12C24 8.79468 22.7518 5.78122 20.4853 3.51471ZM3.97275 7.93884C4.63789 7.8989 5.28344 7.73488 5.89148 7.45136C6.49943 7.1679 7.04002 6.77882 7.4982 6.2949L8.51937 7.26184C7.93898 7.87481 7.25476 8.36739 6.48579 8.72596C5.71677 9.08457 4.8996 9.29204 4.05708 9.34267L3.97275 7.93884ZM5.15565 11.2815H6.56196C6.56196 11.8243 7.00355 12.2659 7.54638 12.2659C8.08922 12.2659 8.53081 11.8243 8.53081 11.2815H9.93712C9.93712 12.5997 8.86467 13.6722 7.54638 13.6722C6.2281 13.6722 5.15565 12.5997 5.15565 11.2815ZM14.7663 18.4929H9.23373V17.0866H14.7663V18.4929ZM16.4536 13.6722C15.1354 13.6722 14.0629 12.5997 14.0629 11.2815H15.4692C15.4692 11.8243 15.9108 12.2659 16.4536 12.2659C16.9964 12.2659 17.438 11.8243 17.438 11.2815H18.8444C18.8444 12.5997 17.7718 13.6722 16.4536 13.6722ZM19.9429 9.34263C19.1003 9.292 18.2832 9.08452 17.5142 8.72591C16.7452 8.36739 16.061 7.87476 15.4806 7.26184L16.5017 6.2949C16.9599 6.77882 17.5006 7.1679 18.1085 7.45136C18.7165 7.73488 19.362 7.8989 20.0272 7.93884L19.9429 9.34263Z" fill="#656565"/>
  </g>
  <defs>
    <clipPath id="clip0_302_3140">
      <rect width="24" height="24" fill="white"/>
    </clipPath>
  </defs>
</svg>