<svg xmlns="http://www.w3.org/2000/svg" width="32" height="26" viewBox="0 0 32 26" fill="none">
  <path d="M30.7737 12.2354C28.6729 8.77573 27.5625 4.8949 27.5625 1.0125V0H4.43745V1.0125C4.43745 4.8949 3.32701 8.77566 1.22631 12.2353C0.413931 13.5731 -0.0100082 15.1117 0.000179375 16.6847C0.029992 21.2935 3.80376 25.0703 8.41253 25.1039L8.4754 25.1041C11.7319 25.1041 14.5831 23.2564 16 20.5318C17.4169 23.2564 20.2681 25.104 23.5246 25.1041L23.5875 25.1039C28.1962 25.0704 31.9699 21.2935 31.9998 16.6847C32.01 15.1117 31.586 13.5731 30.7737 12.2354Z" fill="#FFDECF"/>
  <path d="M30.7737 12.2354C28.6729 8.77573 27.5625 4.8949 27.5625 1.0125V0H16V20.5318C17.4169 23.2564 20.2681 25.104 23.5246 25.104L23.5875 25.1038C28.1962 25.0703 31.9699 21.2935 31.9998 16.6846C32.01 15.1117 31.586 13.5731 30.7737 12.2354Z" fill="#FFBEAA"/>
  <path d="M24.9522 18.3227C25.9684 18.3227 26.7922 17.4989 26.7922 16.4828C26.7922 15.4666 25.9684 14.6428 24.9522 14.6428C23.9361 14.6428 23.1123 15.4666 23.1123 16.4828C23.1123 17.4989 23.9361 18.3227 24.9522 18.3227Z" fill="#FFA099"/>
  <path d="M24.9522 18.3227C25.9684 18.3227 26.7922 17.4989 26.7922 16.4828C26.7922 15.4666 25.9684 14.6428 24.9522 14.6428C23.9361 14.6428 23.1123 15.4666 23.1123 16.4828C23.1123 17.4989 23.9361 18.3227 24.9522 18.3227Z" fill="#FF7B81"/>
  <path d="M24.9522 19.2602C23.4207 19.2602 22.1748 18.0143 22.1748 16.4828C22.1748 14.9513 23.4208 13.7053 24.9522 13.7053C26.4837 13.7053 27.7297 14.9513 27.7297 16.4828C27.7297 18.0143 26.4837 19.2602 24.9522 19.2602ZM24.9522 15.5803C24.4546 15.5803 24.0498 15.9851 24.0498 16.4828C24.0498 16.9804 24.4547 17.3852 24.9522 17.3852C25.4498 17.3852 25.8547 16.9804 25.8547 16.4828C25.8547 15.9851 25.4499 15.5803 24.9522 15.5803Z" fill="#FFBEAA"/>
  <path d="M24.9522 19.2602C23.4207 19.2602 22.1748 18.0143 22.1748 16.4828C22.1748 14.9513 23.4208 13.7053 24.9522 13.7053C26.4837 13.7053 27.7297 14.9513 27.7297 16.4828C27.7297 18.0143 26.4837 19.2602 24.9522 19.2602ZM24.9522 15.5803C24.4546 15.5803 24.0498 15.9851 24.0498 16.4828C24.0498 16.9804 24.4547 17.3852 24.9522 17.3852C25.4498 17.3852 25.8547 16.9804 25.8547 16.4828C25.8547 15.9851 25.4499 15.5803 24.9522 15.5803Z" fill="#FFA099"/>
  <path d="M7.04795 18.3227C8.06412 18.3227 8.88788 17.4989 8.88788 16.4828C8.88788 15.4666 8.06412 14.6428 7.04795 14.6428C6.03178 14.6428 5.20801 15.4666 5.20801 16.4828C5.20801 17.4989 6.03178 18.3227 7.04795 18.3227Z" fill="#FFA099"/>
  <path d="M7.04795 19.2602C5.51645 19.2602 4.27051 18.0143 4.27051 16.4828C4.27051 14.9513 5.51645 13.7053 7.04795 13.7053C8.57945 13.7053 9.82538 14.9513 9.82538 16.4828C9.82538 18.0143 8.57945 19.2602 7.04795 19.2602ZM7.04795 15.5803C6.55032 15.5803 6.14551 15.9851 6.14551 16.4828C6.14551 16.9804 6.55032 17.3852 7.04795 17.3852C7.54557 17.3852 7.95038 16.9804 7.95038 16.4828C7.95038 15.9851 7.54557 15.5803 7.04795 15.5803Z" fill="#FFBEAA"/>
  <path d="M16.9395 10.5801L15.1607 9.98705L15.7576 8.19649H13.6406L15.0601 3.93799L16.8389 4.53099L16.2421 6.32149H18.359L16.9395 10.5801Z" fill="#FFF17D"/>
  <path d="M7.66504 8.06445L9.20066 6.9882L11.0901 9.68415L9.5545 10.7604L7.66504 8.06445Z" fill="#FFF17D"/>
  <path d="M20.9209 9.69897L22.8104 7.00303L24.346 8.07928L22.4565 10.7752L20.9209 9.69897Z" fill="#FFF17D"/>
  <path d="M20.9209 9.69897L22.8104 7.00303L24.346 8.07928L22.4565 10.7752L20.9209 9.69897Z" fill="#FFE278"/>
  <path d="M18.3592 6.32147H16.2423L16.8391 4.53097L16 4.25122V10.2668L16.9397 10.58L18.3592 6.32147Z" fill="#FFE278"/>
</svg>