<svg width="9" height="12" viewBox="0 0 9 12" fill="none" xmlns="http://www.w3.org/2000/svg">
<path d="M2.38832 0.558266L1.85978 0.706808C1.38917 0.839209 0.96889 1.09427 0.648414 1.44198C0.327939 1.78969 0.120604 2.21557 0.0508121 2.66949C-0.168122 4.09164 0.321347 5.75449 1.50153 7.66147C2.67876 9.56363 3.97467 10.7891 5.40106 11.3255C5.85936 11.4978 6.36107 11.5437 6.84653 11.4578C7.332 11.3718 7.7808 11.1577 8.13957 10.8407L8.53911 10.4872C8.79855 10.2581 8.96001 9.94899 8.9935 9.61722C9.02699 9.28544 8.93023 8.9536 8.72118 8.68338L7.72161 7.39052C7.58647 7.21597 7.39617 7.08526 7.17739 7.01669C6.95861 6.94812 6.72231 6.94514 6.50162 7.00816L4.98972 7.43934L4.95066 7.44622C4.78406 7.46891 4.39927 7.13263 3.92012 6.35829C3.41886 5.54818 3.31565 5.07436 3.4535 4.95195L4.22235 4.28282C4.50323 4.03814 4.69509 3.71767 4.77109 3.36625C4.84709 3.01482 4.80343 2.65002 4.64621 2.32289L4.15822 1.31129C4.01148 1.00688 3.75109 0.762634 3.42558 0.624087C3.10008 0.48554 2.73094 0.462146 2.38832 0.558266ZM3.48741 1.59325L3.97393 2.60485C4.06835 2.80106 4.09466 3.01989 4.0492 3.23075C4.00373 3.4416 3.88875 3.63392 3.72035 3.7808L2.94929 4.45062C2.4554 4.88662 2.61905 5.6307 3.28248 6.70213C3.90611 7.71029 4.47519 8.20818 5.08703 8.12154L5.17844 8.10366L6.71761 7.66559C6.79118 7.64451 6.86998 7.64544 6.94296 7.66826C7.01593 7.69108 7.07942 7.73463 7.12451 7.79282L8.12409 9.08568C8.22876 9.22078 8.27727 9.38675 8.26059 9.55271C8.24391 9.71868 8.16318 9.87334 8.03342 9.98794L7.63315 10.3414C7.37687 10.5677 7.05636 10.7206 6.70968 10.7819C6.36301 10.8432 6.00476 10.8104 5.67749 10.6873C4.4258 10.2169 3.24268 9.09806 2.14064 7.31762C1.03565 5.53305 0.588196 4.01531 0.780592 2.76714C0.830395 2.44285 0.978482 2.13858 1.20742 1.89016C1.43635 1.64174 1.7366 1.45951 2.07282 1.36493L2.60136 1.21639C2.77271 1.16835 2.95695 1.1801 3.1197 1.24944C3.28246 1.31878 3.41263 1.44098 3.48594 1.59325" fill="black"/>
</svg>
