<svg xmlns="http://www.w3.org/2000/svg" width="25" height="25" viewBox="0 0 25 25" fill="none">
  <path d="M12.5023 25.0044C19.407 25.0044 25.0045 19.407 25.0045 12.5023C25.0045 5.59747 19.407 0 12.5023 0C5.59747 0 0 5.59747 0 12.5023C0 19.407 5.59747 25.0044 12.5023 25.0044Z" fill="#FF9800"/>
  <path d="M11.1624 6.47363C11.1624 6.47363 6.92041 11.945 6.92041 14.2878C6.92041 16.6306 8.81964 18.5299 11.1624 18.5299H14.9578C16.6841 18.5299 18.0836 17.1396 18.0836 15.4042C18.0836 13.6688 14.9578 9.61586 14.9578 9.61586C14.9578 9.61586 14.5548 10.2315 14.0649 10.9389C12.8197 8.7504 11.1624 6.47363 11.1624 6.47363ZM11.5708 10.1596C11.5708 10.1596 12.5988 11.5511 13.3708 12.8885C13.6746 12.4562 13.9237 12.0801 13.9237 12.0801C13.9237 12.0801 15.8625 14.5568 15.8625 15.6173C15.8625 16.6779 14.994 17.5273 13.9237 17.5273H11.5708C10.1182 17.5273 8.9413 16.3671 8.9413 14.9353C8.9413 13.5036 11.5708 10.1596 11.5708 10.1596Z" fill="white"/>
</svg>