<svg width="41" height="41" viewBox="0 0 41 41" fill="none" xmlns="http://www.w3.org/2000/svg">
<rect x="0.5" y="0.899902" width="40" height="39.2" rx="19.6" fill="white"/>
<path d="M20.5004 21.3903C21.0593 21.3903 21.6057 21.2285 22.0704 20.9254C22.5352 20.6223 22.8974 20.1914 23.1113 19.6873C23.3252 19.1832 23.3812 18.6285 23.2721 18.0934C23.1631 17.5582 22.8939 17.0666 22.4987 16.6808C22.1035 16.295 21.5999 16.0323 21.0517 15.9258C20.5035 15.8194 19.9353 15.874 19.4189 16.0828C18.9025 16.2916 18.4611 16.6452 18.1506 17.0989C17.8401 17.5526 17.6743 18.0859 17.6743 18.6316C17.6743 19.3632 17.9721 20.0649 18.502 20.5823C19.032 21.0997 19.7509 21.3903 20.5004 21.3903ZM20.5004 16.7924C20.873 16.7924 21.2373 16.9003 21.5471 17.1024C21.8569 17.3044 22.0984 17.5917 22.241 17.9277C22.3836 18.2638 22.4209 18.6336 22.3482 18.9904C22.2755 19.3471 22.0961 19.6749 21.8326 19.9321C21.5691 20.1893 21.2334 20.3644 20.8679 20.4354C20.5025 20.5064 20.1236 20.47 19.7794 20.3307C19.4351 20.1915 19.1409 19.9558 18.9339 19.6534C18.7268 19.3509 18.6163 18.9953 18.6163 18.6316C18.6163 18.1438 18.8148 17.676 19.1682 17.3311C19.5215 16.9862 20.0007 16.7924 20.5004 16.7924Z" fill="#252B61"/>
<path d="M30.6236 30.1896C30.7457 30.1896 30.8627 30.1412 30.949 30.0549C31.0353 29.9686 31.0838 29.8515 31.0838 29.7295V25.8182L33.9368 23.6784C34.0997 23.5553 34.2319 23.3961 34.3229 23.2132C34.414 23.0304 34.4613 22.8289 34.4613 22.6247C34.4607 22.3184 34.3526 22.0221 34.1558 21.7875C33.959 21.5528 33.686 21.3948 33.3846 21.3408C33.2163 21.3063 33.0428 21.3061 32.8744 21.34C32.706 21.374 32.5462 21.4416 32.4044 21.5387L31.9857 21.8148V12.2896C31.9873 12.1799 31.9497 12.0734 31.8797 11.989C31.8096 11.9046 31.7118 11.848 31.6038 11.8294L26.4822 10.9367V9.94277C26.4822 9.82073 26.4337 9.70369 26.3475 9.61739C26.2612 9.5311 26.1441 9.48262 26.0221 9.48262H24.1814V7.18184C24.1814 7.05979 24.133 6.94275 24.0467 6.85646C23.9604 6.77016 23.8433 6.72168 23.7213 6.72168H17.2791C17.1571 6.72168 17.04 6.77016 16.9537 6.85646C16.8674 6.94275 16.8189 7.05979 16.8189 7.18184V9.48262H14.9783C14.8563 9.48262 14.7392 9.5311 14.6529 9.61739C14.5666 9.70369 14.5182 9.82073 14.5182 9.94277V10.9367L9.37822 11.834C9.27018 11.8526 9.17234 11.9092 9.10232 11.9936C9.03229 12.078 8.9947 12.1845 8.99629 12.2942V21.8148L8.58215 21.5387C8.2984 21.3373 7.94629 21.2569 7.60326 21.3152C7.26023 21.3734 6.9544 21.5656 6.75303 21.8493C6.55166 22.1331 6.47126 22.4852 6.52951 22.8282C6.58776 23.1712 6.77989 23.4771 7.06363 23.6784L9.9166 25.8182V29.7295C9.9166 29.8515 9.96508 29.9686 10.0514 30.0549C10.1377 30.1412 10.2547 30.1896 10.3768 30.1896V34.3311H6.23535V35.2514H34.765V34.3311H30.6236V30.1896ZM27.4025 17.7654C27.7666 17.7654 28.1224 17.8734 28.4251 18.0756C28.7278 18.2779 28.9637 18.5653 29.1031 18.9017C29.2424 19.238 29.2788 19.6081 29.2078 19.9651C29.1368 20.3222 28.9615 20.6502 28.7041 20.9076C28.4466 21.165 28.1187 21.3403 27.7616 21.4113C27.4046 21.4823 27.0345 21.4459 26.6982 21.3066C26.3618 21.1673 26.0744 20.9313 25.8721 20.6287C25.6699 20.326 25.5619 19.9701 25.5619 19.6061C25.5619 19.1179 25.7558 18.6497 26.101 18.3045C26.4462 17.9594 26.9144 17.7654 27.4025 17.7654ZM17.7393 7.64199H23.2611V9.48262H17.7393V7.64199ZM15.4385 19.6061C15.4385 19.9701 15.3305 20.326 15.1283 20.6287C14.926 20.9313 14.6386 21.1673 14.3022 21.3066C13.9659 21.4459 13.5958 21.4823 13.2388 21.4113C12.8817 21.3403 12.5537 21.165 12.2963 20.9076C12.0389 20.6502 11.8636 20.3222 11.7926 19.9651C11.7216 19.6081 11.758 19.238 11.8973 18.9017C12.0366 18.5653 12.2726 18.2779 12.5753 18.0756C12.8779 17.8734 13.2338 17.7654 13.5979 17.7654C14.086 17.7654 14.5542 17.9594 14.8994 18.3045C15.2446 18.6497 15.4385 19.1179 15.4385 19.6061ZM9.9166 12.6761L14.5182 11.8708V17.0062C13.8721 16.7765 13.1637 16.7954 12.5308 17.0593C11.898 17.3232 11.3859 17.8131 11.0944 18.4338C10.8029 19.0544 10.7527 19.7613 10.9537 20.4168C11.1546 21.0724 11.5924 21.6297 12.1816 21.9803C12.7709 22.3309 13.4695 22.4497 14.1415 22.3136C14.8136 22.1775 15.4109 21.7961 15.8172 21.2438C16.2236 20.6915 16.4099 20.0078 16.3399 19.3257C16.2699 18.6436 15.9486 18.012 15.4385 17.5538V10.4029H25.5619V17.5538C25.0518 18.012 24.7305 18.6436 24.6605 19.3257C24.5905 20.0078 24.7768 20.6915 25.1832 21.2438C25.5895 21.7961 26.1868 22.1775 26.8589 22.3136C27.5309 22.4497 28.2295 22.3309 28.8188 21.9803C29.408 21.6297 29.8458 21.0724 30.0467 20.4168C30.2477 19.7613 30.1975 19.0544 29.906 18.4338C29.6145 17.8131 29.1024 17.3232 28.4696 17.0593C27.8367 16.7954 27.1283 16.7765 26.4822 17.0062V11.8708L31.0838 12.6761V22.4268L30.4856 22.8271H24.6416C24.4273 22.5414 24.1494 22.3095 23.8299 22.1497C23.5104 21.99 23.1582 21.9068 22.801 21.9068H18.1994C17.8422 21.9068 17.4899 21.99 17.1705 22.1497C16.851 22.3095 16.5731 22.5414 16.3588 22.8271H10.5148L9.9166 22.4268V12.6761ZM20.9604 25.4776L20.5002 26.1403L20.04 25.4776L20.4404 22.8271H20.56L20.9604 25.4776ZM13.2665 34.3311L13.5979 33.0058L13.9292 34.3311H13.2665ZM15.8986 34.3311H14.8771L14.058 30.9995C14.0331 30.9 13.9756 30.8117 13.8947 30.7486C13.8139 30.6855 13.7142 30.6512 13.6117 30.6512C13.5091 30.6512 13.4094 30.6855 13.3286 30.7486C13.2477 30.8117 13.1902 30.9 13.1653 30.9995L12.3186 34.3311H11.2971V30.1896H15.8986V34.3311ZM17.2791 34.3311H16.8189V30.1896H17.2791V34.3311ZM17.2791 29.2693H10.8369V25.5881C10.8369 25.5166 10.8203 25.4462 10.7883 25.3823C10.7564 25.3184 10.71 25.2628 10.6529 25.22L7.61582 22.9192C7.56741 22.8816 7.52817 22.8334 7.50106 22.7784C7.47396 22.7234 7.45971 22.663 7.45937 22.6017C7.45892 22.5262 7.48139 22.4524 7.52379 22.39C7.58273 22.3024 7.67355 22.2413 7.77688 22.2197C7.87909 22.2007 7.9847 22.2221 8.07137 22.2796L10.1237 23.66C10.1975 23.7136 10.2856 23.744 10.3768 23.7475H15.9446C15.9152 23.8991 15.8998 24.0531 15.8986 24.2076V27.4287C15.9 27.8357 16.0362 28.2309 16.2859 28.5522C16.5357 28.8736 16.885 29.1032 17.2791 29.2049V29.2693ZM20.1413 34.3311L20.5002 32.5364L20.8591 34.3311H20.1413ZM22.801 34.3311H21.7978L20.9604 30.0976C20.9604 29.9756 20.9119 29.8585 20.8256 29.7722C20.7393 29.6859 20.6222 29.6375 20.5002 29.6375C20.3782 29.6375 20.2611 29.6859 20.1748 29.7722C20.0885 29.8585 20.04 29.9756 20.04 30.0976L19.2026 34.3311H18.1994V29.2693H22.801V34.3311ZM22.801 28.349H18.1994V23.7475H17.2791V28.2202C17.14 28.1399 17.0244 28.0246 16.9436 27.8857C16.8629 27.7469 16.8199 27.5893 16.8189 27.4287V24.2076C16.8189 23.8415 16.9644 23.4904 17.2233 23.2315C17.4822 22.9726 17.8333 22.8271 18.1994 22.8271H19.5109L19.1197 25.5237C19.1047 25.6349 19.1309 25.7479 19.1934 25.8412L20.1137 27.2216C20.1558 27.2843 20.2126 27.3356 20.2792 27.3711C20.3458 27.4066 20.4201 27.4251 20.4956 27.4251C20.5711 27.4251 20.6454 27.4066 20.712 27.3711C20.7786 27.3356 20.8354 27.2843 20.8775 27.2216L21.7978 25.8412C21.8603 25.7479 21.8865 25.6349 21.8715 25.5237L21.4895 22.8271H22.801C23.1671 22.8271 23.5182 22.9726 23.7771 23.2315C24.036 23.4904 24.1814 23.8415 24.1814 24.2076V27.4287C24.1805 27.5893 24.1375 27.7469 24.0568 27.8857C23.976 28.0246 23.8604 28.1399 23.7213 28.2202V23.7475H22.801V28.349ZM24.1814 34.3311H23.7213V30.1896H24.1814V34.3311ZM27.0712 34.3311L27.4025 33.0058L27.7339 34.3311H27.0712ZM29.7033 34.3311H28.6818L27.8627 30.9995C27.8378 30.9 27.7803 30.8117 27.6994 30.7486C27.6186 30.6855 27.5189 30.6512 27.4163 30.6512C27.3138 30.6512 27.2141 30.6855 27.1333 30.7486C27.0524 30.8117 26.9949 30.9 26.97 30.9995L26.1233 34.3311H25.1018V30.1896H29.7033V34.3311ZM30.1635 25.5881V29.2693H23.7213V29.2049C24.1154 29.1032 24.4647 28.8736 24.7144 28.5522C24.9642 28.2309 25.1004 27.8357 25.1018 27.4287V24.2076C25.1006 24.0531 25.0852 23.8991 25.0557 23.7475H30.6236C30.7138 23.7468 30.8018 23.7196 30.8767 23.6692L32.9336 22.2888C32.9755 22.26 33.0228 22.2399 33.0725 22.2296C33.1223 22.2194 33.1736 22.2191 33.2235 22.2289C33.3268 22.2505 33.4177 22.3116 33.4766 22.3992C33.519 22.4616 33.5415 22.5354 33.541 22.6109C33.5407 22.6722 33.5264 22.7326 33.4993 22.7876C33.4722 22.8426 33.433 22.8908 33.3846 22.9284L30.3475 25.2292C30.2916 25.2711 30.246 25.3252 30.2141 25.3874C30.1822 25.4496 30.1649 25.5182 30.1635 25.5881Z" fill="#252B61"/>
<path d="M16.3286 11.2974H17.2706V12.2394H16.3286V11.2974Z" fill="#252B61"/>
<path d="M18.2129 11.2974H19.1549V12.2394H18.2129V11.2974Z" fill="#252B61"/>
<path d="M21.8457 11.2974H22.7877V12.2394H21.8457V11.2974Z" fill="#252B61"/>
<path d="M23.73 11.2974H24.672V12.2394H23.73V11.2974Z" fill="#252B61"/>
<path d="M10.811 13.1812H11.7531V14.1232H10.811V13.1812Z" fill="#252B61"/>
<path d="M12.6948 13.1812H13.6368V14.1232H12.6948V13.1812Z" fill="#252B61"/>
<path d="M27.3633 13.1812H28.3053V14.1232H27.3633V13.1812Z" fill="#252B61"/>
<path d="M29.2476 13.1812H30.1896V14.1232H29.2476V13.1812Z" fill="#252B61"/>
</svg>
