<svg xmlns="http://www.w3.org/2000/svg" width="20" height="20" viewBox="0 0 20 20" fill="none">
  <path d="M19.9485 19.5375L13.5593 9.5375V4.29062L18.3119 4.26875C18.3692 4.26718 18.425 4.2507 18.4735 4.22103C18.522 4.19135 18.5615 4.14956 18.5879 4.1C18.6118 4.05006 18.6217 3.99485 18.6166 3.93996C18.6115 3.88508 18.5917 3.83248 18.559 3.7875L17.1759 2.00312L18.5494 0.503125C18.5851 0.458189 18.6075 0.404627 18.6143 0.348199C18.621 0.291771 18.6119 0.234613 18.5878 0.182872C18.5637 0.13113 18.5256 0.0867629 18.4775 0.0545415C18.4295 0.0223201 18.3733 0.00346359 18.3151 0L13.2544 0C13.1693 0 13.0877 0.032924 13.0275 0.0915291C12.9673 0.150134 12.9335 0.22962 12.9335 0.3125V3.9875V9.525L9.75653 13.7312V9.85938C9.75543 9.80621 9.7404 9.75419 9.71289 9.70826C9.68537 9.66232 9.64627 9.62398 9.59929 9.59687L7.27914 8.30625V5.725H9.93303C9.98589 5.72473 10.0379 5.71176 10.0843 5.68722C10.1308 5.66269 10.1703 5.62736 10.1994 5.58438L12.1248 2.60938C12.201 2.49129 12.2492 2.35814 12.2658 2.21963C12.2825 2.08112 12.2672 1.94073 12.2211 1.8087C12.175 1.67667 12.0992 1.55632 11.9993 1.45643C11.8993 1.35653 11.7778 1.2796 11.6435 1.23125C11.4397 1.15597 11.2158 1.15021 11.0083 1.21493C10.8008 1.27964 10.622 1.41098 10.501 1.5875L9.03771 3.69063H5.93775C6.3593 3.63739 6.74559 3.43376 7.02183 3.11914C7.29808 2.80452 7.44465 2.40129 7.43318 1.9875C7.44705 1.54862 7.28206 1.12221 6.97423 0.801368C6.6664 0.480525 6.24073 0.291299 5.79014 0.275C5.33898 0.290493 4.91249 0.479367 4.60397 0.800299C4.29546 1.12123 4.13003 1.5481 4.14389 1.9875C4.13259 2.40225 4.28006 2.80627 4.55762 3.12103C4.83518 3.43579 5.22301 3.63881 5.64573 3.69063H4.93332C4.48735 3.69168 4.04743 3.79122 3.64667 3.98175C3.24591 4.17228 2.89474 4.44885 2.61959 4.79063L0.219211 7.8125C0.0666815 8.00543 -0.0105854 8.24481 0.00116781 8.48802C0.012921 8.73124 0.112931 8.9625 0.283392 9.14062C0.38746 9.24493 0.513194 9.32641 0.652188 9.37961C0.791183 9.4328 0.940237 9.45649 1.08939 9.4491C1.23854 9.4417 1.38435 9.40339 1.51708 9.33672C1.6498 9.27005 1.76639 9.17656 1.85904 9.0625L3.76201 6.7625V15.3469L0.0748033 19.4969C0.0391074 19.5418 0.0166661 19.5954 0.009893 19.6518C0.0031199 19.7082 0.0122712 19.7654 0.0363627 19.8171C0.0604542 19.8689 0.0985744 19.9132 0.146624 19.9455C0.194673 19.9777 0.250833 19.9965 0.309065 20H19.6918C19.7467 19.9986 19.8003 19.9835 19.8475 19.9561C19.8947 19.9288 19.9339 19.8901 19.9613 19.8438C19.9887 19.7966 20.002 19.743 19.9998 19.6888C19.9975 19.6347 19.9797 19.5823 19.9485 19.5375ZM13.5657 0.60625H17.6219L16.5405 1.78437C16.4893 1.83889 16.4596 1.90929 16.4567 1.98308C16.4538 2.05687 16.4778 2.12929 16.5244 2.1875L17.7022 3.66562L13.5753 3.68438L13.5657 0.60625ZM4.76324 1.9875C4.75012 1.70853 4.85064 1.43579 5.04295 1.22862C5.23526 1.02145 5.50379 0.896609 5.79014 0.88125C6.07678 0.895804 6.34582 1.02041 6.5383 1.22776C6.73078 1.43512 6.83101 1.70832 6.81704 1.9875C6.83101 2.26669 6.73078 2.53988 6.5383 2.74724C6.34582 2.95459 6.07678 3.0792 5.79014 3.09375C5.50379 3.07839 5.23526 2.95355 5.04295 2.74638C4.85064 2.53921 4.75012 2.26647 4.76324 1.9875ZM13.2319 10.1625L13.9187 11.25H12.4168L13.2319 10.1625ZM4.07329 5.91875C3.98211 5.88655 3.88283 5.88311 3.78953 5.90891C3.69622 5.93471 3.61362 5.98844 3.55342 6.0625L1.37447 8.69375C1.33563 8.73878 1.28762 8.77547 1.23348 8.8015C1.17933 8.82753 1.12023 8.84233 1.0599 8.84497C0.999581 8.84762 0.93935 8.83804 0.883022 8.81685C0.826694 8.79566 0.775494 8.76332 0.73266 8.72188C0.66363 8.6498 0.623151 8.55617 0.618449 8.45772C0.613747 8.35926 0.645127 8.26238 0.706988 8.18437L3.11699 5.1625C3.33253 4.89432 3.60761 4.67713 3.92162 4.52722C4.23562 4.37731 4.5804 4.29856 4.93011 4.29688H9.18853C9.23944 4.29665 9.28957 4.28462 9.33477 4.2618C9.37996 4.23898 9.41894 4.20601 9.44847 4.16563L11.0016 1.925C11.0469 1.86528 11.1102 1.82083 11.1827 1.79786C11.2552 1.77489 11.3333 1.77454 11.406 1.79688C11.4543 1.81436 11.4978 1.84228 11.5334 1.87855C11.569 1.91482 11.5956 1.95849 11.6114 2.00625C11.6297 2.05271 11.6363 2.10276 11.6307 2.15222C11.6251 2.20169 11.6075 2.24914 11.5793 2.29063L9.76295 5.10313H6.96786C6.88275 5.10313 6.80113 5.13605 6.74095 5.19465C6.68077 5.25326 6.64696 5.33274 6.64696 5.41563V8.47812C6.64806 8.53129 6.66309 8.58331 6.6906 8.62924C6.71812 8.67518 6.75722 8.71351 6.8042 8.74062L9.12435 10.0281V13.7188L8.30925 13.125V10.5094C8.30828 10.4573 8.29398 10.4063 8.26764 10.361C8.2413 10.3158 8.20376 10.2776 8.15842 10.25L5.71633 8.825C5.66755 8.79757 5.61221 8.78313 5.55588 8.78313C5.49955 8.78313 5.44421 8.79757 5.39542 8.825C5.34844 8.85211 5.30934 8.89045 5.28183 8.93638C5.25431 8.98232 5.23929 9.03433 5.23818 9.0875V13.6812L4.37815 14.65V6.34687C4.38018 6.25333 4.35178 6.16155 4.29703 6.08466C4.24228 6.00777 4.16397 5.9497 4.07329 5.91875ZM6.96144 12.1687C6.89745 12.1256 6.81953 12.1065 6.74219 12.1152C6.66485 12.1238 6.59337 12.1595 6.54106 12.2156L5.86716 12.975V9.61875L7.68669 10.6812V12.6906L6.96144 12.1687ZM6.82345 12.825L7.77013 13.4969C7.79848 13.5279 7.83355 13.5525 7.87282 13.5687L9.15644 14.475L4.48726 19.3938H0.989385L6.82345 12.825ZM5.33445 19.3875L9.82713 14.6344V14.6156L11.9579 11.8438H14.307L19.1206 19.3938L5.33445 19.3875Z" fill="black"/>
</svg>