<svg
  xmlns="http://www.w3.org/2000/svg"
  width="34"
  height="28"
  viewBox="0 0 34 28"
  fill="none"
>
  <path
    d="M3.09091 14C1.39091 14 0 12.65 0 11V3.5C0 1.85 1.39091 0.5 3.09091 0.5H15.4545C17.1545 0.5 18.5455 1.85 18.5455 3.5V11C18.5455 12.65 17.1545 14 15.4545 14H12.3636V18.5L7.72727 14H3.09091ZM30.9091 23C32.6091 23 34 21.65 34 20V12.5C34 10.85 32.6091 9.5 30.9091 9.5H21.6364V11C21.6364 14.3 18.8545 17 15.4545 17V20C15.4545 21.65 16.8455 23 18.5455 23H21.6364V27.5L26.2727 23H30.9091Z"
    fill="#00C9AA"
  />
</svg>
