<svg xmlns="http://www.w3.org/2000/svg" width="27" height="28" viewBox="0 0 27 28" fill="none">
  <path d="M3.375 7.25019C3.375 3.52757 6.40238 0.500192 10.125 0.500192C10.8979 0.500192 11.655 0.629567 12.3761 0.884942C13.2536 1.19544 13.7137 2.16069 13.4032 3.03932C13.0927 3.91794 12.1309 4.37694 11.2489 4.06644C10.8911 3.94044 10.5131 3.87519 10.125 3.87519C8.26425 3.87519 6.75 5.38944 6.75 7.25019C6.75 9.11094 8.26425 10.6252 10.125 10.6252C10.3815 10.6252 10.6335 10.5982 10.8754 10.5419C11.7889 10.3361 12.6877 10.9031 12.8959 11.8132C13.1029 12.7222 12.5336 13.6256 11.6246 13.8337C11.1375 13.9451 10.6324 14.0002 10.125 14.0002C6.40238 14.0002 3.375 10.9728 3.375 7.25019ZM25.3046 10.8468C24.0772 12.1361 22.3504 12.8752 20.5672 12.8752H17.4375C16.0403 12.8752 14.625 11.7817 14.625 9.69369V6.92844C14.625 5.14644 15.363 3.42182 16.6511 2.19557C17.8796 1.02557 19.476 0.419192 21.1185 0.508067C24.3101 0.664442 26.8358 3.19007 26.9921 6.38169C27.0731 8.03432 26.4735 9.62057 25.3046 10.8479V10.8468ZM23.6216 6.54594C23.5507 5.09694 22.4032 3.94944 20.9543 3.87857C20.2331 3.84594 19.5311 4.11369 18.9776 4.64019C18.3566 5.23194 18 6.06669 18 6.92844V9.50019H20.5672C21.4324 9.50019 22.2671 9.14357 22.86 8.52032C23.3865 7.96794 23.6565 7.26707 23.6216 6.54594ZM22.5 26.3752C22.5 26.9973 21.9971 27.5002 21.375 27.5002H1.125C0.502875 27.5002 0 26.9973 0 26.3752C0 22.4096 2.29725 18.9794 5.625 17.3189V21.0629C4.95563 21.4522 4.5 22.1699 4.5 23.0013C4.5 24.2444 5.50688 25.2513 6.75 25.2513C7.99312 25.2513 9 24.2444 9 23.0013C9 22.1711 8.54438 21.4533 7.875 21.0629V16.5112C8.5995 16.3458 9.351 16.2502 10.125 16.2502H12.375C12.7552 16.2502 13.1299 16.2749 13.5 16.3166V20.9572C12.1939 21.4229 11.25 22.6604 11.25 24.1252V25.2502C11.25 25.8723 11.7529 26.3752 12.375 26.3752C12.9971 26.3752 13.5 25.8723 13.5 25.2502V24.1252C13.5 23.5042 14.004 23.0002 14.625 23.0002C15.246 23.0002 15.75 23.5042 15.75 24.1252V25.2502C15.75 25.8723 16.2529 26.3752 16.875 26.3752C17.4971 26.3752 18 25.8723 18 25.2502V24.1252C18 22.6604 17.0561 21.4229 15.75 20.9572V16.8408C19.6763 18.2347 22.5 21.9764 22.5 26.3752Z" fill="#00C9AA"></path>
</svg>
