<svg xmlns="http://www.w3.org/2000/svg" width="23" height="23" viewBox="0 0 23 23" fill="none">
  <path fill-rule="evenodd" clip-rule="evenodd" d="M11.5 23C17.8513 23 23 17.8513 23 11.5C23 5.14874 17.8513 0 11.5 0C5.14872 0 0 5.14874 0 11.5C0 17.8513 5.14872 23 11.5 23ZM9.3075 9.75792C9.41893 10.1318 9.09279 10.4545 8.70261 10.4545H8.39922C8.1766 10.4545 8.00319 10.2674 7.918 10.0617C7.86642 9.93718 7.79081 9.82402 7.6955 9.72873C7.60019 9.63344 7.48703 9.55781 7.3625 9.50625C7.23796 9.45469 7.10449 9.42806 6.9697 9.42806C6.8349 9.42806 6.70143 9.45469 6.5769 9.50625C6.45236 9.55781 6.33921 9.63344 6.2439 9.72873C6.14858 9.82402 6.07297 9.93718 6.02139 10.0617C5.9362 10.2674 5.76279 10.4545 5.54018 10.4545H5.23678C4.8466 10.4545 4.52047 10.1318 4.63189 9.75792C4.65579 9.67769 4.68384 9.59865 4.71599 9.52106C4.83858 9.22506 5.01826 8.95613 5.24478 8.72965C5.4713 8.50308 5.74022 8.32339 6.03618 8.20088C6.33214 8.07828 6.64935 8.01515 6.9697 8.01515C7.29004 8.01515 7.60725 8.07828 7.90321 8.20088C8.19917 8.32339 8.46809 8.50308 8.69461 8.72965C8.92113 8.95613 9.10081 9.22506 9.2234 9.52106C9.23534 9.54981 9.24671 9.57882 9.25752 9.60801C9.26989 9.64144 9.28151 9.67513 9.29239 9.70908C9.2976 9.72533 9.30264 9.74158 9.3075 9.75792ZM7.01379 14.2288C6.65475 14.4118 6.50819 14.8545 6.73635 15.1866C7.16933 15.8168 7.72889 16.3535 8.38215 16.7608C9.24257 17.2972 10.233 17.589 11.2468 17.6044C12.2606 17.6199 13.2595 17.3587 14.1359 16.8489C14.8013 16.4617 15.377 15.9424 15.8291 15.3257C16.0673 15.0007 15.9344 14.5537 15.5811 14.3599C15.2278 14.1661 14.7889 14.3007 14.5358 14.6143C14.2217 15.0037 13.838 15.334 13.4022 15.5876C12.7551 15.964 12.0176 16.1569 11.2691 16.1454C10.5206 16.134 9.78938 15.9187 9.15413 15.5226C8.72624 15.2558 8.3528 14.9139 8.05076 14.5151C7.80744 14.194 7.37283 14.046 7.01379 14.2288ZM17.6711 9.75792C17.7826 10.1318 17.4564 10.4545 17.0662 10.4545H16.7629C16.5402 10.4545 16.3668 10.2674 16.2816 10.0617C16.2301 9.93718 16.1544 9.82402 16.0591 9.72873C15.9638 9.63344 15.8507 9.55781 15.7261 9.50625C15.6016 9.45469 15.4681 9.42806 15.3333 9.42806C15.1985 9.42806 15.0651 9.45469 14.9405 9.50625C14.816 9.55781 14.7028 9.63344 14.6075 9.72873C14.5122 9.82402 14.4366 9.93718 14.385 10.0617C14.2998 10.2674 14.1264 10.4545 13.9038 10.4545H13.6004C13.2102 10.4545 12.8841 10.1318 12.9955 9.75792C13.0194 9.67769 13.0475 9.59865 13.0796 9.52106C13.2022 9.22506 13.3819 8.95613 13.6084 8.72965C13.8349 8.50308 14.1039 8.32339 14.3998 8.20088C14.6958 8.07828 15.013 8.01515 15.3333 8.01515C15.6537 8.01515 15.9709 8.07828 16.2668 8.20088C16.5628 8.32339 16.8317 8.50308 17.0582 8.72965C17.2848 8.95613 17.4644 9.22506 17.587 9.52106C17.6192 9.59865 17.6472 9.67769 17.6711 9.75792Z" fill="#656565"/>
</svg>