<svg xmlns="http://www.w3.org/2000/svg" width="25" height="25" viewBox="0 0 25 25" fill="none">
  <g clip-path="url(#clip0_302_3350)">
    <path d="M15.2479 13.8095C14.2438 13.0741 13.9958 11.6783 14.6844 10.6408L15.9969 8.6668C15.0708 7.82096 13.85 7.2918 12.5 7.2918C11.15 7.2918 9.92917 7.82096 9.00313 8.6668L10.3677 10.547C11.1333 11.6012 10.8844 13.0793 9.81667 13.8251L8.00729 15.0887C8.90833 16.646 10.574 17.7085 12.5 17.7085C14.426 17.7085 16.0906 16.646 16.9927 15.0887L15.2479 13.8105V13.8095ZM23.9073 14.9022L17.4135 10.2699L16.2031 11.9658L20.8865 15.3064L17.2167 19.7918H7.78542L4.11563 15.3064L8.79896 11.9658L7.58854 10.2699L1.09375 14.9022L6.25 21.2043V24.9991H18.75V21.2043L23.9073 14.9022ZM9.375 6.96784L8.91042 7.43242L7.14583 4.78555L5.62604 6.30534C5.31979 6.61159 4.80625 6.53555 4.60208 6.15325L2.60417 2.12617L4.73021 0.000130208L5.99063 2.60534L7.50104 1.09492C7.85729 0.738672 8.46771 0.922005 8.56771 1.4168L9.375 6.96784ZM22.2677 2.08555L20.3073 6.03659C20.1073 6.41055 19.6021 6.48555 19.3021 6.18555L17.8104 4.69388L16.0792 7.29075L15.624 6.8345L16.4156 1.38867C16.5135 0.903255 17.1125 0.723047 17.4625 1.07305L18.9438 2.5543L20.1802 -0.00195312L22.2656 2.08346L22.2677 2.08555Z" fill="#656565"/>
  </g>
  <defs>
    <clipPath id="clip0_302_3350">
      <rect width="25" height="25" fill="white"/>
    </clipPath>
  </defs>
</svg>