<svg xmlns="http://www.w3.org/2000/svg" width="23" height="23" viewBox="0 0 23 23" fill="none">
  <path fill-rule="evenodd" clip-rule="evenodd" d="M6.14655 22.6034C5.59891 22.6034 5.15517 22.1597 5.15517 21.6121C5.15517 19.2304 5.15517 13.2405 5.15517 11.3017C5.15517 10.7541 5.59891 10.3103 6.14655 10.3103C6.69419 10.3103 7.13793 10.7541 7.13793 11.3017V21.6129C7.13793 22.1601 6.69379 22.6034 6.14655 22.6034ZM16.8542 22.6034C16.3066 22.6034 15.8621 22.1597 15.8621 21.6121C15.8621 19.2304 15.8621 13.2405 15.8621 11.3017C15.8621 10.7541 16.3058 10.3103 16.8534 10.3103C17.4011 10.3103 17.8448 10.7541 17.8448 11.3017V21.6129C17.8448 22.1601 17.4015 22.6034 16.8542 22.6034ZM7.93103 22.4345V11.3017C7.93103 10.3163 7.13198 9.51724 6.14655 9.51724C5.16112 9.51724 4.36207 10.3163 4.36207 11.3017V20.5144C4.34224 20.4966 4.32241 20.4807 4.30259 20.4668C1.67979 18.3588 0 15.1241 0 11.5C0 5.15279 5.15279 0 11.5 0C17.8472 0 23 5.15279 23 11.5C23 15.1241 21.3202 18.3588 18.6974 20.4668C18.6776 20.4807 18.6578 20.4966 18.6379 20.5144V11.3017C18.6379 10.3163 17.8389 9.51724 16.8534 9.51724C15.868 9.51724 15.069 10.3163 15.069 11.3017V22.4345C13.9455 22.8013 12.7456 23 11.5 23C10.2544 23 9.05447 22.8013 7.93103 22.4345ZM11.5 12.2931C10.7838 12.2931 10.1168 12.623 9.58029 13.162C8.82248 13.9225 8.32759 15.1035 8.32759 16.2586C8.32759 18.2596 9.74922 19.431 11.5 19.431C13.2508 19.431 14.6724 18.2596 14.6724 16.2586C14.6724 15.1035 14.1775 13.9225 13.4197 13.162C12.8832 12.623 12.2162 12.2931 11.5 12.2931ZM13.7179 17.1977C13.3725 18.1192 12.5092 18.6379 11.5 18.6379C10.4908 18.6379 9.62748 18.1192 9.28209 17.1977C9.82576 16.5263 10.6165 16.0603 11.5 16.0603C12.3835 16.0603 13.1742 16.5263 13.7179 17.1977ZM13.8793 16.2376C13.2294 15.6475 12.4006 15.2672 11.5 15.2672C10.5994 15.2672 9.77064 15.6475 9.12069 16.2376C9.12664 15.2982 9.52636 14.3397 10.1418 13.7215C10.5241 13.338 10.9904 13.0862 11.5 13.0862C12.0096 13.0862 12.4759 13.338 12.8582 13.7215C13.4736 14.3397 13.8734 15.2982 13.8793 16.2376ZM5.86619 5.43553L8.02621 7.59595L4.77052 7.82199C4.55202 7.83705 4.38705 8.0266 4.40252 8.2451C4.41759 8.4632 4.60714 8.62817 4.82564 8.6131L8.94978 8.32679C9.10483 8.31568 9.23926 8.21536 9.29398 8.06983C9.34831 7.9243 9.31262 7.76052 9.20278 7.65067L6.42691 4.87481C6.27226 4.72015 6.02084 4.72015 5.86619 4.87481C5.71153 5.02947 5.71153 5.28088 5.86619 5.43553ZM16.5731 4.87481L13.7972 7.65067C13.6874 7.76052 13.6517 7.9243 13.706 8.06983C13.7607 8.21536 13.8952 8.31568 14.0502 8.32679L18.1744 8.6131C18.3929 8.62817 18.5824 8.4632 18.5975 8.2451C18.6129 8.0266 18.448 7.83705 18.2295 7.82199L14.9738 7.59595L17.1338 5.43553C17.2885 5.28088 17.2885 5.02947 17.1338 4.87481C16.9792 4.72015 16.7277 4.72015 16.5731 4.87481Z" fill="#656565"/>
</svg>