<svg width="10" height="10" viewBox="0 0 10 10" fill="none" xmlns="http://www.w3.org/2000/svg">
<path d="M8 3.3C8 5.4 5 7.5 5 7.5C5 7.5 2 5.4 2 3.3C2 2.55739 2.31607 1.8452 2.87868 1.3201C3.44129 0.794999 4.20435 0.5 5 0.5C5.79565 0.5 6.55871 0.794999 7.12132 1.3201C7.68393 1.8452 8 2.55739 8 3.3Z" stroke="black" stroke-width="0.8" stroke-linecap="round" stroke-linejoin="round"/>
<path d="M5 4.5C5.55228 4.5 6 4.05228 6 3.5C6 2.94772 5.55228 2.5 5 2.5C4.44772 2.5 4 2.94772 4 3.5C4 4.05228 4.44772 4.5 5 4.5Z" stroke="black" stroke-linecap="round" stroke-linejoin="round"/>
<path d="M3.734 5.5H2.2C2.11861 5.50554 2.04052 5.54203 1.97619 5.60458C1.91185 5.66713 1.86433 5.75276 1.84 5.85L1.04 8.85C1 8.9 1 8.95 1 9C1 9.3 1.16 9.5 1.4 9.5H8.6C8.84 9.5 9 9.3 9 9C9 8.95 9 8.9 8.96 8.85L8.16 5.85C8.13567 5.75276 8.08815 5.66713 8.02381 5.60458C7.95948 5.54203 7.88139 5.50554 7.8 5.5H6.266" stroke="black" stroke-width="0.8" stroke-linecap="round" stroke-linejoin="round"/>
</svg>
