<svg xmlns="http://www.w3.org/2000/svg" width="23" height="23" viewBox="0 0 23 23" fill="none">
  <path d="M23 1.91667H22.0417V0H20.125V1.91667H2.875V0H0.958333V1.91667H0V3.83333H0.958333V5.75H2.875V3.83333H3.80842L8.625 10.8397V23H10.5417V18.2083H12.4583V23H14.375V10.8397L19.1916 3.83333H20.125V5.75H22.0417V3.83333H23V1.91667ZM12.9126 9.58333H10.0884L6.13525 3.83333H16.8657L12.9126 9.58333ZM9.58333 6.70833C9.58333 5.64937 10.441 4.79167 11.5 4.79167C12.559 4.79167 13.4167 5.64937 13.4167 6.70833C13.4167 7.76729 12.559 8.625 11.5 8.625C10.441 8.625 9.58333 7.76729 9.58333 6.70833Z" fill="#656565"/>
</svg>