 <svg
                      xmlns="http://www.w3.org/2000/svg"
                      width="14"
                      height="15"
                      viewBox="0 0 14 15"
                      fill="none"
                    >
                      <path
                        opacity="0.5"
                        d="M12.6 3.3H9.8V1.9C9.8 1.13 9.17 0.5 8.4 0.5H5.6C4.83 0.5 4.2 1.13 4.2 1.9V3.3H1.4C0.63 3.3 0 3.93 0 4.7V13.1C0 13.87 0.63 14.5 1.4 14.5H12.6C13.37 14.5 14 13.87 14 13.1V4.7C14 3.93 13.37 3.3 12.6 3.3ZM5.6 1.9H8.4V3.3H5.6V1.9ZM9.8 9.6H7.7V11.7H6.3V9.6H4.2V8.2H6.3V6.1H7.7V8.2H9.8V9.6Z"
                        fill="black"
                      />
                    </svg>