<svg xmlns="http://www.w3.org/2000/svg" width="25" height="25" viewBox="0 0 25 25" fill="none">
  <path d="M3.43359 3C3.43359 1.619 4.55259 0.5 5.93359 0.5C7.31459 0.5 8.43359 1.619 8.43359 3C8.43359 4.381 7.31459 5.5 5.93359 5.5C4.55259 5.5 3.43359 4.381 3.43359 3ZM12.9336 10.5C14.3146 10.5 15.4336 9.381 15.4336 8C15.4336 6.619 14.3146 5.5 12.9336 5.5C11.5526 5.5 10.4336 6.619 10.4336 8C10.4336 9.381 11.5526 10.5 12.9336 10.5ZM13.9336 11.5H11.9336C10.2796 11.5 8.93359 12.846 8.93359 14.5V20.5H9.93359V24.5H11.9336V20.5H13.9336V24.5H15.9336V20.5H16.9336V14.5C16.9336 12.846 15.5876 11.5 13.9336 11.5ZM18.9336 5.5C20.3146 5.5 21.4336 4.381 21.4336 3C21.4336 1.619 20.3146 0.5 18.9336 0.5C17.5526 0.5 16.4336 1.619 16.4336 3C16.4336 4.381 17.5526 5.5 18.9336 5.5ZM24.0666 20.5L22.6446 9.128C22.4576 7.63 21.1776 6.5 19.6676 6.5H18.1986C17.8616 6.5 17.5356 6.557 17.2306 6.661C17.2306 6.661 17.2136 6.665 17.2096 6.666C17.3416 7.09 17.4336 7.532 17.4336 8C17.4336 8.874 17.1766 9.681 16.7436 10.368C18.0646 11.269 18.9336 12.784 18.9336 14.5V20.5H19.9336V24.5H21.9336V20.5H24.0666ZM8.43359 8C8.43359 7.506 8.53259 7.04 8.67959 6.595C8.67259 6.593 8.66659 6.591 8.65959 6.589C8.42659 6.531 8.18359 6.5 7.93359 6.5H3.93359C2.27959 6.5 0.933594 7.846 0.933594 9.5V17.5H2.93359V24.5H4.93359V17.5H6.93359V14.5C6.93359 12.785 7.80359 11.27 9.12359 10.369C8.69159 9.681 8.43359 8.873 8.43359 8Z" fill="#656565"/>
</svg>