<svg xmlns="http://www.w3.org/2000/svg" width="23" height="23" viewBox="0 0 23 23" fill="none">
  <path d="M23 15.3218V16.2802H7.66576V15.3218C7.66576 14.3051 8.06966 13.33 8.78859 12.611C9.50752 11.8921 10.4826 11.4882 11.4993 11.4882H19.1664C20.1832 11.4882 21.1582 11.8921 21.8772 12.611C22.5961 13.33 23 14.3051 23 15.3218ZM16.2913 20.1137L13.4161 18.1969H7.66576V19.1553C7.66576 20.1721 8.06966 21.1471 8.78859 21.8661C9.50752 22.585 10.4826 22.9889 11.4993 22.9889H19.1664C20.1832 22.9889 21.1582 22.585 21.8772 21.8661C22.5961 21.1471 23 20.1721 23 19.1553V18.1969H19.1664L16.2913 20.1137ZM5.74898 15.3218V19.1553C5.74926 20.5775 6.27918 21.9486 7.23545 23.0014H2.03139L0.0551902 7.24159C-0.0268599 6.83387 -0.0173203 6.41302 0.0831198 6.00943C0.18356 5.60585 0.372392 5.22962 0.635974 4.90791C0.904383 4.5723 1.24493 4.30145 1.63234 4.11546C2.01975 3.92947 2.44407 3.83312 2.87381 3.83356H9.19919L9.69276 0H16.2913V1.90432H11.3872L11.138 3.83356H13.4161C13.8468 3.83357 14.272 3.93035 14.6603 4.11676C15.0486 4.30317 15.3901 4.57444 15.6595 4.91053C15.9289 5.24662 16.1193 5.63894 16.2167 6.0585C16.3141 6.47807 16.316 6.91416 16.2223 7.33456L15.9405 9.57144H11.4993C9.97424 9.57144 8.51162 10.1773 7.43322 11.2557C6.35482 12.3341 5.74898 13.7967 5.74898 15.3218ZM10.8888 5.75034L10.6444 7.65466H14.2528L14.3342 7.00679C14.377 6.85397 14.3837 6.69331 14.3537 6.53747C14.3238 6.38163 14.2581 6.23488 14.1617 6.10878C14.0725 5.99671 13.9591 5.90627 13.8299 5.8442C13.7008 5.78213 13.5594 5.75005 13.4161 5.75034H10.8888ZM8.71041 7.65466L8.95576 5.75034H2.87381C2.73033 5.75025 2.58865 5.78238 2.45924 5.84437C2.32983 5.90635 2.21599 5.9966 2.12612 6.10845C2.03625 6.22031 1.97264 6.35092 1.93999 6.49064C1.90733 6.63037 1.90647 6.77564 1.93747 6.91574L2.03331 7.65466H8.71041Z" fill="#656565"/>
</svg>