<svg xmlns="http://www.w3.org/2000/svg" width="11" height="12" viewBox="0 0 11 12" fill="none">
  <g opacity="0.5">
    <path d="M5 11.5C7.76142 11.5 10 9.26142 10 6.5C10 3.73858 7.76142 1.5 5 1.5C2.23858 1.5 0 3.73858 0 6.5C0 9.26142 2.23858 11.5 5 11.5Z" fill="black"/>
    <path d="M5 10.5C7.20914 10.5 9 8.70914 9 6.5C9 4.29086 7.20914 2.5 5 2.5C2.79086 2.5 1 4.29086 1 6.5C1 8.70914 2.79086 10.5 5 10.5Z" fill="url(#paint0_linear_700_873)"/>
    <path fill-rule="evenodd" clip-rule="evenodd" d="M5.90661 4.50711C5.97686 4.53259 6.01591 4.61896 5.99383 4.70002L5.26057 7.39225C5.23849 7.4733 5.16365 7.51836 5.0934 7.49288C5.02314 7.46742 4.98409 7.38105 5.00617 7.29999L5.73944 4.60776C5.76152 4.52671 5.83635 4.48165 5.90661 4.50711Z" fill="black"/>
    <path d="M8.5 5.5C9.88071 5.5 11 4.38071 11 3C11 1.61929 9.88071 0.5 8.5 0.5C7.11929 0.5 6 1.61929 6 3C6 4.38071 7.11929 5.5 8.5 5.5Z" fill="black"/>
    <path fill-rule="evenodd" clip-rule="evenodd" d="M7.63229 3.02226C7.84424 2.93238 8 2.63179 8 2.27484C8 1.84691 7.77614 1.5 7.5 1.5C7.22385 1.5 7 1.84691 7 2.27484C7 2.65236 7.17423 2.96683 7.40487 3.03566V4.36006C7.40487 4.43735 7.45579 4.5 7.51858 4.5C7.58138 4.5 7.63229 4.43735 7.63229 4.36006V3.02226Z" fill="url(#paint1_linear_700_873)"/>
    <path d="M9.22835 1.6414C9.22835 1.56332 9.17724 1.5 9.11418 1.5C9.05112 1.5 9 1.56332 9 1.6414V2.36099C9 2.65431 9.16469 2.89998 9.38579 2.96397V4.3586C9.38579 4.43668 9.43691 4.5 9.49997 4.5C9.56303 4.5 9.61414 4.43668 9.61414 4.3586V2.96398C9.83529 2.90004 10 2.65433 10 2.36099V1.6414C10 1.56332 9.94888 1.5 9.88582 1.5C9.82276 1.5 9.77165 1.56332 9.77165 1.6414V2.36099C9.77165 2.4963 9.70715 2.61295 9.61414 2.66635V1.66881C9.61414 1.59072 9.56303 1.52742 9.49997 1.52742C9.43691 1.52742 9.38579 1.59072 9.38579 1.66881V2.66631C9.29283 2.61289 9.22835 2.49627 9.22835 2.36099V1.6414Z" fill="url(#paint2_linear_700_873)"/>
  </g>
  <defs>
    <linearGradient id="paint0_linear_700_873" x1="1" y1="2.5" x2="10.5803" y2="5.57252" gradientUnits="userSpaceOnUse">
      <stop stop-color="white"/>
      <stop offset="1" stop-color="#F5F5F5"/>
    </linearGradient>
    <linearGradient id="paint1_linear_700_873" x1="7" y1="1.5" x2="8.30579" y2="1.63959" gradientUnits="userSpaceOnUse">
      <stop stop-color="white"/>
      <stop offset="1" stop-color="#F5F5F5"/>
    </linearGradient>
    <linearGradient id="paint2_linear_700_873" x1="9.00001" y1="1.49994" x2="10.3058" y2="1.63963" gradientUnits="userSpaceOnUse">
      <stop stop-color="white"/>
      <stop offset="1" stop-color="#F5F5F5"/>
    </linearGradient>
  </defs>
</svg>