<svg width="23" height="24" viewBox="0 0 23 24" fill="none" xmlns="http://www.w3.org/2000/svg">
<path d="M14.8177 12.6916C14.8177 13.7015 13.5595 15.3401 11.5326 16.9661C11.4933 16.9977 11.4339 16.9968 11.3946 16.9661C9.36771 15.3391 8.10942 13.7006 8.10942 12.6907C8.10942 11.9116 8.64704 11.2764 9.30733 11.2764C9.85358 11.2764 10.5052 11.4555 10.5052 12.3083C10.5052 12.8382 10.9346 13.2665 11.4636 13.2665C11.9926 13.2665 12.4219 12.8382 12.4219 12.3083C12.4219 11.4546 13.0736 11.2764 13.6198 11.2764C14.2801 11.2764 14.8177 11.9116 14.8177 12.6916ZM23 10.1284V19.0166C23 21.6584 20.8505 23.8076 18.2083 23.8076H4.79167C2.14954 23.8076 0 21.6584 0 19.0166V10.1284C0 8.53305 0.789667 7.04881 2.11217 6.15673L8.81954 1.63118C10.4478 0.533095 12.5522 0.533095 14.1805 1.63118L19.1667 4.9954V2.72736C19.1667 2.19748 19.595 1.76916 20.125 1.76916C20.655 1.76916 21.0833 2.19748 21.0833 2.72736V6.30621C22.2832 7.20787 23 8.61546 23 10.1284ZM16.7344 12.6916C16.7344 10.8557 15.3372 9.36093 13.6198 9.36093C12.7516 9.36093 12.006 9.63306 11.4636 10.1035C10.9202 9.63306 10.1756 9.36093 9.30733 9.36093C7.59 9.36093 6.19275 10.8557 6.19275 12.6916C6.19275 14.8044 8.36912 16.9949 10.1957 18.4609C10.5627 18.756 11.0132 18.9026 11.4636 18.9026C11.914 18.9026 12.3644 18.756 12.7324 18.4599C14.558 16.9949 16.7354 14.8044 16.7354 12.6907L16.7344 12.6916Z" fill="#D85088"/>
</svg>
