<svg width="22" height="23" viewBox="0 0 22 23" fill="none" xmlns="http://www.w3.org/2000/svg">
<path d="M2.3862 17.5261L3.16388 18.9461L18.6298 10.4762L17.8521 9.05616C16.7874 7.11188 15.0404 5.63215 12.9529 4.90643C10.8654 4.1807 8.58751 4.2612 6.56492 5.13218L6.04878 4.18971C6.23142 3.88728 6.30917 3.53226 6.26999 3.17972C6.2308 2.82717 6.07688 2.4968 5.83207 2.23984C5.58727 1.98288 5.26527 1.8137 4.91602 1.75853C4.56677 1.70335 4.20979 1.76528 3.90044 1.93469C3.59109 2.10411 3.34665 2.37155 3.20505 2.69554C3.06345 3.01953 3.03259 3.38195 3.11727 3.72661C3.20194 4.07126 3.3974 4.37889 3.67335 4.60177C3.9493 4.82465 4.29031 4.95033 4.64349 4.95932L5.15964 5.90178C3.33559 7.13629 2.04024 9.01227 1.52724 11.1624C1.01425 13.3125 1.32056 15.5819 2.3862 17.5261Z" fill="#FBBC04"/>
<path d="M2.2998 23.0001V21.4668H21.4665V23.0001H2.2998Z" fill="#FBBC04"/>
<path d="M18.3899 19.1665H13.0432C13.0432 19.1665 12.7223 21.4331 15.7164 21.4665C18.7103 21.4331 18.3899 19.1665 18.3899 19.1665Z" fill="#656565"/>
<path d="M9.20045 16.8667H12.2669V20.067C12.2669 20.4382 12.1588 20.7942 11.9666 21.0567C11.7743 21.3192 11.5135 21.4667 11.2416 21.4667H10.2255C9.95357 21.4667 9.69278 21.3192 9.5005 21.0567C9.30822 20.7942 9.2002 20.4382 9.2002 20.067L9.20045 16.8667Z" fill="#656565"/>
</svg>
