<svg width="23" height="24" viewBox="0 0 23 24" fill="none" xmlns="http://www.w3.org/2000/svg">
<path d="M22.9841 15.3198V16.3198H7.66406V15.3198C7.66671 14.3031 8.07244 13.3289 8.7923 12.611C9.51215 11.893 10.4874 11.4898 11.5041 11.4898H19.1641C19.6682 11.4872 20.168 11.5843 20.6344 11.7757C21.1008 11.9672 21.5247 12.249 21.8817 12.6051C22.2387 12.9611 22.5217 13.3843 22.7143 13.8502C22.9069 14.3162 23.0054 14.8156 23.0041 15.3198H22.9841Z" fill="#FBBC04"/>
<path d="M16.2941 20.1102L13.4141 18.2002H7.66406V19.2002C7.66671 20.2169 8.07244 21.191 8.7923 21.909C9.51215 22.627 10.4874 23.0302 11.5041 23.0302H19.1641C19.6682 23.0329 20.168 22.9356 20.6344 22.7442C21.1008 22.5528 21.5247 22.271 21.8817 21.9149C22.2387 21.5589 22.5217 21.1357 22.7143 20.6698C22.9069 20.2038 23.0054 19.7044 23.0041 19.2002V18.2002H19.1641L16.2941 20.1102Z" fill="#FBBC04"/>
<path d="M16.2939 1.89999V0H9.69389L9.20384 3.82999H2.87389C2.44385 3.83084 2.01968 3.93005 1.63387 4.12C1.24327 4.30139 0.900743 4.57197 0.633866 4.90997C0.37168 5.23173 0.183771 5.6074 0.0835122 6.01016C-0.0167463 6.41292 -0.0268685 6.83287 0.0538796 7.23999L2.05388 23H7.25389C6.30207 21.9474 5.77465 20.5791 5.77385 19.16V15.32C5.77385 13.795 6.37966 12.3325 7.45799 11.2541C8.53633 10.1758 9.99886 9.56998 11.5239 9.56998H15.9839L16.2639 7.32999C16.3545 6.9115 16.3545 6.47848 16.2639 6.06C16.1639 5.64021 15.9726 5.24756 15.7038 4.90997C15.437 4.57197 15.0944 4.30139 14.7038 4.12C14.3149 3.92889 13.8872 3.82967 13.4538 3.82999H11.1839L11.4339 1.89999H16.2939ZM8.71385 7.65997H2.03386L1.94386 6.91998C1.91414 6.77995 1.91485 6.63516 1.94591 6.49542C1.97696 6.35568 2.03766 6.22425 2.12389 6.10999C2.2187 5.99885 2.33416 5.90717 2.46388 5.84C2.59264 5.78133 2.73239 5.75066 2.87389 5.75H8.98387L8.71385 7.65997ZM13.4139 5.75C13.5587 5.74922 13.702 5.77993 13.8338 5.84C13.9606 5.90739 14.0727 5.99914 14.1639 6.10999C14.2605 6.23618 14.3256 6.38358 14.3539 6.53998C14.3937 6.69412 14.3937 6.85584 14.3539 7.00998L14.2739 7.65997H10.6639L10.9139 5.75H13.4139Z" fill="#FFE496"/>
</svg>
