<svg width="26" height="26" viewBox="0 0 26 26" fill="none" xmlns="http://www.w3.org/2000/svg">
<path fill-rule="evenodd" clip-rule="evenodd" d="M16.8 2.66889C14.8142 0.931623 12.3086 -0.0134541 9.7248 0.000144735C7.14674 0.00296973 4.67502 1.08033 2.8519 2.99586C1.02878 4.91139 0.00313711 7.50866 0 10.2179C0 15.3863 3.68913 19.9534 8.05377 20.4L10.0109 16.4236C9.59301 16.3699 9.17232 16.3438 8.7513 16.3453C8.35702 16.337 7.96703 16.2575 7.59835 16.1104L12.9331 10.5043L16.8 2.66889ZM3.90414 10.515C3.90414 10.4171 3.8906 10.3175 3.8906 10.2143C3.89037 8.84192 4.33125 7.50969 5.14176 6.43359L6.1271 5.39812C7.15015 4.54495 8.41707 4.07922 9.72311 4.0762C9.79506 4.07757 9.86686 4.08351 9.93812 4.094C9.98892 4.094 10.0397 4.10645 10.0939 4.11001L3.90753 10.6093L3.90414 10.515ZM5.72923 14.8348C5.25671 14.3508 4.86268 13.7889 4.56273 13.1713L12.5826 4.74517C13.1956 5.03037 13.7709 5.39754 14.2943 5.83757L5.72923 14.8348Z" fill="#9D5353"/>
<path fill-rule="evenodd" clip-rule="evenodd" d="M20.2813 6L18.2175 9.87985C18.3488 10.0761 18.4766 10.2757 18.5974 10.4787L17.1445 11.8966L12 21.5655C12.084 21.5962 12.1663 21.6303 12.2468 21.6678C12.911 21.9698 13.4864 22.4298 13.9202 23.0055C14.4786 23.709 15.1993 24.2741 16.0238 24.6551C16.8484 25.036 17.7535 25.222 18.6656 25.1979C20.3978 25.1952 22.0582 24.5233 23.2831 23.3295C24.5079 22.1356 25.1972 20.5171 25.2 18.8288C25.2 15.3379 23.6561 9.82867 20.2813 6ZM15.6742 19.2092C15.1471 18.7769 14.5639 18.4144 13.9395 18.1309L19.6669 12.5466C19.9559 13.2113 20.2078 13.8908 20.4213 14.5821L15.6742 19.2092ZM20.8152 20.0794L19.94 20.9239C19.5542 21.1543 19.111 21.2771 18.6586 21.2788C18.4007 21.3133 18.138 21.2833 17.8952 21.1917C17.6524 21.1 17.4375 20.9498 17.2705 20.755L21.0147 17.1055C21.1109 17.6753 21.1635 18.2513 21.1723 18.8288C21.1708 19.2694 21.0475 19.7014 20.8152 20.0794Z" fill="#9D5353"/>
<path d="M18.5155 2.26768L8.02334 23.9258L9.45206 24.8309L19.6251 3.07214L18.5155 2.26768Z" fill="#9D5353"/>
</svg>
