<svg xmlns="http://www.w3.org/2000/svg" width="35" height="23" viewBox="0 0 35 23" fill="none">
  <path d="M17.5013 0C19.4867 0 21.0954 1.60856 21.0954 3.59375C21.0954 5.57894 19.4867 7.1875 17.5013 7.1875C15.516 7.1875 13.9073 5.57894 13.9073 3.59375C13.9073 1.60856 15.516 0 17.5013 0ZM0.25 18.6875V23H7.43806V14.375H4.56284C2.18071 14.375 0.25 16.3056 0.25 18.6875ZM31.8775 7.90625C31.8775 5.92106 30.2688 4.3125 28.2834 4.3125C26.2981 4.3125 24.6894 5.92106 24.6894 7.90625C24.6894 9.89144 26.2981 11.5 28.2834 11.5C30.2688 11.5 31.8775 9.89144 31.8775 7.90625ZM30.4399 14.375H27.5646V23H34.7527V18.6875C34.7527 16.3056 32.822 14.375 30.4399 14.375ZM20.3766 10.0625H14.6261C12.2483 10.0625 10.3133 11.9974 10.3133 14.375V23H24.6894V14.375C24.6894 11.9974 22.7544 10.0625 20.3766 10.0625ZM6.71925 4.3125C4.73391 4.3125 3.12522 5.92106 3.12522 7.90625C3.12522 9.89144 4.73391 11.5 6.71925 11.5C8.7046 11.5 10.3133 9.89144 10.3133 7.90625C10.3133 5.92106 8.7046 4.3125 6.71925 4.3125Z" fill="#656565"/>
</svg>