<svg xmlns="http://www.w3.org/2000/svg" width="82" height="82" viewBox="0 0 82 82" fill="none">
  <path d="M41 80C19.4609 80 2 62.5391 2 41C2 19.4609 19.4609 2 41 2C62.5391 2 80 19.4609 80 41C80 62.5391 62.5391 80 41 80Z" fill="#F9E593" stroke="#262525" stroke-width="3" stroke-linecap="round" stroke-linejoin="round"/>
  <path d="M63 46C63 46 57.9526 56 42 56C26.0473 56 21 46 21 46" stroke="#262525" stroke-width="3" stroke-linecap="round" stroke-linejoin="round"/>
  <path d="M22 40C19.7909 40 18 38.2091 18 36C18 33.7909 19.7909 32 22 32C24.2091 32 26 33.7909 26 36C26 38.2091 24.2091 40 22 40Z" fill="#262525" stroke="#262525" stroke-width="3" stroke-linecap="round" stroke-linejoin="round"/>
  <path d="M62 40C59.7909 40 58 38.2091 58 36C58 33.7909 59.7909 32 62 32C64.2091 32 66 33.7909 66 36C66 38.2091 64.2091 40 62 40Z" fill="#262525" stroke="#262525" stroke-width="3" stroke-linecap="round" stroke-linejoin="round"/>
</svg>