<svg xmlns="http://www.w3.org/2000/svg" width="23" height="23" viewBox="0 0 23 23" fill="none">
  <path d="M18.208 0.958333C18.208 0.429333 18.6364 0 19.1663 0H22.0413C22.4045 0 22.7361 0.205083 22.899 0.529958C23.0609 0.854833 23.0264 1.24296 22.8079 1.53333L21.083 3.83333H22.0413C22.5712 3.83333 22.9996 4.26267 22.9996 4.79167C22.9996 5.32067 22.5712 5.75 22.0413 5.75H19.1663C18.8031 5.75 18.4715 5.54492 18.3086 5.22004C18.1467 4.89517 18.1812 4.50704 18.3997 4.21667L20.1246 1.91667H19.1663C18.6364 1.91667 18.208 1.48733 18.208 0.958333ZM12.4581 3.83333H13.4164L11.6915 6.13333C11.473 6.42371 11.4385 6.81183 11.6004 7.13671C11.7633 7.46158 12.0949 7.66667 12.4581 7.66667H15.3331C15.863 7.66667 16.2914 7.23733 16.2914 6.70833C16.2914 6.17933 15.863 5.75 15.3331 5.75H14.3747L16.0997 3.45C16.3182 3.15962 16.3527 2.7715 16.1908 2.44662C16.0278 2.12175 15.6963 1.91667 15.3331 1.91667H12.4581C11.9282 1.91667 11.4998 2.346 11.4998 2.875C11.4998 3.404 11.9282 3.83333 12.4581 3.83333ZM9.58317 16.2917C9.58317 17.3506 10.4409 18.2083 11.4998 18.2083C12.5587 18.2083 13.4164 17.3506 13.4164 16.2917C13.4164 15.2327 12.5587 14.375 11.4998 14.375C10.4409 14.375 9.58317 15.2327 9.58317 16.2917ZM15.565 10.2379C15.4682 10.3855 15.3752 10.4698 15.3158 10.511C15.2669 10.4669 15.1941 10.3855 15.1088 10.2513C14.6824 9.58142 13.7931 9.38304 13.1251 9.80854C12.4552 10.234 12.2569 11.1224 12.6814 11.7923C13.5736 13.1962 14.6939 13.4109 15.2832 13.4138H15.2976C16.3192 13.4138 17.3206 12.8129 17.9761 11.8047C18.4083 11.1387 18.2195 10.2484 17.5544 9.81621C16.8884 9.384 15.9972 9.57183 15.565 10.2379ZM9.88695 9.81621C9.22092 9.384 8.33065 9.57183 7.89844 10.2379C7.80165 10.3855 7.7087 10.4698 7.64928 10.511C7.60041 10.4669 7.52758 10.3855 7.44229 10.2513C7.01583 9.58142 6.12652 9.38304 5.45857 9.80854C4.78871 10.234 4.59034 11.1224 5.01487 11.7923C5.90706 13.1962 7.02734 13.4109 7.6167 13.4138H7.63107C8.65264 13.4138 9.65408 12.8129 10.3096 11.8047C10.7418 11.1387 10.552 10.2484 9.88695 9.81621ZM20.7916 7.37342C20.0269 7.59 19.5832 8.38446 19.7998 9.14825C20.0154 9.90917 20.1246 10.7008 20.1246 11.501C20.1246 16.2562 16.2559 20.126 11.4998 20.126C6.74367 20.126 2.87495 16.2552 2.87495 11.5C2.87495 7.65708 5.45378 4.2435 9.14713 3.19892C9.91091 2.98233 10.3556 2.18787 10.139 1.42408C9.92337 0.659333 9.12701 0.215625 8.36419 0.432208C3.4394 1.82562 0 6.37675 0 11.5C0 17.8413 5.15862 23 11.4998 23C17.841 23 22.9996 17.8413 22.9996 11.5C22.9996 10.4353 22.8539 9.38017 22.5664 8.36433C22.3489 7.59958 21.5487 7.15971 20.7916 7.37342Z" fill="#656565"/>
</svg>