<svg width="26" height="26" viewBox="0 0 26 26" fill="none" xmlns="http://www.w3.org/2000/svg">
<path d="M13 25C6.37258 25 1 19.6274 1 13C1 6.37258 6.37258 1 13 1C19.6274 1 25 6.37258 25 13C25 19.6274 19.6274 25 13 25Z" fill="white" stroke="#262525" stroke-linecap="round" stroke-linejoin="round"/>
<path d="M19.7686 14.5381C19.7686 14.5381 18.2155 17.615 13.307 17.615C8.39851 17.615 6.84548 14.5381 6.84548 14.5381" stroke="#262525" stroke-linecap="round" stroke-linejoin="round"/>
<path d="M7.154 12.6925C6.47426 12.6925 5.92323 12.1415 5.92323 11.4617C5.92323 10.782 6.47426 10.231 7.154 10.231C7.83373 10.231 8.38477 10.782 8.38477 11.4617C8.38477 12.1415 7.83373 12.6925 7.154 12.6925Z" fill="#262525" stroke="#262525" stroke-linecap="round" stroke-linejoin="round"/>
<path d="M19.4616 12.6925C18.7819 12.6925 18.2308 12.1415 18.2308 11.4617C18.2308 10.782 18.7819 10.231 19.4616 10.231C20.1413 10.231 20.6924 10.782 20.6924 11.4617C20.6924 12.1415 20.1413 12.6925 19.4616 12.6925Z" fill="#262525" stroke="#262525" stroke-linecap="round" stroke-linejoin="round"/>
</svg>
