<svg xmlns="http://www.w3.org/2000/svg" width="83" height="81" viewBox="0 0 83 81" fill="none">
  <path d="M41.5 79.5C19.6848 79.5 2 62.0391 2 40.5C2 18.9609 19.6848 1.5 41.5 1.5C63.3152 1.5 81 18.9609 81 40.5C81 62.0391 63.3152 79.5 41.5 79.5Z" fill="white" stroke="#262525" stroke-width="3" stroke-linecap="round" stroke-linejoin="round"/>
  <path d="M20 54.5L27.1629 47.5L34.3276 54.5L41.4948 47.5L48.6603 54.5L55.8302 47.5L63 54.5" stroke="#262525" stroke-width="3" stroke-linecap="round" stroke-linejoin="round"/>
  <path d="M21.5 39.5C19.0147 39.5 17 37.7091 17 35.5C17 33.2909 19.0147 31.5 21.5 31.5C23.9853 31.5 26 33.2909 26 35.5C26 37.7091 23.9853 39.5 21.5 39.5Z" fill="#262525" stroke="#262525" stroke-width="3" stroke-linecap="round" stroke-linejoin="round"/>
  <path d="M61.5 39.5C59.0147 39.5 57 37.7091 57 35.5C57 33.2909 59.0147 31.5 61.5 31.5C63.9853 31.5 66 33.2909 66 35.5C66 37.7091 63.9853 39.5 61.5 39.5Z" fill="#262525" stroke="#262525" stroke-width="3" stroke-linecap="round" stroke-linejoin="round"/>
</svg>