<svg xmlns="http://www.w3.org/2000/svg" width="82" height="81" viewBox="0 0 82 81" fill="none">
  <path d="M41 79.5C19.4609 79.5 2 62.0391 2 40.5C2 18.9609 19.4609 1.5 41 1.5C62.5391 1.5 80 18.9609 80 40.5C80 62.0391 62.5391 79.5 41 79.5Z" fill="white" stroke="#262525" stroke-width="3" stroke-linecap="round" stroke-linejoin="round"/>
  <path d="M63 45.5C63 45.5 57.9526 55.5 42 55.5C26.0473 55.5 21 45.5 21 45.5" stroke="#262525" stroke-width="3" stroke-linecap="round" stroke-linejoin="round"/>
  <path d="M22 39.5C19.7909 39.5 18 37.7091 18 35.5C18 33.2909 19.7909 31.5 22 31.5C24.2091 31.5 26 33.2909 26 35.5C26 37.7091 24.2091 39.5 22 39.5Z" fill="#262525" stroke="#262525" stroke-width="3" stroke-linecap="round" stroke-linejoin="round"/>
  <path d="M62 39.5C59.7909 39.5 58 37.7091 58 35.5C58 33.2909 59.7909 31.5 62 31.5C64.2091 31.5 66 33.2909 66 35.5C66 37.7091 64.2091 39.5 62 39.5Z" fill="#262525" stroke="#262525" stroke-width="3" stroke-linecap="round" stroke-linejoin="round"/>
</svg>