<svg xmlns="http://www.w3.org/2000/svg" width="23" height="21" viewBox="0 0 23 21" fill="none">
  <path d="M20.0948 10.043L20.0889 10.0488C20.0583 10.0834 20.0252 10.1157 19.9899 10.1455L18.3867 11.7526L18.4124 11.9542L20.2661 12.5614C20.5207 12.6447 20.7602 12.7521 20.99 12.8726L20.7393 10.9521C20.6878 10.5557 20.443 10.2288 20.0948 10.043Z" fill="#656565"/>
  <path d="M6.21155 15.9134L8.96092 15.0132C8.96188 15.0131 8.96282 15.0128 8.96371 15.0123L9.87911 14.7126C10.2288 14.5984 10.4597 14.2612 10.4162 13.9283C10.3877 13.7065 10.2709 13.5205 10.0867 13.4039C9.99513 13.3461 9.89195 13.3094 9.78454 13.2962C9.67712 13.2831 9.56814 13.2939 9.46539 13.3279L8.51492 13.6391C8.51402 13.6395 8.51304 13.6398 8.51259 13.64L5.76322 14.5404C5.72715 14.5522 5.68944 14.5582 5.65149 14.5582C5.57581 14.5582 5.50206 14.5342 5.44078 14.4897C5.3795 14.4453 5.33381 14.3826 5.31022 14.3106C5.28061 14.22 5.28816 14.1213 5.33121 14.0363C5.37425 13.9512 5.44927 13.8868 5.53977 13.8571L8.28913 12.9564L8.29147 12.9558C8.3821 12.9262 8.46599 12.879 8.53831 12.8168C8.61062 12.7546 8.66992 12.6787 8.71279 12.5935C8.75621 12.5087 8.78232 12.416 8.78962 12.321C8.79692 12.226 8.78525 12.1304 8.7553 12.04C8.72609 11.9498 8.67922 11.8663 8.61742 11.7945C8.55562 11.7226 8.48013 11.6638 8.39537 11.6215C8.29378 11.57 8.18152 11.5431 8.06764 11.543C7.99012 11.543 7.91309 11.5554 7.83944 11.5796L4.93456 12.5311C4.87065 12.5801 4.79247 12.6069 4.71194 12.6074C4.70968 12.6074 4.70795 12.606 4.70584 12.6059L2.75684 13.2443C0.664285 13.9291 -0.484353 16.1801 0.195861 18.2619C0.524946 19.2696 1.22946 20.0881 2.1785 20.5665C3.12753 21.0448 4.20988 21.1259 5.22385 20.7939L8.92218 19.5828C9.31581 19.4541 9.55612 19.053 9.45794 18.6889C9.43283 18.5935 9.38838 18.5044 9.32735 18.427C9.26632 18.3496 9.19001 18.2856 9.1032 18.239C9.01649 18.1914 8.92091 18.1622 8.82243 18.1533C8.72395 18.1444 8.6247 18.1559 8.53087 18.1872L7.10747 18.6534C7.0714 18.6652 7.03369 18.6712 6.99574 18.6711C6.92007 18.6711 6.84633 18.6471 6.78505 18.6027C6.72377 18.5582 6.67807 18.4955 6.65447 18.4236C6.62481 18.333 6.63229 18.2344 6.67528 18.1493C6.71828 18.0643 6.79325 17.9998 6.88372 17.9701L8.30569 17.5045C8.30569 17.5045 8.30606 17.5045 8.30629 17.5045L9.57696 17.0885C9.72137 17.0412 9.85009 16.9553 9.94915 16.84C9.95713 16.8302 9.96067 16.8183 9.96962 16.8092C9.97067 16.8081 9.97233 16.8078 9.97346 16.8067C10.11 16.6301 10.17 16.4061 10.1122 16.1931C10.0869 16.0985 10.0425 16.0102 9.98184 15.9334C9.92115 15.8567 9.8454 15.7932 9.75926 15.7469C9.67219 15.6996 9.57637 15.6707 9.47771 15.662C9.37905 15.6533 9.27966 15.6649 9.18565 15.6961L9.18468 15.6966L6.435 16.5966C6.39893 16.6084 6.36122 16.6144 6.32328 16.6144C6.2476 16.6143 6.17388 16.5904 6.1126 16.5459C6.05132 16.5015 6.00562 16.4388 5.98201 16.3668C5.95238 16.2762 5.95992 16.1776 6.00296 16.0925C6.04601 16.0075 6.12104 15.9431 6.21155 15.9134Z" fill="#656565"/>
  <path d="M4.41125 11.749L2.71211 10.0482C2.71038 10.0464 2.70887 10.0447 2.70714 10.043C2.36301 10.2263 2.11413 10.5587 2.06229 10.9526L1.80859 12.8731C2.03859 12.7526 2.27829 12.645 2.53312 12.5616L4.38507 11.955L4.41125 11.749Z" fill="#656565"/>
  <path d="M11.6695 13.8358C11.7256 13.4044 11.9654 13.0253 12.3282 12.796C12.6243 12.6081 12.9786 12.5344 13.325 12.5889C13.2661 12.3329 13.2784 12.0657 13.3605 11.8162C13.4189 11.6362 13.5125 11.4695 13.6359 11.326C13.7592 11.1825 13.9099 11.065 14.079 10.9803C14.2484 10.8944 14.433 10.8428 14.6224 10.8285C14.8117 10.8142 15.002 10.8374 15.1823 10.8967L17.4755 11.6478L19.5099 9.61145L19.5488 9.57379C19.552 9.57025 19.5796 9.54171 19.5829 9.53847L19.6521 9.46873C19.6852 9.43552 19.7133 9.40343 19.7409 9.37165L19.7414 9.37097C19.7419 9.37048 19.7423 9.36995 19.7427 9.36939C21.0132 7.98084 21.4881 6.06985 21.0195 4.24916C20.5371 2.37424 19.1235 0.916026 17.1407 0.248225C15.3108 -0.365727 13.2754 0.178484 11.8303 1.66735C11.8065 1.69333 11.7785 1.7212 11.7523 1.74718C11.7282 1.76956 11.7056 1.79345 11.6846 1.81873C11.6522 1.86077 11.611 1.89511 11.5637 1.91927C11.5165 1.94343 11.4646 1.9568 11.4116 1.95843C11.3012 1.96476 11.2009 1.91701 11.1301 1.83605C11.0978 1.79907 11.0651 1.76684 11.0282 1.73009C9.98327 0.683836 8.59621 0.10882 7.12119 0.10882C7.12027 0.108708 7.11933 0.108708 7.11841 0.10882C5.64482 0.109573 4.26009 0.684664 3.21995 1.72805C1.11806 3.82763 1.04463 7.18072 3.05255 9.36284C3.11522 9.43115 3.1648 9.48477 3.21897 9.53877L5.32477 11.6468L7.61534 10.8965C7.79572 10.837 7.98606 10.8138 8.17545 10.8281C8.36483 10.8424 8.54951 10.894 8.71892 10.98C8.88812 11.0647 9.03879 11.1824 9.16214 11.326C9.2855 11.4696 9.37907 11.6364 9.43742 11.8165C9.5195 12.0659 9.53179 12.333 9.47294 12.5889C9.81927 12.535 10.1734 12.6086 10.4697 12.796C10.8325 13.0253 11.0723 13.4044 11.1284 13.8358C11.205 14.4282 10.8876 15.0022 10.3534 15.2882C10.5723 15.4757 10.7294 15.7251 10.8041 16.0036C10.8996 16.3547 10.8469 16.712 10.6876 17.0194C11.0812 17.4094 11.7191 17.4096 12.1089 17.0194L12.1098 17.0185C11.9508 16.7113 11.8982 16.3542 11.9939 16.0034C12.0684 15.7249 12.2253 15.4755 12.4441 15.2879C11.9103 15.0022 11.593 14.4282 11.6695 13.8358ZM17.1715 2.65184C17.2012 2.61513 17.2379 2.58465 17.2794 2.56213C17.3208 2.53961 17.3663 2.5255 17.4133 2.52061C17.4602 2.51571 17.5077 2.52013 17.5529 2.5336C17.5981 2.54707 17.6403 2.56934 17.6769 2.59912C18.8597 3.55891 19.5142 4.97969 19.4721 6.4971C19.4694 6.59064 19.4304 6.67945 19.3634 6.74467C19.2963 6.80989 19.2066 6.84638 19.1131 6.8464C19.1098 6.8464 19.1065 6.8464 19.1032 6.8464C19.0081 6.84372 18.9178 6.80336 18.8524 6.73418C18.7869 6.665 18.7515 6.57264 18.754 6.47737C18.79 5.18552 18.2323 3.97554 17.2243 3.1578C17.1876 3.12806 17.1572 3.09137 17.1346 3.04983C17.1121 3.00829 17.098 2.96271 17.0931 2.91571C17.0882 2.8687 17.0926 2.82119 17.1061 2.77588C17.1195 2.73058 17.1418 2.68838 17.1715 2.65169V2.65184Z" fill="#656565"/>
  <path d="M20.0437 13.2443L14.9611 11.5799C14.8703 11.5497 14.7743 11.5378 14.6789 11.545C14.5835 11.5522 14.4904 11.5783 14.4051 11.6218C14.3204 11.6641 14.2449 11.7228 14.1831 11.7946C14.1213 11.8664 14.0745 11.9498 14.0452 12.0399C14.0153 12.1305 14.0036 12.2261 14.0109 12.3211C14.0182 12.4162 14.0443 12.5089 14.0877 12.5938C14.1306 12.679 14.1899 12.7549 14.2622 12.8171C14.3345 12.8793 14.4184 12.9265 14.509 12.956L14.5114 12.9567L17.2604 13.8569C17.3509 13.8865 17.426 13.951 17.469 14.036C17.5121 14.1211 17.5196 14.2197 17.49 14.3103C17.4664 14.3823 17.4207 14.445 17.3594 14.4895C17.2981 14.5339 17.2244 14.5579 17.1487 14.558C17.1108 14.558 17.0731 14.5519 17.037 14.5401L14.2878 13.6397C14.2874 13.6397 14.2864 13.6393 14.2855 13.6388L13.3351 13.3276C13.2323 13.2934 13.1233 13.2825 13.0159 13.2957C12.9084 13.3088 12.8052 13.3457 12.7138 13.4036C12.5296 13.5202 12.4128 13.7062 12.3841 13.928C12.3407 14.261 12.5716 14.5983 12.9213 14.7123L13.8367 15.0121C13.8376 15.0125 13.8386 15.0128 13.8395 15.013L16.5889 15.9134C16.6794 15.9431 16.7544 16.0075 16.7975 16.0926C16.8405 16.1776 16.8481 16.2763 16.8184 16.3669C16.7948 16.4389 16.7491 16.5015 16.6878 16.546C16.6266 16.5904 16.5528 16.6144 16.4772 16.6145C16.4392 16.6144 16.4015 16.6084 16.3654 16.5967L13.6161 15.6962L13.6151 15.6958C13.422 15.6338 13.2187 15.6506 13.0415 15.7465C12.9554 15.7928 12.8797 15.8563 12.8191 15.933C12.7584 16.0097 12.7142 16.098 12.689 16.1925C12.6307 16.4066 12.6914 16.6318 12.8292 16.8086C12.93 16.939 13.0673 17.0363 13.2237 17.0881L14.4944 17.5041C14.4944 17.5041 14.4948 17.5041 14.495 17.5041L15.9165 17.9697C15.9613 17.9844 16.0028 18.0078 16.0386 18.0385C16.0744 18.0692 16.1038 18.1067 16.1251 18.1488C16.1464 18.191 16.1592 18.2369 16.1628 18.2839C16.1664 18.331 16.1607 18.3783 16.146 18.4232C16.1224 18.4951 16.0767 18.5578 16.0155 18.6023C15.9542 18.6467 15.8804 18.6707 15.8048 18.6707C15.7668 18.6708 15.7291 18.6648 15.693 18.653L14.2701 18.1869C14.1966 18.1628 14.1197 18.1505 14.0424 18.1503C13.9218 18.1503 13.8031 18.1807 13.6973 18.2386C13.6105 18.2852 13.5341 18.3492 13.4731 18.4267C13.412 18.5041 13.3676 18.5933 13.3425 18.6887C13.2443 19.0529 13.4846 19.4539 13.8782 19.5826L17.5764 20.7942C19.6699 21.4783 21.9247 20.3428 22.6044 18.2617C23.2842 16.1806 22.1362 13.9292 20.0437 13.2443Z" fill="#656565"/>
</svg>