<svg xmlns="http://www.w3.org/2000/svg" width="82" height="82" viewBox="0 0 82 82" fill="none">
  <path d="M41 80C19.4609 80 2 62.5391 2 41C2 19.4609 19.4609 2 41 2C62.5391 2 80 19.4609 80 41C80 62.5391 62.5391 80 41 80Z" fill="white" stroke="#262525" stroke-width="3" stroke-linecap="round" stroke-linejoin="round"/>
  <path d="M22 40C19.7909 40 18 38.2091 18 36C18 33.7909 19.7909 32 22 32C24.2091 32 26 33.7909 26 36C26 38.2091 24.2091 40 22 40Z" fill="#262525" stroke="#262525" stroke-width="3" stroke-linecap="round" stroke-linejoin="round"/>
  <path d="M62 40C59.7909 40 58 38.2091 58 36C58 33.7909 59.7909 32 62 32C64.2091 32 66 33.7909 66 36C66 38.2091 64.2091 40 62 40Z" fill="#262525" stroke="#262525" stroke-width="3" stroke-linecap="round" stroke-linejoin="round"/>
  <mask id="path-4-inside-1_37_82" fill="white">
    <path d="M63 51C63 52.5759 62.4439 54.1363 61.3634 55.5922C60.2829 57.0481 58.6993 58.371 56.7028 59.4853C54.7063 60.5996 52.3362 61.4835 49.7277 62.0866C47.1192 62.6896 44.3234 63 41.5 63C38.6766 63 35.8808 62.6896 33.2723 62.0866C30.6638 61.4835 28.2937 60.5996 26.2972 59.4853C24.3007 58.371 22.7171 57.0481 21.6366 55.5922C20.5561 54.1363 20 52.5759 20 51L41.5 51L63 51Z"/>
  </mask>
  <path d="M63 51C63 52.5759 62.4439 54.1363 61.3634 55.5922C60.2829 57.0481 58.6993 58.371 56.7028 59.4853C54.7063 60.5996 52.3362 61.4835 49.7277 62.0866C47.1192 62.6896 44.3234 63 41.5 63C38.6766 63 35.8808 62.6896 33.2723 62.0866C30.6638 61.4835 28.2937 60.5996 26.2972 59.4853C24.3007 58.371 22.7171 57.0481 21.6366 55.5922C20.5561 54.1363 20 52.5759 20 51L41.5 51L63 51Z" stroke="#262525" stroke-width="6" mask="url(#path-4-inside-1_37_82)"/>
</svg>