<svg xmlns="http://www.w3.org/2000/svg" width="82" height="81" viewBox="0 0 82 81" fill="none">
  <path d="M41 79.5C19.4609 79.5 2 62.0391 2 40.5C2 18.9609 19.4609 1.5 41 1.5C62.5391 1.5 80 18.9609 80 40.5C80 62.0391 62.5391 79.5 41 79.5Z" fill="#F2BD00" stroke="#262525" stroke-width="3" stroke-linecap="round" stroke-linejoin="round"/>
  <path d="M22 39.5C19.7909 39.5 18 37.7091 18 35.5C18 33.2909 19.7909 31.5 22 31.5C24.2091 31.5 26 33.2909 26 35.5C26 37.7091 24.2091 39.5 22 39.5Z" fill="#262525" stroke="#262525" stroke-width="3" stroke-linecap="round" stroke-linejoin="round"/>
  <path d="M62 39.5C59.7909 39.5 58 37.7091 58 35.5C58 33.2909 59.7909 31.5 62 31.5C64.2091 31.5 66 33.2909 66 35.5C66 37.7091 64.2091 39.5 62 39.5Z" fill="#262525" stroke="#262525" stroke-width="3" stroke-linecap="round" stroke-linejoin="round"/>
  <mask id="path-4-inside-1_37_212" fill="white">
    <path d="M63 50.5C63 52.0759 62.4439 53.6363 61.3634 55.0922C60.2829 56.5481 58.6993 57.871 56.7028 58.9853C54.7063 60.0996 52.3362 60.9835 49.7277 61.5866C47.1192 62.1896 44.3234 62.5 41.5 62.5C38.6766 62.5 35.8808 62.1896 33.2723 61.5866C30.6638 60.9835 28.2937 60.0996 26.2972 58.9853C24.3007 57.871 22.7171 56.5481 21.6366 55.0922C20.5561 53.6363 20 52.0759 20 50.5L41.5 50.5L63 50.5Z"/>
  </mask>
  <path d="M63 50.5C63 52.0759 62.4439 53.6363 61.3634 55.0922C60.2829 56.5481 58.6993 57.871 56.7028 58.9853C54.7063 60.0996 52.3362 60.9835 49.7277 61.5866C47.1192 62.1896 44.3234 62.5 41.5 62.5C38.6766 62.5 35.8808 62.1896 33.2723 61.5866C30.6638 60.9835 28.2937 60.0996 26.2972 58.9853C24.3007 57.871 22.7171 56.5481 21.6366 55.0922C20.5561 53.6363 20 52.0759 20 50.5L41.5 50.5L63 50.5Z" stroke="#262525" stroke-width="6" mask="url(#path-4-inside-1_37_212)"/>
</svg>