<svg width="26" height="26" viewBox="0 0 26 26" fill="none" xmlns="http://www.w3.org/2000/svg">
<path d="M13 25C6.37258 25 1 19.6274 1 13C1 6.37258 6.37258 1 13 1C19.6274 1 25 6.37258 25 13C25 19.6274 19.6274 25 13 25Z" fill="white" stroke="#262525" stroke-linecap="round" stroke-linejoin="round"/>
<path d="M7.154 12.6925C6.47426 12.6925 5.92323 12.1415 5.92323 11.4617C5.92323 10.782 6.47426 10.231 7.154 10.231C7.83373 10.231 8.38477 10.782 8.38477 11.4617C8.38477 12.1415 7.83373 12.6925 7.154 12.6925Z" fill="#262525" stroke="#262525" stroke-linecap="round" stroke-linejoin="round"/>
<path d="M19.4616 12.6925C18.7819 12.6925 18.2308 12.1415 18.2308 11.4617C18.2308 10.782 18.7819 10.231 19.4616 10.231C20.1413 10.231 20.6924 10.782 20.6924 11.4617C20.6924 12.1415 20.1413 12.6925 19.4616 12.6925Z" fill="#262525" stroke="#262525" stroke-linecap="round" stroke-linejoin="round"/>
<mask id="path-4-inside-1_3626_2069" fill="white">
<path d="M19.7698 16.0767C19.7698 16.5616 19.5987 17.0417 19.2663 17.4897C18.9338 17.9377 18.4465 18.3447 17.8322 18.6876C17.2179 19.0305 16.4887 19.3024 15.686 19.488C14.8834 19.6735 14.0232 19.769 13.1544 19.769C12.2857 19.769 11.4255 19.6735 10.6228 19.488C9.82023 19.3024 9.09096 19.0305 8.47666 18.6876C7.86237 18.3447 7.37508 17.9377 7.04263 17.4897C6.71017 17.0417 6.53906 16.5616 6.53906 16.0767L13.1544 16.0767L19.7698 16.0767Z"/>
</mask>
<path d="M19.7698 16.0767C19.7698 16.5616 19.5987 17.0417 19.2663 17.4897C18.9338 17.9377 18.4465 18.3447 17.8322 18.6876C17.2179 19.0305 16.4887 19.3024 15.686 19.488C14.8834 19.6735 14.0232 19.769 13.1544 19.769C12.2857 19.769 11.4255 19.6735 10.6228 19.488C9.82023 19.3024 9.09096 19.0305 8.47666 18.6876C7.86237 18.3447 7.37508 17.9377 7.04263 17.4897C6.71017 17.0417 6.53906 16.5616 6.53906 16.0767L13.1544 16.0767L19.7698 16.0767Z" stroke="#262525" stroke-width="2" mask="url(#path-4-inside-1_3626_2069)"/>
</svg>
