<svg width="24" height="23" viewBox="0 0 24 23" fill="none" xmlns="http://www.w3.org/2000/svg">
<path d="M19.0715 3.21211L18.6781 3.49181L17.4062 1.70282C16.7827 0.825873 15.5695 0.614637 14.702 1.23139C14.3986 1.44706 14.1769 1.73586 14.0438 2.05768C13.3816 1.46688 12.3804 1.38567 11.6349 1.91567L11.6345 1.916C10.7671 2.53264 10.5679 3.74804 11.1914 4.62499L13.1698 7.40786L7.1909 11.6586L5.21243 8.87569C4.58897 7.99875 3.37558 7.78762 2.50776 8.40459C1.76228 8.93459 1.51008 9.90689 1.85054 10.7265C1.50287 10.7464 1.15725 10.861 0.853891 11.0766C-0.0136125 11.6934 -0.212662 12.9087 0.410799 13.7856L1.68267 15.5746L1.28926 15.8543C0.638597 16.3169 0.489486 17.2285 0.956944 17.8861L2.0875 19.4763C2.55496 20.1338 3.46498 20.2924 4.11565 19.8298L4.50906 19.5501L5.78094 21.3391C6.4044 22.2161 7.61764 22.4273 8.48514 21.8106C8.7885 21.5949 9.01025 21.3061 9.14328 20.9843C9.80553 21.5751 10.8067 21.6563 11.5522 21.1263L11.5527 21.126C12.42 20.5093 12.6192 19.2939 11.9958 18.417L10.0173 15.6341L15.9962 11.3834L17.9747 14.1663C18.5982 15.0432 19.8115 15.2543 20.6794 14.6374C21.4248 14.1074 21.677 13.1351 21.3366 12.3155C21.6843 12.2956 22.0299 12.181 22.3332 11.9653C23.2007 11.3486 23.3998 10.1333 22.7763 9.25632L21.5044 7.46734L21.8979 7.18764C22.5485 6.72505 22.6976 5.81341 22.2302 5.1559L21.0996 3.56569C20.6322 2.90817 19.7221 2.74952 19.0715 3.21211ZM3.94379 18.755L3.55037 19.0347C3.33354 19.1889 3.03011 19.136 2.87432 18.9169L1.74377 17.3267C1.58798 17.1075 1.6377 16.8036 1.85454 16.6494L2.24795 16.3697L3.94379 18.755ZM8.14141 19.661C8.29741 19.8804 8.35067 20.1418 8.31056 20.387C8.27045 20.6323 8.13701 20.8611 7.91986 21.0155C7.48588 21.324 6.87955 21.2183 6.56776 20.7797L1.19762 13.2262C0.885837 12.7877 0.985186 12.1803 1.41917 11.8717C1.85315 11.5632 2.45948 11.6689 2.77127 12.1075L8.14141 19.661ZM11.2089 18.9764C11.5207 19.4149 11.4209 20.0226 10.9874 20.3308L10.9869 20.3312C10.5534 20.6394 9.94661 20.534 9.63483 20.0955L2.8515 10.5542C2.53971 10.1156 2.63952 9.5079 3.0735 9.19937C3.50702 8.89115 4.11382 8.99653 4.4256 9.43508L11.2089 18.9764ZM14.2981 8.99971L11.547 10.9556C11.3298 11.11 11.2802 11.4134 11.4362 11.6329C11.5922 11.8523 11.8951 11.9051 12.1122 11.7507L14.8634 9.79482L15.4286 10.5899L9.45001 14.8404L7.75418 12.4551L13.7328 8.20461L14.2981 8.99971ZM20.3356 12.4878C20.6474 12.9263 20.5476 13.534 20.1136 13.8426C19.6801 14.1508 19.0733 14.0454 18.7615 13.6069L15.3843 8.85658C15.3902 8.86549 15.3956 8.87474 15.4003 8.884L15.3348 8.79175C15.3419 8.79926 15.3489 8.80741 15.3554 8.81589L11.9782 4.0656C11.6664 3.62705 11.7662 3.01932 12.1997 2.7111L12.2002 2.71078C12.6337 2.40257 13.2405 2.50794 13.5523 2.94649L20.3356 12.4878ZM21.9895 9.81571C22.3013 10.2543 22.2019 10.8617 21.768 11.1702C21.334 11.4787 20.7276 11.373 20.4159 10.9345L15.0457 3.38099C14.7339 2.94244 14.8333 2.33503 15.2673 2.02649C15.7012 1.71795 16.3076 1.82366 16.6194 2.26221L21.9895 9.81571ZM21.4434 5.71529C21.5991 5.93441 21.5494 6.23838 21.3326 6.39254L20.9392 6.67223L19.2433 4.28691L19.6368 4.00722C19.8536 3.85306 20.157 3.90596 20.3128 4.12508L21.4434 5.71529Z" fill="white"/>
</svg>
