<svg xmlns="http://www.w3.org/2000/svg" width="27" height="27" viewBox="0 0 27 27" fill="none">
  <path d="M13.4991 0C6.04313 0 0 6.045 0 13.5C0 20.955 6.04459 27 13.4991 27C20.9536 27 27 20.955 27 13.5C27 6.045 20.9554 0 13.4991 0ZM6.13129 9.32049C6.13197 8.86533 6.31307 8.42901 6.63489 8.10717C6.95671 7.78532 7.393 7.60421 7.84812 7.60354C8.30325 7.60421 8.73954 7.78532 9.06136 8.10717C9.38318 8.42901 9.56428 8.86533 9.56496 9.32049C9.56428 9.77564 9.38318 10.212 9.06136 10.5338C8.73954 10.8556 8.30325 11.0368 7.84812 11.0374C7.393 11.0368 6.95671 10.8556 6.63489 10.5338C6.31307 10.212 6.13197 9.77564 6.13129 9.32049ZM19.2437 20.2595C18.4129 21.0278 16.6331 22.3412 14.0471 22.5084C13.8678 22.5199 13.6888 22.5256 13.5101 22.5256C12.2136 22.5256 10.9493 22.2201 9.74202 21.6143C9.02189 21.2562 8.35446 20.8007 7.7585 20.2606C7.68765 20.1957 7.63029 20.1174 7.58969 20.0303C7.54909 19.9432 7.52604 19.849 7.52186 19.753C7.51768 19.657 7.53245 19.5611 7.56534 19.4708C7.59822 19.3805 7.64857 19.2975 7.7135 19.2267C7.77843 19.1559 7.85667 19.0985 7.94376 19.0579C8.03086 19.0173 8.1251 18.9942 8.2211 18.9901C8.3171 18.9859 8.41298 19.0006 8.50328 19.0335C8.59357 19.0664 8.6765 19.1168 8.74733 19.1817C9.2734 19.6643 11.2035 21.2243 13.9545 21.0476C16.0895 20.9096 17.5634 19.8212 18.2519 19.1846C18.3945 19.0535 18.5832 18.9843 18.7767 18.9921C18.9703 18.9999 19.1528 19.0842 19.2843 19.2263C19.4154 19.3688 19.4848 19.5573 19.4772 19.7508C19.4696 19.9442 19.3856 20.1268 19.2437 20.2584V20.2595ZM19.1504 11.04C18.6953 11.0393 18.259 10.8582 17.9372 10.5364C17.6153 10.2145 17.4343 9.7782 17.4336 9.32305C17.4343 8.86789 17.6153 8.43157 17.9372 8.10973C18.259 7.78788 18.6953 7.60677 19.1504 7.6061C19.6055 7.60677 20.0418 7.78788 20.3636 8.10973C20.6855 8.43157 20.8666 8.86789 20.8672 9.32305C20.8659 9.77776 20.6845 10.2134 20.3627 10.5347C20.041 10.856 19.6051 11.0368 19.1504 11.0374V11.04Z" fill="#9747FF"/>
</svg>