<svg xmlns="http://www.w3.org/2000/svg" width="25" height="25" viewBox="0 0 25 25" fill="none">
  <path d="M12.5 25C19.4036 25 25 19.4036 25 12.5C25 5.59644 19.4036 0 12.5 0C5.59644 0 0 5.59644 0 12.5C0 19.4036 5.59644 25 12.5 25Z" fill="#FC4C59"/>
  <path d="M14.9247 8.50011V8.50007C14.414 8.49778 13.9163 8.67278 13.5133 8.99851L13.511 9.00034L13.511 9.00033C13.2819 9.18335 13.0794 9.39935 12.9098 9.6419L12.5 10.2281L12.0902 9.6419C11.9206 9.39935 11.7181 9.18335 11.489 9.00033L11.4867 8.99852L11.4867 8.99851C11.0837 8.67278 10.586 8.49778 10.0753 8.50007L10.0695 8.5001L10.0695 8.50007C9.72771 8.49761 9.38891 8.56836 9.07484 8.70811C8.76073 8.84787 8.47795 9.05373 8.24513 9.31305L8.24504 9.31315C7.77205 9.83966 7.5 10.5657 7.5 11.3781C7.5 12.1882 7.78936 12.9507 8.47918 13.8017C9.11529 14.5817 10.0323 15.387 11.1503 16.3585L11.1513 16.3594C11.529 16.6893 11.9599 17.0672 12.4061 17.4627L12.4075 17.4639C12.4346 17.4881 12.4675 17.5 12.4997 17.5C12.5319 17.5 12.5648 17.4881 12.5918 17.464L12.592 17.4638C12.9871 17.1113 13.3695 16.7778 13.7131 16.4782C13.7593 16.4379 13.8048 16.3982 13.8496 16.3591L13.8502 16.3586C14.9688 15.386 15.888 14.5815 16.5204 13.8015L16.5207 13.8012C17.211 12.9511 17.5 12.1885 17.5 11.3781C17.5 10.5657 17.228 9.83962 16.7555 9.31304L14.9247 8.50011ZM14.9247 8.50011L14.9306 8.50007M14.9247 8.50011L14.9306 8.50007M14.9306 8.50007C15.2725 8.49753 15.6114 8.56824 15.9256 8.708C16.2397 8.84775 16.5225 9.05361 16.7554 9.31294L14.9306 8.50007Z" stroke="white"/>
</svg>