<svg xmlns="http://www.w3.org/2000/svg" width="41" height="28" viewBox="0 0 41 28" fill="none">
  <path d="M13.2033 4.6676C11.8602 2.74727 10.6998 1.08827 10.4184 0.294C10.3558 0.119467 10.1915 0.00233333 10.0052 0C9.83294 0.00513333 9.65129 0.111067 9.58541 0.2842C9.29835 1.03507 8.19718 2.6096 6.92188 4.4338C4.00094 8.6086 0 14.3276 0 18.0474C0 23.5359 4.48565 28 10 28C15.5139 28 20 23.5359 20 18.0474C20 14.3873 16.0711 8.7696 13.2033 4.6676Z" fill="#EE2A28"/>
  <path d="M24.2033 4.6676C22.8602 2.74727 21.6998 1.08827 21.4184 0.294C21.3558 0.119467 21.1915 0.00233333 21.0052 0C20.8329 0.00513333 20.6513 0.111067 20.5854 0.2842C20.2984 1.03507 19.1972 2.6096 17.9219 4.4338C15.0009 8.6086 11 14.3276 11 18.0474C11 23.5359 15.4856 28 21 28C26.5139 28 31 23.5359 31 18.0474C31 14.3873 27.0711 8.7696 24.2033 4.6676Z" fill="#EE2A28"/>
  <path d="M34.2033 4.6676C32.8602 2.74727 31.6998 1.08827 31.4184 0.294C31.3558 0.119467 31.1915 0.00233333 31.0052 0C30.8329 0.00513333 30.6513 0.111067 30.5854 0.2842C30.2984 1.03507 29.1972 2.6096 27.9219 4.4338C25.0009 8.6086 21 14.3276 21 18.0474C21 23.5359 25.4856 28 31 28C36.5139 28 41 23.5359 41 18.0474C41 14.3873 37.0711 8.7696 34.2033 4.6676Z" fill="#EE2A28"/>
  <path d="M4.85489 14C2.17068 19.4539 2.27184 20.2565 6 23" stroke="#D22627" stroke-width="2" stroke-miterlimit="10"/>
  <path d="M15.8549 14C13.1707 19.4539 13.2718 20.2565 17 23" stroke="#D22627" stroke-width="2" stroke-miterlimit="10"/>
</svg>