<svg xmlns="http://www.w3.org/2000/svg" width="23" height="23" viewBox="0 0 23 23" fill="none">
  <path d="M14.8177 11.884C14.8177 12.8939 13.5595 14.5324 11.5326 16.1585C11.4933 16.1901 11.4339 16.1892 11.3946 16.1585C9.36771 14.5315 8.10942 12.893 8.10942 11.883C8.10942 11.104 8.64704 10.4687 9.30733 10.4687C9.85358 10.4687 10.5052 10.6479 10.5052 11.5007C10.5052 12.0306 10.9346 12.4589 11.4636 12.4589C11.9926 12.4589 12.4219 12.0306 12.4219 11.5007C12.4219 10.647 13.0736 10.4687 13.6198 10.4687C14.2801 10.4687 14.8177 11.104 14.8177 11.884ZM23 9.32083V18.209C23 20.8508 20.8505 23 18.2083 23H4.79167C2.14954 23 0 20.8508 0 18.209V9.32083C0 7.72544 0.789667 6.24119 2.11217 5.34912L8.81954 0.823567C10.4478 -0.274522 12.5522 -0.274522 14.1805 0.823567L19.1667 4.18779V1.91974C19.1667 1.38986 19.595 0.961547 20.125 0.961547C20.655 0.961547 21.0833 1.38986 21.0833 1.91974V5.49859C22.2832 6.40025 23 7.80784 23 9.32083ZM16.7344 11.884C16.7344 10.0481 15.3372 8.55332 13.6198 8.55332C12.7516 8.55332 12.006 8.82544 11.4636 9.29592C10.9202 8.82544 10.1756 8.55332 9.30733 8.55332C7.59 8.55332 6.19275 10.0481 6.19275 11.884C6.19275 13.9968 8.36912 16.1872 10.1957 17.6533C10.5627 17.9484 11.0132 18.095 11.4636 18.095C11.914 18.095 12.3644 17.9484 12.7324 17.6523C14.558 16.1872 16.7354 13.9968 16.7354 11.883L16.7344 11.884Z" fill="#656565"/>
</svg>