<svg width="41" height="40" viewBox="0 0 41 40" fill="none" xmlns="http://www.w3.org/2000/svg">
<rect x="0.875" y="0.100098" width="40" height="39.2" rx="19.6" fill="white"/>
<path d="M6.73242 30.3489H35.0184V31.2328H6.73242V30.3489Z" fill="#252B61"/>
<path d="M9.38394 30.7906H8.5V18.4155H13.3616V19.2995H9.38394V30.7906Z" fill="#252B61"/>
<path d="M33.2503 30.7906H32.3664V19.2995H28.3887V18.4155H33.2503V30.7906Z" fill="#252B61"/>
<path d="M28.8304 30.7906H27.9465V9.13418H23.9688V8.25024H28.8304V30.7906Z" fill="#252B61"/>
<path d="M13.8039 30.7906H12.9199V8.25024H17.7816V9.13418H13.8039V30.7906Z" fill="#252B61"/>
<path d="M20.4336 6.92456H21.3175V10.4603H20.4336V6.92456Z" fill="#252B61"/>
<path d="M19.1074 8.25024H22.6432V9.13418H19.1074V8.25024Z" fill="#252B61"/>
<path d="M24.4108 12.228H17.3394V5.15649H24.4108V12.228ZM18.2233 11.344H23.5269V6.04043H18.2233V11.344Z" fill="#252B61"/>
<path d="M24.4108 30.7907H23.5269V26.371H18.2233V30.7907H17.3394V25.4871H24.4108V30.7907Z" fill="#252B61"/>
<path d="M19.9913 23.2772H16.4556V19.7415H19.9913V23.2772ZM17.3395 22.3933H19.1074V20.6254H17.3395V22.3933Z" fill="#252B61"/>
<path d="M25.295 23.2772H21.7593V19.7415H25.295V23.2772ZM22.6432 22.3933H24.4111V20.6254H22.6432V22.3933Z" fill="#252B61"/>
<path d="M19.9913 17.9737H16.4556V14.438H19.9913V17.9737ZM17.3395 17.0898H19.1074V15.3219H17.3395V17.0898Z" fill="#252B61"/>
<path d="M25.295 17.9737H21.7593V14.438H25.295V17.9737ZM22.6432 17.0898H24.4111V15.3219H22.6432V17.0898Z" fill="#252B61"/>
</svg>
