<svg width="21" height="17" viewBox="0 0 21 17" fill="none" xmlns="http://www.w3.org/2000/svg">
<path d="M4.10237 0.501569C2.3434 0.501569 0.900818 1.93641 0.900818 3.69533V13.2984C0.900818 15.0573 2.3434 16.5 4.10237 16.5H6.49298C7.56068 16.5 7.56068 14.8984 6.49298 14.8984H4.10237C3.20213 14.8984 2.50081 14.1986 2.50081 13.2984V3.69533C2.50081 2.79511 3.20213 2.09531 4.10237 2.09531H6.59923C7.69621 2.19146 7.78943 0.499305 6.64379 0.5L4.10237 0.501569ZM14.5898 2.09531H16.9054C17.8057 2.09531 18.4992 2.79511 18.4992 3.69533V13.2984C18.4992 14.1986 17.8057 14.8984 16.9054 14.8984H14.4476C13.3799 14.8984 13.3799 16.5 14.4476 16.5H16.9054C18.6644 16.5 20.0992 15.0573 20.0992 13.2984V3.69533C20.0992 1.93641 18.6644 0.501569 16.9054 0.501569H14.5484C13.5158 0.501569 13.5985 2.07436 14.5898 2.09531ZM10.5039 3.69533C7.86242 3.69533 5.70236 5.85538 5.70236 8.49686C5.70236 11.1383 7.86242 13.2984 10.5039 13.2984C13.1454 13.2984 15.3055 11.1383 15.3055 8.49686C15.3055 5.85538 13.1454 3.69533 10.5039 3.69533ZM10.5039 5.29692C12.2807 5.29692 13.7039 6.7201 13.7039 8.49686C13.7039 10.2737 12.2807 11.6985 10.5039 11.6985C8.72712 11.6985 7.30235 10.2737 7.30235 8.49686C7.30235 6.7201 8.72712 5.29692 10.5039 5.29692Z" fill="white"/>
</svg>
