<svg xmlns="http://www.w3.org/2000/svg" width="21" height="28" viewBox="0 0 21 28" fill="none">
  <path d="M13.7033 4.6676C12.3602 2.74727 11.1998 1.08827 10.9184 0.294C10.8558 0.119467 10.6915 0.00233333 10.5052 0C10.3329 0.00513333 10.1513 0.111067 10.0854 0.2842C9.79835 1.03507 8.69718 2.6096 7.42188 4.4338C4.50094 8.6086 0.5 14.3276 0.5 18.0474C0.5 23.5359 4.98565 28 10.5 28C16.0139 28 20.5 23.5359 20.5 18.0474C20.5 14.3873 16.5711 8.7696 13.7033 4.6676Z" fill="#EE2A28"/>
  <path d="M5.35489 14C2.67068 19.4539 2.77184 20.2565 6.5 23" stroke="#D22627" stroke-width="2" stroke-miterlimit="10"/>
</svg>