<svg xmlns="http://www.w3.org/2000/svg" width="21" height="25" viewBox="0 0 21 25" fill="none">
  <path fill-rule="evenodd" clip-rule="evenodd" d="M14.8069 3.9479C13.2075 2.6475 11.2369 1.8125 8.8667 1.8125C6.70232 1.81488 4.62726 2.67566 3.09681 4.20598C1.56635 5.7363 0.705502 7.81118 0.703125 9.97538C0.703125 14.105 3.79993 17.7531 7.4637 18.1097L9.10906 14.9365C8.75778 14.8939 8.40422 14.8727 8.05035 14.8731C7.71951 14.8671 7.39222 14.8039 7.08296 14.6862L11.5613 10.2071L14.8069 3.9479ZM13.7544 10.3225L14.9347 9.14195C14.836 8.97261 14.733 8.80588 14.6258 8.64191L16.3013 5.41052C19.0426 8.59978 20.2957 13.1897 20.2957 16.0975C20.294 17.5042 19.7344 18.8528 18.7396 19.8475C17.7449 20.8421 16.3962 21.4017 14.9894 21.4034C14.2488 21.4232 13.5141 21.268 12.8447 20.9506C12.1754 20.6332 11.5903 20.1624 11.137 19.5766C10.7847 19.0969 10.3172 18.7138 9.77777 18.4624C9.712 18.4318 9.64542 18.4032 9.57813 18.3767L13.7544 10.3225ZM5.01921 6.95512C4.33905 7.81496 3.96887 8.87909 3.96856 9.97538C3.96856 10.0578 3.97404 10.137 3.97953 10.2165C3.98138 10.2432 3.98324 10.27 3.98488 10.297L9.17774 5.10459C9.13324 5.10218 9.09005 5.09699 9.04688 5.09181C8.98789 5.08473 8.92893 5.07765 8.8667 5.07765C7.77032 5.07797 6.70609 5.44811 5.84618 6.12822L5.01921 6.95512ZM11.266 5.60579L4.53348 12.3377C4.78513 12.8313 5.11576 13.2805 5.51229 13.6675L12.7036 6.47922C12.2639 6.12752 11.7807 5.83396 11.266 5.60579ZM15.8041 10.8635L11.1509 15.5163H11.1525C11.6598 15.7522 12.1335 16.0541 12.5615 16.4143L16.4172 12.5589C16.2432 11.9833 16.0385 11.4173 15.8041 10.8635ZM16.0311 17.8428L16.7348 17.1391C16.9264 16.8254 17.0286 16.4652 17.0303 16.0975C17.0239 15.6164 16.9816 15.1365 16.9037 14.6617L13.8628 17.7024C13.9985 17.8643 14.1729 17.9892 14.3699 18.0654C14.567 18.1417 14.7801 18.1667 14.9894 18.1383C15.3571 18.1366 15.7173 18.0344 16.0311 17.8428Z" fill="#656565"/>
  <path d="M20.0645 2.10616L4.604 22.8956" stroke="#656565" stroke-linecap="round"/>
</svg>