<svg width="23" height="23" viewBox="0 0 23 23" fill="none" xmlns="http://www.w3.org/2000/svg">
<path d="M11.5 15.3333C12.559 15.3333 13.4167 16.191 13.4167 17.25C13.4167 18.309 12.559 19.1667 11.5 19.1667C10.441 19.1667 9.58333 18.309 9.58333 17.25C9.58333 16.191 10.441 15.3333 11.5 15.3333ZM4.79167 10.5417C4.79167 12.1047 5.75 14.375 7.66667 14.375C9.58333 14.375 10.5417 12.1047 10.5417 10.5417C10.5417 10.5417 8.625 11.5 7.66667 11.5C6.70833 11.5 4.79167 10.5417 4.79167 10.5417ZM12.4583 10.5417C12.4583 12.1047 13.4167 14.375 15.3333 14.375C17.25 14.375 18.2083 12.1047 18.2083 10.5417C18.2083 10.5417 16.2917 11.5 15.3333 11.5C14.375 11.5 12.4583 10.5417 12.4583 10.5417ZM19.2146 7.66667C19.7915 8.82337 20.125 10.1219 20.125 11.5C20.125 16.2552 16.2562 20.125 11.5 20.125C6.74379 20.125 2.875 16.2552 2.875 11.5C2.875 7.40408 5.74808 3.97229 9.58333 3.09733V0.173458C4.15342 1.08962 0 5.81325 0 11.5C0 17.8413 5.15871 23 11.5 23C17.8413 23 23 17.8413 23 11.5C23 10.1545 22.7556 8.86746 22.3292 7.66667H19.2146ZM23 0H18.2083V1.91667H20.2074L18.2083 3.91575V5.75H23V3.83333H21.0009L23 1.83425V0ZM16.2917 5.75H14.2926L16.2917 3.75092V1.91667H11.5V3.83333H13.4991L11.5 5.83242V7.66667H16.2917V5.75Z" fill="#656565"/>
</svg>
