<svg width="23" height="23" viewBox="0 0 23 23" fill="none" xmlns="http://www.w3.org/2000/svg">
<path d="M11.5 0C5.15871 0 0 5.15871 0 11.5C0 17.8413 5.15871 23 11.5 23C17.8413 23 23 17.8413 23 11.5C23 5.15871 17.8413 0 11.5 0ZM11.5 21.0833C6.21575 21.0833 1.91667 16.7843 1.91667 11.5C1.91667 6.21575 6.21575 1.91667 11.5 1.91667C16.7843 1.91667 21.0833 6.21575 21.0833 11.5C21.0833 16.7843 16.7843 21.0833 11.5 21.0833ZM5.14529 8.94508L4.43613 7.16546C5.57463 6.71121 6.60867 5.84967 7.3485 4.73992L8.94317 5.80271C7.97525 7.25362 6.66233 8.34037 5.14529 8.94508ZM14.0568 5.80271L15.6515 4.73992C16.3913 5.84967 17.4263 6.71217 18.5639 7.16546L17.8547 8.94508C16.3377 8.34037 15.0247 7.25267 14.0568 5.80271ZM8.625 16.2917H14.375V18.2083H8.625V16.2917ZM10.5091 13.1522C9.6485 14.0214 8.61637 14.3951 7.61587 14.3951C6.50421 14.3951 5.42992 13.9351 4.67092 13.1828L6.01833 11.8201C6.64988 12.4449 8.00496 12.9567 9.14633 11.8038L10.5091 13.1512V13.1522ZM17.0555 11.8038L18.4029 13.1665C17.6918 13.869 16.7143 14.3089 15.7215 14.376C15.6352 14.3817 15.548 14.3846 15.4618 14.3846C14.3923 14.3846 13.3735 13.9457 12.5705 13.133L13.9351 11.7856C14.4181 12.2753 14.9711 12.4986 15.594 12.4631C16.1268 12.4277 16.6721 12.1814 17.0535 11.8038H17.0555Z" fill="#FF9874"/>
</svg>
