<svg xmlns="http://www.w3.org/2000/svg" width="14" height="20" viewBox="0 0 14 20" fill="none">
  <path d="M14 1.0006L14 19.0011C13.9995 19.1834 13.9525 19.362 13.8641 19.5178C13.7757 19.6736 13.6492 19.8007 13.4983 19.8853C13.3474 19.97 13.1778 20.009 13.0077 19.9982C12.8376 19.9875 12.6735 19.9273 12.533 19.8241L0.377974 10.8239C-0.125992 10.4509 -0.125992 9.55285 0.377974 9.17883L12.533 0.178579C12.6732 0.0744012 12.8374 0.0133088 13.0078 0.00193955C13.1782 -0.00942973 13.3482 0.029359 13.4994 0.114092C13.6506 0.198824 13.7772 0.326259 13.8655 0.482552C13.9537 0.638845 14.0003 0.818018 14 1.0006Z" fill="white"/>
</svg>