<svg width="23" height="27" viewBox="0 0 23 27" fill="none" xmlns="http://www.w3.org/2000/svg">
<path fill-rule="evenodd" clip-rule="evenodd" d="M15.9331 6.02963C15.3253 5.73538 14.6909 5.49351 14.0413 5.31237C13.7188 5.72103 13.3079 6.0513 12.8394 6.27836C12.3709 6.50543 11.8571 6.6234 11.3365 6.6234C10.816 6.6234 10.3021 6.50543 9.83368 6.27836C9.36522 6.0513 8.95431 5.72103 8.63181 5.31237C4.50753 6.46231 1 10.0594 1 13.9709C1.00526 14.3844 1.129 14.7876 1.35653 15.1328C1.58405 15.478 1.90583 15.7507 2.28367 15.9185C2.66152 16.0864 3.07958 16.1423 3.48826 16.0797C3.89694 16.0171 4.27908 15.8386 4.58936 15.5653C5.06431 15.9397 5.65647 16.1337 6.26084 16.113C6.86521 16.0924 7.44274 15.8584 7.89103 15.4525C7.90406 15.4642 7.91721 15.4758 7.93046 15.4873L15.9331 6.02963ZM5.94192 17.8374C5.49386 17.8137 5.04827 17.7194 4.62209 17.5543C4.16145 17.7457 3.6678 17.8452 3.16895 17.8471L3.55657 20.0238C3.58573 20.1873 3.63037 20.3465 3.68936 20.4995L5.94192 17.8374ZM6.21921 22.154L9.87577 17.8326C10.3789 17.802 10.8734 17.6832 11.3365 17.4811C11.8799 17.7182 12.4664 17.8406 13.0593 17.8406C13.6522 17.8406 14.2387 17.7182 14.7821 17.4811C15.8205 17.9376 16.9975 17.964 18.0553 17.5543C18.5146 17.7452 19.0067 17.8447 19.5041 17.8471L19.1174 20.0221C19.0112 20.6196 18.6981 21.1606 18.233 21.5504C17.768 21.9402 17.1805 22.1539 16.5737 22.154H6.21921ZM11.673 15.7086L18.46 7.68762C20.3885 9.35178 21.6731 11.6038 21.6731 13.9709C21.6678 14.3844 21.5441 14.7876 21.3165 15.1328C21.089 15.478 20.7672 15.7507 20.3894 15.9185C20.0116 16.0864 19.5935 16.1423 19.1848 16.0797C18.7761 16.0171 18.394 15.8386 18.0837 15.5653C17.6088 15.9397 17.0166 16.1337 16.4122 16.113C15.8079 16.0924 15.2303 15.8584 14.7821 15.4525C14.3091 15.878 13.6955 16.1135 13.0593 16.1135C12.5652 16.1135 12.0846 15.9714 11.673 15.7086ZM12.5547 4.42189C12.8778 4.09881 13.0593 3.66062 13.0593 3.20371C13.0593 2.74681 12.8778 2.30862 12.5547 1.98554C12.2316 1.66246 11.7934 1.48096 11.3365 1.48096C10.8796 1.48096 10.4414 1.66246 10.1184 1.98554C9.79529 2.30862 9.61378 2.74681 9.61378 3.20371C9.61378 3.66062 9.79529 4.09881 10.1184 4.42189C10.4414 4.74497 10.8796 4.92647 11.3365 4.92647C11.7934 4.92647 12.2316 4.74497 12.5547 4.42189Z" fill="#656565"/>
<path d="M22.1538 1L1 26" stroke="#656565" stroke-linecap="round"/>
</svg>
