<svg width="26" height="26" viewBox="0 0 26 26" fill="none" xmlns="http://www.w3.org/2000/svg">
<path d="M13.1538 25C6.44139 25 0.999924 19.6274 0.999924 13C0.999924 6.37258 6.44139 1 13.1538 1C19.8662 1 25.3076 6.37258 25.3076 13C25.3076 19.6274 19.8662 25 13.1538 25Z" fill="white" stroke="#262525" stroke-linecap="round" stroke-linejoin="round"/>
<path d="M6.53876 17.3077L8.74274 15.1538L10.9472 17.3077L13.1525 15.1538L15.3573 17.3077L17.5634 15.1538L19.7695 17.3077" stroke="#262525" stroke-linecap="round" stroke-linejoin="round"/>
<path d="M7.00015 12.6925C6.23545 12.6925 5.61553 12.1415 5.61553 11.4617C5.61553 10.782 6.23545 10.231 7.00015 10.231C7.76485 10.231 8.38477 10.782 8.38477 11.4617C8.38477 12.1415 7.76485 12.6925 7.00015 12.6925Z" fill="#262525" stroke="#262525" stroke-linecap="round" stroke-linejoin="round"/>
<path d="M19.3078 12.6925C18.5431 12.6925 17.9232 12.1415 17.9232 11.4617C17.9232 10.782 18.5431 10.231 19.3078 10.231C20.0725 10.231 20.6924 10.782 20.6924 11.4617C20.6924 12.1415 20.0725 12.6925 19.3078 12.6925Z" fill="#262525" stroke="#262525" stroke-linecap="round" stroke-linejoin="round"/>
</svg>
