<svg xmlns="http://www.w3.org/2000/svg" width="82" height="81" viewBox="0 0 82 81" fill="none">
  <path d="M41 79.5C19.4609 79.5 2 62.0391 2 40.5C2 18.9609 19.4609 1.5 41 1.5C62.5391 1.5 80 18.9609 80 40.5C80 62.0391 62.5391 79.5 41 79.5Z" fill="white" stroke="#262525" stroke-width="3" stroke-linecap="round" stroke-linejoin="round"/>
  <path d="M21 39.5C18.7909 39.5 17 37.4853 17 35C17 32.5147 18.7909 30.5 21 30.5C23.2091 30.5 25 32.5147 25 35C25 37.4853 23.2091 39.5 21 39.5Z" fill="#262525" stroke="#262525" stroke-width="3" stroke-linecap="round" stroke-linejoin="round"/>
  <path d="M61 39.5C58.7909 39.5 57 37.4853 57 35C57 32.5147 58.7909 30.5 61 30.5C63.2091 30.5 65 32.5147 65 35C65 37.4853 63.2091 39.5 61 39.5Z" fill="#262525" stroke="#262525" stroke-width="3" stroke-linecap="round" stroke-linejoin="round"/>
  <path d="M62 54.5H19" stroke="#262525" stroke-width="3" stroke-linecap="round"/>
</svg>