<svg width="26" height="26" viewBox="0 0 26 26" fill="none" xmlns="http://www.w3.org/2000/svg">
<path d="M13 25C6.37258 25 1 19.6274 1 13C1 6.37258 6.37258 1 13 1C19.6274 1 25 6.37258 25 13C25 19.6274 19.6274 25 13 25Z" fill="white" stroke="#262525" stroke-linecap="round" stroke-linejoin="round"/>
<path d="M6.8454 12.6921C6.16567 12.6921 5.61463 12.0722 5.61463 11.3075C5.61463 10.5428 6.16567 9.92285 6.8454 9.92285C7.52514 9.92285 8.07617 10.5428 8.07617 11.3075C8.07617 12.0722 7.52514 12.6921 6.8454 12.6921Z" fill="#262525" stroke="#262525" stroke-linecap="round" stroke-linejoin="round"/>
<path d="M19.154 12.6921C18.4743 12.6921 17.9232 12.0722 17.9232 11.3075C17.9232 10.5428 18.4743 9.92285 19.154 9.92285C19.8337 9.92285 20.3848 10.5428 20.3848 11.3075C20.3848 12.0722 19.8337 12.6921 19.154 12.6921Z" fill="#262525" stroke="#262525" stroke-linecap="round" stroke-linejoin="round"/>
<path d="M19.4619 17.3076H6.23114" stroke="#262525" stroke-linecap="round"/>
</svg>
