<svg xmlns="http://www.w3.org/2000/svg" width="30" height="30" viewBox="0 0 30 30" fill="none">
  <g clip-path="url(#clip0_2873_2390)">
    <path d="M18.3178 0.9375C12.3837 0.9375 7.57312 5.74805 7.57312 11.6822C7.57312 12.2153 7.61198 12.7395 7.68708 13.2522C3.86577 13.8312 0.9375 17.1296 0.9375 21.1123C0.9375 25.503 4.49693 29.0625 8.88773 29.0625C12.8704 29.0625 16.1688 26.1342 16.7478 22.3129C17.2605 22.388 17.7847 22.4269 18.3178 22.4269C24.252 22.4269 29.0625 17.6163 29.0625 11.6822C29.0625 5.74805 24.252 0.9375 18.3178 0.9375Z" fill="#95C8EC"/>
    <path d="M8.88799 16.4187C6.55465 16.4187 4.66309 18.3102 4.66309 20.6436C4.66309 22.9769 6.55465 24.8685 8.88799 24.8685C11.2213 24.8685 13.1129 22.9769 13.1129 20.6436C13.1129 18.3102 11.2213 16.4187 8.88799 16.4187Z" fill="#E57373"/>
    <path d="M18.3179 3.53711C14.0784 3.53711 10.6416 6.97391 10.6416 11.2134C10.6416 15.4529 14.0784 18.8898 18.3179 18.8898C22.5575 18.8898 25.9942 15.4529 25.9942 11.2134C25.9942 6.97391 22.5575 3.53711 18.3179 3.53711Z" fill="#E57373"/>
    <path d="M18.318 6.93115C17.3161 6.93115 16.5039 7.74331 16.5039 8.74521C16.5039 9.74707 17.3161 10.5593 18.318 10.5593C19.3199 10.5593 20.1321 9.74707 20.1321 8.74521C20.1321 7.74331 19.3199 6.93115 18.318 6.93115Z" fill="#FEEA3A"/>
    <path d="M9.27325 18.3706C8.51612 18.3706 7.90234 18.9844 7.90234 19.7415C7.90234 20.4986 8.51612 21.1124 9.27325 21.1124C10.0304 21.1124 10.6442 20.4986 10.6442 19.7415C10.6442 18.9844 10.0304 18.3706 9.27325 18.3706Z" fill="#FEEA3A"/>
    <path d="M18.3179 11.2507C16.8474 11.2507 15.6553 12.4428 15.6553 13.9133C15.6553 15.3838 16.8474 16.5758 18.3179 16.5758C19.7883 16.5758 20.9804 15.3838 20.9804 13.9133C20.9804 12.4428 19.7883 11.2507 18.3179 11.2507Z" fill="#FEEA3A"/>
  </g>
  <defs>
    <clipPath id="clip0_2873_2390">
      <rect width="30" height="30" fill="white"/>
    </clipPath>
  </defs>
</svg>