<svg xmlns="http://www.w3.org/2000/svg" width="32" height="31" viewBox="0 0 32 31" fill="none">
  <g opacity="0.8">
    <path d="M22.6681 11.7639C22.6681 10.9849 22.3632 10.2478 21.8093 9.68989C20.6652 8.55007 18.801 8.54959 17.6554 9.69085L16.0283 11.322L20.1782 15.4719L21.8053 13.8448C22.3569 13.2929 22.6635 12.5538 22.6681 11.7639Z" fill="black"/>
    <path d="M7.1875 8.28309L12.951 14.0466C12.9609 14.0564 12.9698 14.067 12.9777 14.0781L17.4483 18.5487C17.4483 18.5487 17.4485 18.5489 17.4483 18.5487C17.4484 18.5487 17.4487 18.5491 17.4487 18.5491L23.2143 24.3146C24.1513 23.5464 24.962 22.6308 25.6154 21.6053L9.89469 5.88452C8.87026 6.53732 7.95533 7.34726 7.1875 8.28309Z" fill="black"/>
    <path d="M10.191 21.3098C10.8049 21.9189 11.6492 22.2492 12.5088 22.1541C12.5612 22.1524 12.5898 22.1481 12.6186 22.1447C12.6886 22.1351 12.7553 22.1265 12.8221 22.113C12.8988 22.0979 12.9605 22.0861 13.0189 22.0669C13.096 22.0479 13.146 22.0308 13.1962 22.0143C13.2498 21.9998 13.2801 21.9878 13.3106 21.9763C13.3591 21.9559 13.4156 21.9323 13.4677 21.9088C13.5285 21.8833 13.5823 21.8562 13.6364 21.829C13.8166 21.7344 13.9766 21.6291 14.1215 21.5099C14.1991 21.446 14.2719 21.3776 14.3447 21.3048L16.9266 18.7229L12.7767 14.5732L10.1903 17.1549C9.04974 18.3 9.04974 20.1642 10.191 21.3098Z" fill="black"/>
    <path d="M14.718 21.6272C14.7103 21.6378 14.7019 21.6479 14.6927 21.6573C14.6178 21.7325 14.5413 21.8002 14.4626 21.8637C14.4528 21.8718 14.4439 21.8817 14.434 21.8898C14.4328 21.8908 14.4313 21.8918 14.4301 21.8927C14.429 21.8934 14.4282 21.8944 14.4272 21.8954C14.2629 22.0306 14.0753 22.1539 13.8607 22.2668C13.792 22.3014 13.7276 22.3334 13.6637 22.36C13.6142 22.3826 13.5529 22.4081 13.4914 22.4338C13.435 22.4552 13.3864 22.4727 13.3381 22.485C13.2862 22.5028 13.2216 22.5239 13.1517 22.54C13.0964 22.5595 13.014 22.5768 12.9352 22.5921C12.841 22.6111 12.7639 22.6215 12.6865 22.632C12.6293 22.6392 12.5791 22.6445 12.5356 22.6445C12.4652 22.6541 12.3624 22.6594 12.2649 22.6594C11.354 22.6594 10.4939 22.3038 9.84298 21.658C8.51023 20.32 8.51023 18.1443 9.84178 16.8075L12.431 14.2227L6.88075 8.67261C5.45147 10.577 4.60352 12.9412 4.60352 15.5C4.60352 21.7839 9.71564 26.8963 15.9995 26.8963C18.5572 26.8963 20.9205 26.0491 22.8243 24.6209L17.2742 19.0708L14.718 21.6272Z" fill="black"/>
    <path d="M31.5 15.5C31.5 6.95328 24.5467 0 16 0C7.45328 0 0.5 6.95328 0.5 15.5C0.5 24.0467 7.45328 31 16 31C24.5467 31 31.5 24.0467 31.5 15.5ZM23.3812 24.8091C23.3778 24.8127 23.3766 24.8177 23.373 24.8213C23.3587 24.8358 23.3412 24.8434 23.3246 24.8535C21.3042 26.4393 18.7616 27.3883 16 27.3883C9.44484 27.3883 4.11191 22.0554 4.11191 15.5C4.11191 12.7509 5.05243 10.2187 6.62521 8.20266C6.63722 8.17335 6.65488 8.14596 6.67866 8.12217C6.68473 8.11616 6.69272 8.11376 6.69921 8.10848C8.87908 5.37113 12.237 3.61167 16 3.61167C22.5552 3.61167 27.8883 8.9446 27.8883 15.5C27.8883 19.2678 26.1244 22.6294 23.3812 24.8091Z" fill="black"/>
    <path d="M16.0003 4.10376C13.9359 4.10376 11.9999 4.65829 10.3281 5.622L15.6803 10.9741L17.3074 9.34275C18.6452 8.01047 20.8208 8.01047 22.1576 9.34203C22.8044 9.99411 23.16 10.8543 23.16 11.7653C23.1545 12.6872 22.7969 13.5488 22.153 14.1927L20.5259 15.8198L25.8783 21.1722C26.842 19.5004 27.3966 17.5644 27.3966 15.5C27.3966 9.21613 22.2842 4.10376 16.0003 4.10376Z" fill="black"/>
  </g>
</svg>