<svg xmlns="http://www.w3.org/2000/svg" width="19" height="23" viewBox="0 0 19 23" fill="none">
  <path d="M15.7091 1.73409C15.9301 1.51291 16.0376 1.28805 16.0284 1.06549C16.0141 0.719362 15.7261 0.466713 15.7231 0.464186L16.0199 0.113463C16.038 0.128851 16.4643 0.495652 16.4873 1.04643C16.502 1.40266 16.3495 1.74328 16.0339 2.05886L15.7091 1.73409ZM17.3247 2.2975C17.0663 2.28855 16.816 2.39672 16.5886 2.62388L16.9134 2.94865C17.0452 2.81681 17.1727 2.74653 17.3027 2.75641C17.5025 2.76284 17.6545 2.93418 17.6559 2.93602L18.0053 2.63789C17.9772 2.60459 17.7205 2.31381 17.3247 2.2975ZM17.7418 0.689044C17.932 0.689044 18.0863 0.534698 18.0863 0.344522C18.0863 0.154346 17.932 0 17.7418 0C17.5516 0 17.3973 0.154346 17.3973 0.344522C17.3973 0.534698 17.5516 0.689044 17.7418 0.689044ZM17.2824 1.83745C17.4726 1.83745 17.627 1.6831 17.627 1.49293C17.627 1.30275 17.4726 1.14841 17.2824 1.14841C17.0923 1.14841 16.9379 1.30275 16.9379 1.49293C16.9379 1.6831 17.0923 1.83745 17.2824 1.83745ZM14.756 0.918725C14.9461 0.918725 15.1005 0.76438 15.1005 0.574203C15.1005 0.384027 14.9461 0.229681 14.756 0.229681C14.5658 0.229681 14.4114 0.384027 14.4114 0.574203C14.4114 0.76438 14.5658 0.918725 14.756 0.918725ZM17.5121 3.90458C17.322 3.90458 17.1676 4.05893 17.1676 4.2491C17.1676 4.43928 17.322 4.59363 17.5121 4.59363C17.7023 4.59363 17.8567 4.43928 17.8567 4.2491C17.8567 4.05893 17.7023 3.90458 17.5121 3.90458ZM13.1482 1.14841C13.3384 1.14841 13.4927 0.994061 13.4927 0.803885C13.4927 0.613709 13.3384 0.459363 13.1482 0.459363C12.958 0.459363 12.8037 0.613709 12.8037 0.803885C12.8037 0.994061 12.958 1.14841 13.1482 1.14841ZM16.3637 4.82331C16.1735 4.82331 16.0192 4.97765 16.0192 5.16783C16.0192 5.35801 16.1735 5.51235 16.3637 5.51235C16.5539 5.51235 16.7082 5.35801 16.7082 5.16783C16.7082 4.97765 16.5539 4.82331 16.3637 4.82331ZM13.9183 2.25134L15.835 4.16803L16.9235 3.71556L14.3708 1.16288L13.9183 2.25111V2.25134ZM12.5547 5.53165L15.3763 4.35866L13.7277 2.71001L12.5547 5.53165Z" fill="#656565"/>
  <path fill-rule="evenodd" clip-rule="evenodd" d="M8.771 1.45508C7.41403 1.45508 6.31451 2.5546 6.31451 3.91157C6.31451 5.26853 7.41403 6.36805 8.771 6.36805C10.128 6.36805 11.2275 5.26853 11.2275 3.91157C11.2275 2.5546 10.128 1.45508 8.771 1.45508ZM5.82321 22.9994V10.9155L2.71919 15.743C2.42638 16.1999 1.81914 16.3335 1.36125 16.0378C0.905322 15.745 0.772671 15.1367 1.06647 14.6798L4.3277 9.60669C5.23562 8.19371 6.77927 7.35065 8.45951 7.35065H9.08149C10.7617 7.35065 12.3054 8.19371 13.2143 9.60669L16.4745 14.6798C16.7683 15.1367 16.6357 15.745 16.1798 16.0378C16.0147 16.1439 15.8319 16.194 15.6492 16.194C15.3259 16.194 15.0095 16.0348 14.8218 15.743L11.7178 10.9145V22.9994H9.75359V17.1766H7.7884V22.9994H5.82321Z" fill="#656565"/>
</svg>