<svg xmlns="http://www.w3.org/2000/svg" width="30" height="30" viewBox="0 0 30 30" fill="none">
  <g opacity="0.8">
    <path d="M22.9683 10.7812C22.3402 9.21094 21.5621 5.625 22.0308 1.875H7.96832C8.43707 5.625 7.65895 9.21094 7.03082 10.7812C5.15582 15.4688 4.21832 16.4062 6.09332 28.125H14.5308V19.8375C13.8652 18.9469 11.8308 17.2828 10.1199 16.9312C9.86676 16.8797 9.7027 16.6312 9.75426 16.3781C9.80582 16.125 10.0543 15.9609 10.3074 16.0125C12.1308 16.3828 14.0714 17.9016 14.9996 18.9375C15.9277 17.9016 17.8683 16.3828 19.6918 16.0125C19.9449 15.9609 20.1933 16.125 20.2449 16.3781C20.2964 16.6312 20.1324 16.8797 19.8793 16.9312C18.1683 17.2828 16.1339 18.9469 15.4683 19.8375V28.125H23.9058C25.7808 16.4062 24.8433 15.4688 22.9683 10.7812ZM16.3824 11.4L15.4449 14.2125C15.3793 14.4094 15.1964 14.5312 14.9996 14.5312C14.9527 14.5312 14.9011 14.5219 14.8496 14.5078C14.6058 14.4281 14.4699 14.1609 14.5543 13.9125L15.2855 11.7188H14.0621C13.9121 11.7188 13.7714 11.6484 13.6824 11.5219C13.5933 11.4 13.5699 11.2406 13.6168 11.1L14.5543 8.2875C14.6339 8.04375 14.9011 7.90781 15.1496 7.99219C15.3933 8.07187 15.5293 8.33906 15.4449 8.5875L14.7136 10.7812H15.9371C16.0871 10.7812 16.2277 10.8516 16.3168 10.9781C16.4058 11.1 16.4293 11.2594 16.3824 11.4Z" fill="black"/>
    <path d="M27.6562 7.96875H25.7812C25.5234 7.96875 25.3125 7.75781 25.3125 7.5C25.3125 7.24219 25.5234 7.03125 25.7812 7.03125H27.6562C27.9141 7.03125 28.125 7.24219 28.125 7.5C28.125 7.75781 27.9141 7.96875 27.6562 7.96875Z" fill="black"/>
    <path d="M25.3122 6.09386C25.1387 6.09386 24.9747 6.00011 24.8903 5.83605C24.7731 5.60636 24.8669 5.32511 25.1012 5.20792L26.9762 4.27042C27.2106 4.15323 27.4872 4.24698 27.6044 4.48136C27.7215 4.71105 27.6278 4.9923 27.3934 5.10948L25.5184 6.04698C25.4528 6.0798 25.3778 6.09855 25.3075 6.09855L25.3122 6.09386Z" fill="black"/>
    <path d="M27.2863 10.7953C27.2207 10.7953 27.1551 10.7812 27.0894 10.7531L25.1816 9.88124C24.9473 9.77343 24.8441 9.49687 24.9519 9.2578C25.0598 9.02343 25.3363 8.9203 25.5754 9.02812L27.4832 9.89999C27.7176 10.0078 27.8207 10.2844 27.7129 10.5234C27.6332 10.6969 27.4644 10.7953 27.2863 10.7953Z" fill="black"/>
    <path d="M4.21875 7.96875H2.34375C2.08594 7.96875 1.875 7.75781 1.875 7.5C1.875 7.24219 2.08594 7.03125 2.34375 7.03125H4.21875C4.47656 7.03125 4.6875 7.24219 4.6875 7.5C4.6875 7.75781 4.47656 7.96875 4.21875 7.96875Z" fill="black"/>
    <path d="M4.68721 6.0938C4.61689 6.0938 4.54658 6.07974 4.47627 6.04224L2.60127 5.10474C2.37158 4.98755 2.27783 4.7063 2.39033 4.47661C2.50752 4.24693 2.78877 4.14849 3.01846 4.26568L4.89346 5.20318C5.12314 5.32036 5.21689 5.60161 5.10439 5.8313C5.02002 5.99536 4.85596 6.08911 4.68252 6.08911L4.68721 6.0938Z" fill="black"/>
    <path d="M2.71371 10.7953C2.53558 10.7953 2.36683 10.6922 2.28715 10.5234C2.17933 10.2891 2.28715 10.0078 2.51683 9.89999L4.42465 9.02811C4.65902 8.9203 4.93558 9.02811 5.04808 9.2578C5.1559 9.49218 5.04808 9.77343 4.8184 9.88124L2.91058 10.7531C2.84965 10.7812 2.77933 10.7953 2.71371 10.7953Z" fill="black"/>
  </g>
</svg>