<svg width="11" height="11" viewBox="0 0 11 11" fill="none" xmlns="http://www.w3.org/2000/svg">
<path id="Vector" opacity="0.8" fill-rule="evenodd" clip-rule="evenodd" d="M1.40056 0.471681C2.08701 -0.247765 3.21738 -0.119929 3.79215 0.689893L4.50398 1.69117C4.97215 2.34997 4.93041 3.27039 4.37482 3.85248L4.24057 3.99399C4.22541 4.05341 4.22387 4.11577 4.23606 4.17594C4.2716 4.41853 4.46394 4.93225 5.26941 5.77656C6.07487 6.62086 6.5656 6.82302 6.79912 6.86108C6.8579 6.87425 6.91882 6.87242 6.9768 6.85572L7.20693 6.61432C7.70104 6.09704 8.45913 6.00012 9.07056 6.35033L10.1479 6.9687C11.0713 7.49669 11.3042 8.81904 10.5484 9.61162L9.74687 10.4512C9.49417 10.7158 9.15461 10.9364 8.74059 10.9774C7.71966 11.0779 5.34104 10.9494 2.84059 8.3291C0.5071 5.88299 0.0592409 3.74962 0.00227145 2.6984C-0.0259312 2.16684 0.2121 1.71733 0.515561 1.39983L1.40056 0.471681ZM3.11528 1.22442C2.82931 0.821891 2.29684 0.789783 1.99677 1.10432L1.1112 2.03187C0.925063 2.22689 0.835943 2.44213 0.847224 2.64786C0.892348 3.48325 1.25334 5.40791 3.43736 7.69706C5.72855 10.098 7.84431 10.1699 8.66219 10.0891C8.82915 10.073 8.99498 9.98145 9.1501 9.81913L9.95105 8.97898C10.2771 8.63769 10.2054 8.01576 9.74405 7.75176L8.6667 7.13399C8.36888 6.96394 8.0203 7.01983 7.8037 7.24696L7.54705 7.51631L7.24811 7.19999C7.54706 7.51631 7.54593 7.5169 7.54593 7.5169L7.54536 7.51809L7.54367 7.51988L7.53972 7.52344L7.53126 7.53177C7.50728 7.55484 7.48163 7.57591 7.45455 7.59479C7.40943 7.62631 7.34964 7.66139 7.27462 7.69052C7.12232 7.75057 6.92039 7.78268 6.67108 7.74225C6.18204 7.66317 5.53395 7.31177 4.67264 6.40919C3.81189 5.50662 3.47571 4.8276 3.40013 4.31269C3.36121 4.04989 3.39224 3.83702 3.44977 3.67649C3.48167 3.58627 3.52699 3.50197 3.58401 3.42676L3.60206 3.40595L3.60996 3.39703L3.61334 3.39346L3.61504 3.39168L3.61616 3.39049L3.77861 3.22044C4.02003 2.96655 4.05387 2.54618 3.82656 2.2257L3.11528 1.22442Z" fill="black"/>
</svg>
