<svg xmlns="http://www.w3.org/2000/svg" width="44" height="29" viewBox="0 0 44 29" fill="none">
  <path d="M23.5682 0.345503C24.8597 0.0149204 26.2109 -0.0843801 27.5352 0.0733693C28.2397 0.155072 28.9291 0.326648 29.6154 0.499481C31.5493 1.0117 33.287 2.11846 34.7118 3.50489C35.948 4.80083 36.9769 6.33873 37.5092 8.05952L37.5356 8.10162C37.8643 9.2706 38.1503 10.4698 38.1446 11.6922C38.1415 12.1604 38.1565 12.6349 38.0679 13.0968C38.2496 13.2024 38.4676 13.215 38.6618 13.2935C39.6146 13.5902 40.4631 14.142 41.2304 14.7692C41.9073 15.3367 42.451 16.0469 42.9148 16.7954C43.3195 17.4654 43.5879 18.2102 43.7544 18.9731C43.931 19.6733 44.031 20.3967 43.9914 21.1194C43.9637 21.8491 43.7852 22.5612 43.5948 23.2625C43.2825 24.3473 42.6691 25.3227 41.9274 26.1643C41.5648 26.5992 41.1173 26.9517 40.6623 27.2842C39.5059 28.1754 38.0623 28.5776 36.6362 28.7699C36.4735 28.7989 36.3075 28.7888 36.1441 28.7894C29.0002 28.7888 21.8555 28.7894 14.7116 28.7888C13.7066 28.8007 12.6998 28.7611 11.6974 28.8177C11.3391 28.802 11.0488 28.4482 11.1072 28.0937C11.1575 27.9121 11.2518 27.7292 11.4277 27.6424C11.7244 27.4784 12.0663 27.6098 12.3837 27.6054C20.3447 27.6073 28.305 27.6047 36.2661 27.6066C37.5281 27.5413 38.7775 27.1472 39.8264 26.4383C40.717 25.833 41.4661 25.0173 41.9796 24.0701C42.539 23.0551 42.8123 21.8962 42.8193 20.7411C42.7859 19.6613 42.5364 18.5803 42.0223 17.6257C41.074 15.8006 39.2413 14.4726 37.2151 14.1256C37.0554 14.1005 36.8964 14.0722 36.7387 14.0395C37.2867 11.4546 36.8298 8.66537 35.4635 6.40095C34.5384 4.84356 33.2066 3.5338 31.641 2.62439C29.4564 1.34982 26.808 0.898569 24.3236 1.36742C22.2685 1.73697 20.3396 2.74443 18.8426 4.19748C17.8131 5.193 16.9949 6.39655 16.4229 7.70819C14.8693 7.33173 13.1793 7.50394 11.752 8.23172C9.57937 9.28632 8.08735 11.5878 8.01256 14.0018C7.66878 14.0395 7.32123 14.0333 6.97996 14.0911C5.55393 14.3029 4.2008 14.9804 3.18077 15.9998C2.07967 17.0877 1.37891 18.5703 1.22933 20.1101C1.11809 21.0195 1.23247 21.949 1.49518 22.8239C2.01305 24.522 3.23105 25.992 4.80541 26.8128C5.62306 27.2459 6.53122 27.5092 7.45384 27.5777C7.94531 27.6305 8.4393 27.5959 8.93203 27.6079C9.30661 27.6217 9.67741 27.5161 10.052 27.557C10.3109 27.5991 10.48 27.8486 10.5227 28.0937C10.5541 28.3306 10.4153 28.538 10.2518 28.6939C10.233 28.6933 10.1953 28.6914 10.1764 28.6908C10.0539 28.8039 9.84396 28.7919 9.68181 28.8108C8.75857 28.7436 7.8259 28.8623 6.90957 28.7014C5.8908 28.5192 4.86825 28.2489 3.97581 27.7072C3.03057 27.1365 2.16703 26.4087 1.53792 25.4937C0.936459 24.7005 0.507204 23.7804 0.287235 22.8094C0.0854915 22.0326 -0.0439762 21.2288 0.0138443 20.4243C0.0484109 19.7179 0.225643 19.0284 0.407275 18.3478C0.766768 17.1047 1.51906 16.0117 2.40963 15.0885C2.974 14.5744 3.5918 14.115 4.26302 13.7486C5.09765 13.3055 6.02404 13.0648 6.95168 12.9133C7.10754 12.2113 7.2766 11.5049 7.5965 10.8563C8.0069 10.0179 8.565 9.25426 9.21673 8.58807C10.0526 7.82823 11.0067 7.1677 12.0851 6.80695C13.2635 6.42986 14.5149 6.20172 15.7505 6.38523C16.1206 5.65431 16.6027 4.98686 17.1061 4.34266C17.7742 3.50426 18.578 2.77711 19.4604 2.16936C20.6809 1.28069 22.0906 0.655346 23.5682 0.345503Z" fill="#66BCFE"/>
  <path d="M24.3232 1.36743C26.8076 0.898581 29.456 1.34983 31.6406 2.6244C33.2062 3.53381 34.5379 4.84357 35.4631 6.40096C36.8294 8.66539 37.2863 11.4546 36.7382 14.0396C36.896 14.0722 37.055 14.1005 37.2146 14.1257C39.2409 14.4726 41.0735 15.8006 42.0219 17.6257C42.536 18.5803 42.7855 19.6613 42.8188 20.7411C42.8119 21.8962 42.5385 23.0552 41.9792 24.0702C41.4657 25.0173 40.7165 25.8331 39.826 26.4383C38.777 27.1472 37.5276 27.5413 36.2656 27.6066C28.3046 27.6047 20.3442 27.6073 12.3832 27.6054C12.0658 27.6098 11.724 27.4784 11.4273 27.6425C11.2513 27.7292 11.1571 27.9121 11.1068 28.0937C10.912 28.0956 10.7171 28.0956 10.5223 28.0937C10.4796 27.8486 10.3105 27.5991 10.0516 27.557C9.67698 27.5161 9.30617 27.6217 8.9316 27.6079C8.43887 27.596 7.94488 27.6305 7.4534 27.5777C6.53079 27.5092 5.62263 27.2459 4.80497 26.8129C3.23062 25.9921 2.01262 24.522 1.49475 22.8239C1.23204 21.949 1.11765 21.0195 1.2289 20.1101C1.37848 18.5703 2.07924 17.0877 3.18034 15.9998C4.20037 14.9804 5.55349 14.3029 6.97953 14.0911C7.32079 14.0333 7.66834 14.0396 8.01212 14.0018C8.08691 11.5878 9.57893 9.28633 11.7516 8.23173C13.1789 7.50395 14.8689 7.33174 16.4225 7.7082C16.9944 6.39656 17.8127 5.19301 18.8422 4.19749C20.3392 2.74444 22.268 1.73698 24.3232 1.36743ZM21.7168 16.4504C21.2537 16.5503 20.8451 16.8746 20.6497 17.307C20.4536 17.7149 20.4574 18.2108 20.6597 18.6162C20.9074 19.1441 21.4799 19.5042 22.065 19.4778C22.7243 19.4797 23.3352 18.9882 23.4999 18.3541C23.6545 17.8211 23.4779 17.2147 23.0737 16.8376C22.7205 16.4969 22.1964 16.3448 21.7168 16.4504ZM30.4477 16.4523C29.9978 16.5516 29.5993 16.8621 29.4013 17.28C29.192 17.6961 29.192 18.2083 29.4026 18.6243C29.6156 19.0687 30.0556 19.3942 30.5433 19.4646C31.2503 19.5897 31.9938 19.1221 32.2119 18.4421C32.4105 17.8896 32.2402 17.236 31.8128 16.8382C31.4583 16.4957 30.9298 16.3429 30.4477 16.4523ZM22.9983 21.4557C23.3264 22.4575 24.1026 23.3065 25.0899 23.6868C26.093 24.0903 27.2796 23.9916 28.2022 23.4291C28.9457 22.9917 29.5 22.2689 29.7696 21.4531C29.5396 21.4557 29.3089 21.4557 29.0789 21.4538C28.7955 22.1665 28.2198 22.7573 27.5121 23.0552C26.8666 23.3292 26.1225 23.3575 25.4582 23.1318C24.6625 22.8672 23.9989 22.2362 23.6922 21.4557C23.4609 21.4538 23.2296 21.455 22.9983 21.4557Z" fill="#B3DEFF"/>
  <path d="M21.7175 16.4504C22.197 16.3448 22.7212 16.4969 23.0744 16.8375C23.4785 17.2146 23.6551 17.8211 23.5005 18.3541C23.3358 18.9882 22.7249 19.4797 22.0656 19.4778C21.4805 19.5042 20.908 19.1441 20.6604 18.6162C20.458 18.2108 20.4542 17.7149 20.6503 17.307C20.8458 16.8746 21.2543 16.5503 21.7175 16.4504Z" fill="#343434"/>
  <path d="M30.4483 16.4523C30.9304 16.3429 31.459 16.4957 31.8134 16.8382C32.2408 17.236 32.4111 17.8896 32.2125 18.4421C31.9944 19.1221 31.2509 19.5897 30.5439 19.4646C30.0562 19.3942 29.6162 19.0687 29.4032 18.6243C29.1926 18.2083 29.1926 17.6961 29.4019 17.28C29.5999 16.8621 29.9984 16.5516 30.4483 16.4523Z" fill="#343434"/>
  <path d="M22.999 21.4557C23.2303 21.455 23.4616 21.4538 23.6929 21.4557C23.9996 22.2362 24.6632 22.8672 25.4589 23.1318C26.1232 23.3575 26.8673 23.3292 27.5128 23.0552C28.2205 22.7573 28.7962 22.1665 29.0796 21.4538C29.3096 21.4557 29.5403 21.4557 29.7703 21.4532C29.5007 22.2689 28.9464 22.9917 28.2029 23.4291C27.2803 23.9916 26.0937 24.0903 25.0906 23.6868C24.1033 23.3066 23.3271 22.4575 22.999 21.4557Z" fill="#343434"/>
</svg>