<svg xmlns="http://www.w3.org/2000/svg" width="23" height="29" viewBox="0 0 23 29" fill="none">
  <path d="M14.6752 8.32345C16.1184 6.87305 16.1184 4.52148 14.6752 3.07108C13.232 1.62068 10.8922 1.62068 9.44903 3.07108C8.00586 4.52148 8.00586 6.87305 9.44903 8.32345C10.8922 9.77385 13.232 9.77386 14.6752 8.32345Z" fill="#656565"/>
  <path d="M8.62743 20.1025L14.8977 22.4558C15.0588 22.5159 15.2118 22.5961 15.3531 22.6945C16.664 21.6934 17.5123 20.1108 17.5123 18.3324V15.5706C17.5123 12.5505 15.0685 10.0938 12.0628 10.0938C9.05781 10.0938 6.61328 12.5497 6.61328 15.5706V18.3324C6.61368 18.8296 6.68163 19.3244 6.81524 19.8031C7.43829 19.7542 8.04922 19.8606 8.62743 20.1025Z" fill="#656565"/>
  <path d="M22.3931 22.8932C22.0791 21.864 20.9322 21.513 19.9248 21.8069L16.0084 22.9996C15.9848 23.0069 15.9633 23.0198 15.9456 23.037C15.9279 23.0543 15.9145 23.0756 15.9065 23.099C15.8985 23.1225 15.8962 23.1475 15.8996 23.1721C15.9031 23.1966 15.9122 23.22 15.9264 23.2403C16.2594 23.7274 16.3707 24.3749 16.1485 24.9763C15.7876 25.9476 14.7096 26.4377 13.7654 26.0846L9.91604 24.6398C9.89676 24.6326 9.87908 24.6216 9.86403 24.6075C9.84897 24.5934 9.83682 24.5764 9.82828 24.5576C9.81974 24.5388 9.81497 24.5185 9.81424 24.4978C9.81351 24.4771 9.81685 24.4565 9.82405 24.4371C9.83125 24.4178 9.84217 24.4 9.85621 24.3849C9.87024 24.3697 9.8871 24.3575 9.90582 24.3489C9.92455 24.3404 9.94477 24.3356 9.96534 24.3348C9.98591 24.3341 10.0064 24.3374 10.0257 24.3447L13.8201 25.7689C14.6306 26.0734 15.5459 25.6697 15.8454 24.8541C16.173 23.9627 15.6695 23.111 14.7823 22.7781L8.51201 20.4249C7.61349 20.049 6.63378 19.9986 5.6567 20.3536L1.8863 21.7056C1.32094 21.9084 0.834008 22.2859 0.495346 22.784C0.156684 23.2821 -0.0162982 23.8752 0.00120922 24.4782C0.0569502 26.3927 1.93639 27.7136 3.74232 27.1025C4.52653 26.8372 5.25702 26.644 5.71325 26.6474C7.71265 26.663 10.2715 28.1009 11.146 28.41C11.6953 28.6041 12.0433 28.6053 12.5395 28.4141C12.7146 28.3465 12.8895 28.2791 13.0694 28.2259C13.0745 28.2245 13.0795 28.2227 13.0844 28.2206L20.9651 24.9299C20.9699 24.9278 20.975 24.9262 20.98 24.9246C21.9844 24.628 22.6706 23.803 22.3931 22.8932Z" fill="#656565"/>
</svg>