<svg width="25" height="23" viewBox="0 0 25 23" fill="none" xmlns="http://www.w3.org/2000/svg">
<path d="M1 16.8882V19H24V16.8882C24.0001 13.9968 22.9285 11.2094 20.9951 9.07131C19.0616 6.93318 16.4052 5.59814 13.5457 5.32736V3.92578C13.9441 3.69422 14.2554 3.33679 14.4315 2.90892C14.6076 2.48105 14.6384 2.00665 14.5194 1.55931C14.4003 1.11197 14.1379 0.716677 13.7729 0.434746C13.408 0.152815 12.9608 0 12.5007 0C12.0407 0 11.5935 0.152815 11.2285 0.434746C10.8635 0.716677 10.6011 1.11197 10.4821 1.55931C10.363 2.00665 10.3939 2.48105 10.5699 2.90892C10.746 3.33679 11.0574 3.69422 11.4558 3.92578V5.32736C8.59559 5.59685 5.93833 6.93145 4.00435 9.06982C2.07038 11.2082 0.998991 13.9963 1 16.8882Z" fill="#656565"/>
<path d="M0 23V21H25V23H0Z" fill="#656565"/>
</svg>
