<svg xmlns="http://www.w3.org/2000/svg" width="25" height="23" viewBox="0 0 25 23" fill="none">
  <path d="M1.04167 18.8199V16.7299C1.04545 13.8637 2.11541 11.1021 4.04209 8.98582C5.96877 6.8695 8.61343 5.5508 11.4583 5.28788V3.90009C11.0612 3.67004 10.7508 3.31495 10.5753 2.88988C10.3997 2.46481 10.369 1.99352 10.4877 1.5491C10.6064 1.10469 10.8679 0.711988 11.2317 0.431902C11.5956 0.151816 12.0414 0 12.5 0C12.9586 0 13.4044 0.151816 13.7683 0.431902C14.1321 0.711988 14.3936 1.10469 14.5123 1.5491C14.631 1.99352 14.6003 2.46481 14.4247 2.88988C14.2492 3.31495 13.9388 3.67004 13.5417 3.90009V5.28788C16.3866 5.5508 19.0312 6.8695 20.9579 8.98582C22.8846 11.1021 23.9545 13.8637 23.9583 16.7299V18.8199H1.04167ZM0 20.91V23H25V20.91H0Z" fill="#656565"/>
</svg>