<svg width="90" height="97" viewBox="0 0 90 97" fill="none" xmlns="http://www.w3.org/2000/svg">
<path d="M27.4758 3.55242C36.056 -0.0753342 45.5506 -0.950818 54.6496 1.04677C63.7485 3.04436 72.0032 7.81656 78.2747 14.7049C84.5462 21.5932 88.5254 30.2581 89.6631 39.504C90.8009 48.7499 89.0411 58.121 84.6267 66.3243C80.2123 74.5276 73.3608 81.1586 65.0176 85.3026C56.6744 89.4465 47.2508 90.899 38.047 89.4596C28.8433 88.0202 20.313 83.76 13.6334 77.2666C6.95376 70.7733 2.45394 62.367 0.754839 53.2077L45 45L27.4758 3.55242Z" fill="#252B61"/>
<path d="M72.041 87.3997H69.4216C68.7343 87.3997 68.1768 86.7048 68.1745 85.8449C68.1722 84.7514 68.17 83.3361 68.1745 82.4562C68.1813 81.3144 68.2564 80.1782 68.5341 79.079C68.8754 77.7207 69.59 76.8693 70.7234 76.6187L70.7347 76.6158C71.2331 76.5105 71.7065 76.9291 71.7907 77.5527C71.7998 77.6182 71.8043 77.6837 71.8043 77.7463V78.7629C71.8066 79.2043 71.6064 79.6058 71.29 79.7994C70.8576 80.0557 70.6528 80.5854 70.5686 81.246C70.5026 81.7614 70.473 82.2825 70.4252 82.8321H72.041C72.7147 82.8321 73.2631 83.5155 73.2631 84.3613V85.8705C73.2631 86.7162 72.7147 87.3997 72.041 87.3997Z" fill="#252B61"/>
<path d="M78.6013 87.3997H75.9841C75.2968 87.3997 74.7393 86.7048 74.737 85.8449C74.7347 84.7514 74.7325 83.3361 74.737 82.4562C74.7438 81.3144 74.8189 80.1782 75.0966 79.079C75.4379 77.7207 76.1525 76.8693 77.2859 76.6187L77.2972 76.6158C77.7956 76.5105 78.269 76.9291 78.3532 77.5527C78.3623 77.6182 78.3668 77.6837 78.3668 77.7463V78.7629C78.3691 79.2043 78.1689 79.6087 77.8525 79.7994C77.4201 80.0557 77.2153 80.5854 77.1311 81.246C77.0651 81.7614 77.0355 82.2825 76.9877 82.8321H78.6058C79.2794 82.8321 79.8279 83.5155 79.8279 84.3584V85.8677C79.8233 86.7162 79.2772 87.3997 78.6013 87.3997Z" fill="#252B61"/>
<circle cx="45" cy="45" r="43" fill="white"/>
<circle cx="74" cy="82" r="14" fill="white" stroke="#252B61" stroke-width="2"/>
<path d="M71.8692 86.8H69.2497C68.5625 86.8 68.0049 86.1052 68.0026 85.2453C68.0004 84.1518 67.9981 82.7365 68.0026 81.8566C68.0095 80.7148 68.0846 79.5786 68.3622 78.4794C68.7036 77.1211 69.4182 76.2697 70.5515 76.0191L70.5629 76.0162C71.0613 75.9109 71.5346 76.3295 71.6188 76.9531C71.6279 77.0186 71.6325 77.0841 71.6325 77.1467V78.1633C71.6347 78.6047 71.4345 79.0062 71.1181 79.1998C70.6858 79.4561 70.4809 79.9858 70.3967 80.6464C70.3307 81.1618 70.3011 81.6829 70.2534 82.2325H71.8692C72.5428 82.2325 73.0912 82.9159 73.0912 83.7617V85.2709C73.0912 86.1166 72.5428 86.8 71.8692 86.8Z" fill="#252B61"/>
<path d="M78.4294 86.8H75.8122C75.125 86.8 74.5674 86.1052 74.5651 85.2453C74.5629 84.1518 74.5606 82.7365 74.5651 81.8566C74.572 80.7148 74.6471 79.5786 74.9247 78.4794C75.2661 77.1211 75.9807 76.2697 77.114 76.0191L77.1254 76.0162C77.6238 75.9109 78.0971 76.3295 78.1813 76.9531C78.1904 77.0186 78.195 77.0841 78.195 77.1467V78.1633C78.1972 78.6047 77.997 79.009 77.6806 79.1998C77.2483 79.4561 77.0434 79.9858 76.9592 80.6464C76.8932 81.1618 76.8636 81.6829 76.8159 82.2325H78.4339C79.1076 82.2325 79.656 82.9159 79.656 83.7588V85.268C79.6515 86.1166 79.1053 86.8 78.4294 86.8Z" fill="#252B61"/>
</svg>
