<svg width="25" height="25" viewBox="0 0 25 25" fill="none" xmlns="http://www.w3.org/2000/svg">
<circle cx="12.6808" cy="12.2048" r="10.943" fill="white" stroke="#252B61" stroke-width="2"/>
<path d="M11.1212 16.5043H9.03558C8.48836 16.5043 8.04443 15.9511 8.04262 15.2664C8.04081 14.3957 8.039 13.2689 8.04262 12.5683C8.04806 11.6592 8.10785 10.7545 8.32891 9.87937C8.60071 8.79789 9.16966 8.11998 10.072 7.92046L10.0811 7.9182C10.4779 7.83431 10.8548 8.16759 10.9218 8.66412C10.9291 8.71627 10.9327 8.76842 10.9327 8.8183V9.62771C10.9345 9.97913 10.7751 10.2988 10.5232 10.453C10.1789 10.657 10.0159 11.0788 9.94881 11.6048C9.89626 12.0151 9.87271 12.43 9.83466 12.8676H11.1212C11.6575 12.8676 12.0942 13.4118 12.0942 14.0851V15.2868C12.0942 15.9602 11.6575 16.5043 11.1212 16.5043Z" fill="#252B61"/>
<path d="M16.3444 16.5043H14.2607C13.7135 16.5043 13.2695 15.9511 13.2677 15.2664C13.2659 14.3957 13.2641 13.2689 13.2677 12.5683C13.2732 11.6592 13.3329 10.7545 13.554 9.87937C13.8258 8.79789 14.3948 8.11998 15.2971 7.92046L15.3062 7.9182C15.703 7.83431 16.0799 8.16759 16.1469 8.66412C16.1542 8.71627 16.1578 8.76842 16.1578 8.8183V9.62771C16.1596 9.97913 16.0002 10.3011 15.7483 10.453C15.404 10.657 15.241 11.0788 15.1739 11.6048C15.1214 12.0151 15.0978 12.43 15.0598 12.8676H16.3481C16.8844 12.8676 17.3211 13.4118 17.3211 14.0829V15.2845C17.3175 15.9602 16.8826 16.5043 16.3444 16.5043Z" fill="#252B61"/>
</svg>
