<svg width="27" height="26" viewBox="0 0 27 26" fill="none" xmlns="http://www.w3.org/2000/svg">
<path d="M13.4315 25.3655C6.66866 25.3655 1.18628 19.8831 1.18628 13.1202C1.18628 6.35738 6.66866 0.875 13.4315 0.875C20.1944 0.875 25.6768 6.35738 25.6768 13.1202C25.6768 19.8831 20.1944 25.3655 13.4315 25.3655Z" fill="#F2BD00" stroke="#262525" stroke-linecap="round" stroke-linejoin="round"/>
<path d="M7.46576 12.8063C6.77213 12.8063 6.20984 12.244 6.20984 11.5504C6.20984 10.8567 6.77213 10.2944 7.46576 10.2944C8.15938 10.2944 8.72168 10.8567 8.72168 11.5504C8.72168 12.244 8.15938 12.8063 7.46576 12.8063Z" fill="#262525" stroke="#262525" stroke-linecap="round" stroke-linejoin="round"/>
<path d="M20.0253 12.8063C19.3317 12.8063 18.7694 12.244 18.7694 11.5504C18.7694 10.8567 19.3317 10.2944 20.0253 10.2944C20.719 10.2944 21.2812 10.8567 21.2812 11.5504C21.2812 12.244 20.719 12.8063 20.0253 12.8063Z" fill="#262525" stroke="#262525" stroke-linecap="round" stroke-linejoin="round"/>
<mask id="path-4-inside-1_3626_2035" fill="white">
<path d="M20.34 16.2601C20.34 16.7549 20.1654 17.2448 19.8262 17.7019C19.4869 18.1591 18.9897 18.5744 18.3628 18.9243C17.736 19.2741 16.9918 19.5517 16.1728 19.741C15.3538 19.9304 14.4759 20.0278 13.5894 20.0278C12.7029 20.0278 11.8251 19.9304 11.0061 19.741C10.1871 19.5517 9.44292 19.2741 8.81607 18.9243C8.18922 18.5744 7.69197 18.1591 7.35272 17.7019C7.01348 17.2448 6.83887 16.7549 6.83887 16.2601L13.5894 16.2601L20.34 16.2601Z"/>
</mask>
<path d="M20.34 16.2601C20.34 16.7549 20.1654 17.2448 19.8262 17.7019C19.4869 18.1591 18.9897 18.5744 18.3628 18.9243C17.736 19.2741 16.9918 19.5517 16.1728 19.741C15.3538 19.9304 14.4759 20.0278 13.5894 20.0278C12.7029 20.0278 11.8251 19.9304 11.0061 19.741C10.1871 19.5517 9.44292 19.2741 8.81607 18.9243C8.18922 18.5744 7.69197 18.1591 7.35272 17.7019C7.01348 17.2448 6.83887 16.7549 6.83887 16.2601L13.5894 16.2601L20.34 16.2601Z" stroke="#262525" stroke-width="2" mask="url(#path-4-inside-1_3626_2035)"/>
</svg>
