<svg width="26" height="26" viewBox="0 0 26 26" fill="none" xmlns="http://www.w3.org/2000/svg">
<path d="M13.245 25.3655C6.48214 25.3655 0.999754 19.8831 0.999754 13.1202C0.999754 6.35738 6.48214 0.875 13.245 0.875C20.0079 0.875 25.4902 6.35738 25.4902 13.1202C25.4902 19.8831 20.0079 25.3655 13.245 25.3655Z" fill="#F9E593" stroke="#262525" stroke-linecap="round" stroke-linejoin="round"/>
<path d="M6.96478 12.8063C6.27115 12.8063 5.70886 12.1737 5.70886 11.3934C5.70886 10.6131 6.27115 9.98047 6.96478 9.98047C7.65841 9.98047 8.2207 10.6131 8.2207 11.3934C8.2207 12.1737 7.65841 12.8063 6.96478 12.8063Z" fill="#262525" stroke="#262525" stroke-linecap="round" stroke-linejoin="round"/>
<path d="M19.5253 12.8063C18.8317 12.8063 18.2694 12.1737 18.2694 11.3934C18.2694 10.6131 18.8317 9.98047 19.5253 9.98047C20.219 9.98047 20.7812 10.6131 20.7812 11.3934C20.7812 12.1737 20.219 12.8063 19.5253 12.8063Z" fill="#262525" stroke="#262525" stroke-linecap="round" stroke-linejoin="round"/>
<path d="M19.8389 17.5156H6.33771" stroke="#262525" stroke-linecap="round"/>
</svg>
