<svg xmlns="http://www.w3.org/2000/svg" width="23" height="23" viewBox="0 0 23 23" fill="none">
  <g clip-path="url(#clip0_302_3348)">
    <path d="M11.5 0C5.15871 0 0 5.15871 0 11.5C0 17.8413 5.15871 23 11.5 23C17.8413 23 23 17.8413 23 11.5C23 5.15871 17.8413 0 11.5 0ZM5.74904 8.625C5.54012 8.625 5.32929 8.55696 5.15296 8.41608C4.738 8.08642 4.67092 7.48362 5.00058 7.06962C5.87267 5.97617 7.21146 5.09162 8.41129 4.81658C8.92496 4.69775 9.44054 5.01975 9.55937 5.53629C9.67821 6.05283 9.35525 6.5665 8.83967 6.68437C8.0615 6.86358 7.09933 7.51237 6.50037 8.26467C6.31063 8.50233 6.03079 8.625 5.74904 8.625ZM8.14583 9.58333C8.93933 9.58333 9.58333 10.2273 9.58333 11.0208C9.58333 11.8143 8.93933 12.4583 8.14583 12.4583C7.35233 12.4583 6.70833 11.8143 6.70833 11.0208C6.70833 10.2273 7.35233 9.58333 8.14583 9.58333ZM15.3621 18.1901C14.4708 18.0033 13.4473 17.251 11.5 17.25C9.55267 17.25 8.60296 18.0023 7.71171 18.1901C7.02171 18.3348 6.49271 17.5988 6.87221 17.0267C7.68583 15.7981 9.14537 14.375 11.5402 14.375C13.9351 14.375 15.3889 15.7972 16.2025 17.0267C16.5811 17.5988 16.0521 18.3348 15.3621 18.1901ZM13.4167 11.0208C13.4167 10.2273 14.0607 9.58333 14.8542 9.58333C15.6477 9.58333 16.2917 10.2273 16.2917 11.0208C16.2917 11.8143 15.6477 12.4583 14.8542 12.4583C14.0607 12.4583 13.4167 11.8143 13.4167 11.0208ZM17.847 8.41608C17.6707 8.55696 17.4599 8.625 17.251 8.625C16.9692 8.625 16.6903 8.50137 16.5006 8.26467C15.9016 7.51237 14.9395 6.86358 14.1613 6.68437C13.6457 6.56554 13.3228 6.05187 13.4416 5.53629C13.5604 5.02071 14.0741 4.69487 14.5897 4.81658C15.7895 5.09162 17.1273 5.97617 18.0004 7.06962C18.33 7.48362 18.262 8.08642 17.848 8.41608H17.847Z" fill="#656565"/>
  </g>
  <defs>
    <clipPath id="clip0_302_3348">
      <rect width="23" height="23" fill="white"/>
    </clipPath>
  </defs>
</svg>