<svg width="11" height="10" viewBox="0 0 11 10" fill="none" xmlns="http://www.w3.org/2000/svg">
<path d="M6.05133 2.77536V1.06182C6.05133 0.912815 6.10929 0.769914 6.21246 0.664553C6.31562 0.559191 6.45554 0.5 6.60144 0.5C6.74576 0.500621 6.88406 0.559135 6.98652 0.662927L10.8373 4.59566C10.8888 4.64788 10.9298 4.71002 10.9577 4.77849C10.9856 4.84695 11 4.92038 11 4.99455C11 5.06871 10.9856 5.14215 10.9577 5.21061C10.9298 5.27907 10.8888 5.34121 10.8373 5.39344L6.98652 9.32617C6.90929 9.40348 6.81147 9.45583 6.70527 9.47667C6.59908 9.49752 6.48922 9.48594 6.38943 9.44338C6.28965 9.40081 6.20436 9.32916 6.14422 9.23737C6.08409 9.14557 6.05178 9.03772 6.05133 8.92728V7.18564H5.58374C4.71461 7.1724 3.85308 7.35248 3.05893 7.71338C2.26478 8.07428 1.55704 8.60736 0.984834 9.27561C0.915876 9.36936 0.819921 9.43873 0.71042 9.474C0.600918 9.50926 0.483356 9.50864 0.374213 9.47224C0.263144 9.43396 0.16695 9.36045 0.0996609 9.26242C0.0323706 9.16439 -0.00249767 9.04697 0.000139236 8.92728C0.000139236 3.80349 4.44502 2.92706 6.05133 2.77536ZM5.58374 6.05077C5.95168 6.04959 6.31927 6.07399 6.68396 6.1238C6.81419 6.14398 6.93301 6.21122 7.01882 6.31328C7.10463 6.41535 7.15172 6.54548 7.15155 6.68V7.57329L9.67105 4.99455L7.15155 2.4158V3.30909C7.15155 3.4581 7.09359 3.601 6.99043 3.70636C6.88726 3.81172 6.74734 3.87091 6.60144 3.87091C6.10084 3.87091 2.14006 3.98327 1.28189 7.4834C2.52751 6.54548 4.03619 6.04305 5.58374 6.05077Z" fill="black"/>
</svg>
