<svg width="68" height="68" viewBox="0 0 68 68" fill="none" xmlns="http://www.w3.org/2000/svg">
<circle cx="34" cy="34" r="34" fill="#C2CBF8"/>
<g clip-path="url(#clip0_1305_596)">
<path d="M34.5 31.8906C34.7848 31.8906 35.0156 31.6598 35.0156 31.375C35.0156 31.0902 34.7848 30.8594 34.5 30.8594C34.2152 30.8594 33.9844 31.0902 33.9844 31.375C33.9844 31.6598 34.2152 31.8906 34.5 31.8906Z" fill="black"/>
<path d="M35.018 26.7661V27.2498C35.018 27.3865 34.9637 27.5177 34.867 27.6144C34.7703 27.7111 34.6391 27.7654 34.5024 27.7654C34.3656 27.7654 34.2345 27.7111 34.1378 27.6144C34.0411 27.5177 33.9868 27.3865 33.9868 27.2498V26.7656C33.1169 26.8628 32.2926 27.2054 31.6102 27.7536L31.95 28.0934C32.0467 28.1901 32.101 28.3212 32.101 28.4579C32.101 28.5946 32.0467 28.7258 31.95 28.8225C31.8533 28.9191 31.7222 28.9734 31.5855 28.9734C31.4488 28.9734 31.3176 28.9191 31.2209 28.8225L30.8801 28.4816C30.3314 29.1642 29.9882 29.9888 29.8906 30.8592H33.0504C33.1566 30.5586 33.3532 30.2982 33.6131 30.1136C33.873 29.929 34.1836 29.8292 34.5024 29.8279C34.7321 29.8288 34.9586 29.8817 35.165 29.9826L37.3945 27.753C36.7117 27.2059 35.8876 26.8637 35.018 26.7661Z" fill="black"/>
<path d="M35.8906 30.713C35.9135 30.7608 35.9336 30.8099 35.951 30.86H39.1107C39.0131 29.9896 38.6699 29.165 38.1212 28.4824L35.8906 30.713Z" fill="black"/>
<path d="M48.3116 38.1998L46.3594 32.8311V31.375C46.3594 28.2297 45.1099 25.2132 42.8859 22.9892C40.6618 20.7651 37.6453 19.5156 34.5 19.5156C31.3547 19.5156 28.3382 20.7651 26.1142 22.9892C23.8901 25.2132 22.6406 28.2297 22.6406 31.375C22.6344 35.8457 23.9981 40.2109 26.5481 43.883L27.2539 44.9029L26.2567 50.8842C26.2444 50.9581 26.2484 51.0337 26.2683 51.1059C26.2882 51.1781 26.3237 51.2451 26.3721 51.3022C26.4205 51.3593 26.4808 51.4052 26.5488 51.4367C26.6168 51.4681 26.6908 51.4844 26.7656 51.4844H40.1719C40.3086 51.4844 40.4398 51.43 40.5365 51.3334C40.6332 51.2367 40.6875 51.1055 40.6875 50.9688V47.875C40.6875 47.7382 40.7418 47.6071 40.8385 47.5104C40.9352 47.4137 41.0664 47.3594 41.2031 47.3594H44.2969C44.8439 47.3594 45.3685 47.1421 45.7553 46.7553C46.1421 46.3685 46.3594 45.8439 46.3594 45.2969V43.2344H43.7813C43.6445 43.2344 43.5134 43.18 43.4167 43.0834C43.32 42.9867 43.2656 42.8555 43.2656 42.7188C43.2656 42.582 43.32 42.4508 43.4167 42.3541C43.5134 42.2575 43.6445 42.2031 43.7813 42.2031H46.3594V40.6562H46.5909C46.8852 40.6563 47.1752 40.5855 47.4363 40.4496C47.6974 40.3138 47.9218 40.117 48.0907 39.876C48.2595 39.6349 48.3678 39.3567 48.4062 39.0649C48.4447 38.7731 48.4122 38.4764 48.3116 38.1998ZM34.5 39.1094C32.9703 39.1094 31.4749 38.6558 30.203 37.8059C28.9311 36.956 27.9398 35.7481 27.3544 34.3348C26.769 32.9215 26.6158 31.3664 26.9143 29.8661C27.2127 28.3658 27.9493 26.9876 29.031 25.906C30.1127 24.8243 31.4908 24.0877 32.9911 23.7892C34.4914 23.4908 36.0466 23.644 37.4598 24.2294C38.8731 24.8148 40.0811 25.8061 40.9309 27.078C41.7808 28.3499 42.2344 29.8453 42.2344 31.375C42.2321 33.4256 41.4165 35.3915 39.9665 36.8415C38.5165 38.2914 36.5506 39.1071 34.5 39.1094Z" fill="black"/>
<path d="M34.5 24.6719C33.1742 24.6719 31.8783 25.065 30.7759 25.8016C29.6736 26.5381 28.8145 27.585 28.3071 28.8098C27.7998 30.0347 27.667 31.3824 27.9257 32.6827C28.1843 33.983 28.8227 35.1774 29.7602 36.1148C30.6976 37.0523 31.892 37.6907 33.1923 37.9493C34.4926 38.208 35.8403 38.0752 37.0652 37.5679C38.29 37.0605 39.3369 36.2014 40.0734 35.0991C40.81 33.9967 41.2031 32.7008 41.2031 31.375C41.2011 29.5978 40.4942 27.8941 39.2376 26.6374C37.9809 25.3808 36.2772 24.6739 34.5 24.6719ZM39.6563 31.8906H35.952C35.847 32.192 35.6508 32.4533 35.3906 32.6382C35.1304 32.823 34.8192 32.9224 34.5 32.9224C34.1808 32.9224 33.8696 32.823 33.6094 32.6382C33.3492 32.4533 33.153 32.192 33.048 31.8906H29.3438C29.207 31.8906 29.0758 31.8363 28.9792 31.7396C28.8825 31.6429 28.8281 31.5118 28.8281 31.375C28.8281 29.8707 29.4257 28.4281 30.4894 27.3644C31.5531 26.3007 32.9957 25.7031 34.5 25.7031C36.0043 25.7031 37.4469 26.3007 38.5106 27.3644C39.5743 28.4281 40.1719 29.8707 40.1719 31.375C40.1719 31.5118 40.1176 31.6429 40.0209 31.7396C39.9242 31.8363 39.793 31.8906 39.6563 31.8906Z" fill="black"/>
<path d="M49.5399 20.2611L48.4308 21.9255L47.4166 20.9118C47.3626 20.8579 47.2974 20.8166 47.2256 20.7909C47.1538 20.7652 47.0772 20.7557 47.0013 20.7632C46.9254 20.7707 46.8521 20.795 46.7867 20.8342C46.7212 20.8735 46.6654 20.9267 46.623 20.9902L45.1648 23.1769C45.1272 23.2333 45.1011 23.2965 45.088 23.3629C45.0748 23.4293 45.0748 23.4977 45.0881 23.5641C45.1014 23.6305 45.1276 23.6937 45.1653 23.75C45.2029 23.8062 45.2513 23.8545 45.3077 23.8921C45.364 23.9297 45.4272 23.9558 45.4937 23.9689C45.5602 23.982 45.6285 23.9819 45.695 23.9686C45.7614 23.9553 45.8245 23.929 45.8808 23.8913C45.937 23.8536 45.9853 23.8052 46.0228 23.7488L47.133 22.0859L48.1462 23.0996C48.2 23.1532 48.2651 23.1943 48.3366 23.2198C48.4082 23.2454 48.4845 23.2548 48.5601 23.2474C48.6358 23.24 48.7088 23.216 48.7741 23.1771C48.8394 23.1381 48.8952 23.0853 48.9377 23.0223L50.3959 20.8345C50.4334 20.7781 50.4596 20.7149 50.4727 20.6485C50.4859 20.5821 50.4858 20.5137 50.4726 20.4473C50.4593 20.3809 50.4331 20.3177 50.3954 20.2614C50.3578 20.2052 50.3094 20.1569 50.253 20.1193C50.1395 20.0439 50.0008 20.0165 49.8672 20.0431C49.7336 20.0697 49.6159 20.148 49.5399 20.2611Z" fill="black"/>
<path d="M20.5694 21.9252L19.4603 20.2608C19.4228 20.2044 19.3745 20.1561 19.3182 20.1184C19.2619 20.0807 19.1988 20.0545 19.1323 20.0412C19.0659 20.028 18.9976 20.0279 18.9311 20.0411C18.8647 20.0543 18.8015 20.0804 18.7452 20.118C18.6888 20.1555 18.6404 20.2038 18.6028 20.2601C18.5651 20.3164 18.5389 20.3796 18.5256 20.446C18.5123 20.5124 18.5123 20.5808 18.5255 20.6472C18.5386 20.7136 18.5648 20.7768 18.6023 20.8331L20.0626 23.022C20.1049 23.0854 20.1608 23.1387 20.2262 23.1779C20.2916 23.2172 20.3649 23.2414 20.4408 23.2489C20.5167 23.2564 20.5933 23.247 20.6652 23.2213C20.737 23.1956 20.8022 23.1543 20.8561 23.1003L21.8673 22.0856L22.9774 23.7495C23.015 23.8059 23.0632 23.8543 23.1195 23.8921C23.1757 23.9298 23.2389 23.956 23.3053 23.9694C23.3717 23.9827 23.4401 23.9828 23.5066 23.9696C23.573 23.9565 23.6362 23.9304 23.6926 23.8929C23.7491 23.8553 23.7976 23.8069 23.8354 23.7506C23.8731 23.6942 23.8994 23.6309 23.9127 23.5644C23.9259 23.4979 23.9259 23.4294 23.9127 23.3628C23.8994 23.2963 23.8732 23.233 23.8354 23.1767L22.3772 20.9899C22.3349 20.9264 22.279 20.8732 22.2136 20.8339C22.1482 20.7947 22.0749 20.7704 21.999 20.7629C21.9231 20.7555 21.8465 20.7649 21.7747 20.7906C21.7028 20.8163 21.6376 20.8576 21.5837 20.9115L20.5694 21.9252Z" fill="black"/>
</g>
<defs>
<clipPath id="clip0_1305_596">
<rect width="33" height="33" fill="white" transform="translate(18 19)"/>
</clipPath>
</defs>
</svg>
