<svg xmlns="http://www.w3.org/2000/svg" width="23" height="23" viewBox="0 0 23 23" fill="none">
  <path d="M0.732311 6.23806H2.44104V7.94679C2.44104 8.35102 2.76911 8.6791 3.17335 8.6791C3.57758 8.6791 3.90566 8.35102 3.90566 7.94679V5.50575C3.90566 5.10151 3.57758 4.77344 3.17335 4.77344H0.732311C0.328075 4.77344 0 5.10151 0 5.50575C0 5.90998 0.328075 6.23806 0.732311 6.23806Z" fill="#656565"/>
  <path d="M0.732311 3.90566H3.17335C3.57758 3.90566 3.90566 3.57758 3.90566 3.17335V0.732311C3.90566 0.328075 3.57758 0 3.17335 0C2.76911 0 2.44104 0.328075 2.44104 0.732311V2.44104H0.732311C0.328075 2.44104 0 2.76911 0 3.17335C0 3.57758 0.328075 3.90566 0.732311 3.90566Z" fill="#656565"/>
  <path d="M4.77344 7.94679C4.77344 8.35102 5.10151 8.6791 5.50575 8.6791C5.90998 8.6791 6.23806 8.35102 6.23806 7.94679V6.23806H7.94679C8.35102 6.23806 8.6791 5.90998 8.6791 5.50575C8.6791 5.10151 8.35102 4.77344 7.94679 4.77344H5.50575C5.10151 4.77344 4.77344 5.10151 4.77344 5.50575V7.94679Z" fill="#656565"/>
  <path d="M11.5 0C10.1516 0 8.86362 0.244375 7.66188 0.669875C7.66188 0.687125 7.66667 0.702458 7.66667 0.71875V0.958333H7.90625C9.09554 0.958333 10.0625 1.92529 10.0625 3.11458C10.0625 3.55733 9.92738 3.96942 9.69738 4.3125C9.92738 4.65558 10.0625 5.06767 10.0625 5.51042C10.0625 6.69971 9.09554 7.66667 7.90625 7.66667H7.66667V7.90625C7.66667 9.09554 6.69971 10.0625 5.51042 10.0625C5.06767 10.0625 4.65558 9.92738 4.3125 9.69738C3.96942 9.92738 3.55733 10.0625 3.11458 10.0625C1.92529 10.0625 0.958333 9.09554 0.958333 7.90625V7.66667H0.71875C0.702458 7.66667 0.687125 7.66188 0.669875 7.66188C0.244375 8.86362 0 10.1516 0 11.5C0 17.8509 5.14913 23 11.5 23C17.8509 23 23 17.8509 23 11.5C23 5.14913 17.8509 0 11.5 0ZM3.83333 11.2604C3.83333 10.8637 4.15533 10.5417 4.55208 10.5417H8.86458C9.26133 10.5417 9.58333 10.8637 9.58333 11.2604C9.58333 11.6572 9.26133 11.9792 8.86458 11.9792H4.55208C4.15533 11.9792 3.83333 11.6572 3.83333 11.2604ZM14.6146 17.7292H8.38542C7.98867 17.7292 7.66667 17.4072 7.66667 17.0104C7.66667 16.6137 7.98867 16.2917 8.38542 16.2917H14.6146C15.0113 16.2917 15.3333 16.6137 15.3333 17.0104C15.3333 17.4072 15.0113 17.7292 14.6146 17.7292ZM18.4479 11.9792H14.1354C13.7387 11.9792 13.4167 11.6572 13.4167 11.2604C13.4167 10.8637 13.7387 10.5417 14.1354 10.5417H18.4479C18.8447 10.5417 19.1667 10.8637 19.1667 11.2604C19.1667 11.6572 18.8447 11.9792 18.4479 11.9792Z" fill="#656565"/>
  <path d="M5.50575 0C5.10151 0 4.77344 0.328075 4.77344 0.732311V3.17335C4.77344 3.57758 5.10151 3.90566 5.50575 3.90566H7.94679C8.35102 3.90566 8.6791 3.57758 8.6791 3.17335C8.6791 2.76911 8.35102 2.44104 7.94679 2.44104H6.23806V0.732311C6.23806 0.328075 5.90998 0 5.50575 0Z" fill="#656565"/>
</svg>