<svg xmlns="http://www.w3.org/2000/svg" width="29" height="22" viewBox="0 0 29 22" fill="none">
  <path fill-rule="evenodd" clip-rule="evenodd" d="M2.74273 9.24839C2.57163 9.24839 2.43291 9.10977 2.43291 8.93865V1.85402C2.43291 1.35425 2.02623 0.947528 1.52633 0.947528C1.02642 0.947436 0.619692 1.35425 0.619692 1.85413V8.93862C0.619692 9.1097 0.480976 9.24847 0.309855 9.24847C0.138752 9.2484 0 9.10978 0 8.93866V1.85403C0 1.01251 0.684723 0.327881 1.52629 0.327881C2.36788 0.327863 3.05261 1.01255 3.05261 1.85414V8.93863C3.05261 9.10971 2.91385 9.24847 2.74273 9.24839Z" fill="#464343"/>
  <path fill-rule="evenodd" clip-rule="evenodd" d="M0.619721 9.24839V13.0247C0.619721 13.1242 0.703708 13.2083 0.803156 13.2083H27.5799C27.6793 13.2083 27.7633 13.1243 27.7633 13.0249L27.7633 9.24839L0.619721 9.24839ZM27.5799 13.8279H0.803163C0.360284 13.8279 0 13.4678 0 13.0249V8.93861C0 8.76751 0.138752 8.62879 0.309855 8.62879L28.0732 8.62866C28.2443 8.62866 28.383 8.76751 28.383 8.93865V13.0247C28.383 13.4677 28.0228 13.828 27.5799 13.8279Z" fill="#464343"/>
  <path fill-rule="evenodd" clip-rule="evenodd" d="M28.0728 9.24859C27.9017 9.24859 27.7629 9.10996 27.7629 8.93884L27.7629 4.66848C27.7629 4.16872 27.3562 3.76206 26.8563 3.76206C26.3564 3.76205 25.9497 4.16873 25.9497 4.66861V8.9388C25.9497 9.10989 25.811 9.24866 25.6399 9.24866C25.4688 9.24858 25.3301 9.10996 25.3301 8.93884L25.3301 4.66848C25.3301 3.82696 26.0148 3.14233 26.8563 3.14233C27.6979 3.14232 28.3826 3.82706 28.3826 4.66861V8.9388C28.3826 9.10989 28.2439 9.24866 28.0728 9.24859Z" fill="#464343"/>
  <path fill-rule="evenodd" clip-rule="evenodd" d="M8.85031 11.1722H0.309855C0.138752 11.1722 0 11.0335 0 10.8624C0 10.6912 0.138752 10.5525 0.309855 10.5525L8.85031 10.5525C9.02143 10.5525 9.16015 10.6913 9.16015 10.8624C9.16015 11.0335 9.02143 11.1723 8.85031 11.1722ZM28.0731 11.1722H25.6402C25.4692 11.1722 25.3304 11.0335 25.3304 10.8624C25.3304 10.6912 25.4692 10.5525 25.6402 10.5525L28.0731 10.5525C28.2443 10.5525 28.383 10.6913 28.383 10.8624C28.383 11.0335 28.2443 11.1723 28.0731 11.1722Z" fill="#464343"/>
  <path fill-rule="evenodd" clip-rule="evenodd" d="M3.71222 17.005C3.5411 17.005 3.40234 16.8664 3.40234 16.6953V13.5183C3.40234 13.3472 3.5411 13.2085 3.71222 13.2085C3.88332 13.2085 4.02204 13.3472 4.02204 13.5184V16.6952C4.02204 16.8663 3.88332 17.0051 3.71222 17.005ZM24.6702 17.005C24.499 17.005 24.3603 16.8664 24.3603 16.6953V13.5183C24.3603 13.3472 24.4991 13.2085 24.6702 13.2085C24.8413 13.2085 24.98 13.3472 24.98 13.5184V16.6952C24.98 16.8663 24.8413 17.0051 24.6702 17.005Z" fill="#464343"/>
  <path fill-rule="evenodd" clip-rule="evenodd" d="M23.0606 15.3951H5.32255C5.15145 15.3951 5.0127 15.2564 5.0127 15.0852V13.5183C5.0127 13.3472 5.15143 13.2085 5.32255 13.2085C5.49367 13.2085 5.63242 13.3472 5.63242 13.5184V14.7753H22.7508V13.5183C22.7508 13.3472 22.8895 13.2085 23.0606 13.2085C23.2317 13.2085 23.3705 13.3472 23.3705 13.5184L23.3705 15.0851C23.3705 15.2564 23.2317 15.3952 23.0606 15.3951Z" fill="#464343"/>
  <path fill-rule="evenodd" clip-rule="evenodd" d="M25.4028 19.47C25.2316 19.47 25.0928 19.3314 25.0928 19.1603L25.0928 18.6112C25.0928 18.5498 25.0602 18.5079 25.0406 18.4884C25.0211 18.4689 24.9792 18.4361 24.9178 18.4361L3.46512 18.436C3.40373 18.436 3.36181 18.4689 3.34228 18.4884C3.32278 18.5079 3.2901 18.5498 3.2901 18.6112V19.1603C3.2901 19.3313 3.15135 19.4701 2.98022 19.4701C2.80912 19.47 2.67041 19.3314 2.67041 19.1603V18.6112C2.67041 18.4002 2.75339 18.2009 2.90411 18.0502C3.05484 17.8994 3.25407 17.8165 3.46512 17.8165L24.9178 17.8164C25.1289 17.8164 25.3281 17.8995 25.4788 18.0503C25.6296 18.2009 25.7126 18.4002 25.7126 18.6112L25.7126 19.1603C25.7126 19.3313 25.5739 19.4701 25.4028 19.47ZM26.8339 19.47C26.6628 19.47 26.524 19.3314 26.524 19.1603V18.6112C26.524 18.1836 26.3565 17.7806 26.0525 17.4766C25.7484 17.1724 25.3454 17.0051 24.9178 17.0051L3.46511 17.005C3.03747 17.005 2.6345 17.1725 2.33043 17.4766C2.02641 17.7806 1.85899 18.1835 1.85899 18.6112V19.1603C1.85899 19.3313 1.72023 19.4701 1.54911 19.4701C1.37799 19.47 1.23926 19.3314 1.23926 19.1603V18.6112C1.23926 18.018 1.47116 17.4595 1.89225 17.0384C2.31336 16.6172 2.87193 16.3854 3.46511 16.3854L24.9178 16.3853C25.5109 16.3853 26.0695 16.6173 26.4906 17.0384C26.9118 17.4594 27.1436 18.0181 27.1436 18.6112V19.1603C27.1436 19.3313 27.005 19.4701 26.8339 19.47Z" fill="#464343"/>
  <path fill-rule="evenodd" clip-rule="evenodd" d="M2.2648 19.2678C1.68238 19.2678 1.20859 19.7417 1.20859 20.3241C1.20859 20.9065 1.68238 21.3804 2.2648 21.3804C2.84716 21.3803 3.32098 20.9065 3.32098 20.3241C3.32098 19.7417 2.84716 19.2679 2.2648 19.2678ZM2.2648 22C1.34068 22 0.588867 21.2482 0.588867 20.3241C0.588867 19.3999 1.34069 18.6482 2.2648 18.6482C3.18885 18.6482 3.94068 19.4 3.94068 20.3241C3.94068 21.2482 3.18885 22.0001 2.2648 22Z" fill="#464343"/>
  <path fill-rule="evenodd" clip-rule="evenodd" d="M26.1183 19.2678C25.5359 19.2678 25.0621 19.7417 25.0621 20.3241C25.0621 20.9065 25.5359 21.3804 26.1183 21.3804C26.7008 21.3803 27.1745 20.9065 27.1745 20.3241C27.1746 19.7417 26.7008 19.2679 26.1183 19.2678ZM26.1183 22C25.1942 22 24.4424 21.2482 24.4424 20.3241C24.4424 19.3999 25.1942 18.6482 26.1183 18.6482C27.0424 18.6482 27.7942 19.4 27.7942 20.3241C27.7942 21.2482 27.0424 22.0001 26.1183 22Z" fill="#464343"/>
  <path fill-rule="evenodd" clip-rule="evenodd" d="M26.1193 20.6338C25.9482 20.6338 25.8086 20.4951 25.8086 20.324C25.8086 20.1529 25.9465 20.0142 26.1175 20.0142C26.2887 20.0142 26.4292 20.1529 26.4292 20.324C26.4292 20.4951 26.2905 20.6339 26.1193 20.6338Z" fill="#464343"/>
  <path fill-rule="evenodd" clip-rule="evenodd" d="M2.26581 20.6338C2.09471 20.6338 1.95508 20.4951 1.95508 20.324C1.95508 20.1529 2.0929 20.0142 2.26402 20.0142C2.43514 20.0142 2.57565 20.1529 2.57565 20.324C2.57565 20.4951 2.43693 20.6339 2.26581 20.6338Z" fill="#464343"/>
  <path fill-rule="evenodd" clip-rule="evenodd" d="M8.85008 9.24839C8.67903 9.24839 8.54024 9.10977 8.54024 8.93865V7.3125C8.54024 6.58661 7.94979 5.99623 7.22399 5.99623L4.3686 5.99621C3.64282 5.99621 3.05235 6.58674 3.05235 7.31254V8.93861C3.05235 9.10969 2.91359 9.24846 2.74247 9.24846C2.57137 9.24839 2.43262 9.10976 2.43262 8.93864V7.3125C2.43262 6.24501 3.30112 5.37654 4.3686 5.37654L7.22398 5.37646C8.29146 5.37646 9.15998 6.24501 9.15998 7.31254V8.93861C9.15998 9.10969 9.0212 9.24847 8.85008 9.24839Z" fill="#464343"/>
  <path fill-rule="evenodd" clip-rule="evenodd" d="M8.8508 13.828C8.67975 13.828 8.54102 13.6894 8.54102 13.5183V8.93872C8.54102 8.76762 8.67973 8.62891 8.8508 8.62891C9.02192 8.62878 9.16063 8.76762 9.16063 8.93876V13.5182C9.16063 13.6893 9.02192 13.8281 8.8508 13.828ZM25.6407 13.828C25.4697 13.828 25.3309 13.6894 25.3309 13.5183L25.3309 8.93872C25.3309 8.76762 25.4697 8.62891 25.6407 8.62891C25.8119 8.62878 25.9506 8.76762 25.9506 8.93876V13.5182C25.9506 13.6893 25.8118 13.8281 25.6407 13.828Z" fill="#464343"/>
</svg>