<svg xmlns="http://www.w3.org/2000/svg" width="21" height="25" viewBox="0 0 21 25" fill="none">
  <path fill-rule="evenodd" clip-rule="evenodd" d="M14.396 5.57279C13.8711 5.32611 13.3254 5.12187 12.7675 4.9663C12.4708 5.34227 12.0928 5.64612 11.6618 5.85502C11.2308 6.06393 10.7581 6.17245 10.2791 6.17245C9.80021 6.17245 9.32749 6.06393 8.89651 5.85502C8.46554 5.64612 8.0875 5.34227 7.7908 4.9663C3.99646 6.02425 0.769531 9.33359 0.769531 12.9322C0.774373 13.3125 0.888209 13.6835 1.09754 14.0011C1.30686 14.3187 1.60289 14.5696 1.95051 14.724C2.29813 14.8784 2.68274 14.9299 3.05873 14.8723C3.43471 14.8147 3.78629 14.6504 4.07174 14.399C4.5087 14.7434 5.05349 14.9219 5.6095 14.9029C6.04863 14.8879 6.47236 14.7505 6.83427 14.5094L14.396 5.57279ZM5.16799 16.4787C4.80586 16.4458 4.44695 16.3626 4.10186 16.2289C3.67806 16.405 3.2239 16.4965 2.76497 16.4983L3.12158 18.5009C3.14018 18.6051 3.16562 18.7075 3.19756 18.8073L5.16799 16.4787ZM5.72848 20.4606L9.10431 16.471C9.5087 16.4289 9.90503 16.3248 10.2791 16.1615C10.7791 16.3797 11.3186 16.4923 11.8641 16.4923C12.4095 16.4923 12.9491 16.3797 13.449 16.1615C14.4044 16.5815 15.4872 16.6058 16.4604 16.2289C16.883 16.4045 17.3357 16.496 17.7933 16.4983L17.4375 18.4993C17.3398 19.0489 17.0518 19.5467 16.6239 19.9053C16.1961 20.2639 15.6556 20.4605 15.0974 20.4606H5.72848ZM10.6929 14.5936L16.9232 7.23051C18.647 8.75342 19.7888 10.7916 19.7888 12.9322C19.7839 13.3125 19.6701 13.6835 19.4608 14.0011C19.2514 14.3187 18.9554 14.5696 18.6078 14.724C18.2602 14.8784 17.8755 14.9299 17.4996 14.8723C17.1236 14.8147 16.772 14.6504 16.4865 14.399C16.0496 14.7434 15.5048 14.9219 14.9488 14.9029C14.3928 14.8839 13.8614 14.6686 13.449 14.2952C13.0139 14.6867 12.4494 14.9033 11.8641 14.9033C11.4505 14.9033 11.0473 14.7952 10.6929 14.5936ZM11.3999 4.14706C11.6971 3.84983 11.8641 3.44669 11.8641 3.02634C11.8641 2.60599 11.6971 2.20286 11.3999 1.90562C11.1026 1.60839 10.6995 1.44141 10.2791 1.44141C9.8588 1.44141 9.45566 1.60839 9.15843 1.90562C8.86119 2.20286 8.69421 2.60599 8.69421 3.02634C8.69421 3.44669 8.86119 3.84983 9.15843 4.14706C9.45566 4.44429 9.8588 4.61128 10.2791 4.61128C10.6995 4.61128 11.1026 4.44429 11.3999 4.14706Z" fill="#656565"/>
  <path d="M20.2311 1L0.769531 24" stroke="#656565" stroke-linecap="round"/>
</svg>