<svg xmlns="http://www.w3.org/2000/svg" width="27" height="27" viewBox="0 0 27 27" fill="none">
  <path d="M11.5788 18.14C14.1298 19.6208 17.6077 17.6121 17.5406 14.5968C17.539 13.5268 17.1133 12.5011 16.3567 11.7445C15.6001 10.9879 14.5744 10.5621 13.5044 10.5605C9.31686 10.593 7.95343 16.1621 11.5788 18.14Z" fill="#656565"/>
  <path d="M18.5022 19.165L16.4545 18.4825C15.6048 19.1232 14.5695 19.4698 13.5053 19.4698C12.4411 19.4698 11.4058 19.1232 10.5561 18.4824L8.50844 19.165C7.81892 19.3938 7.21903 19.8341 6.79398 20.4233C6.36892 21.0125 6.14031 21.7206 6.14063 22.4471V24.0186C6.14134 24.3604 6.2774 24.6879 6.51902 24.9295C6.76065 25.1711 7.08816 25.3072 7.42988 25.3079H19.5807C19.9224 25.3072 20.25 25.1711 20.4916 24.9295C20.7332 24.6879 20.8693 24.3604 20.87 24.0186V22.4471C20.8703 21.7206 20.6417 21.0125 20.2166 20.4233C19.7916 19.8341 19.1917 19.3938 18.5022 19.165Z" fill="#656565"/>
  <path d="M8.44555 10.4821L10.2572 10.7391C10.3218 10.7481 10.3877 10.742 10.4495 10.7212C10.5114 10.7004 10.5676 10.6656 10.6137 10.6195C10.6598 10.5734 10.6946 10.5172 10.7154 10.4553C10.7362 10.3935 10.7423 10.3276 10.7333 10.263L10.4763 8.45136C10.9164 7.57825 11.0706 6.58881 10.9171 5.62319C10.7636 4.65757 10.3102 3.76472 9.62105 3.07109C5.09386 -1.09696 -1.10315 5.09888 3.0653 9.62686C3.75954 10.315 4.65232 10.7677 5.61766 10.9211C6.583 11.0746 7.57216 10.921 8.44555 10.4821ZM6.34316 8.77579C6.21726 8.77438 6.09699 8.72338 6.00845 8.63385C5.91992 8.54432 5.87026 8.42349 5.87027 8.29758C5.87027 8.17167 5.91993 8.05084 6.00847 7.96131C6.09701 7.87179 6.21728 7.82079 6.34319 7.8194C6.46909 7.8208 6.58937 7.8718 6.6779 7.96133C6.76644 8.05086 6.81609 8.17169 6.81609 8.2976C6.81608 8.42352 6.76642 8.54435 6.67788 8.63387C6.58934 8.7234 6.46907 8.77439 6.34316 8.77579ZM6.65918 3.95591C6.96868 4.02703 7.24746 4.19494 7.45504 4.43527C7.66263 4.6756 7.78821 4.97583 7.81357 5.29238C7.83893 5.60893 7.76274 5.92533 7.59606 6.19563C7.42938 6.46594 7.18089 6.67609 6.88666 6.79558C6.8452 6.80868 6.80993 6.83644 6.78745 6.87366C6.76496 6.91087 6.7568 6.95501 6.76449 6.9978C6.76468 7.05319 6.75391 7.10806 6.73281 7.15926C6.7117 7.21047 6.68067 7.25699 6.64151 7.29615C6.60235 7.33531 6.55583 7.36634 6.50462 7.38744C6.45342 7.40855 6.39855 7.41931 6.34316 7.41912C5.54167 7.32508 6.00318 6.15884 6.5791 6.01195C6.72207 5.9538 6.84006 5.84725 6.91245 5.71094C6.98485 5.57462 7.00703 5.4172 6.97514 5.26618C6.93774 5.11327 6.84592 4.97921 6.71685 4.88908C6.58778 4.79895 6.4303 4.75892 6.27385 4.77647C6.11741 4.79403 5.97272 4.86797 5.86684 4.98447C5.76095 5.10096 5.70113 5.25204 5.69855 5.40944C5.69687 5.52008 5.65173 5.62561 5.5729 5.70325C5.49406 5.78088 5.38785 5.8244 5.2772 5.82439C5.16656 5.82438 5.06035 5.78086 4.98153 5.70321C4.9027 5.62556 4.85758 5.52002 4.85591 5.40939C4.85772 5.18783 4.90868 4.96944 5.00511 4.76996C5.10154 4.57049 5.24104 4.39489 5.41354 4.25585C5.58604 4.11681 5.78725 4.01778 6.00266 3.96592C6.21806 3.91405 6.4423 3.91063 6.65918 3.95591Z" fill="#656565"/>
  <path d="M16.2786 10.2632C16.2698 10.3278 16.276 10.3935 16.2968 10.4553C16.3176 10.5171 16.3524 10.5732 16.3985 10.6193C16.4446 10.6654 16.5008 10.7002 16.5626 10.721C16.6243 10.7418 16.6901 10.7481 16.7547 10.7392L18.5664 10.4823C23.2153 12.8248 27.6244 6.78939 23.9466 3.07116C20.1493 -0.583198 14.2469 3.72649 16.5357 8.45156L16.2786 10.2632ZM20.6688 8.77593C20.5429 8.77453 20.4226 8.72353 20.3341 8.634C20.2455 8.54447 20.1959 8.42363 20.1959 8.29772C20.1959 8.17181 20.2455 8.05098 20.3341 7.96145C20.4226 7.87193 20.5429 7.82094 20.6688 7.81954C20.7947 7.82094 20.915 7.87194 21.0035 7.96147C21.092 8.051 21.1417 8.17183 21.1417 8.29775C21.1417 8.42366 21.092 8.54449 21.0035 8.63402C20.915 8.72354 20.7947 8.77453 20.6688 8.77593ZM20.9848 3.95605C21.2943 4.02717 21.573 4.19508 21.7806 4.43541C21.9882 4.67574 22.1138 4.97597 22.1391 5.29252C22.1645 5.60907 22.0883 5.92547 21.9216 6.19578C21.755 6.46608 21.5065 6.67623 21.2122 6.79572C21.1708 6.80883 21.1355 6.83658 21.113 6.8738C21.0905 6.91102 21.0824 6.95515 21.0901 6.99795C21.0903 7.05333 21.0795 7.1082 21.0584 7.15941C21.0373 7.21061 21.0063 7.25713 20.9671 7.29629C20.9279 7.33545 20.8814 7.36648 20.8302 7.38759C20.779 7.40869 20.7241 7.41946 20.6687 7.41926C19.8672 7.32522 20.3288 6.15898 20.9047 6.0121C21.0477 5.95394 21.1656 5.8474 21.238 5.71108C21.3104 5.57476 21.3326 5.41734 21.3007 5.26633C21.2633 5.11341 21.1715 4.97935 21.0424 4.88922C20.9134 4.79909 20.7559 4.75906 20.5994 4.77662C20.443 4.79417 20.2983 4.86811 20.1924 4.98461C20.0865 5.10111 20.0267 5.25218 20.0241 5.40959C20.0224 5.52022 19.9773 5.62575 19.8985 5.70339C19.8196 5.78103 19.7134 5.82454 19.6028 5.82453C19.4921 5.82453 19.3859 5.781 19.3071 5.70335C19.2283 5.6257 19.1832 5.52017 19.1815 5.40953C19.1833 5.18798 19.2343 4.96959 19.3307 4.77011C19.4271 4.57063 19.5666 4.39504 19.7391 4.256C19.9116 4.11696 20.1128 4.01793 20.3282 3.96606C20.5436 3.91419 20.7679 3.91077 20.9848 3.95605Z" fill="#656565"/>
  <path d="M23.6742 11.4025L20.6994 12.3052C20.6359 12.3251 20.578 12.3597 20.5303 12.4061C20.4826 12.4525 20.4465 12.5095 20.4249 12.5725C20.4033 12.6354 20.3969 12.7026 20.406 12.7685C20.4152 12.8344 20.4397 12.8973 20.4776 12.952L21.0429 13.7498L18.7994 14.8364C18.699 14.8853 18.6221 14.972 18.5856 15.0776C18.5492 15.1831 18.556 15.2988 18.6047 15.3992C18.6534 15.4997 18.74 15.5768 18.8454 15.6135C18.9509 15.6502 19.0666 15.6436 19.1672 15.5951L21.858 14.2912C21.9127 14.2641 21.9609 14.2256 21.9994 14.1781C22.0378 14.1307 22.0656 14.0756 22.0808 14.0164C22.096 13.9573 22.0982 13.8956 22.0874 13.8355C22.0766 13.7754 22.0529 13.7184 22.0181 13.6683L21.5034 12.9417L23.9185 12.2089C24.0234 12.1748 24.1108 12.1009 24.1618 12.0031C24.2129 11.9054 24.2235 11.7915 24.1915 11.6859C24.1596 11.5804 24.0875 11.4915 23.9907 11.4385C23.894 11.3856 23.7803 11.3726 23.6742 11.4025Z" fill="#656565"/>
  <path d="M8.03075 15.6371C8.12504 15.6351 8.21596 15.6017 8.28913 15.5422C8.36229 15.4826 8.4135 15.4004 8.43466 15.3085C8.45582 15.2166 8.44571 15.1203 8.40594 15.0348C8.36616 14.9492 8.299 14.8794 8.21507 14.8364L5.97146 13.7498L6.53678 12.952C6.57537 12.8975 6.60046 12.8346 6.60998 12.7685C6.61949 12.7024 6.61316 12.635 6.5915 12.5718C6.56983 12.5086 6.53347 12.4515 6.4854 12.4052C6.43732 12.3588 6.37892 12.3245 6.315 12.3052L3.34029 11.4025C3.2341 11.3726 3.12043 11.3855 3.02368 11.4385C2.92692 11.4915 2.8548 11.5803 2.82281 11.6859C2.79081 11.7915 2.80148 11.9054 2.85254 12.0032C2.90359 12.101 2.99095 12.1748 3.09587 12.2089L5.51105 12.9417L4.99634 13.6683C4.96147 13.7184 4.93782 13.7755 4.927 13.8356C4.91617 13.8956 4.91843 13.9573 4.93363 14.0165C4.94882 14.0756 4.97658 14.1307 5.01502 14.1782C5.05347 14.2256 5.10168 14.2642 5.15639 14.2913L7.84724 15.5951C7.90449 15.6227 7.96721 15.637 8.03075 15.6371Z" fill="#656565"/>
</svg>