<svg width="40" height="40" viewBox="0 0 40 40" fill="none" xmlns="http://www.w3.org/2000/svg">
<rect width="40" height="39.2" rx="19.6" fill="white"/>
<path fill-rule="evenodd" clip-rule="evenodd" d="M24.1563 11.4121C23.196 10.1694 21.6908 9.36835 20.0001 9.36835C18.3093 9.36835 16.8041 10.1694 15.8438 11.4121C15.4272 8.92903 13.2656 7.03467 10.6653 7.03467C7.76748 7.03467 5.41455 9.3876 5.41455 12.2855C5.41455 15.1833 7.76748 17.5362 10.6653 17.5362C12.3561 17.5362 13.8613 16.7352 14.8216 15.4925C15.2382 17.9756 17.3998 19.8699 20.0001 19.8699C22.6004 19.8699 24.7619 17.9756 25.1785 15.4925C26.1388 16.7352 27.644 17.5362 29.3348 17.5362C32.2326 17.5362 34.5856 15.1833 34.5856 12.2855C34.5856 9.3876 32.2326 7.03467 29.3348 7.03467C26.7345 7.03467 24.5729 8.92903 24.1563 11.4121ZM20.0001 10.5352C22.2538 10.5352 24.084 12.3654 24.084 14.6191C24.084 16.8729 22.2538 18.7031 20.0001 18.7031C17.7463 18.7031 15.9161 16.8729 15.9161 14.6191C15.9161 12.3654 17.7463 10.5352 20.0001 10.5352ZM29.3348 8.20151C31.5885 8.20151 33.4187 10.0317 33.4187 12.2855C33.4187 14.5392 31.5885 16.3694 29.3348 16.3694C27.081 16.3694 25.2508 14.5392 25.2508 12.2855C25.2508 10.0317 27.081 8.20151 29.3348 8.20151ZM10.6653 8.20151C12.9191 8.20151 14.7493 10.0317 14.7493 12.2855C14.7493 14.5392 12.9191 16.3694 10.6653 16.3694C8.41158 16.3694 6.58139 14.5392 6.58139 12.2855C6.58139 10.0317 8.41158 8.20151 10.6653 8.20151Z" fill="#252B61"/>
<path fill-rule="evenodd" clip-rule="evenodd" d="M4.83083 29.2047H10.0816V29.7881C10.0816 30.7548 10.8651 31.5384 11.8319 31.5384H28.1676C29.1344 31.5384 29.9179 30.7548 29.9179 29.7881V29.2047H35.1687C35.6331 29.2047 36.0782 29.0203 36.4061 28.6918C36.7346 28.364 36.919 27.9188 36.919 27.4544V23.9539C36.919 21.0537 34.5684 18.7031 31.6682 18.7031H27.0008C25.1805 18.7031 23.5761 19.6296 22.6345 21.0368H17.365C16.4234 19.6296 14.819 18.7031 12.9987 18.7031H8.33135C5.43117 18.7031 3.08057 21.0537 3.08057 23.9539V27.4544C3.08057 27.9188 3.26493 28.364 3.59339 28.6918C3.92127 29.0203 4.36643 29.2047 4.83083 29.2047ZM26.4174 30.3715H28.1676C28.4897 30.3715 28.7511 30.1102 28.7511 29.7881V26.2876C28.7511 24.0321 26.9226 22.2036 24.6671 22.2036H15.3324C13.0769 22.2036 11.2485 24.0321 11.2485 26.2876V29.7881C11.2485 30.1102 11.5098 30.3715 11.8319 30.3715H13.5821V26.2876C13.5821 25.9655 13.8435 25.7042 14.1656 25.7042C14.4876 25.7042 14.749 25.9655 14.749 26.2876V30.3715H25.2505V26.2876C25.2505 25.9655 25.5119 25.7042 25.834 25.7042C26.156 25.7042 26.4174 25.9655 26.4174 26.2876V30.3715ZM33.4184 28.0379H35.1687C35.3233 28.0379 35.4721 27.9766 35.5812 27.8669C35.6909 27.7578 35.7521 27.609 35.7521 27.4544V23.9539C35.7521 21.6984 33.9237 19.87 31.6682 19.87H27.0008C25.8882 19.87 24.8795 20.3151 24.1426 21.0368H24.6671C27.5673 21.0368 29.9179 23.3874 29.9179 26.2876V28.0379H32.2516V23.9539C32.2516 23.6319 32.513 23.3705 32.835 23.3705C33.1571 23.3705 33.4184 23.6319 33.4184 23.9539V28.0379ZM7.74793 28.0379H10.0816V26.2876C10.0816 23.3874 12.4322 21.0368 15.3324 21.0368H15.8569C15.12 20.3151 14.1113 19.87 12.9987 19.87H8.33135C6.07585 19.87 4.24741 21.6984 4.24741 23.9539V27.4544C4.24741 27.609 4.30867 27.7578 4.41835 27.8669C4.52745 27.9766 4.67622 28.0379 4.83083 28.0379H6.58109V23.9539C6.58109 23.6319 6.84246 23.3705 7.16451 23.3705C7.48656 23.3705 7.74793 23.6319 7.74793 23.9539V28.0379Z" fill="#252B61"/>
</svg>
