<svg xmlns="http://www.w3.org/2000/svg" width="23" height="33" viewBox="0 0 23 33" fill="none">
  <path d="M9.33489 3.73579C9.33489 1.88037 10.8383 0.376953 12.6937 0.376953C14.5492 0.376953 16.0526 1.88037 16.0526 3.73579C16.0526 5.59122 14.5492 7.09464 12.6937 7.09464C10.8383 7.09464 9.33489 5.59122 9.33489 3.73579ZM15.319 18.0498L21.197 20.9895L23 17.3834L18.1297 14.9489L15.014 10.0437C14.1206 9.02261 12.8308 8.43817 11.4751 8.43817H8.86062L1.77212 11.9824L0 18.6705L3.89491 19.7037L5.20217 14.7756L7.66219 13.545L6.77277 17.3472C6.30119 19.3625 7.22823 21.4839 9.02856 22.5063L14.7104 25.7349V32.6232H18.741V23.389L12.7031 19.959L13.8438 15.7067L15.3203 18.0512L15.319 18.0498ZM5.97068 23.4589L5.40102 25.9256L2.35656 32.6218H6.78486L9.15351 27.4102L9.51492 25.8732L7.69846 24.8414C7.04147 24.4679 6.46778 23.995 5.96933 23.4589H5.97068Z" fill="#656565"/>
</svg>