<svg xmlns="http://www.w3.org/2000/svg" width="23" height="23" viewBox="0 0 23 23" fill="none">
  <path d="M21.7019 16.5293L21.5002 18.6281C21.2618 21.1207 19.0234 23 16.2937 23H6.6094C3.90893 23 1.62142 21.068 1.39978 18.6012L1.20428 16.4201C2.06157 16.9338 3.12587 17.25 4.22153 17.25C5.60888 17.25 6.95755 16.7545 7.88071 15.9773C8.80387 16.7555 10.1525 17.25 11.5399 17.25C12.9272 17.25 14.2759 16.7545 15.1991 15.9773C16.1222 16.7555 17.4709 17.25 18.8582 17.25C19.8786 17.25 20.8781 16.9817 21.7019 16.5293ZM11.5399 5.76533C11.4939 5.76533 11.4552 5.78258 11.4238 5.81612C10.0762 7.23829 9.97167 7.95896 9.97167 8.14679C9.97167 8.93933 10.6753 9.58429 11.5399 9.58429C12.4045 9.58429 13.1081 8.93933 13.1081 8.14679C13.1081 7.95992 13.0036 7.23829 11.6559 5.81612C11.6246 5.78258 11.5859 5.76533 11.5399 5.76533ZM22.9879 3.12704L21.9863 13.571C21.9863 13.571 20.9492 15.3333 18.8582 15.3333C17.6821 15.3333 16.4996 14.7526 16.1651 14.0099C16.0041 13.6505 15.6214 13.4167 15.1991 13.4167C14.7767 13.4167 14.394 13.6505 14.233 14.0099C13.8995 14.7516 12.7161 15.3333 11.5399 15.3333C10.3637 15.3333 9.18128 14.7526 8.84673 14.0099C8.68573 13.6505 8.30308 13.4167 7.88071 13.4167C7.45833 13.4167 7.07569 13.6505 6.91468 14.0099C6.58118 14.7516 5.39769 15.3333 4.22153 15.3333C1.60783 15.3333 0.940815 13.4866 0.940815 13.4866L0.0103385 3.11075C-0.0607541 2.31246 0.237208 1.51608 0.829994 0.926708C1.42278 0.337333 2.2623 0 3.13632 0H19.864C20.7411 0 21.5838 0.340208 22.1766 0.932458C22.7694 1.52567 23.0653 2.32587 22.9879 3.12704ZM15.1991 8.14583C15.1991 7.1415 14.5383 5.93496 13.2357 4.55879C12.3805 3.65604 10.6993 3.65508 9.84412 4.55879C8.54145 5.93496 7.88071 7.1415 7.88071 8.14583C7.88071 9.99542 9.52211 11.5 11.5399 11.5C13.5577 11.5 15.1991 9.99542 15.1991 8.14583Z" fill="#656565"/>
</svg>