<svg xmlns="http://www.w3.org/2000/svg" width="25" height="25" viewBox="0 0 25 25" fill="none">
  <path d="M12.5 25C19.4036 25 25 19.4036 25 12.5C25 5.59644 19.4036 0 12.5 0C5.59644 0 0 5.59644 0 12.5C0 19.4036 5.59644 25 12.5 25Z" fill="#03B8FF"/>
  <path d="M17.604 8.33301C17.0832 8.33301 16.7707 8.64551 16.6665 9.06217L16.354 12.8122C15.9373 12.708 15.6248 12.4997 15.3123 12.1872C14.9998 11.8747 14.479 11.7705 14.1665 12.083L14.0623 12.1872C13.229 13.1247 11.7707 13.1247 10.9373 12.3955C10.8332 12.3955 10.8332 12.2913 10.729 12.1872C10.4165 11.8747 9.89567 11.7705 9.58317 12.083L9.479 12.1872C9.27067 12.4997 8.854 12.708 8.43734 12.8122L8.33317 9.06217C8.33317 8.64551 7.9165 8.33301 7.39567 8.33301C6.979 8.33301 6.6665 8.74967 6.6665 9.27051L7.39567 18.6455C7.49984 19.8955 8.5415 20.833 9.89567 20.833H15.2082C16.5623 20.833 17.604 19.7913 17.7082 18.5413L18.3332 9.27051C18.3332 8.74967 18.0207 8.33301 17.604 8.33301ZM15.9373 18.4372C15.9373 18.8538 15.5207 19.1663 15.104 19.1663H9.7915C9.37484 19.1663 8.95817 18.8538 8.95817 18.4372L8.64567 14.583C9.1665 14.4788 9.68734 14.2705 10.104 13.958C11.4582 14.8955 13.229 14.8955 14.5832 13.958C14.9998 14.2705 15.6248 14.583 16.0415 14.583L15.9373 18.4372ZM12.4998 10.833C13.9582 10.833 15.2082 9.58301 15.2082 8.12467C15.2082 5.83301 13.0207 4.37467 12.9165 4.27051C12.7082 4.06217 12.2915 4.06217 11.979 4.27051C11.7707 4.37467 9.68734 5.72884 9.68734 8.12467C9.7915 9.58301 11.0415 10.833 12.4998 10.833ZM12.4998 6.04134C13.1248 6.56217 13.5415 7.29134 13.5415 8.02051C13.4373 8.64551 13.0207 9.06217 12.4998 9.06217C11.979 9.06217 11.4582 8.54134 11.4582 8.02051C11.4582 7.29134 11.8748 6.56217 12.4998 6.04134Z" fill="white"/>
</svg>