<svg xmlns="http://www.w3.org/2000/svg" width="9" height="12" viewBox="0 0 9 12" fill="none">
  <g opacity="0.6">
    <path d="M8.7888 0.757377C8.63748 0.593992 8.42283 0.5 8.19849 0.5H0.801449C0.332428 0.5 -0.0367836 0.900479 0.0029289 1.36505L0.380726 5.74583L0.757443 10.1202C0.825069 10.9062 1.4744 11.5 2.26863 11.5H6.73135C7.5245 11.5 8.17383 10.9062 8.24254 10.1202L8.99705 1.36503C9.01636 1.14292 8.94015 0.921836 8.7888 0.757377ZM8.25969 6.16981L6.76353 5.7501C5.62264 5.42971 4.87992 5.93165 3.92363 6.15912C2.83317 6.49019 2.15057 5.97436 0.691975 5.6102L0.323843 1.33728C0.300244 1.06067 0.518112 0.820374 0.801449 0.820374C8.44858 0.874851 8.28331 0.683668 8.55163 0.974165C8.80921 1.25397 8.6364 1.17601 8.25969 6.16981Z" fill="black"/>
  </g>
</svg>