  <svg
                            xmlns="http://www.w3.org/2000/svg"
                            width="21"
                            height="21"
                            viewBox="0 0 21 21"
                            fill="none"
                          >
                            <path
                              d="M0.427989 9.98596C0.427519 11.6843 0.871283 13.3426 1.71509 14.8043L0.34729 19.7984L5.4581 18.4583C6.87168 19.2278 8.4555 19.6311 10.065 19.6312H10.0692C15.3824 19.6312 19.7074 15.3077 19.7097 9.99356C19.7107 7.41849 18.7088 4.99706 16.8885 3.17531C15.0684 1.35371 12.6479 0.349991 10.0688 0.348816C4.755 0.348816 0.430261 4.67207 0.428067 9.98596"
                              fill="url(#paint0_linear_182_989)"
                            />
                            <path
                              d="M0.0838326 9.98281C0.0832841 11.7423 0.542953 13.4599 1.41685 14.9739L0 20.147L5.29407 18.7589C6.75275 19.5542 8.39509 19.9735 10.0663 19.9742H10.0706C15.5744 19.9742 20.0548 15.4952 20.0571 9.99081C20.0581 7.32321 19.0201 4.81473 17.1348 2.92772C15.2491 1.04093 12.742 0.00109687 10.0706 0C4.56582 0 0.0860263 4.47838 0.0838326 9.98281ZM3.23664 14.7132L3.03897 14.3994C2.20801 13.0781 1.76942 11.5513 1.77004 9.98344C1.77177 5.4083 5.49519 1.68605 10.0737 1.68605C12.291 1.68699 14.3747 2.55133 15.942 4.11955C17.5092 5.68792 18.3716 7.77277 18.371 9.99018C18.369 14.5653 14.6455 18.288 10.0706 18.288H10.0673C8.57764 18.2873 7.11668 17.8872 5.84258 17.1312L5.53937 16.9514L2.39777 17.7751L3.23664 14.7132Z"
                              fill="url(#paint1_linear_182_989)"
                            />
                            <path
                              d="M7.57453 5.80939C7.38759 5.39391 7.19086 5.38553 7.01309 5.37824C6.86752 5.37197 6.70111 5.37244 6.53485 5.37244C6.36844 5.37244 6.09806 5.43504 5.86952 5.68458C5.64074 5.93436 4.99609 6.53795 4.99609 7.76559C4.99609 8.99331 5.89028 10.1797 6.01493 10.3464C6.13974 10.5127 7.74118 13.1126 10.2775 14.1128C12.3853 14.944 12.8143 14.7787 13.2718 14.737C13.7293 14.6955 14.7482 14.1336 14.956 13.5509C15.164 12.9683 15.164 12.4689 15.1017 12.3646C15.0393 12.2606 14.8729 12.1981 14.6234 12.0734C14.3737 11.9486 13.147 11.3449 12.9183 11.2616C12.6895 11.1784 12.5232 11.1369 12.3567 11.3868C12.1903 11.6362 11.7125 12.1981 11.5668 12.3646C11.4214 12.5314 11.2757 12.5521 11.0262 12.4273C10.7765 12.3021 9.97293 12.0389 9.01951 11.1889C8.27771 10.5275 7.77691 9.71074 7.63134 9.46089C7.48576 9.21143 7.61574 9.0762 7.74087 8.95186C7.85298 8.84006 7.99048 8.66048 8.11537 8.51483C8.23979 8.36911 8.28131 8.26514 8.36452 8.09873C8.4478 7.93216 8.40612 7.78643 8.34383 7.66162C8.28131 7.53681 7.79641 6.30275 7.57453 5.80939Z"
                              fill="white"
                            />
                            <defs>
                              <linearGradient
                                id="paint0_linear_182_989"
                                x1="968.469"
                                y1="1945.3"
                                x2="968.469"
                                y2="0.348816"
                                gradientUnits="userSpaceOnUse"
                              >
                                <stop stop-color="#1FAF38" />
                                <stop offset="1" stop-color="#60D669" />
                              </linearGradient>
                              <linearGradient
                                id="paint1_linear_182_989"
                                x1="1002.86"
                                y1="2014.7"
                                x2="1002.86"
                                y2="0"
                                gradientUnits="userSpaceOnUse"
                              >
                                <stop stop-color="#F9F9F9" />
                                <stop offset="1" stop-color="white" />
                              </linearGradient>
                            </defs>
                          </svg>