<svg width="25" height="23" viewBox="0 0 25 23" fill="none" xmlns="http://www.w3.org/2000/svg">
<path opacity="0.5" d="M24.3178 20.0324L22.9183 19.4972C22.8058 19.4542 22.6876 19.4362 22.5674 19.4441L21.7944 19.4943L19.1569 15.103L18.2777 9.83101C18.1682 9.17438 17.8744 8.5676 17.4282 8.07621L17.4097 8.05586C16.8025 7.38721 15.9767 6.98238 15.0837 6.91405L15.0805 6.91374C15.0756 6.91338 15.0708 6.9127 15.066 6.91235C15.0444 6.91076 14.3993 6.83464 14.2155 6.70065C14.2623 6.65352 14.2985 6.59497 14.3191 6.52822L14.6482 5.46391L15.0402 5.32386C15.2521 5.24821 15.3666 5.01739 15.2995 4.80138L14.7652 3.08217C14.762 2.57176 14.5922 2.06751 14.2858 1.66074C13.8302 1.05592 13.1081 0.694868 12.354 0.694868C12.158 0.694868 11.9645 0.719561 11.7772 0.766117C11.5692 0.299997 11.1115 0 10.6021 0C9.89166 0 9.3136 0.581899 9.3136 1.29712C9.3136 1.78507 9.57894 2.21639 9.98787 2.438C9.90734 2.67712 9.86485 2.92922 9.86485 3.18242C9.86485 3.88647 10.717 5.0454 10.717 5.07439V6.4871L9.29471 7.02136C8.4912 7.32321 7.80435 7.855 7.30839 8.55922L5.26255 11.4645L4.23276 11.8985C3.91861 12.0309 3.63035 12.2135 3.37594 12.4411L0.1404 15.3363C0.0511046 15.4162 0 15.5307 0 15.651L0.0467653 18.0926L1.86245 20.2625C1.73411 20.3367 1.61813 20.4337 1.521 20.5516C1.28191 20.8417 1.18449 21.2205 1.25362 21.591C1.34644 22.0879 1.72313 22.4801 2.21321 22.5901C2.51188 22.6571 2.81408 22.6908 3.11704 22.6908C3.32801 22.6908 3.53937 22.6745 3.75003 22.6418L4.36126 22.5472C4.70022 22.4947 5.04036 22.5121 5.37227 22.599C5.94113 22.7475 6.52883 22.4434 6.73918 21.8908L6.80899 21.7073L7.3646 22.0389C8.41813 22.6677 9.62238 23 10.8471 23H11.8215C12.7064 23 13.5381 22.5646 14.0462 21.8354C14.3967 21.3324 14.5701 20.7176 14.5343 20.1042L14.4567 18.7715L14.7587 14.0662L15.3443 12.9842L16.2825 15.905C16.457 16.4483 16.7246 16.9503 17.0778 17.3972L20.5386 21.7751C20.6982 21.9771 20.9368 22.0929 21.1931 22.0929H23.9421C24.5254 22.0929 25 21.6151 25 21.0279C25 20.5885 24.7258 20.1884 24.3178 20.0324ZM9.12622 14.6089C9.19099 14.9179 9.22012 15.2328 9.2154 15.5469L6.54101 14.216C6.67873 14.0909 6.80692 13.9547 6.92379 13.8081L7.78764 12.7243C7.85039 13.5485 8.36003 14.2765 9.12622 14.6089ZM5.74499 14.7592L9.10931 16.4335C9.06552 16.626 9.00825 16.8157 8.93777 17.0009L8.2788 17.1724L4.48872 15.3462C4.48872 15.3462 5.65151 14.8056 5.74499 14.7592ZM9.98685 16.2982C9.99251 16.275 9.99619 16.2516 9.99783 16.2282C10.07 15.7358 10.0709 15.2334 9.99853 14.7392L13.8678 14.8868L13.654 18.2182L9.79811 17.08C9.88187 16.8245 9.94434 16.5629 9.98685 16.2982ZM13.9217 14.0462L9.57832 13.8805C8.93691 13.6686 8.53926 13.0327 8.63088 12.3565L8.7541 11.4476L9.99766 7.65609L10.5703 7.44099L10.438 8.07698C10.2614 8.92589 10.3259 9.80464 10.6245 10.6182C10.6868 10.788 10.8465 10.8935 11.0168 10.8935C11.0628 10.8935 11.1096 10.8858 11.1555 10.8696L11.1917 10.8567C12.3439 10.4479 13.3011 9.5744 13.8179 8.46003L14.2001 7.63602C14.3043 7.67378 14.4121 7.70274 14.5225 7.72207L14.3835 8.36135C14.0884 9.71833 14.2029 11.1073 14.712 12.3925L13.9217 14.0462ZM13.195 6.82416C13.195 6.82416 13.4345 7.12443 13.4887 7.17937L13.06 8.10387C12.694 8.89279 12.058 9.53405 11.2826 9.90852C11.1518 9.36604 11.1423 8.80012 11.2568 8.24957L11.5446 6.86569C11.5456 6.86099 11.5535 6.30732 11.5535 6.30732L11.7255 6.61144C11.7999 6.74296 11.9387 6.82417 12.089 6.82417L13.195 6.82416ZM14.1711 4.74084C14.047 4.78519 13.9508 4.88583 13.9117 5.01251L13.6119 5.9821H12.3322L11.7625 4.97482C11.7701 4.91325 11.7638 4.85095 11.745 4.79231L12.6343 4.19291C12.6748 4.16561 12.7102 4.13139 12.739 4.09181L13.1198 3.56845H14.0399L14.3809 4.6659L14.1711 4.74084ZM13.6193 2.16957C13.7439 2.3351 13.8336 2.52562 13.8835 2.72639H12.9076C12.7743 2.72639 12.649 2.79038 12.5702 2.89867L12.1077 3.53448L11.1114 4.2059C10.8512 3.93336 10.7013 3.56706 10.7013 3.18237C10.7013 2.86639 10.8047 2.55288 10.9924 2.29955L11.0811 2.17975C11.3793 1.77722 11.8552 1.53694 12.354 1.53694C12.8479 1.53694 13.3208 1.77341 13.6193 2.16957ZM10.6021 0.842071C10.7786 0.842071 10.9369 0.945135 11.0112 1.10523C10.7822 1.25828 10.578 1.45039 10.4106 1.67632L10.3924 1.70081C10.2457 1.62411 10.1501 1.47083 10.1501 1.29712C10.1501 1.04621 10.3529 0.842071 10.6021 0.842071ZM0.836489 15.8401L3.93168 13.0705C4.11701 12.9047 4.327 12.7717 4.55578 12.6752C4.55578 12.6752 5.87214 12.0512 5.87572 12.0498L7.9908 9.04625C8.25409 8.67235 8.58468 8.35945 8.96466 8.11986L7.97138 11.1483L6.2714 13.281C5.9761 13.6515 5.12566 14.1129 5.11581 14.1176L1.71709 15.7311C1.56183 15.8048 1.46707 15.9664 1.4781 16.1388L1.58409 17.8006L0.836484 17.5832L0.836489 15.8401ZM3.09963 20.0951H2.81862L1.63502 18.6919L1.87215 18.7608L3.70646 19.8556C3.54432 20.0065 3.32925 20.0951 3.09963 20.0951ZM5.95802 21.5896C5.90028 21.7413 5.73925 21.8248 5.58271 21.784C5.13996 21.6681 4.68618 21.6449 4.23408 21.7149L3.62284 21.8095C3.21302 21.873 2.79998 21.8591 2.39532 21.7682C2.23209 21.7316 2.10659 21.601 2.07571 21.4355C2.04416 21.2665 2.11798 21.146 2.1648 21.0892C2.21156 21.0324 2.31557 20.9372 2.4863 20.9372H3.09962C3.62856 20.9372 4.11785 20.6944 4.4414 20.2942L6.07899 21.2716L5.95802 21.5896ZM13.3614 21.3519C13.0097 21.8566 12.4341 22.1579 11.8215 22.1579H10.8471C9.77238 22.1579 8.71568 21.8663 7.79122 21.3145L2.44283 18.1224L2.33108 16.3705L3.51278 15.8096L8.05523 17.9982C8.05816 17.9966 9.23859 17.7924 9.23859 17.7924L13.6374 19.0909L13.6993 20.1535C13.724 20.5781 13.604 21.0037 13.3614 21.3519ZM23.9421 21.2508H21.1931L17.7323 16.8728C17.4419 16.5055 17.2219 16.0927 17.0784 15.646L15.8408 11.7928C15.7893 11.6326 15.6482 11.5188 15.4817 11.5031C15.4187 11.4973 15.3567 11.5061 15.2995 11.5272C15.0192 10.559 14.9834 9.54031 15.2006 8.54145L15.3613 7.80229C15.9091 7.91666 16.4081 8.2009 16.7923 8.62404L16.8108 8.64439C17.148 9.01573 17.37 9.47428 17.4528 9.97045L18.3451 15.3217C18.3538 15.3741 18.3724 15.4244 18.3997 15.4699L21.21 20.1487C21.2908 20.2832 21.4407 20.3612 21.5948 20.351L22.6212 20.2844L24.0208 20.8196C24.1062 20.8522 24.1635 20.936 24.1635 21.028C24.1635 21.1509 24.0642 21.2508 23.9421 21.2508Z" fill="black"/>
</svg>
