<svg width="20" height="27" viewBox="0 0 20 27" fill="none" xmlns="http://www.w3.org/2000/svg">
<path opacity="0.5" d="M19.4506 0.69837C19.2926 0.27426 18.8744 0.000232773 18.3851 0.000232773C18.1513 0.000232773 17.9268 0.0655045 17.7358 0.18898L11.6276 4.13839L11.5269 2.9398C11.4016 1.44733 10.1815 0.223383 8.62575 0.0294907C7.6878 -0.0873852 6.7689 0.145535 6.03899 0.685534C5.31918 1.21805 4.86569 2.00776 4.79477 2.85223L4.60238 5.14329C4.13839 5.28262 3.71299 5.52006 3.35771 5.84543L1.43385 7.60756C0.760506 8.22432 0.732025 9.21535 1.36906 9.86365L3.28231 11.8108C2.84272 12.489 2.56738 13.2542 2.48363 14.0398L1.37802 24.4052L0.0851218 25.9842C-0.011613 26.1022 -0.0271587 26.2603 0.0449527 26.3923C0.117007 26.5244 0.264351 26.6078 0.425537 26.6078H3.15437C3.38937 26.6078 3.57989 26.4333 3.57989 26.218V24.6125L5.88813 18.0055C5.95979 17.8005 5.83639 17.581 5.61256 17.5155C5.38902 17.4499 5.14926 17.5629 5.0776 17.7679L2.84374 24.162H2.25907L3.22659 15.0915L5.81052 15.6701L5.65983 16.1013C5.58817 16.3063 5.71157 16.5257 5.93539 16.5913C6.15916 16.657 6.39875 16.5439 6.47035 16.3389L6.97218 14.9025L10.3794 18.3701C10.4663 18.4585 10.5312 18.5606 10.5723 18.6734L12.7345 24.615V26.2181C12.7345 26.4333 12.925 26.6078 13.16 26.6078H15.8888C16.05 26.6078 16.1973 26.5244 16.2694 26.3924C16.3415 26.2603 16.326 26.1023 16.2292 25.9842L14.9199 24.3851L13.3119 17.7573C13.1765 17.1991 12.9578 16.6607 12.6618 16.1572L9.94713 11.5394V10.3879C9.94713 10.1726 9.75661 9.99814 9.52161 9.99814C9.28661 9.99814 9.09609 10.1726 9.09609 10.3879V11.1151L5.80813 10.2195C6.10322 9.88589 6.27609 9.4768 6.30412 9.04884C6.45957 9.08932 6.62331 9.11146 6.79273 9.11146H9.52156C10.5085 9.11146 11.3115 8.37601 11.3115 7.47198C11.3115 7.44631 11.3087 7.42069 11.3032 7.39553L11.294 7.35375L19.0735 1.84754C19.4606 1.57356 19.6087 1.12248 19.4506 0.69837ZM2.72879 24.9415V25.8283H1.27652L2.00263 24.9415H2.72879ZM5.45762 8.56237V8.92557C5.45762 9.23645 5.33405 9.5362 5.10971 9.76943L4.77128 10.1213L3.67634 8.78412L5.02932 7.75141C5.08742 8.05948 5.23935 8.33844 5.45762 8.56237ZM2.00166 9.34225C1.66749 9.00223 1.68247 8.48239 2.03565 8.15884L3.95951 6.39671C4.25294 6.12798 4.61168 5.94105 5.00288 5.84756V6.7569L2.8211 8.42226C2.64709 8.55515 2.61719 8.78952 2.75307 8.95556L5.13349 11.8627C5.20588 11.9511 5.19612 12.0767 5.11085 12.1549C5.04634 12.214 4.97122 12.2212 4.9319 12.2202C4.89276 12.2193 4.81798 12.2084 4.75699 12.1463L2.00166 9.34225ZM15.0378 25.8284H13.5855V24.9415H14.3116L15.0378 25.8284ZM11.9124 16.5268C12.1713 16.9673 12.3627 17.4382 12.4811 17.9264L13.9939 24.162H13.4667L11.3796 18.4269C11.3013 18.2118 11.1776 18.0173 11.012 17.8486L8.70706 15.5028L10.5784 14.2574L11.9124 16.5268ZM9.23079 11.9652L10.1712 13.5649L8.13459 14.9202L7.10903 13.8765C7.00708 13.7728 6.85241 13.7268 6.70343 13.7562C6.55444 13.7855 6.43393 13.8856 6.38752 14.0185L6.07054 14.9259L3.31022 14.3078L3.3307 14.1157C3.39368 13.5251 3.58335 12.9478 3.88359 12.4227L4.12438 12.6677C4.32443 12.8713 4.61061 12.9922 4.90949 12.9994C4.91897 12.9997 4.92839 12.9998 4.93786 12.9998C5.22687 12.9998 5.50783 12.8935 5.71259 12.706C6.0955 12.3553 6.13919 11.7917 5.81432 11.3949L5.43436 10.9308L9.23079 11.9652ZM9.52161 8.33189H6.79278C6.27507 8.33189 5.85392 7.94613 5.85392 7.47193V5.77876H6.89202C7.07011 6.26253 7.56978 6.61191 8.15723 6.61191C8.74467 6.61191 9.24429 6.26248 9.42244 5.77876H10.0824L10.4597 7.507C10.4395 7.965 10.0265 8.33189 9.52161 8.33189ZM8.48482 4.13226C7.90901 4.25048 7.22574 4.03076 6.92084 3.47497L8.84424 2.59411C9.00645 2.5198 9.19493 2.53206 9.34829 2.6269C9.41399 2.66754 9.56473 2.78442 9.54641 2.99166C9.53795 3.08718 9.51747 3.18441 9.48553 3.28076C9.34568 3.70186 8.95295 4.03612 8.48482 4.13226ZM8.64124 4.89821V5.389C8.64124 5.63351 8.42406 5.83239 8.15711 5.83239C7.89017 5.83239 7.67304 5.63351 7.67304 5.389V4.89697C7.83037 4.92856 7.99292 4.9453 8.15865 4.9453C8.31739 4.9453 8.47898 4.92955 8.64124 4.89821ZM10.2961 4.99924H9.49228V4.54462C9.87026 4.2878 10.1614 3.92402 10.2997 3.50734C10.3493 3.35788 10.3812 3.20556 10.3946 3.05465C10.4324 2.62654 10.2193 2.22509 9.82447 1.98089C9.41921 1.73014 8.89775 1.69797 8.46354 1.8968L6.2033 2.93195C6.026 3.01313 5.93341 3.19569 5.97999 3.37217C6.10946 3.86265 6.41538 4.2667 6.822 4.54265V4.99924H5.468L5.64326 2.91205C5.69631 2.28069 6.03542 1.69018 6.57367 1.292C7.11936 0.888261 7.80739 0.714221 8.51098 0.80189C9.67208 0.946621 10.5836 1.87087 10.6784 2.99962L10.818 4.66186L10.2961 4.99924ZM18.5532 1.23073L11.1078 6.50044L10.9027 5.56122L18.2266 0.8259C18.2732 0.795758 18.3281 0.779804 18.3851 0.779804C18.5625 0.779804 18.6261 0.898967 18.6451 0.950207C18.6643 1.00145 18.6935 1.13132 18.5532 1.23073Z" fill="black"/>
</svg>
