<svg width="19" height="23" viewBox="0 0 19 23" fill="none" xmlns="http://www.w3.org/2000/svg">
<path d="M16.1638 8.89061C14.4845 6.86031 12.9379 4.69418 11.6942 2.45068H10.8768L5.03353 10.6339L4.70996 15.817L6.64161 20.3986L10.1399 22.4503L11.6943 22.7287C17.542 21.2373 20.319 13.9143 16.1638 8.89061Z" fill="url(#paint0_linear_1532_3911)"/>
<path d="M7.22515 8.89064C8.90447 6.86035 10.4511 4.69421 11.6948 2.45072C11.4045 1.92702 11.1306 1.39914 10.8755 0.867758C10.32 -0.289252 8.68071 -0.289252 8.12521 0.867758C6.77724 3.67561 4.90767 6.38642 2.83637 8.89064C-1.80964 14.5076 2.21056 23 9.50031 23C10.2705 23 11.0039 22.9049 11.6947 22.7287C5.84681 21.2374 3.07 13.9142 7.22515 8.89064Z" fill="url(#paint1_linear_1532_3911)"/>
<path fill-rule="evenodd" clip-rule="evenodd" d="M9.99609 9.22852C9.71995 9.22852 9.49609 9.45237 9.49609 9.72852V12.1124H7.11377C6.83763 12.1124 6.61377 12.3363 6.61377 12.6124V13.9196C6.61377 14.1957 6.83763 14.4196 7.11377 14.4196H9.49609V16.8034C9.49609 17.0795 9.71995 17.3034 9.99609 17.3034H11.3032C11.5793 17.3034 11.8032 17.0795 11.8032 16.8034V14.4196H14.1886C14.4648 14.4196 14.6886 14.1957 14.6886 13.9196V12.6124C14.6886 12.3363 14.4648 12.1124 14.1886 12.1124H11.8032V9.72852C11.8032 9.45237 11.5793 9.22852 11.3032 9.22852H9.99609Z" fill="url(#paint2_linear_1532_3911)"/>
<defs>
<linearGradient id="paint0_linear_1532_3911" x1="11.4307" y1="2.45068" x2="11.4307" y2="22.7287" gradientUnits="userSpaceOnUse">
<stop stop-color="#252B61"/>
<stop offset="1" stop-color="#4C58C7"/>
</linearGradient>
<linearGradient id="paint1_linear_1532_3911" x1="11.6948" y1="11.5" x2="0.848633" y2="11.5" gradientUnits="userSpaceOnUse">
<stop stop-color="#0E154F"/>
<stop offset="0.375994" stop-color="#3A4499"/>
<stop offset="1" stop-color="#6774EB"/>
</linearGradient>
<linearGradient id="paint2_linear_1532_3911" x1="10.0744" y1="10.3821" x2="10.0744" y2="18.4569" gradientUnits="userSpaceOnUse">
<stop stop-color="#92BDF6"/>
<stop offset="1" stop-color="#AFD1FD"/>
</linearGradient>
</defs>
</svg>
