<svg width="40" height="25" viewBox="0 0 40 25" fill="none" xmlns="http://www.w3.org/2000/svg">
<g opacity="0.6">
<mask id="path-1-outside-1_2001_1554" maskUnits="userSpaceOnUse" x="-1" y="-1" width="42" height="27" fill="black">
<rect fill="white" x="-1" y="-1" width="42" height="27"/>
<path d="M10.0114 24.5114C8.05682 24.5038 6.375 24.0227 4.96591 23.0682C3.56439 22.1136 2.48485 20.7311 1.72727 18.9205C0.977273 17.1098 0.606061 14.9318 0.613636 12.3864C0.613636 9.84848 0.988636 7.68561 1.73864 5.89773C2.49621 4.10985 3.57576 2.75 4.97727 1.81818C6.38636 0.878787 8.06439 0.40909 10.0114 0.40909C11.9583 0.40909 13.6326 0.878787 15.0341 1.81818C16.4432 2.75758 17.5265 4.12121 18.2841 5.90909C19.0417 7.68939 19.4167 9.84848 19.4091 12.3864C19.4091 14.9394 19.0303 17.1212 18.2727 18.9318C17.5227 20.7424 16.447 22.125 15.0455 23.0795C13.6439 24.0341 11.9659 24.5114 10.0114 24.5114ZM10.0114 20.4318C11.3447 20.4318 12.4091 19.7614 13.2045 18.4205C14 17.0795 14.3939 15.0682 14.3864 12.3864C14.3864 10.6212 14.2045 9.15151 13.8409 7.97727C13.4848 6.80303 12.9773 5.92045 12.3182 5.32954C11.6667 4.73864 10.8977 4.44318 10.0114 4.44318C8.68561 4.44318 7.625 5.10606 6.82955 6.43182C6.03409 7.75758 5.63258 9.74242 5.625 12.3864C5.625 14.1742 5.80303 15.6667 6.15909 16.8636C6.52273 18.053 7.03409 18.947 7.69318 19.5455C8.35227 20.1364 9.125 20.4318 10.0114 20.4318ZM22.9176 24V20.4545L31.2017 12.7841C31.9063 12.1023 32.4972 11.4886 32.9744 10.9432C33.4593 10.3977 33.8267 9.86364 34.0767 9.34091C34.3267 8.81061 34.4517 8.23864 34.4517 7.625C34.4517 6.94318 34.2964 6.35606 33.9858 5.86364C33.6752 5.36364 33.2509 4.98106 32.7131 4.71591C32.1752 4.44318 31.5653 4.30682 30.8835 4.30682C30.1714 4.30682 29.5502 4.45076 29.0199 4.73864C28.4896 5.02651 28.0805 5.43939 27.7926 5.97727C27.5047 6.51515 27.3608 7.1553 27.3608 7.89773H22.6903C22.6903 6.375 23.035 5.05303 23.7244 3.93182C24.4138 2.81061 25.3797 1.94318 26.6222 1.32954C27.8646 0.715908 29.2964 0.40909 30.9176 0.40909C32.5843 0.40909 34.035 0.704545 35.2699 1.29545C36.5123 1.87879 37.4782 2.68939 38.1676 3.72727C38.857 4.76515 39.2017 5.95454 39.2017 7.29545C39.2017 8.17424 39.0275 9.04167 38.679 9.89773C38.3381 10.7538 37.7282 11.7045 36.8494 12.75C35.9706 13.7879 34.732 15.0341 33.1335 16.4886L29.7358 19.8182V19.9773H39.5085V24H22.9176Z"/>
</mask>
<path d="M10.0114 24.5114L10.0075 25.5114H10.0114V24.5114ZM4.96591 23.0682L4.40299 23.8947L4.40506 23.8961L4.96591 23.0682ZM1.72727 18.9205L0.803391 19.3032L0.804768 19.3064L1.72727 18.9205ZM0.613636 12.3864L1.61364 12.3893V12.3864H0.613636ZM1.73864 5.89773L0.817879 5.50757L0.816487 5.51089L1.73864 5.89773ZM4.97727 1.81818L5.53093 2.65093L5.53197 2.65023L4.97727 1.81818ZM15.0341 1.81818L14.4773 2.64885L14.4794 2.65023L15.0341 1.81818ZM18.2841 5.90909L17.3633 6.29924L17.3639 6.30065L18.2841 5.90909ZM19.4091 12.3864L18.4091 12.3834V12.3864H19.4091ZM18.2727 18.9318L17.3502 18.5458L17.3489 18.5491L18.2727 18.9318ZM15.0455 23.0795L15.6084 23.9061L15.6084 23.9061L15.0455 23.0795ZM13.2045 18.4205L14.0646 18.9307L14.0646 18.9307L13.2045 18.4205ZM14.3864 12.3864L13.3864 12.3864L13.3864 12.3892L14.3864 12.3864ZM13.8409 7.97727L12.8839 8.26746L12.8857 8.27309L13.8409 7.97727ZM12.3182 5.32954L11.6464 6.07028L11.6506 6.07411L12.3182 5.32954ZM6.82955 6.43182L5.97205 5.91732L5.97205 5.91732L6.82955 6.43182ZM5.625 12.3864L4.625 12.3835V12.3864H5.625ZM6.15909 16.8636L5.20057 17.1488L5.20279 17.156L6.15909 16.8636ZM7.69318 19.5455L7.02092 20.2858L7.02564 20.29L7.69318 19.5455ZM10.0152 23.5114C8.22898 23.5044 6.74795 23.0675 5.52676 22.2403L4.40506 23.8961C6.00205 24.9779 7.88466 25.5031 10.0075 25.5114L10.0152 23.5114ZM5.52883 22.2417C4.31125 21.4124 3.34469 20.1953 2.64978 18.5345L0.804768 19.3064C1.62501 21.2668 2.81754 22.8149 4.40299 23.8947L5.52883 22.2417ZM2.65115 18.5378C1.96447 16.88 1.60634 14.8402 1.61363 12.3893L-0.386359 12.3834C-0.394216 15.0234 -0.00991963 17.3397 0.803397 19.3031L2.65115 18.5378ZM1.61364 12.3864C1.61364 9.94226 1.97539 7.91844 2.66079 6.28456L0.816487 5.51089C0.0018855 7.45277 -0.386364 9.75471 -0.386364 12.3864H1.61364ZM2.65939 6.28788C3.35262 4.65185 4.31642 3.45841 5.53093 2.65092L4.42361 0.98544C2.83509 2.04159 1.6398 3.56785 0.817885 5.50758L2.65939 6.28788ZM5.53197 2.65023C6.75322 1.83607 8.23144 1.40909 10.0114 1.40909V-0.59091C7.89735 -0.59091 6.01951 -0.0784934 4.42257 0.986132L5.53197 2.65023ZM10.0114 1.40909C11.7914 1.40909 13.2648 1.83611 14.4773 2.64885L15.5909 0.987516C14.0004 -0.0785323 12.1252 -0.59091 10.0114 -0.59091V1.40909ZM14.4794 2.65023C15.703 3.466 16.6705 4.66416 17.3633 6.29924L19.2048 5.51894C18.3825 3.57826 17.1833 2.04915 15.5888 0.986132L14.4794 2.65023ZM17.3639 6.30065C18.0547 7.92386 18.4164 9.94082 18.4091 12.3834L20.4091 12.3893C20.4169 9.75614 20.0287 7.45493 19.2042 5.51753L17.3639 6.30065ZM18.4091 12.3864C18.4091 14.8449 18.0438 16.8882 17.3502 18.5458L19.1952 19.3178C20.0168 17.3542 20.4091 15.0339 20.4091 12.3864H18.4091ZM17.3489 18.5491C16.6615 20.2085 15.6992 21.4244 14.4825 22.253L15.6084 23.9061C17.1948 22.8256 18.384 21.2763 19.1966 19.3145L17.3489 18.5491ZM14.4825 22.253C13.2713 23.078 11.7967 23.5114 10.0114 23.5114V25.5114C12.1351 25.5114 14.0166 24.9902 15.6084 23.9061L14.4825 22.253ZM10.0114 21.4318C11.7632 21.4318 13.1251 20.5143 14.0646 18.9307L12.3445 17.9103C11.693 19.0084 10.9262 19.4318 10.0114 19.4318V21.4318ZM14.0646 18.9307C14.9967 17.3593 15.3941 15.1318 15.3864 12.3835L13.3864 12.3892C13.3938 15.0045 13.0033 16.7998 12.3445 17.9103L14.0646 18.9307ZM15.3864 12.3864C15.3864 10.5607 15.1993 8.98325 14.7962 7.68145L12.8857 8.27309C13.2098 9.31978 13.3864 10.6817 13.3864 12.3864H15.3864ZM14.7979 7.68709C14.4084 6.40252 13.8239 5.33643 12.9857 4.58497L11.6506 6.07411C12.1307 6.50447 12.5613 7.20354 12.8839 8.26745L14.7979 7.68709ZM12.99 4.58882C12.1529 3.82964 11.144 3.44318 10.0114 3.44318V5.44318C10.6515 5.44318 11.1804 5.64763 11.6464 6.07026L12.99 4.58882ZM10.0114 3.44318C8.2704 3.44318 6.91271 4.34956 5.97205 5.91732L7.68704 6.94631C8.33729 5.86256 9.10081 5.44318 10.0114 5.44318V3.44318ZM5.97205 5.91732C5.03933 7.47186 4.63277 9.67186 4.625 12.3835L6.625 12.3892C6.63238 9.81298 7.02885 8.04329 7.68704 6.94631L5.97205 5.91732ZM4.625 12.3864C4.625 14.2329 4.80797 15.8288 5.2006 17.1488L7.11758 16.5785C6.79809 15.5045 6.625 14.1156 6.625 12.3864H4.625ZM5.20279 17.156C5.59913 18.4524 6.18582 19.5275 7.02093 20.2858L8.36543 18.8051C7.88236 18.3665 7.44632 17.6537 7.1154 16.5713L5.20279 17.156ZM7.02564 20.29C7.86845 21.0456 8.87898 21.4318 10.0114 21.4318V19.4318C9.37102 19.4318 8.8361 19.2271 8.36073 18.8009L7.02564 20.29ZM22.9176 24H21.9176V25H22.9176V24ZM22.9176 20.4545L22.2382 19.7208L21.9176 20.0176V20.4545H22.9176ZM31.2017 12.7841L31.8811 13.5179L31.8892 13.5104L31.8971 13.5027L31.2017 12.7841ZM32.9744 10.9432L32.227 10.2788L32.2219 10.2847L32.9744 10.9432ZM34.0767 9.34091L34.9789 9.77237L34.9812 9.76733L34.0767 9.34091ZM33.9858 5.86364L33.1363 6.39133L33.14 6.39714L33.9858 5.86364ZM32.7131 4.71591L32.2608 5.60787L32.2709 5.61285L32.7131 4.71591ZM27.7926 5.97727L28.6743 6.44915L28.6743 6.44915L27.7926 5.97727ZM27.3608 7.89773V8.89773H28.3608V7.89773H27.3608ZM22.6903 7.89773H21.6903V8.89773H22.6903V7.89773ZM23.7244 3.93182L24.5763 4.45559L24.5763 4.45559L23.7244 3.93182ZM26.6222 1.32954L26.1793 0.432941L26.1793 0.432941L26.6222 1.32954ZM35.2699 1.29545L34.8382 2.19752L34.8449 2.20065L35.2699 1.29545ZM38.1676 3.72727L37.3346 4.28057L37.3346 4.28057L38.1676 3.72727ZM38.679 9.89773L37.7528 9.52068L37.7499 9.52775L38.679 9.89773ZM36.8494 12.75L37.6126 13.3962L37.6149 13.3935L36.8494 12.75ZM33.1335 16.4886L32.4605 15.749L32.4468 15.7615L32.4336 15.7744L33.1335 16.4886ZM29.7358 19.8182L29.0359 19.1039L28.7358 19.398V19.8182H29.7358ZM29.7358 19.9773H28.7358V20.9773H29.7358V19.9773ZM39.5085 19.9773H40.5085V18.9773H39.5085V19.9773ZM39.5085 24V25H40.5085V24H39.5085ZM23.9176 24V20.4545H21.9176V24H23.9176ZM23.597 21.1883L31.8811 13.5179L30.5223 12.0503L22.2382 19.7208L23.597 21.1883ZM31.8971 13.5027C32.6151 12.8078 33.2265 12.1737 33.727 11.6017L32.2219 10.2847C31.7679 10.8035 31.1974 11.3967 30.5063 12.0655L31.8971 13.5027ZM33.7218 11.6075C34.2536 11.0093 34.6795 10.3982 34.9788 9.77236L33.1746 8.90945C32.9739 9.32912 32.665 9.78611 32.227 10.2788L33.7218 11.6075ZM34.9812 9.76733C35.297 9.09742 35.4517 8.37902 35.4517 7.625H33.4517C33.4517 8.09825 33.3564 8.52379 33.1722 8.91449L34.9812 9.76733ZM35.4517 7.625C35.4517 6.78721 35.2591 6.00795 34.8316 5.33013L33.14 6.39714C33.3337 6.70417 33.4517 7.09916 33.4517 7.625H35.4517ZM34.8352 5.33595C34.4241 4.67411 33.8574 4.1651 33.1552 3.81897L32.2709 5.61285C32.6445 5.79702 32.9263 6.05316 33.1364 6.39132L34.8352 5.33595ZM33.1653 3.82401C32.4699 3.47141 31.7018 3.30682 30.8835 3.30682V5.30682C31.4289 5.30682 31.8805 5.41495 32.2608 5.60781L33.1653 3.82401ZM30.8835 3.30682C30.0348 3.30682 29.2439 3.4792 28.5428 3.85978L29.497 5.61749C29.8565 5.42231 30.308 5.30682 30.8835 5.30682V3.30682ZM28.5428 3.85978C27.8388 4.24197 27.2899 4.79727 26.9109 5.5054L28.6743 6.44915C28.871 6.08152 29.1404 5.81106 29.497 5.61749L28.5428 3.85978ZM26.9109 5.50539C26.5302 6.2167 26.3608 7.02604 26.3608 7.89773H28.3608C28.3608 7.28456 28.4792 6.8136 28.6743 6.44915L26.9109 5.50539ZM27.3608 6.89773H22.6903V8.89773H27.3608V6.89773ZM23.6903 7.89773C23.6903 6.53039 23.9981 5.39587 24.5763 4.45559L22.8726 3.40804C22.0719 4.71019 21.6903 6.21961 21.6903 7.89773H23.6903ZM24.5763 4.45559C25.1618 3.50331 25.9819 2.76107 27.065 2.22615L26.1793 0.432941C24.7775 1.12529 23.6658 2.11791 22.8726 3.40804L24.5763 4.45559ZM27.065 2.22615C28.1481 1.69118 29.424 1.40909 30.9176 1.40909V-0.59091C29.1688 -0.59091 27.581 -0.259364 26.1793 0.432941L27.065 2.22615ZM30.9176 1.40909C32.4668 1.40909 33.7642 1.68356 34.8382 2.19749L35.7015 0.393414C34.3058 -0.274471 32.7018 -0.59091 30.9176 -0.59091V1.40909ZM34.8449 2.20065C35.939 2.71436 36.7566 3.41032 37.3346 4.28057L39.0006 3.17398C38.1999 1.96847 37.0856 1.04321 35.6949 0.39026L34.8449 2.20065ZM37.3346 4.28057C37.9067 5.14186 38.2017 6.13569 38.2017 7.29545H40.2017C40.2017 5.7734 39.8073 4.38844 39.0006 3.17398L37.3346 4.28057ZM38.2017 7.29545C38.2017 8.03835 38.0551 8.77806 37.7528 9.52069L39.6052 10.2748C39.9998 9.30527 40.2017 8.31013 40.2017 7.29545H38.2017ZM37.7499 9.52775C37.4627 10.249 36.9238 11.1074 36.0839 12.1065L37.6149 13.3935C38.5326 12.3017 39.2134 11.2586 39.608 10.2677L37.7499 9.52775ZM36.0863 12.1038C35.2468 13.0952 34.0432 14.3088 32.4605 15.749L33.8065 17.2283C35.4208 15.7594 36.6945 14.4805 37.6126 13.3962L36.0863 12.1038ZM32.4336 15.7744L29.0359 19.1039L30.4357 20.5324L33.8334 17.2029L32.4336 15.7744ZM28.7358 19.8182V19.9773H30.7358V19.8182H28.7358ZM29.7358 20.9773H39.5085V18.9773H29.7358V20.9773ZM38.5085 19.9773V24H40.5085V19.9773H38.5085ZM39.5085 23H22.9176V25H39.5085V23Z" fill="#27B3A4" mask="url(#path-1-outside-1_2001_1554)"/>
</g>
</svg>
