<svg width="41" height="25" viewBox="0 0 41 25" fill="none" xmlns="http://www.w3.org/2000/svg">
<g opacity="0.6">
<mask id="path-1-outside-1_2001_1489" maskUnits="userSpaceOnUse" x="-1" y="-1" width="43" height="27" fill="black">
<rect fill="white" x="-1" y="-1" width="43" height="27"/>
<path d="M10.0114 24.5114C8.05682 24.5038 6.375 24.0227 4.96591 23.0682C3.56439 22.1136 2.48485 20.7311 1.72727 18.9205C0.977273 17.1098 0.606061 14.9318 0.613636 12.3864C0.613636 9.84848 0.988636 7.68561 1.73864 5.89773C2.49621 4.10985 3.57576 2.75 4.97727 1.81818C6.38636 0.878787 8.06439 0.40909 10.0114 0.40909C11.9583 0.40909 13.6326 0.878787 15.0341 1.81818C16.4432 2.75758 17.5265 4.12121 18.2841 5.90909C19.0417 7.68939 19.4167 9.84848 19.4091 12.3864C19.4091 14.9394 19.0303 17.1212 18.2727 18.9318C17.5227 20.7424 16.447 22.125 15.0455 23.0795C13.6439 24.0341 11.9659 24.5114 10.0114 24.5114ZM10.0114 20.4318C11.3447 20.4318 12.4091 19.7614 13.2045 18.4205C14 17.0795 14.3939 15.0682 14.3864 12.3864C14.3864 10.6212 14.2045 9.15151 13.8409 7.97727C13.4848 6.80303 12.9773 5.92045 12.3182 5.32954C11.6667 4.73864 10.8977 4.44318 10.0114 4.44318C8.68561 4.44318 7.625 5.10606 6.82955 6.43182C6.03409 7.75758 5.63258 9.74242 5.625 12.3864C5.625 14.1742 5.80303 15.6667 6.15909 16.8636C6.52273 18.053 7.03409 18.947 7.69318 19.5455C8.35227 20.1364 9.125 20.4318 10.0114 20.4318ZM31.5199 24.3182C29.8229 24.3182 28.3116 24.0265 26.9858 23.4432C25.6676 22.8523 24.6259 22.0417 23.8608 21.0114C23.1032 19.9735 22.7131 18.7765 22.6903 17.4205H27.6449C27.6752 17.9886 27.8608 18.4886 28.2017 18.9205C28.5502 19.3447 29.0123 19.6742 29.5881 19.9091C30.1638 20.1439 30.8116 20.2614 31.5312 20.2614C32.2812 20.2614 32.9441 20.1288 33.5199 19.8636C34.0956 19.5985 34.5464 19.2311 34.8722 18.7614C35.1979 18.2917 35.3608 17.75 35.3608 17.1364C35.3608 16.5152 35.1866 15.9659 34.8381 15.4886C34.4972 15.0038 34.0047 14.625 33.3608 14.3523C32.7244 14.0795 31.9669 13.9432 31.0881 13.9432H28.9176V10.3295H31.0881C31.8305 10.3295 32.4858 10.2008 33.054 9.94318C33.6297 9.68561 34.0767 9.32955 34.3949 8.875C34.7131 8.41288 34.8722 7.875 34.8722 7.26136C34.8722 6.67803 34.732 6.16667 34.4517 5.72727C34.179 5.2803 33.7926 4.93182 33.2926 4.68182C32.8002 4.43182 32.2244 4.30682 31.5653 4.30682C30.8987 4.30682 30.2888 4.42803 29.7358 4.67045C29.1828 4.9053 28.7396 5.24242 28.4062 5.68182C28.0729 6.12121 27.8949 6.63636 27.8722 7.22727H23.1562C23.179 5.88636 23.5616 4.70454 24.304 3.68182C25.0464 2.65909 26.0464 1.85985 27.304 1.28409C28.5691 0.700757 29.9972 0.40909 31.5881 0.40909C33.1941 0.40909 34.5994 0.700757 35.804 1.28409C37.0085 1.86742 37.9441 2.6553 38.6108 3.64773C39.285 4.63258 39.6184 5.73864 39.6108 6.96591C39.6184 8.26894 39.2131 9.35606 38.3949 10.2273C37.5843 11.0985 36.5275 11.6515 35.2244 11.8864V12.0682C36.9366 12.2879 38.2396 12.8826 39.1335 13.8523C40.035 14.8144 40.482 16.0189 40.4744 17.4659C40.482 18.7917 40.0994 19.9697 39.3267 21C38.5616 22.0303 37.5047 22.8409 36.1562 23.4318C34.8078 24.0227 33.2623 24.3182 31.5199 24.3182Z"/>
</mask>
<path d="M10.0114 24.5114C8.05682 24.5038 6.375 24.0227 4.96591 23.0682C3.56439 22.1136 2.48485 20.7311 1.72727 18.9205C0.977273 17.1098 0.606061 14.9318 0.613636 12.3864C0.613636 9.84848 0.988636 7.68561 1.73864 5.89773C2.49621 4.10985 3.57576 2.75 4.97727 1.81818C6.38636 0.878787 8.06439 0.40909 10.0114 0.40909C11.9583 0.40909 13.6326 0.878787 15.0341 1.81818C16.4432 2.75758 17.5265 4.12121 18.2841 5.90909C19.0417 7.68939 19.4167 9.84848 19.4091 12.3864C19.4091 14.9394 19.0303 17.1212 18.2727 18.9318C17.5227 20.7424 16.447 22.125 15.0455 23.0795C13.6439 24.0341 11.9659 24.5114 10.0114 24.5114ZM10.0114 20.4318C11.3447 20.4318 12.4091 19.7614 13.2045 18.4205C14 17.0795 14.3939 15.0682 14.3864 12.3864C14.3864 10.6212 14.2045 9.15151 13.8409 7.97727C13.4848 6.80303 12.9773 5.92045 12.3182 5.32954C11.6667 4.73864 10.8977 4.44318 10.0114 4.44318C8.68561 4.44318 7.625 5.10606 6.82955 6.43182C6.03409 7.75758 5.63258 9.74242 5.625 12.3864C5.625 14.1742 5.80303 15.6667 6.15909 16.8636C6.52273 18.053 7.03409 18.947 7.69318 19.5455C8.35227 20.1364 9.125 20.4318 10.0114 20.4318ZM31.5199 24.3182C29.8229 24.3182 28.3116 24.0265 26.9858 23.4432C25.6676 22.8523 24.6259 22.0417 23.8608 21.0114C23.1032 19.9735 22.7131 18.7765 22.6903 17.4205H27.6449C27.6752 17.9886 27.8608 18.4886 28.2017 18.9205C28.5502 19.3447 29.0123 19.6742 29.5881 19.9091C30.1638 20.1439 30.8116 20.2614 31.5312 20.2614C32.2812 20.2614 32.9441 20.1288 33.5199 19.8636C34.0956 19.5985 34.5464 19.2311 34.8722 18.7614C35.1979 18.2917 35.3608 17.75 35.3608 17.1364C35.3608 16.5152 35.1866 15.9659 34.8381 15.4886C34.4972 15.0038 34.0047 14.625 33.3608 14.3523C32.7244 14.0795 31.9669 13.9432 31.0881 13.9432H28.9176V10.3295H31.0881C31.8305 10.3295 32.4858 10.2008 33.054 9.94318C33.6297 9.68561 34.0767 9.32955 34.3949 8.875C34.7131 8.41288 34.8722 7.875 34.8722 7.26136C34.8722 6.67803 34.732 6.16667 34.4517 5.72727C34.179 5.2803 33.7926 4.93182 33.2926 4.68182C32.8002 4.43182 32.2244 4.30682 31.5653 4.30682C30.8987 4.30682 30.2888 4.42803 29.7358 4.67045C29.1828 4.9053 28.7396 5.24242 28.4062 5.68182C28.0729 6.12121 27.8949 6.63636 27.8722 7.22727H23.1562C23.179 5.88636 23.5616 4.70454 24.304 3.68182C25.0464 2.65909 26.0464 1.85985 27.304 1.28409C28.5691 0.700757 29.9972 0.40909 31.5881 0.40909C33.1941 0.40909 34.5994 0.700757 35.804 1.28409C37.0085 1.86742 37.9441 2.6553 38.6108 3.64773C39.285 4.63258 39.6184 5.73864 39.6108 6.96591C39.6184 8.26894 39.2131 9.35606 38.3949 10.2273C37.5843 11.0985 36.5275 11.6515 35.2244 11.8864V12.0682C36.9366 12.2879 38.2396 12.8826 39.1335 13.8523C40.035 14.8144 40.482 16.0189 40.4744 17.4659C40.482 18.7917 40.0994 19.9697 39.3267 21C38.5616 22.0303 37.5047 22.8409 36.1562 23.4318C34.8078 24.0227 33.2623 24.3182 31.5199 24.3182Z" fill="#001E3A"/>
<path d="M10.0114 24.5114L10.0075 25.5114H10.0114V24.5114ZM4.96591 23.0682L4.40299 23.8947L4.40506 23.8961L4.96591 23.0682ZM1.72727 18.9205L0.803391 19.3032L0.804768 19.3064L1.72727 18.9205ZM0.613636 12.3864L1.61364 12.3893V12.3864H0.613636ZM1.73864 5.89773L0.817879 5.50757L0.816487 5.51089L1.73864 5.89773ZM4.97727 1.81818L5.53093 2.65093L5.53197 2.65023L4.97727 1.81818ZM15.0341 1.81818L14.4773 2.64885L14.4794 2.65023L15.0341 1.81818ZM18.2841 5.90909L17.3633 6.29924L17.3639 6.30065L18.2841 5.90909ZM19.4091 12.3864L18.4091 12.3834V12.3864H19.4091ZM18.2727 18.9318L17.3502 18.5458L17.3489 18.5491L18.2727 18.9318ZM15.0455 23.0795L15.6084 23.9061L15.6084 23.9061L15.0455 23.0795ZM13.2045 18.4205L14.0646 18.9307L14.0646 18.9307L13.2045 18.4205ZM14.3864 12.3864L13.3864 12.3864L13.3864 12.3892L14.3864 12.3864ZM13.8409 7.97727L12.8839 8.26746L12.8857 8.27309L13.8409 7.97727ZM12.3182 5.32954L11.6464 6.07028L11.6506 6.07411L12.3182 5.32954ZM6.82955 6.43182L5.97205 5.91732L5.97205 5.91732L6.82955 6.43182ZM5.625 12.3864L4.625 12.3835V12.3864H5.625ZM6.15909 16.8636L5.20057 17.1488L5.20279 17.156L6.15909 16.8636ZM7.69318 19.5455L7.02092 20.2858L7.02564 20.29L7.69318 19.5455ZM10.0152 23.5114C8.22898 23.5044 6.74795 23.0675 5.52676 22.2403L4.40506 23.8961C6.00205 24.9779 7.88466 25.5031 10.0075 25.5114L10.0152 23.5114ZM5.52883 22.2417C4.31125 21.4124 3.34469 20.1953 2.64978 18.5345L0.804768 19.3064C1.62501 21.2668 2.81754 22.8149 4.40299 23.8947L5.52883 22.2417ZM2.65115 18.5378C1.96447 16.88 1.60634 14.8402 1.61363 12.3893L-0.386359 12.3834C-0.394216 15.0234 -0.00991963 17.3397 0.803397 19.3031L2.65115 18.5378ZM1.61364 12.3864C1.61364 9.94226 1.97539 7.91844 2.66079 6.28456L0.816487 5.51089C0.0018855 7.45277 -0.386364 9.75471 -0.386364 12.3864H1.61364ZM2.65939 6.28788C3.35262 4.65185 4.31642 3.45841 5.53093 2.65092L4.42361 0.98544C2.83509 2.04159 1.6398 3.56785 0.817885 5.50758L2.65939 6.28788ZM5.53197 2.65023C6.75322 1.83607 8.23144 1.40909 10.0114 1.40909V-0.59091C7.89735 -0.59091 6.01951 -0.0784934 4.42257 0.986132L5.53197 2.65023ZM10.0114 1.40909C11.7914 1.40909 13.2648 1.83611 14.4773 2.64885L15.5909 0.987516C14.0004 -0.0785323 12.1252 -0.59091 10.0114 -0.59091V1.40909ZM14.4794 2.65023C15.703 3.466 16.6705 4.66416 17.3633 6.29924L19.2048 5.51894C18.3825 3.57826 17.1833 2.04915 15.5888 0.986132L14.4794 2.65023ZM17.3639 6.30065C18.0547 7.92386 18.4164 9.94082 18.4091 12.3834L20.4091 12.3893C20.4169 9.75614 20.0287 7.45493 19.2042 5.51753L17.3639 6.30065ZM18.4091 12.3864C18.4091 14.8449 18.0438 16.8882 17.3502 18.5458L19.1952 19.3178C20.0168 17.3542 20.4091 15.0339 20.4091 12.3864H18.4091ZM17.3489 18.5491C16.6615 20.2085 15.6992 21.4244 14.4825 22.253L15.6084 23.9061C17.1948 22.8256 18.384 21.2763 19.1966 19.3145L17.3489 18.5491ZM14.4825 22.253C13.2713 23.078 11.7967 23.5114 10.0114 23.5114V25.5114C12.1351 25.5114 14.0166 24.9902 15.6084 23.9061L14.4825 22.253ZM10.0114 21.4318C11.7632 21.4318 13.1251 20.5143 14.0646 18.9307L12.3445 17.9103C11.693 19.0084 10.9262 19.4318 10.0114 19.4318V21.4318ZM14.0646 18.9307C14.9967 17.3593 15.3941 15.1318 15.3864 12.3835L13.3864 12.3892C13.3938 15.0045 13.0033 16.7998 12.3445 17.9103L14.0646 18.9307ZM15.3864 12.3864C15.3864 10.5607 15.1993 8.98325 14.7962 7.68145L12.8857 8.27309C13.2098 9.31978 13.3864 10.6817 13.3864 12.3864H15.3864ZM14.7979 7.68709C14.4084 6.40252 13.8239 5.33643 12.9857 4.58497L11.6506 6.07411C12.1307 6.50447 12.5613 7.20354 12.8839 8.26745L14.7979 7.68709ZM12.99 4.58882C12.1529 3.82964 11.144 3.44318 10.0114 3.44318V5.44318C10.6515 5.44318 11.1804 5.64763 11.6464 6.07026L12.99 4.58882ZM10.0114 3.44318C8.2704 3.44318 6.91271 4.34956 5.97205 5.91732L7.68704 6.94631C8.33729 5.86256 9.10081 5.44318 10.0114 5.44318V3.44318ZM5.97205 5.91732C5.03933 7.47186 4.63277 9.67186 4.625 12.3835L6.625 12.3892C6.63238 9.81298 7.02885 8.04329 7.68704 6.94631L5.97205 5.91732ZM4.625 12.3864C4.625 14.2329 4.80797 15.8288 5.2006 17.1488L7.11758 16.5785C6.79809 15.5045 6.625 14.1156 6.625 12.3864H4.625ZM5.20279 17.156C5.59913 18.4524 6.18582 19.5275 7.02093 20.2858L8.36543 18.8051C7.88236 18.3665 7.44632 17.6537 7.1154 16.5713L5.20279 17.156ZM7.02564 20.29C7.86845 21.0456 8.87898 21.4318 10.0114 21.4318V19.4318C9.37102 19.4318 8.8361 19.2271 8.36073 18.8009L7.02564 20.29ZM26.9858 23.4432L26.5767 24.3557L26.5831 24.3585L26.9858 23.4432ZM23.8608 21.0114L23.0531 21.601L23.058 21.6076L23.8608 21.0114ZM22.6903 17.4205V16.4205H21.6734L21.6905 17.4372L22.6903 17.4205ZM27.6449 17.4205L28.6435 17.3672L28.593 16.4205H27.6449V17.4205ZM28.2017 18.9205L27.4168 19.5401L27.4228 19.5477L27.429 19.5552L28.2017 18.9205ZM29.5881 19.9091L29.2104 20.835L29.2104 20.835L29.5881 19.9091ZM33.5199 19.8636L33.1016 18.9553L33.1016 18.9553L33.5199 19.8636ZM34.8722 18.7614L35.6939 19.3313L35.6939 19.3313L34.8722 18.7614ZM34.8381 15.4886L34.02 16.0638L34.0252 16.0711L34.0304 16.0783L34.8381 15.4886ZM33.3608 14.3523L32.9669 15.2714L32.9708 15.2731L33.3608 14.3523ZM28.9176 13.9432H27.9176V14.9432H28.9176V13.9432ZM28.9176 10.3295V9.32955H27.9176V10.3295H28.9176ZM33.054 9.94318L32.6456 9.03035L32.6411 9.0324L33.054 9.94318ZM34.3949 8.875L35.2141 9.44848L35.2185 9.4421L34.3949 8.875ZM34.4517 5.72727L33.5981 6.24814L33.6033 6.25667L33.6086 6.26509L34.4517 5.72727ZM33.2926 4.68182L32.8399 5.5735L32.8454 5.57625L33.2926 4.68182ZM29.7358 4.67045L30.1267 5.59096L30.1373 5.58632L29.7358 4.67045ZM28.4062 5.68182L29.2029 6.2862L29.2029 6.2862L28.4062 5.68182ZM27.8722 7.22727V8.22727H28.8344L28.8714 7.2657L27.8722 7.22727ZM23.1562 7.22727L22.1564 7.21033L22.1392 8.22727H23.1562V7.22727ZM24.304 3.68182L25.1132 4.26928L25.1132 4.26928L24.304 3.68182ZM27.304 1.28409L27.7203 2.19333L27.7227 2.19221L27.304 1.28409ZM35.804 1.28409L36.2398 0.384074L36.2398 0.384074L35.804 1.28409ZM38.6108 3.64773L37.7807 4.20537L37.7856 4.21264L38.6108 3.64773ZM39.6108 6.96591L38.6107 6.95973L38.6108 6.97172L39.6108 6.96591ZM38.3949 10.2273L37.6659 9.54269L37.6628 9.54609L38.3949 10.2273ZM35.2244 11.8864L35.0471 10.9022L34.2244 11.0505V11.8864H35.2244ZM35.2244 12.0682H34.2244V12.9481L35.0972 13.06L35.2244 12.0682ZM39.1335 13.8523L38.3983 14.5301L38.4038 14.536L39.1335 13.8523ZM40.4744 17.4659L39.4744 17.4607L39.4744 17.4716L40.4744 17.4659ZM39.3267 21L38.5267 20.4L38.5239 20.4038L39.3267 21ZM36.1562 23.4318L35.7549 22.5159L35.7549 22.5159L36.1562 23.4318ZM31.5199 23.3182C29.9381 23.3182 28.5675 23.0466 27.3885 22.5279L26.5831 24.3585C28.0556 25.0064 29.7078 25.3182 31.5199 25.3182V23.3182ZM27.3949 22.5307C26.2129 22.0008 25.3144 21.2915 24.6636 20.4151L23.058 21.6076C23.9374 22.7918 25.1224 23.7037 26.5767 24.3557L27.3949 22.5307ZM24.6685 20.4218C24.0395 19.56 23.7097 18.5657 23.6902 17.4037L21.6905 17.4372C21.7165 18.9873 22.167 20.387 23.0531 21.6009L24.6685 20.4218ZM22.6903 18.4205H27.6449V16.4205H22.6903V18.4205ZM26.6463 17.4737C26.6872 18.2407 26.9433 18.9403 27.4168 19.5401L28.9866 18.3008C28.7783 18.037 28.6632 17.7366 28.6435 17.3672L26.6463 17.4737ZM27.429 19.5552C27.8962 20.124 28.5015 20.5459 29.2104 20.835L29.9658 18.9832C29.5232 18.8026 29.2042 18.5654 28.9744 18.2857L27.429 19.5552ZM29.2104 20.835C29.9234 21.1259 30.7022 21.2614 31.5312 21.2614V19.2614C30.9209 19.2614 30.4043 19.162 29.9658 18.9832L29.2104 20.835ZM31.5312 21.2614C32.3995 21.2614 33.2094 21.1076 33.9382 20.7719L33.1016 18.9553C32.6788 19.15 32.163 19.2614 31.5312 19.2614V21.2614ZM33.9382 20.7719C34.6581 20.4404 35.2555 19.9634 35.6939 19.3313L34.0504 18.1915C33.8373 18.4987 33.5332 18.7566 33.1016 18.9553L33.9382 20.7719ZM35.6939 19.3313C36.1444 18.6817 36.3608 17.9379 36.3608 17.1364H34.3608C34.3608 17.5621 34.2514 17.9017 34.0504 18.1915L35.6939 19.3313ZM36.3608 17.1364C36.3608 16.3147 36.1258 15.5565 35.6457 14.8989L34.0304 16.0783C34.2473 16.3753 34.3608 16.7156 34.3608 17.1364H36.3608ZM35.6561 14.9135C35.1896 14.25 34.5355 13.7638 33.7508 13.4315L32.9708 15.2731C33.4739 15.4862 33.8047 15.7576 34.02 16.0638L35.6561 14.9135ZM33.7547 13.4331C32.9652 13.0948 32.0672 12.9432 31.0881 12.9432V14.9432C31.8665 14.9432 32.4836 15.0643 32.9669 15.2714L33.7547 13.4331ZM31.0881 12.9432H28.9176V14.9432H31.0881V12.9432ZM29.9176 13.9432V10.3295H27.9176V13.9432H29.9176ZM28.9176 11.3295H31.0881V9.32955H28.9176V11.3295ZM31.0881 11.3295C31.9462 11.3295 32.7467 11.1804 33.4669 10.854L32.6411 9.0324C32.2249 9.22107 31.7148 9.32955 31.0881 9.32955V11.3295ZM33.4623 10.856C34.1802 10.5349 34.7786 10.0706 35.2141 9.44846L33.5757 8.30154C33.3748 8.58847 33.0793 8.83634 32.6456 9.03036L33.4623 10.856ZM35.2185 9.4421C35.6623 8.79752 35.8722 8.05767 35.8722 7.26136H33.8722C33.8722 7.69233 33.7638 8.02824 33.5712 8.3079L35.2185 9.4421ZM35.8722 7.26136C35.8722 6.51091 35.6895 5.80819 35.2948 5.18946L33.6086 6.26509C33.7745 6.52514 33.8722 6.84515 33.8722 7.26136H35.8722ZM35.3053 5.20641C34.9282 4.58831 34.3958 4.11539 33.7398 3.78739L32.8454 5.57625C33.1894 5.74825 33.4298 5.9723 33.5981 6.24814L35.3053 5.20641ZM33.7453 3.79015C33.0879 3.45642 32.3515 3.30682 31.5653 3.30682V5.30682C32.0973 5.30682 32.5124 5.40722 32.8399 5.57348L33.7453 3.79015ZM31.5653 3.30682C30.7749 3.30682 30.0265 3.45115 29.3343 3.75458L30.1373 5.58632C30.5511 5.40491 31.0224 5.30682 31.5653 5.30682V3.30682ZM29.3449 3.75001C28.6461 4.04675 28.0576 4.48685 27.6096 5.07743L29.2029 6.2862C29.4216 5.99799 29.7194 5.76385 30.1267 5.5909L29.3449 3.75001ZM27.6096 5.07743C27.1431 5.69225 26.9029 6.40857 26.8729 7.18884L28.8714 7.2657C28.8869 6.86415 29.0027 6.55017 29.2029 6.2862L27.6096 5.07743ZM27.8722 6.22727H23.1562V8.22727H27.8722V6.22727ZM24.1561 7.24422C24.1756 6.09526 24.499 5.11547 25.1132 4.26928L23.4947 3.09436C22.6241 4.29362 22.1824 5.67747 22.1564 7.21033L24.1561 7.24422ZM25.1132 4.26928C25.7452 3.39875 26.604 2.70438 27.7203 2.19333L26.8877 0.374852C25.4888 1.01532 24.3476 1.91943 23.4947 3.09436L25.1132 4.26928ZM27.7227 2.19221C28.8391 1.67744 30.1212 1.40909 31.5881 1.40909V-0.59091C29.8731 -0.59091 28.2991 -0.275931 26.8853 0.375972L27.7227 2.19221ZM31.5881 1.40909C33.073 1.40909 34.324 1.67844 35.3681 2.18411L36.2398 0.384074C34.8749 -0.276928 33.3153 -0.59091 31.5881 -0.59091V1.40909ZM35.3681 2.18411C36.4327 2.69967 37.2242 3.37694 37.7807 4.20535L39.4409 3.0901C38.664 1.93367 37.5843 1.03518 36.2398 0.384074L35.3681 2.18411ZM37.7856 4.21264C38.3414 5.02438 38.6172 5.93005 38.6108 6.95974L40.6108 6.97208C40.6196 5.54722 40.2287 4.24077 39.4359 3.08281L37.7856 4.21264ZM38.6108 6.97172C38.617 8.04368 38.292 8.87602 37.6659 9.5427L39.1238 10.9118C40.1341 9.8361 40.6197 8.4942 40.6108 6.96009L38.6108 6.97172ZM37.6628 9.54609C37.016 10.2412 36.1625 10.7012 35.0471 10.9022L35.4018 12.8705C36.8924 12.6018 38.1526 11.9558 39.127 10.9085L37.6628 9.54609ZM34.2244 11.8864V12.0682H36.2244V11.8864H34.2244ZM35.0972 13.06C36.649 13.2592 37.7074 13.7807 38.3983 14.5301L39.8688 13.1745C38.7718 11.9845 37.2241 11.3166 35.3517 11.0763L35.0972 13.06ZM38.4038 14.536C39.1127 15.2926 39.4808 16.2423 39.4744 17.4607L41.4744 17.4711C41.4832 15.7956 40.9574 14.3362 39.8632 13.1685L38.4038 14.536ZM39.4744 17.4716C39.4808 18.586 39.1643 19.5498 38.5267 20.4L40.1267 21.6C41.0345 20.3896 41.4832 18.9974 41.4744 17.4602L39.4744 17.4716ZM38.5239 20.4038C37.8769 21.2749 36.9678 21.9844 35.7549 22.5159L36.5576 24.3477C38.0417 23.6974 39.2462 22.7857 40.1295 21.5962L38.5239 20.4038ZM35.7549 22.5159C34.554 23.0421 33.1491 23.3182 31.5199 23.3182V25.3182C33.3755 25.3182 35.0615 25.0033 36.5576 24.3477L35.7549 22.5159Z" fill="#001E3A" mask="url(#path-1-outside-1_2001_1489)"/>
</g>
</svg>
