<svg width="41" height="25" viewBox="0 0 41 25" fill="none" xmlns="http://www.w3.org/2000/svg">
<g opacity="0.6">
<mask id="path-1-outside-1_2001_1159" maskUnits="userSpaceOnUse" x="-1" y="-1" width="43" height="27" fill="black">
<rect fill="white" x="-1" y="-1" width="43" height="27"/>
<path d="M10.0114 24.5114C8.05682 24.5038 6.375 24.0227 4.96591 23.0682C3.56439 22.1136 2.48485 20.7311 1.72727 18.9205C0.977273 17.1098 0.606061 14.9318 0.613636 12.3864C0.613636 9.84848 0.988636 7.68561 1.73864 5.89773C2.49621 4.10985 3.57576 2.75 4.97727 1.81818C6.38636 0.878787 8.06439 0.40909 10.0114 0.40909C11.9583 0.40909 13.6326 0.878787 15.0341 1.81818C16.4432 2.75758 17.5265 4.12121 18.2841 5.90909C19.0417 7.68939 19.4167 9.84848 19.4091 12.3864C19.4091 14.9394 19.0303 17.1212 18.2727 18.9318C17.5227 20.7424 16.447 22.125 15.0455 23.0795C13.6439 24.0341 11.9659 24.5114 10.0114 24.5114ZM10.0114 20.4318C11.3447 20.4318 12.4091 19.7614 13.2045 18.4205C14 17.0795 14.3939 15.0682 14.3864 12.3864C14.3864 10.6212 14.2045 9.15151 13.8409 7.97727C13.4848 6.80303 12.9773 5.92045 12.3182 5.32954C11.6667 4.73864 10.8977 4.44318 10.0114 4.44318C8.68561 4.44318 7.625 5.10606 6.82955 6.43182C6.03409 7.75758 5.63258 9.74242 5.625 12.3864C5.625 14.1742 5.80303 15.6667 6.15909 16.8636C6.52273 18.053 7.03409 18.947 7.69318 19.5455C8.35227 20.1364 9.125 20.4318 10.0114 20.4318ZM31.4176 24.3182C29.8116 24.3182 28.3797 24.0227 27.1222 23.4318C25.8722 22.8409 24.8797 22.0265 24.1449 20.9886C23.41 19.9508 23.0275 18.7614 22.9972 17.4205H27.7699C27.8229 18.322 28.2017 19.053 28.9062 19.6136C29.6108 20.1742 30.4479 20.4545 31.4176 20.4545C32.1903 20.4545 32.8722 20.2841 33.4631 19.9432C34.0616 19.5947 34.5275 19.1136 34.8608 18.5C35.2017 17.8788 35.3722 17.1667 35.3722 16.3636C35.3722 15.5455 35.1979 14.8258 34.8494 14.2045C34.5085 13.5833 34.035 13.0985 33.429 12.75C32.8229 12.4015 32.1297 12.2235 31.3494 12.2159C30.6676 12.2159 30.0047 12.3561 29.3608 12.6364C28.7244 12.9167 28.2282 13.2992 27.8722 13.7841L23.4972 13L24.5994 0.727272H38.8267V4.75H28.6562L28.054 10.5795H28.1903C28.5994 10.0038 29.2169 9.52652 30.0426 9.14773C30.8684 8.76894 31.7926 8.57955 32.8153 8.57955C34.2169 8.57955 35.4669 8.90909 36.5653 9.56818C37.6638 10.2273 38.5312 11.1326 39.1676 12.2841C39.804 13.428 40.1184 14.7462 40.1108 16.2386C40.1184 17.8068 39.7547 19.2008 39.0199 20.4205C38.2926 21.6326 37.2737 22.5871 35.9631 23.2841C34.66 23.9735 33.1449 24.3182 31.4176 24.3182Z"/>
</mask>
<path d="M10.0114 24.5114C8.05682 24.5038 6.375 24.0227 4.96591 23.0682C3.56439 22.1136 2.48485 20.7311 1.72727 18.9205C0.977273 17.1098 0.606061 14.9318 0.613636 12.3864C0.613636 9.84848 0.988636 7.68561 1.73864 5.89773C2.49621 4.10985 3.57576 2.75 4.97727 1.81818C6.38636 0.878787 8.06439 0.40909 10.0114 0.40909C11.9583 0.40909 13.6326 0.878787 15.0341 1.81818C16.4432 2.75758 17.5265 4.12121 18.2841 5.90909C19.0417 7.68939 19.4167 9.84848 19.4091 12.3864C19.4091 14.9394 19.0303 17.1212 18.2727 18.9318C17.5227 20.7424 16.447 22.125 15.0455 23.0795C13.6439 24.0341 11.9659 24.5114 10.0114 24.5114ZM10.0114 20.4318C11.3447 20.4318 12.4091 19.7614 13.2045 18.4205C14 17.0795 14.3939 15.0682 14.3864 12.3864C14.3864 10.6212 14.2045 9.15151 13.8409 7.97727C13.4848 6.80303 12.9773 5.92045 12.3182 5.32954C11.6667 4.73864 10.8977 4.44318 10.0114 4.44318C8.68561 4.44318 7.625 5.10606 6.82955 6.43182C6.03409 7.75758 5.63258 9.74242 5.625 12.3864C5.625 14.1742 5.80303 15.6667 6.15909 16.8636C6.52273 18.053 7.03409 18.947 7.69318 19.5455C8.35227 20.1364 9.125 20.4318 10.0114 20.4318ZM31.4176 24.3182C29.8116 24.3182 28.3797 24.0227 27.1222 23.4318C25.8722 22.8409 24.8797 22.0265 24.1449 20.9886C23.41 19.9508 23.0275 18.7614 22.9972 17.4205H27.7699C27.8229 18.322 28.2017 19.053 28.9062 19.6136C29.6108 20.1742 30.4479 20.4545 31.4176 20.4545C32.1903 20.4545 32.8722 20.2841 33.4631 19.9432C34.0616 19.5947 34.5275 19.1136 34.8608 18.5C35.2017 17.8788 35.3722 17.1667 35.3722 16.3636C35.3722 15.5455 35.1979 14.8258 34.8494 14.2045C34.5085 13.5833 34.035 13.0985 33.429 12.75C32.8229 12.4015 32.1297 12.2235 31.3494 12.2159C30.6676 12.2159 30.0047 12.3561 29.3608 12.6364C28.7244 12.9167 28.2282 13.2992 27.8722 13.7841L23.4972 13L24.5994 0.727272H38.8267V4.75H28.6562L28.054 10.5795H28.1903C28.5994 10.0038 29.2169 9.52652 30.0426 9.14773C30.8684 8.76894 31.7926 8.57955 32.8153 8.57955C34.2169 8.57955 35.4669 8.90909 36.5653 9.56818C37.6638 10.2273 38.5312 11.1326 39.1676 12.2841C39.804 13.428 40.1184 14.7462 40.1108 16.2386C40.1184 17.8068 39.7547 19.2008 39.0199 20.4205C38.2926 21.6326 37.2737 22.5871 35.9631 23.2841C34.66 23.9735 33.1449 24.3182 31.4176 24.3182Z" fill="#001E3A"/>
<path d="M10.0114 24.5114L10.0075 25.5114H10.0114V24.5114ZM4.96591 23.0682L4.40299 23.8947L4.40506 23.8961L4.96591 23.0682ZM1.72727 18.9205L0.803391 19.3032L0.804768 19.3064L1.72727 18.9205ZM0.613636 12.3864L1.61364 12.3893V12.3864H0.613636ZM1.73864 5.89773L0.817879 5.50757L0.816487 5.51089L1.73864 5.89773ZM4.97727 1.81818L5.53093 2.65093L5.53197 2.65023L4.97727 1.81818ZM15.0341 1.81818L14.4773 2.64885L14.4794 2.65023L15.0341 1.81818ZM18.2841 5.90909L17.3633 6.29924L17.3639 6.30065L18.2841 5.90909ZM19.4091 12.3864L18.4091 12.3834V12.3864H19.4091ZM18.2727 18.9318L17.3502 18.5458L17.3489 18.5491L18.2727 18.9318ZM15.0455 23.0795L15.6084 23.9061L15.6084 23.9061L15.0455 23.0795ZM13.2045 18.4205L14.0646 18.9307L14.0646 18.9307L13.2045 18.4205ZM14.3864 12.3864L13.3864 12.3864L13.3864 12.3892L14.3864 12.3864ZM13.8409 7.97727L12.8839 8.26746L12.8857 8.27309L13.8409 7.97727ZM12.3182 5.32954L11.6464 6.07028L11.6506 6.07411L12.3182 5.32954ZM6.82955 6.43182L5.97205 5.91732L5.97205 5.91732L6.82955 6.43182ZM5.625 12.3864L4.625 12.3835V12.3864H5.625ZM6.15909 16.8636L5.20057 17.1488L5.20279 17.156L6.15909 16.8636ZM7.69318 19.5455L7.02092 20.2858L7.02564 20.29L7.69318 19.5455ZM10.0152 23.5114C8.22898 23.5044 6.74795 23.0675 5.52676 22.2403L4.40506 23.8961C6.00205 24.9779 7.88466 25.5031 10.0075 25.5114L10.0152 23.5114ZM5.52883 22.2417C4.31125 21.4124 3.34469 20.1953 2.64978 18.5345L0.804768 19.3064C1.62501 21.2668 2.81754 22.8149 4.40299 23.8947L5.52883 22.2417ZM2.65115 18.5378C1.96447 16.88 1.60634 14.8402 1.61363 12.3893L-0.386359 12.3834C-0.394216 15.0234 -0.00991963 17.3397 0.803397 19.3031L2.65115 18.5378ZM1.61364 12.3864C1.61364 9.94226 1.97539 7.91844 2.66079 6.28456L0.816487 5.51089C0.0018855 7.45277 -0.386364 9.75471 -0.386364 12.3864H1.61364ZM2.65939 6.28788C3.35262 4.65185 4.31642 3.45841 5.53093 2.65092L4.42361 0.98544C2.83509 2.04159 1.6398 3.56785 0.817885 5.50758L2.65939 6.28788ZM5.53197 2.65023C6.75322 1.83607 8.23144 1.40909 10.0114 1.40909V-0.59091C7.89735 -0.59091 6.01951 -0.0784934 4.42257 0.986132L5.53197 2.65023ZM10.0114 1.40909C11.7914 1.40909 13.2648 1.83611 14.4773 2.64885L15.5909 0.987516C14.0004 -0.0785323 12.1252 -0.59091 10.0114 -0.59091V1.40909ZM14.4794 2.65023C15.703 3.466 16.6705 4.66416 17.3633 6.29924L19.2048 5.51894C18.3825 3.57826 17.1833 2.04915 15.5888 0.986132L14.4794 2.65023ZM17.3639 6.30065C18.0547 7.92386 18.4164 9.94082 18.4091 12.3834L20.4091 12.3893C20.4169 9.75614 20.0287 7.45493 19.2042 5.51753L17.3639 6.30065ZM18.4091 12.3864C18.4091 14.8449 18.0438 16.8882 17.3502 18.5458L19.1952 19.3178C20.0168 17.3542 20.4091 15.0339 20.4091 12.3864H18.4091ZM17.3489 18.5491C16.6615 20.2085 15.6992 21.4244 14.4825 22.253L15.6084 23.9061C17.1948 22.8256 18.384 21.2763 19.1966 19.3145L17.3489 18.5491ZM14.4825 22.253C13.2713 23.078 11.7967 23.5114 10.0114 23.5114V25.5114C12.1351 25.5114 14.0166 24.9902 15.6084 23.9061L14.4825 22.253ZM10.0114 21.4318C11.7632 21.4318 13.1251 20.5143 14.0646 18.9307L12.3445 17.9103C11.693 19.0084 10.9262 19.4318 10.0114 19.4318V21.4318ZM14.0646 18.9307C14.9967 17.3593 15.3941 15.1318 15.3864 12.3835L13.3864 12.3892C13.3938 15.0045 13.0033 16.7998 12.3445 17.9103L14.0646 18.9307ZM15.3864 12.3864C15.3864 10.5607 15.1993 8.98325 14.7962 7.68145L12.8857 8.27309C13.2098 9.31978 13.3864 10.6817 13.3864 12.3864H15.3864ZM14.7979 7.68709C14.4084 6.40252 13.8239 5.33643 12.9857 4.58497L11.6506 6.07411C12.1307 6.50447 12.5613 7.20354 12.8839 8.26745L14.7979 7.68709ZM12.99 4.58882C12.1529 3.82964 11.144 3.44318 10.0114 3.44318V5.44318C10.6515 5.44318 11.1804 5.64763 11.6464 6.07026L12.99 4.58882ZM10.0114 3.44318C8.2704 3.44318 6.91271 4.34956 5.97205 5.91732L7.68704 6.94631C8.33729 5.86256 9.10081 5.44318 10.0114 5.44318V3.44318ZM5.97205 5.91732C5.03933 7.47186 4.63277 9.67186 4.625 12.3835L6.625 12.3892C6.63238 9.81298 7.02885 8.04329 7.68704 6.94631L5.97205 5.91732ZM4.625 12.3864C4.625 14.2329 4.80797 15.8288 5.2006 17.1488L7.11758 16.5785C6.79809 15.5045 6.625 14.1156 6.625 12.3864H4.625ZM5.20279 17.156C5.59913 18.4524 6.18582 19.5275 7.02093 20.2858L8.36543 18.8051C7.88236 18.3665 7.44632 17.6537 7.1154 16.5713L5.20279 17.156ZM7.02564 20.29C7.86845 21.0456 8.87898 21.4318 10.0114 21.4318V19.4318C9.37102 19.4318 8.8361 19.2271 8.36073 18.8009L7.02564 20.29ZM27.1222 23.4318L26.6948 24.3359L26.6969 24.3369L27.1222 23.4318ZM24.1449 20.9886L24.961 20.4108L24.961 20.4108L24.1449 20.9886ZM22.9972 17.4205V16.4205H21.9743L21.9974 17.443L22.9972 17.4205ZM27.7699 17.4205L28.7682 17.3617L28.7128 16.4205H27.7699V17.4205ZM28.9062 19.6136L29.5289 18.8311L29.5289 18.8311L28.9062 19.6136ZM33.4631 19.9432L33.9628 20.8094L33.9663 20.8074L33.4631 19.9432ZM34.8608 18.5L33.9841 18.0189L33.9821 18.0227L34.8608 18.5ZM34.8494 14.2045L33.9727 14.6857L33.9773 14.6938L34.8494 14.2045ZM33.429 12.75L32.9305 13.6169L32.9305 13.6169L33.429 12.75ZM31.3494 12.2159L31.3591 11.2159H31.3494V12.2159ZM29.3608 12.6364L28.9617 11.7195L28.9577 11.7212L29.3608 12.6364ZM27.8722 13.7841L27.6957 14.7684L28.3092 14.8784L28.6782 14.376L27.8722 13.7841ZM23.4972 13L22.5012 12.9105L22.4192 13.8227L23.3207 13.9843L23.4972 13ZM24.5994 0.727272V-0.272728H23.6852L23.6034 0.637817L24.5994 0.727272ZM38.8267 0.727272H39.8267V-0.272728H38.8267V0.727272ZM38.8267 4.75V5.75H39.8267V4.75H38.8267ZM28.6562 4.75V3.75H27.7542L27.6615 4.64723L28.6562 4.75ZM28.054 10.5795L27.0593 10.4768L26.9453 11.5795H28.054V10.5795ZM28.1903 10.5795V11.5795H28.7065L29.0055 11.1588L28.1903 10.5795ZM30.0426 9.14773L30.4596 10.0567L30.4596 10.0567L30.0426 9.14773ZM36.5653 9.56818L37.0798 8.71069L37.0798 8.71069L36.5653 9.56818ZM39.1676 12.2841L38.2924 12.7678L38.2937 12.7702L39.1676 12.2841ZM40.1108 16.2386L39.1108 16.2336L39.1108 16.2435L40.1108 16.2386ZM39.0199 20.4205L38.1633 19.9044L38.1624 19.906L39.0199 20.4205ZM35.9631 23.2841L36.4307 24.168L36.4326 24.167L35.9631 23.2841ZM31.4176 23.3182C29.9357 23.3182 28.6527 23.0461 27.5474 22.5268L26.6969 24.3369C28.1068 24.9993 29.6874 25.3182 31.4176 25.3182V23.3182ZM27.5495 22.5277C26.4411 22.0037 25.5879 21.2962 24.961 20.4108L23.3287 21.5665C24.1715 22.7568 25.3032 23.6781 26.6948 24.3359L27.5495 22.5277ZM24.961 20.4108C24.3478 19.5447 24.023 18.551 23.9969 17.3979L21.9974 17.443C22.032 18.9717 22.4723 20.3568 23.3287 21.5665L24.961 20.4108ZM22.9972 18.4205H27.7699V16.4205H22.9972V18.4205ZM26.7716 17.4792C26.8413 18.6634 27.3559 19.658 28.2836 20.3961L29.5289 18.8311C29.0475 18.4481 28.8046 17.9806 28.7682 17.3617L26.7716 17.4792ZM28.2836 20.3961C29.1792 21.1087 30.2404 21.4545 31.4176 21.4545V19.4545C30.6555 19.4545 30.0424 19.2397 29.5289 18.8311L28.2836 20.3961ZM31.4176 21.4545C32.3421 21.4545 33.2006 21.2491 33.9628 20.8094L32.9633 19.077C32.5437 19.3191 32.0386 19.4545 31.4176 19.4545V21.4545ZM33.9663 20.8074C34.7244 20.3659 35.3196 19.7504 35.7395 18.9773L33.9821 18.0227C33.7354 18.4768 33.3987 18.8235 32.9599 19.079L33.9663 20.8074ZM35.7375 18.9811C36.1696 18.1937 36.3722 17.3121 36.3722 16.3636H34.3722C34.3722 17.0212 34.2339 17.5638 33.9841 18.0189L35.7375 18.9811ZM36.3722 16.3636C36.3722 15.3999 36.1657 14.5069 35.7216 13.7153L33.9773 14.6938C34.2302 15.1446 34.3722 15.691 34.3722 16.3636H36.3722ZM35.7261 13.7234C35.2982 12.9437 34.6948 12.3243 33.9274 11.8831L32.9305 13.6169C33.3752 13.8726 33.7189 14.223 33.9728 14.6856L35.7261 13.7234ZM33.9274 11.8831C33.1559 11.4394 32.2907 11.225 31.3591 11.216L31.3397 13.2159C31.9687 13.222 32.49 13.3636 32.9305 13.6169L33.9274 11.8831ZM31.3494 11.2159C30.5261 11.2159 29.7277 11.386 28.9617 11.7195L29.7599 13.5533C30.2818 13.3261 30.8091 13.2159 31.3494 13.2159V11.2159ZM28.9577 11.7212C28.1863 12.061 27.5411 12.5454 27.0662 13.1922L28.6782 14.376C28.9153 14.0531 29.2625 13.7724 29.7639 13.5515L28.9577 11.7212ZM28.0486 12.7998L23.6736 12.0157L23.3207 13.9843L27.6957 14.7684L28.0486 12.7998ZM24.4932 13.0895L25.5954 0.816727L23.6034 0.637817L22.5012 12.9105L24.4932 13.0895ZM24.5994 1.72727H38.8267V-0.272728H24.5994V1.72727ZM37.8267 0.727272V4.75H39.8267V0.727272H37.8267ZM38.8267 3.75H28.6562V5.75H38.8267V3.75ZM27.6615 4.64723L27.0593 10.4768L29.0487 10.6823L29.651 4.85277L27.6615 4.64723ZM28.054 11.5795H28.1903V9.57955H28.054V11.5795ZM29.0055 11.1588C29.288 10.7612 29.7485 10.3828 30.4596 10.0567L29.6257 8.23879C28.6852 8.6702 27.9109 9.24634 27.3752 10.0003L29.0055 11.1588ZM30.4596 10.0567C31.139 9.74501 31.9184 9.57955 32.8153 9.57955V7.57955C31.6669 7.57955 30.5978 7.79287 29.6257 8.23879L30.4596 10.0567ZM32.8153 9.57955C34.0532 9.57955 35.1222 9.86849 36.0508 10.4257L37.0798 8.71069C35.8115 7.94969 34.3805 7.57955 32.8153 7.57955V9.57955ZM36.0508 10.4257C36.994 10.9916 37.7388 11.7661 38.2924 12.7678L40.0429 11.8004C39.3237 10.499 38.3336 9.46296 37.0798 8.71069L36.0508 10.4257ZM38.2937 12.7702C38.8354 13.744 39.1176 14.8886 39.1108 16.2336L41.1108 16.2437C41.1191 14.6039 40.7725 13.1121 40.0415 11.798L38.2937 12.7702ZM39.1108 16.2435C39.1176 17.6473 38.7941 18.8575 38.1633 19.9044L39.8764 20.9365C40.7154 19.544 41.1192 17.9663 41.1108 16.2338L39.1108 16.2435ZM38.1624 19.906C37.5334 20.9544 36.6522 21.785 35.4935 22.4012L36.4326 24.167C37.8952 23.3892 39.0519 22.3108 39.8774 20.9349L38.1624 19.906ZM35.4954 22.4002C34.3594 23.0012 33.0099 23.3182 31.4176 23.3182V25.3182C33.2799 25.3182 34.9607 24.9457 36.4307 24.168L35.4954 22.4002Z" fill="#001E3A" mask="url(#path-1-outside-1_2001_1159)"/>
</g>
</svg>
