<svg width="41" height="25" viewBox="0 0 41 25" fill="none" xmlns="http://www.w3.org/2000/svg">
<g opacity="0.6">
<mask id="path-1-outside-1_2001_1140" maskUnits="userSpaceOnUse" x="-1" y="-1" width="43" height="27" fill="black">
<rect fill="white" x="-1" y="-1" width="43" height="27"/>
<path d="M10.0114 24.5114C8.05682 24.5038 6.375 24.0227 4.96591 23.0682C3.56439 22.1136 2.48485 20.7311 1.72727 18.9205C0.977273 17.1098 0.606061 14.9318 0.613636 12.3864C0.613636 9.84848 0.988636 7.68561 1.73864 5.89773C2.49621 4.10985 3.57576 2.75 4.97727 1.81818C6.38636 0.878787 8.06439 0.40909 10.0114 0.40909C11.9583 0.40909 13.6326 0.878787 15.0341 1.81818C16.4432 2.75758 17.5265 4.12121 18.2841 5.90909C19.0417 7.68939 19.4167 9.84848 19.4091 12.3864C19.4091 14.9394 19.0303 17.1212 18.2727 18.9318C17.5227 20.7424 16.447 22.125 15.0455 23.0795C13.6439 24.0341 11.9659 24.5114 10.0114 24.5114ZM10.0114 20.4318C11.3447 20.4318 12.4091 19.7614 13.2045 18.4205C14 17.0795 14.3939 15.0682 14.3864 12.3864C14.3864 10.6212 14.2045 9.15151 13.8409 7.97727C13.4848 6.80303 12.9773 5.92045 12.3182 5.32954C11.6667 4.73864 10.8977 4.44318 10.0114 4.44318C8.68561 4.44318 7.625 5.10606 6.82955 6.43182C6.03409 7.75758 5.63258 9.74242 5.625 12.3864C5.625 14.1742 5.80303 15.6667 6.15909 16.8636C6.52273 18.053 7.03409 18.947 7.69318 19.5455C8.35227 20.1364 9.125 20.4318 10.0114 20.4318ZM31.8494 24.3182C30.6525 24.3106 29.4972 24.1098 28.3835 23.7159C27.2775 23.322 26.285 22.6818 25.4062 21.7955C24.5275 20.9091 23.8305 19.7348 23.3153 18.2727C22.8078 16.8106 22.554 15.0152 22.554 12.8864C22.5616 10.9318 22.785 9.18561 23.2244 7.64773C23.6714 6.10227 24.3078 4.79167 25.1335 3.71591C25.9669 2.64015 26.9631 1.82197 28.1222 1.26136C29.2813 0.693181 30.5805 0.40909 32.0199 0.40909C33.5729 0.40909 34.9441 0.712121 36.1335 1.31818C37.3229 1.91667 38.2775 2.73106 38.9972 3.76136C39.7244 4.79167 40.1638 5.94697 40.3153 7.22727H35.4631C35.2737 6.41667 34.8759 5.7803 34.2699 5.31818C33.6638 4.85606 32.9138 4.625 32.0199 4.625C30.5047 4.625 29.3532 5.28409 28.5653 6.60227C27.785 7.92045 27.3873 9.71212 27.3722 11.9773H27.5312C27.8797 11.2879 28.3494 10.7008 28.9403 10.2159C29.5388 9.72348 30.2169 9.34848 30.9744 9.09091C31.7396 8.82576 32.5464 8.69318 33.3949 8.69318C34.7737 8.69318 36.0009 9.01894 37.0767 9.67045C38.1525 10.3144 39.0009 11.2008 39.6222 12.3295C40.2434 13.4583 40.554 14.75 40.554 16.2045C40.554 17.7803 40.1866 19.1818 39.4517 20.4091C38.7244 21.6364 37.7055 22.5985 36.3949 23.2955C35.0919 23.9848 33.5767 24.3258 31.8494 24.3182ZM31.8267 20.4545C32.5843 20.4545 33.2623 20.2727 33.8608 19.9091C34.4593 19.5455 34.929 19.053 35.2699 18.4318C35.6108 17.8106 35.7812 17.1136 35.7812 16.3409C35.7812 15.5682 35.6108 14.875 35.2699 14.2614C34.9366 13.6477 34.4744 13.1591 33.8835 12.7955C33.2926 12.4318 32.6184 12.25 31.8608 12.25C31.2926 12.25 30.7661 12.3561 30.2812 12.5682C29.804 12.7803 29.3835 13.0758 29.0199 13.4545C28.6638 13.8333 28.3835 14.2727 28.179 14.7727C27.9744 15.2652 27.8722 15.7917 27.8722 16.3523C27.8722 17.1023 28.0426 17.7879 28.3835 18.4091C28.732 19.0303 29.2017 19.5265 29.7926 19.8977C30.3911 20.2689 31.0691 20.4545 31.8267 20.4545Z"/>
</mask>
<path d="M10.0114 24.5114C8.05682 24.5038 6.375 24.0227 4.96591 23.0682C3.56439 22.1136 2.48485 20.7311 1.72727 18.9205C0.977273 17.1098 0.606061 14.9318 0.613636 12.3864C0.613636 9.84848 0.988636 7.68561 1.73864 5.89773C2.49621 4.10985 3.57576 2.75 4.97727 1.81818C6.38636 0.878787 8.06439 0.40909 10.0114 0.40909C11.9583 0.40909 13.6326 0.878787 15.0341 1.81818C16.4432 2.75758 17.5265 4.12121 18.2841 5.90909C19.0417 7.68939 19.4167 9.84848 19.4091 12.3864C19.4091 14.9394 19.0303 17.1212 18.2727 18.9318C17.5227 20.7424 16.447 22.125 15.0455 23.0795C13.6439 24.0341 11.9659 24.5114 10.0114 24.5114ZM10.0114 20.4318C11.3447 20.4318 12.4091 19.7614 13.2045 18.4205C14 17.0795 14.3939 15.0682 14.3864 12.3864C14.3864 10.6212 14.2045 9.15151 13.8409 7.97727C13.4848 6.80303 12.9773 5.92045 12.3182 5.32954C11.6667 4.73864 10.8977 4.44318 10.0114 4.44318C8.68561 4.44318 7.625 5.10606 6.82955 6.43182C6.03409 7.75758 5.63258 9.74242 5.625 12.3864C5.625 14.1742 5.80303 15.6667 6.15909 16.8636C6.52273 18.053 7.03409 18.947 7.69318 19.5455C8.35227 20.1364 9.125 20.4318 10.0114 20.4318ZM31.8494 24.3182C30.6525 24.3106 29.4972 24.1098 28.3835 23.7159C27.2775 23.322 26.285 22.6818 25.4062 21.7955C24.5275 20.9091 23.8305 19.7348 23.3153 18.2727C22.8078 16.8106 22.554 15.0152 22.554 12.8864C22.5616 10.9318 22.785 9.18561 23.2244 7.64773C23.6714 6.10227 24.3078 4.79167 25.1335 3.71591C25.9669 2.64015 26.9631 1.82197 28.1222 1.26136C29.2813 0.693181 30.5805 0.40909 32.0199 0.40909C33.5729 0.40909 34.9441 0.712121 36.1335 1.31818C37.3229 1.91667 38.2775 2.73106 38.9972 3.76136C39.7244 4.79167 40.1638 5.94697 40.3153 7.22727H35.4631C35.2737 6.41667 34.8759 5.7803 34.2699 5.31818C33.6638 4.85606 32.9138 4.625 32.0199 4.625C30.5047 4.625 29.3532 5.28409 28.5653 6.60227C27.785 7.92045 27.3873 9.71212 27.3722 11.9773H27.5312C27.8797 11.2879 28.3494 10.7008 28.9403 10.2159C29.5388 9.72348 30.2169 9.34848 30.9744 9.09091C31.7396 8.82576 32.5464 8.69318 33.3949 8.69318C34.7737 8.69318 36.0009 9.01894 37.0767 9.67045C38.1525 10.3144 39.0009 11.2008 39.6222 12.3295C40.2434 13.4583 40.554 14.75 40.554 16.2045C40.554 17.7803 40.1866 19.1818 39.4517 20.4091C38.7244 21.6364 37.7055 22.5985 36.3949 23.2955C35.0919 23.9848 33.5767 24.3258 31.8494 24.3182ZM31.8267 20.4545C32.5843 20.4545 33.2623 20.2727 33.8608 19.9091C34.4593 19.5455 34.929 19.053 35.2699 18.4318C35.6108 17.8106 35.7812 17.1136 35.7812 16.3409C35.7812 15.5682 35.6108 14.875 35.2699 14.2614C34.9366 13.6477 34.4744 13.1591 33.8835 12.7955C33.2926 12.4318 32.6184 12.25 31.8608 12.25C31.2926 12.25 30.7661 12.3561 30.2812 12.5682C29.804 12.7803 29.3835 13.0758 29.0199 13.4545C28.6638 13.8333 28.3835 14.2727 28.179 14.7727C27.9744 15.2652 27.8722 15.7917 27.8722 16.3523C27.8722 17.1023 28.0426 17.7879 28.3835 18.4091C28.732 19.0303 29.2017 19.5265 29.7926 19.8977C30.3911 20.2689 31.0691 20.4545 31.8267 20.4545Z" fill="#001E3A"/>
<path d="M10.0114 24.5114L10.0075 25.5114H10.0114V24.5114ZM4.96591 23.0682L4.40299 23.8947L4.40506 23.8961L4.96591 23.0682ZM1.72727 18.9205L0.803391 19.3032L0.804768 19.3064L1.72727 18.9205ZM0.613636 12.3864L1.61364 12.3893V12.3864H0.613636ZM1.73864 5.89773L0.817879 5.50757L0.816487 5.51089L1.73864 5.89773ZM4.97727 1.81818L5.53093 2.65093L5.53197 2.65023L4.97727 1.81818ZM15.0341 1.81818L14.4773 2.64885L14.4794 2.65023L15.0341 1.81818ZM18.2841 5.90909L17.3633 6.29924L17.3639 6.30065L18.2841 5.90909ZM19.4091 12.3864L18.4091 12.3834V12.3864H19.4091ZM18.2727 18.9318L17.3502 18.5458L17.3489 18.5491L18.2727 18.9318ZM15.0455 23.0795L15.6084 23.9061L15.6084 23.9061L15.0455 23.0795ZM13.2045 18.4205L14.0646 18.9307L14.0646 18.9307L13.2045 18.4205ZM14.3864 12.3864L13.3864 12.3864L13.3864 12.3892L14.3864 12.3864ZM13.8409 7.97727L12.8839 8.26746L12.8857 8.27309L13.8409 7.97727ZM12.3182 5.32954L11.6464 6.07028L11.6506 6.07411L12.3182 5.32954ZM6.82955 6.43182L5.97205 5.91732L5.97205 5.91732L6.82955 6.43182ZM5.625 12.3864L4.625 12.3835V12.3864H5.625ZM6.15909 16.8636L5.20057 17.1488L5.20279 17.156L6.15909 16.8636ZM7.69318 19.5455L7.02092 20.2858L7.02564 20.29L7.69318 19.5455ZM10.0152 23.5114C8.22898 23.5044 6.74795 23.0675 5.52676 22.2403L4.40506 23.8961C6.00205 24.9779 7.88466 25.5031 10.0075 25.5114L10.0152 23.5114ZM5.52883 22.2417C4.31125 21.4124 3.34469 20.1953 2.64978 18.5345L0.804768 19.3064C1.62501 21.2668 2.81754 22.8149 4.40299 23.8947L5.52883 22.2417ZM2.65115 18.5378C1.96447 16.88 1.60634 14.8402 1.61363 12.3893L-0.386359 12.3834C-0.394216 15.0234 -0.00991963 17.3397 0.803397 19.3031L2.65115 18.5378ZM1.61364 12.3864C1.61364 9.94226 1.97539 7.91844 2.66079 6.28456L0.816487 5.51089C0.0018855 7.45277 -0.386364 9.75471 -0.386364 12.3864H1.61364ZM2.65939 6.28788C3.35262 4.65185 4.31642 3.45841 5.53093 2.65092L4.42361 0.98544C2.83509 2.04159 1.6398 3.56785 0.817885 5.50758L2.65939 6.28788ZM5.53197 2.65023C6.75322 1.83607 8.23144 1.40909 10.0114 1.40909V-0.59091C7.89735 -0.59091 6.01951 -0.0784934 4.42257 0.986132L5.53197 2.65023ZM10.0114 1.40909C11.7914 1.40909 13.2648 1.83611 14.4773 2.64885L15.5909 0.987516C14.0004 -0.0785323 12.1252 -0.59091 10.0114 -0.59091V1.40909ZM14.4794 2.65023C15.703 3.466 16.6705 4.66416 17.3633 6.29924L19.2048 5.51894C18.3825 3.57826 17.1833 2.04915 15.5888 0.986132L14.4794 2.65023ZM17.3639 6.30065C18.0547 7.92386 18.4164 9.94082 18.4091 12.3834L20.4091 12.3893C20.4169 9.75614 20.0287 7.45493 19.2042 5.51753L17.3639 6.30065ZM18.4091 12.3864C18.4091 14.8449 18.0438 16.8882 17.3502 18.5458L19.1952 19.3178C20.0168 17.3542 20.4091 15.0339 20.4091 12.3864H18.4091ZM17.3489 18.5491C16.6615 20.2085 15.6992 21.4244 14.4825 22.253L15.6084 23.9061C17.1948 22.8256 18.384 21.2763 19.1966 19.3145L17.3489 18.5491ZM14.4825 22.253C13.2713 23.078 11.7967 23.5114 10.0114 23.5114V25.5114C12.1351 25.5114 14.0166 24.9902 15.6084 23.9061L14.4825 22.253ZM10.0114 21.4318C11.7632 21.4318 13.1251 20.5143 14.0646 18.9307L12.3445 17.9103C11.693 19.0084 10.9262 19.4318 10.0114 19.4318V21.4318ZM14.0646 18.9307C14.9967 17.3593 15.3941 15.1318 15.3864 12.3835L13.3864 12.3892C13.3938 15.0045 13.0033 16.7998 12.3445 17.9103L14.0646 18.9307ZM15.3864 12.3864C15.3864 10.5607 15.1993 8.98325 14.7962 7.68145L12.8857 8.27309C13.2098 9.31978 13.3864 10.6817 13.3864 12.3864H15.3864ZM14.7979 7.68709C14.4084 6.40252 13.8239 5.33643 12.9857 4.58497L11.6506 6.07411C12.1307 6.50447 12.5613 7.20354 12.8839 8.26745L14.7979 7.68709ZM12.99 4.58882C12.1529 3.82964 11.144 3.44318 10.0114 3.44318V5.44318C10.6515 5.44318 11.1804 5.64763 11.6464 6.07026L12.99 4.58882ZM10.0114 3.44318C8.2704 3.44318 6.91271 4.34956 5.97205 5.91732L7.68704 6.94631C8.33729 5.86256 9.10081 5.44318 10.0114 5.44318V3.44318ZM5.97205 5.91732C5.03933 7.47186 4.63277 9.67186 4.625 12.3835L6.625 12.3892C6.63238 9.81298 7.02885 8.04329 7.68704 6.94631L5.97205 5.91732ZM4.625 12.3864C4.625 14.2329 4.80797 15.8288 5.2006 17.1488L7.11758 16.5785C6.79809 15.5045 6.625 14.1156 6.625 12.3864H4.625ZM5.20279 17.156C5.59913 18.4524 6.18582 19.5275 7.02093 20.2858L8.36543 18.8051C7.88236 18.3665 7.44632 17.6537 7.1154 16.5713L5.20279 17.156ZM7.02564 20.29C7.86845 21.0456 8.87898 21.4318 10.0114 21.4318V19.4318C9.37102 19.4318 8.8361 19.2271 8.36073 18.8009L7.02564 20.29ZM31.8494 24.3182L31.8431 25.3182L31.845 25.3182L31.8494 24.3182ZM28.3835 23.7159L28.048 24.6579L28.05 24.6587L28.3835 23.7159ZM25.4062 21.7955L24.6961 22.4995L24.6961 22.4995L25.4062 21.7955ZM23.3153 18.2727L22.3706 18.6007L22.3722 18.605L23.3153 18.2727ZM22.554 12.8864L21.554 12.8825V12.8864H22.554ZM23.2244 7.64773L22.2638 7.3699L22.2629 7.373L23.2244 7.64773ZM25.1335 3.71591L24.343 3.1035L24.3403 3.10701L25.1335 3.71591ZM28.1222 1.26136L28.5576 2.16161L28.5623 2.15928L28.1222 1.26136ZM36.1335 1.31818L35.6795 2.20919L35.684 2.21147L36.1335 1.31818ZM38.9972 3.76136L38.1774 4.33402L38.1802 4.33805L38.9972 3.76136ZM40.3153 7.22727V8.22727H41.4407L41.3084 7.10975L40.3153 7.22727ZM35.4631 7.22727L34.4893 7.45479L34.6698 8.22727H35.4631V7.22727ZM28.5653 6.60227L27.707 6.08922L27.7048 6.09288L28.5653 6.60227ZM27.3722 11.9773L26.3722 11.9706L26.3654 12.9773H27.3722V11.9773ZM27.5312 11.9773V12.9773H28.1463L28.4237 12.4284L27.5312 11.9773ZM28.9403 10.2159L29.5747 10.989L29.5757 10.9881L28.9403 10.2159ZM30.9744 9.09091L31.2963 10.0377L31.3019 10.0358L30.9744 9.09091ZM37.0767 9.67045L36.5587 10.5258L36.5631 10.5285L37.0767 9.67045ZM39.4517 20.4091L38.5937 19.8954L38.5914 19.8993L39.4517 20.4091ZM36.3949 23.2955L36.8625 24.1794L36.8644 24.1784L36.3949 23.2955ZM33.8608 19.9091L34.3801 20.7637L34.3801 20.7637L33.8608 19.9091ZM35.2699 18.4318L36.1466 18.9129L36.1466 18.9129L35.2699 18.4318ZM35.2699 14.2614L34.3911 14.7387L34.3957 14.747L35.2699 14.2614ZM33.8835 12.7955L34.4076 11.9438L34.4076 11.9438L33.8835 12.7955ZM30.2812 12.5682L29.8804 11.652L29.8751 11.6544L30.2812 12.5682ZM29.0199 13.4545L28.2985 12.762L28.2913 12.7696L29.0199 13.4545ZM28.179 14.7727L29.1025 15.1563L29.1045 15.1514L28.179 14.7727ZM28.3835 18.4091L27.5068 18.8902L27.5114 18.8983L28.3835 18.4091ZM29.7926 19.8977L29.2607 20.7445L29.2655 20.7475L29.7926 19.8977ZM31.8558 23.3182C30.7688 23.3113 29.7241 23.1294 28.717 22.7732L28.05 24.6587C29.2702 25.0903 30.5362 25.3099 31.8431 25.3182L31.8558 23.3182ZM28.719 22.7739C27.7629 22.4333 26.8965 21.8782 26.1164 21.0914L24.6961 22.4995C25.6736 23.4854 26.792 24.2106 28.048 24.6579L28.719 22.7739ZM26.1164 21.0914C25.3639 20.3324 24.7361 19.2959 24.2585 17.9404L22.3722 18.605C22.9249 20.1738 23.691 21.4857 24.6961 22.4995L26.1164 21.0914ZM24.26 17.9448C23.8 16.6195 23.554 14.9424 23.554 12.8864H21.554C21.554 15.0879 21.8156 17.0017 22.3706 18.6007L24.26 17.9448ZM23.554 12.8902C23.5613 11.0078 23.7766 9.35527 24.186 7.92245L22.2629 7.373C21.7935 9.01594 21.5618 10.8558 21.554 12.8825L23.554 12.8902ZM24.1851 7.92556C24.6037 6.47808 25.1897 5.28504 25.9268 4.32481L24.3403 3.10701C23.4258 4.29829 22.7391 5.72647 22.2638 7.3699L24.1851 7.92556ZM25.9241 4.32831C26.6684 3.3675 27.5454 2.65115 28.5576 2.1616L27.6868 0.361129C26.3808 0.99279 25.2654 1.9128 24.343 3.10351L25.9241 4.32831ZM28.5623 2.15928C29.5693 1.66566 30.7153 1.40909 32.0199 1.40909V-0.59091C30.4456 -0.59091 28.9932 -0.279295 27.682 0.363441L28.5623 2.15928ZM32.0199 1.40909C33.4409 1.40909 34.652 1.68563 35.6795 2.20918L36.5875 0.427186C35.2362 -0.261388 33.7049 -0.59091 32.0199 -0.59091V1.40909ZM35.684 2.21147C36.7344 2.74 37.5583 3.44774 38.1774 4.33402L39.817 3.18871C38.9967 2.01438 37.9114 1.09333 36.583 0.424895L35.684 2.21147ZM38.1802 4.33805C38.8093 5.22922 39.1899 6.22598 39.3223 7.3448L41.3084 7.10975C41.1378 5.66796 40.6396 4.35412 39.8141 3.18468L38.1802 4.33805ZM40.3153 6.22727H35.4631V8.22727H40.3153V6.22727ZM36.4368 6.99975C36.1998 5.98532 35.6844 5.13922 34.8762 4.52298L33.6635 6.11339C34.0675 6.42138 34.3475 6.84801 34.4893 7.45479L36.4368 6.99975ZM34.8762 4.52298C34.0671 3.906 33.0936 3.625 32.0199 3.625V5.625C32.7341 5.625 33.2606 5.80613 33.6635 6.11339L34.8762 4.52298ZM32.0199 3.625C30.147 3.625 28.6724 4.47406 27.707 6.08923L29.4237 7.11532C30.0341 6.09412 30.8624 5.625 32.0199 5.625V3.625ZM27.7048 6.09288C26.8012 7.6193 26.388 9.6074 26.3722 11.9706L28.3721 11.984C28.3866 9.81684 28.7688 8.22161 29.4259 7.11167L27.7048 6.09288ZM27.3722 12.9773H27.5312V10.9773H27.3722V12.9773ZM28.4237 12.4284C28.7101 11.8617 29.0924 11.3847 29.5747 10.989L28.306 9.44284C27.6065 10.0168 27.0493 10.714 26.6388 11.5261L28.4237 12.4284ZM29.5757 10.9881C30.0781 10.5748 30.6492 10.2577 31.2963 10.0377L30.6525 8.14414C29.7846 8.43924 28.9996 8.87218 28.305 9.4437L29.5757 10.9881ZM31.3019 10.0358C31.9567 9.80884 32.6525 9.69318 33.3949 9.69318V7.69318C32.4403 7.69318 31.5224 7.84267 30.647 8.14603L31.3019 10.0358ZM33.3949 9.69318C34.6092 9.69318 35.654 9.9779 36.5587 10.5258L37.5947 8.81509C36.3479 8.05997 34.9382 7.69318 33.3949 7.69318V9.69318ZM36.5631 10.5285C37.4825 11.0788 38.2078 11.8336 38.7461 12.8117L40.4983 11.8474C39.7941 10.5679 38.8224 9.54995 37.5903 8.81243L36.5631 10.5285ZM38.7461 12.8117C39.276 13.7746 39.554 14.8965 39.554 16.2045H41.554C41.554 14.6035 41.2108 13.1421 40.4983 11.8474L38.7461 12.8117ZM39.554 16.2045C39.554 17.6183 39.2264 18.8388 38.5937 19.8954L40.3097 20.9228C41.1467 19.5248 41.554 17.9423 41.554 16.2045H39.554ZM38.5914 19.8993C37.9616 20.9621 37.0808 21.7981 35.9254 22.4125L36.8644 24.1784C38.3302 23.3989 39.4873 22.3106 40.312 20.9189L38.5914 19.8993ZM35.9272 22.4115C34.7927 23.0118 33.4449 23.3252 31.8538 23.3182L31.845 25.3182C33.7085 25.3263 35.391 24.9579 36.8625 24.1794L35.9272 22.4115ZM31.8267 21.4545C32.7519 21.4545 33.6123 21.2302 34.3801 20.7637L33.3415 19.0545C32.9123 19.3153 32.4167 19.4545 31.8267 19.4545V21.4545ZM34.3801 20.7637C35.1302 20.3079 35.7224 19.6859 36.1466 18.9129L34.3932 17.9507C34.1356 18.4202 33.7883 18.783 33.3415 19.0545L34.3801 20.7637ZM36.1466 18.9129C36.5756 18.1312 36.7812 17.2662 36.7812 16.3409H34.7812C34.7812 16.9611 34.646 17.4901 34.3932 17.9507L36.1466 18.9129ZM36.7812 16.3409C36.7812 15.4158 36.5756 14.5525 36.144 13.7757L34.3957 14.747C34.646 15.1975 34.7812 15.7206 34.7812 16.3409H36.7812ZM36.1486 13.784C35.7324 13.0178 35.1484 12.3997 34.4076 11.9438L33.3594 13.6471C33.8004 13.9185 34.1407 14.2776 34.3912 14.7387L36.1486 13.784ZM34.4076 11.9438C33.6448 11.4743 32.7858 11.25 31.8608 11.25V13.25C32.4509 13.25 32.9405 13.3893 33.3594 13.6471L34.4076 11.9438ZM31.8608 11.25C31.165 11.25 30.5008 11.3806 29.8804 11.652L30.6821 13.4843C31.0314 13.3315 31.4203 13.25 31.8608 13.25V11.25ZM29.8751 11.6544C29.2788 11.9194 28.7514 12.2902 28.2985 12.762L29.7413 14.1471C30.0157 13.8613 30.3292 13.6412 30.6874 13.482L29.8751 11.6544ZM28.2913 12.7696C27.8481 13.2411 27.5025 13.7853 27.2534 14.3941L29.1045 15.1514C29.2646 14.7601 29.4796 14.4256 29.7485 14.1395L28.2913 12.7696ZM27.2555 14.3891C26.9979 15.0093 26.8722 15.6669 26.8722 16.3523H28.8722C28.8722 15.9164 28.951 15.521 29.1025 15.1563L27.2555 14.3891ZM26.8722 16.3523C26.8722 17.2603 27.0803 18.1129 27.5069 18.8902L29.2602 17.928C29.0049 17.4629 28.8722 16.9442 28.8722 16.3523H26.8722ZM27.5114 18.8983C27.9398 19.6621 28.5252 20.2825 29.2607 20.7445L30.3246 19.051C29.8782 18.7705 29.5242 18.3985 29.2557 17.9198L27.5114 18.8983ZM29.2655 20.7475C30.0343 21.2244 30.8975 21.4545 31.8267 21.4545V19.4545C31.2407 19.4545 30.7479 19.3135 30.3197 19.0479L29.2655 20.7475Z" fill="#001E3A" mask="url(#path-1-outside-1_2001_1140)"/>
</g>
</svg>
