<svg width="40" height="40" viewBox="0 0 40 40" fill="none" xmlns="http://www.w3.org/2000/svg">
<rect y="0.378174" width="40" height="39" rx="19.5" fill="white"/>
<path d="M2.21564 19.546L5.22787 17.4854C5.51758 17.287 5.71925 17.06 5.88179 16.7492L8.58775 11.569C9.07988 10.6261 9.92417 9.99029 10.9227 9.7791V8.02016C10.9227 6.97024 11.7753 6.11566 12.8228 6.11566C13.8702 6.11566 14.7228 6.97024 14.7228 8.02016V9.70141H35.5947C36.9687 9.70066 38.0869 10.8215 38.0869 12.1995V27.2236V28.9448C38.0869 29.7632 37.4225 30.4285 36.606 30.4285H34.3124C33.6013 31.9973 32.0248 33.0917 30.1963 33.0917C28.3685 33.0917 26.7913 31.9973 26.0809 30.4285H13.1162C12.4051 31.9973 10.8287 33.0917 9.00086 33.0917C7.17306 33.0917 5.59584 31.9973 4.88474 30.4285H2.39399C1.57754 30.4285 0.913086 29.7624 0.913086 28.9448V27.2236V22.0162C0.913837 20.9972 1.37587 20.12 2.21564 19.546ZM9.52008 12.0585L6.92173 17.0328H15.0622V10.7574H11.6662C10.7346 10.7566 9.95201 11.231 9.52008 12.0585ZM13.6678 8.01941C13.6678 7.55177 13.2878 7.17087 12.8213 7.17087C12.3547 7.17087 11.9747 7.55177 11.9747 8.01941V9.70066H13.6678V8.01941ZM35.5947 10.7566H16.1157V17.56C16.1157 17.8519 15.8801 18.088 15.5889 18.088H6.16247C6.05712 18.1831 5.945 18.2728 5.82159 18.3565L2.80936 20.4172C2.35787 20.7257 2.08095 21.1526 1.99592 21.6647H23.5909V20.1192H21.6653C21.2958 20.1192 20.9948 19.8175 20.9948 19.4472V15.6548C20.9948 15.2844 21.2958 14.9827 21.6653 14.9827H23.5909V13.0526C23.5909 12.6822 23.8919 12.3805 24.2614 12.3805H28.0449C28.4144 12.3805 28.7154 12.6822 28.7154 13.0526V14.9827H30.641C31.0105 14.9827 31.3115 15.2844 31.3115 15.6548V19.4472C31.3115 19.8175 31.0105 20.1192 30.641 20.1192H28.7154V22.0494C28.7154 22.4197 28.4144 22.7214 28.0449 22.7214H24.2614H1.96733V26.6956H4.88474C5.59584 25.1268 7.17231 24.0323 9.00086 24.0323C10.8287 24.0323 12.4059 25.1268 13.1162 26.6956H26.0809C26.792 25.1268 28.3685 24.0323 30.1963 24.0323C32.0241 24.0323 33.6013 25.1268 34.3124 26.6956H37.0334V22.7214H34.9505C34.6593 22.7214 34.4238 22.4854 34.4238 22.1935C34.4238 21.9016 34.6593 21.6655 34.9505 21.6655H37.0334V20.2158H34.1634C33.8722 20.2158 33.6367 19.9797 33.6367 19.6878C33.6367 19.3959 33.8722 19.1598 34.1634 19.1598H37.0334V12.1995C37.0334 11.4038 36.3878 10.7566 35.5947 10.7566ZM28.3316 19.0633H30.2572V16.0387H28.3316C27.9621 16.0387 27.6611 15.737 27.6611 15.3667V13.4365H24.6444V15.3667C24.6444 15.737 24.3434 16.0387 23.9739 16.0387H22.0483V19.0633H23.9739C24.3434 19.0633 24.6444 19.365 24.6444 19.7353V21.6655H27.6611V19.7353C27.6611 19.365 27.9621 19.0633 28.3316 19.0633ZM36.606 29.3725C36.8415 29.3725 37.0334 29.1802 37.0334 28.9448V27.7516H34.642C34.6894 28.0148 34.7158 28.2856 34.7158 28.5624C34.7158 28.8392 34.6894 29.11 34.642 29.3732H36.606V29.3725ZM30.197 32.035C32.1076 32.035 33.6623 30.4767 33.6623 28.5617C33.6623 26.6466 32.1076 25.0883 30.197 25.0883C28.2865 25.0883 26.7318 26.6466 26.7318 28.5617C26.7318 30.4767 28.2857 32.035 30.197 32.035ZM25.7521 29.3725C25.7047 29.1093 25.6783 28.8385 25.6783 28.5617C25.6783 28.2849 25.7047 28.0141 25.7521 27.7508H13.4458C13.4932 28.0141 13.5196 28.2849 13.5196 28.5617C13.5196 28.8385 13.4932 29.1093 13.4458 29.3725H25.7521ZM9.00086 32.035C10.9114 32.035 12.4661 30.4767 12.4661 28.5617C12.4661 26.6466 10.9114 25.0883 9.00086 25.0883C7.09029 25.0883 5.53564 26.6466 5.53564 28.5617C5.53564 30.4767 7.08953 32.035 9.00086 32.035ZM2.39474 29.3725H4.5559C4.50849 29.1093 4.48215 28.8385 4.48215 28.5617C4.48215 28.2849 4.50849 28.0141 4.5559 27.7508H1.96733V28.9441C1.96733 29.1802 2.15921 29.3725 2.39474 29.3725ZM9.00086 26.1601C10.3222 26.1601 11.3968 27.2379 11.3968 28.5617C11.3968 29.8854 10.3215 30.9632 9.00086 30.9632C7.68024 30.9632 6.60493 29.8854 6.60493 28.5617C6.60493 27.2379 7.67949 26.1601 9.00086 26.1601ZM9.00086 29.908C9.74131 29.908 10.3433 29.3046 10.3433 28.5624C10.3433 27.8202 9.74131 27.2168 9.00086 27.2168C8.26041 27.2168 7.65842 27.8202 7.65842 28.5624C7.65842 29.3046 8.26041 29.908 9.00086 29.908ZM30.197 26.1601C31.5184 26.1601 32.593 27.2379 32.593 28.5617C32.593 29.8854 31.5177 30.9632 30.197 30.9632C28.8764 30.9632 27.8011 29.8854 27.8011 28.5617C27.8011 27.2379 28.8757 26.1601 30.197 26.1601ZM30.197 29.908C30.9375 29.908 31.5395 29.3046 31.5395 28.5624C31.5395 27.8202 30.9375 27.2168 30.197 27.2168C29.4566 27.2168 28.8546 27.8202 28.8546 28.5624C28.8546 29.3046 29.4566 29.908 30.197 29.908ZM13.348 4.12064V2.80899C13.348 2.51709 13.1125 2.28101 12.8213 2.28101C12.53 2.28101 12.2945 2.51709 12.2945 2.80899V4.12064C12.2945 4.41254 12.53 4.64863 12.8213 4.64863C13.1125 4.64863 13.348 4.41179 13.348 4.12064ZM11.3328 4.3786L10.6782 3.24269C10.5329 2.99001 10.2109 2.90327 9.95879 3.0496C9.7067 3.19517 9.62016 3.51799 9.76615 3.77067L10.4208 4.90658C10.5186 5.07629 10.6955 5.17057 10.8776 5.17057C10.9671 5.17057 11.0574 5.14795 11.1402 5.09967C11.3923 4.9541 11.4781 4.63128 11.3328 4.3786ZM9.71573 5.61257L8.58248 4.95636C8.33039 4.81079 8.00833 4.89678 7.8631 5.14945C7.71786 5.40213 7.80365 5.72495 8.05573 5.87053L9.18899 6.52673C9.27176 6.57501 9.36281 6.59763 9.4516 6.59763C9.63371 6.59763 9.81054 6.5026 9.90837 6.33364C10.0543 6.08172 9.96781 5.75814 9.71573 5.61257ZM8.93163 7.49143H7.62305C7.33184 7.49143 7.09631 7.72751 7.09631 8.01941C7.09631 8.31131 7.33184 8.54739 7.62305 8.54739H8.93163C9.22285 8.54739 9.45838 8.31131 9.45838 8.01941C9.45838 7.72751 9.22209 7.49143 8.93163 7.49143ZM15.8771 3.77067C16.0224 3.51799 15.9366 3.19517 15.6845 3.0496C15.4324 2.90402 15.1103 2.99001 14.9651 3.24269L14.3112 4.3786C14.166 4.63128 14.2517 4.9541 14.5038 5.09967C14.5866 5.14795 14.6777 5.17057 14.7665 5.17057C14.9486 5.17057 15.1254 5.07554 15.2232 4.90658L15.8771 3.77067ZM17.7802 5.15021C17.635 4.89753 17.3129 4.81155 17.0608 4.95712L15.9275 5.61332C15.6755 5.7589 15.5889 6.08172 15.7349 6.3344C15.8327 6.5041 16.0096 6.59839 16.1917 6.59839C16.2812 6.59839 16.3715 6.57576 16.4543 6.52749L17.5875 5.87204C17.8389 5.72571 17.9254 5.40289 17.7802 5.15021ZM18.547 8.01941C18.547 7.72751 18.3114 7.49143 18.0202 7.49143H16.7116C16.4204 7.49143 16.1849 7.72751 16.1849 8.01941C16.1849 8.31131 16.4204 8.54739 16.7116 8.54739H18.0202C18.3114 8.54739 18.547 8.31131 18.547 8.01941Z" fill="#252B61"/>
</svg>
