<svg width="23" height="18" viewBox="0 0 23 18" fill="none" xmlns="http://www.w3.org/2000/svg">
<path d="M13.8517 14.2347H14.8022V15.2218C14.8022 15.4777 15.0215 15.6971 15.2774 15.6971C15.5333 15.6971 15.7527 15.4777 15.7527 15.2218V14.2347H16.7397C16.9957 14.2347 17.215 14.0154 17.215 13.7595C17.215 13.5036 16.9957 13.2842 16.7397 13.2842H15.7527V12.2972C15.7527 12.0413 15.5333 11.8219 15.2774 11.8219C15.0215 11.8219 14.8022 12.0778 14.8022 12.3337V13.3208H13.8151C13.5592 13.3208 13.3398 13.5401 13.3398 13.7961C13.3398 14.052 13.5958 14.2347 13.8517 14.2347Z" fill="#252B61"/>
<path d="M10.5574 17.3051H19.9528C20.5378 17.3051 21.0496 16.8298 21.0496 16.2084V11.1633H22.1829C22.4388 11.1633 22.6581 10.944 22.6581 10.6881C22.6581 10.4322 22.4388 10.2128 22.1829 10.2128H8.36393C8.10802 10.2128 7.88867 10.4322 7.88867 10.6881C7.88867 10.944 8.10802 11.1633 8.36393 11.1633H9.49723V16.2084C9.46067 16.8298 9.97248 17.3051 10.5574 17.3051ZM10.3746 11.1633H20.1356V16.2084C20.1356 16.318 20.0625 16.3911 19.9528 16.3911H10.5574C10.4477 16.3911 10.3746 16.318 10.3746 16.2084V11.1633Z" fill="#252B61"/>
<path d="M13.6312 6.48421C13.3753 6.667 13.0829 6.9229 12.9366 7.25193C12.7904 7.54439 12.7904 7.90997 12.827 8.16588V8.27555V9.00671C12.827 9.26262 13.0463 9.44541 13.3022 9.44541C13.5581 9.44541 13.7409 9.22606 13.7409 8.97016C13.7409 8.23899 13.7409 8.20244 13.7409 8.20244V8.09276C13.7409 7.90997 13.7409 7.69062 13.7775 7.58095C13.8506 7.43472 14.0334 7.28848 14.2162 7.14225C14.3258 7.06914 14.4355 6.99602 14.5452 6.9229L15.057 6.63044C15.1301 6.59388 15.2398 6.55732 15.3129 6.48421C15.3129 6.48421 15.3495 6.48421 15.3495 6.44765C15.4591 6.55732 15.5688 6.667 15.6785 6.77667C15.9344 6.99602 16.1537 7.21537 16.4096 7.43472L16.958 7.94653L17.2505 7.65406C17.6161 7.32504 17.9451 7.03258 18.2741 6.70355C18.3472 6.63044 18.4569 6.55732 18.53 6.44765L18.5666 6.48421C18.6397 6.52076 18.7494 6.55732 18.8225 6.59388L18.9322 6.63044C19.0418 6.667 19.1149 6.74011 19.1515 6.74011L19.444 6.9229C19.5171 6.95946 19.5902 7.03258 19.6633 7.06913C19.8461 7.17881 20.0289 7.32504 20.102 7.47127C20.1386 7.58095 20.1386 7.8003 20.1386 7.98309V8.0562V8.82392C20.1386 9.07983 20.3579 9.29918 20.5773 9.29918C20.8332 9.29918 21.016 9.07983 21.0525 8.86048C21.0525 8.56802 21.0525 8.16588 21.0525 8.12932V8.0562C21.0525 7.8003 21.0891 7.43472 20.9428 7.14225C20.7966 6.81323 20.5042 6.55732 20.2482 6.37453C20.1751 6.30142 20.0655 6.26486 19.9558 6.19174L19.6268 6.00895C19.5536 5.97239 19.444 5.89928 19.3709 5.86272L19.2612 5.82616C19.1515 5.7896 19.0784 5.71649 18.9687 5.67993L18.9322 5.64337C18.7859 5.57025 18.3472 5.3509 18.0182 5.71649C17.9816 5.75304 17.9816 5.75304 17.9451 5.7896C17.8354 5.89928 17.7623 5.97239 17.6526 6.08207C17.4333 6.30142 17.1774 6.52076 16.958 6.74011C16.7387 6.55732 16.5193 6.33797 16.3 6.11862C16.1903 6.00895 16.0806 5.89928 15.9709 5.82616L15.8613 5.71649C15.6054 5.46058 15.3495 5.49714 15.1667 5.57025C15.0936 5.60681 14.9839 5.64337 14.9108 5.67993C14.8011 5.71649 14.728 5.7896 14.6183 5.82616L14.0334 6.19174C13.8871 6.30141 13.7775 6.37453 13.6312 6.48421Z" fill="#252B61"/>
<path d="M18.1278 3.92511L18.0912 4.1079C18.0181 4.3638 18.1643 4.61971 18.3837 4.69283C18.4202 4.69283 18.4568 4.72938 18.5299 4.72938C18.7127 4.72938 18.8955 4.58315 18.9686 4.40036L19.0417 4.21757C19.0783 4.07134 19.1514 3.92511 19.1879 3.74232C19.2976 3.26706 19.3342 2.86492 19.2976 2.46278C19.1879 1.32948 18.4202 0.525204 17.3235 0.452087C17.2504 0.452087 17.1772 0.452087 17.1041 0.452087C16.2999 0.452087 15.7149 0.634878 15.3128 1.00046C14.9106 1.4026 14.6547 1.95097 14.6182 2.57246C14.5816 3.12083 14.6913 3.70576 14.9472 4.40036C15.0203 4.54659 15.1666 4.69283 15.3128 4.69283C15.5687 4.72938 15.788 4.54659 15.8246 4.29069C15.8246 4.18101 15.8246 4.1079 15.788 4.03478C15.5687 3.44985 15.4956 3.01115 15.5321 2.60901C15.5687 2.20688 15.7149 1.87785 15.9343 1.6585C16.1536 1.43916 16.5558 1.36604 17.0676 1.36604H17.2504C17.9084 1.43916 18.3471 1.87785 18.4202 2.57246C18.4568 2.86492 18.4202 3.15739 18.3106 3.52297C18.2374 3.63264 18.2009 3.77887 18.1278 3.92511Z" fill="#252B61"/>
<path d="M2.65994 5.24129C3.68356 5.24129 4.48784 4.40045 4.48784 3.41338C4.48784 2.42632 3.647 1.58548 2.65994 1.58548C1.63631 1.58548 0.832031 2.42632 0.832031 3.41338C0.832031 4.40045 1.63631 5.24129 2.65994 5.24129ZM2.65994 2.46287C3.17175 2.46287 3.57389 2.86501 3.57389 3.37683C3.57389 3.88864 3.17175 4.29078 2.65994 4.29078C2.14812 4.29078 1.74598 3.88864 1.74598 3.37683C1.74598 2.86501 2.14812 2.46287 2.65994 2.46287Z" fill="#252B61"/>
<path d="M7.15766 14.4909C6.93832 15.4048 6.68241 16.3188 6.46306 17.2693C6.38994 17.5252 6.53618 17.7446 6.79208 17.8177H6.90176C7.12111 17.8177 7.3039 17.6714 7.34046 17.4887C7.5598 16.5747 7.81571 15.6607 8.03506 14.7102L8.10818 14.4909C8.29097 13.8328 8.51031 13.0286 8.07162 12.334C7.77915 11.8221 7.19422 11.7856 7.01143 11.7856C6.8652 11.7856 5.2932 11.6394 4.70827 11.5662C4.48892 11.5297 4.30613 11.5297 4.08678 11.4931C3.83088 11.4566 3.61153 11.6394 3.57497 11.8953C3.53841 12.1512 3.7212 12.3705 3.97711 12.4071C4.1599 12.4436 4.37925 12.4436 4.56204 12.4802C5.18353 12.5533 6.75553 12.6995 6.93832 12.6995C7.19422 12.6995 7.26734 12.7727 7.26734 12.7727C7.48669 13.1748 7.34046 13.7232 7.19422 14.2715C7.19422 14.3081 7.15766 14.4178 7.15766 14.4909Z" fill="#252B61"/>
<path d="M0.394118 8.09273C0.357559 9.18947 0.613466 10.2497 0.905931 11.2002C1.01561 11.6023 1.12528 12.041 1.23495 12.4797C1.52742 13.4668 2.03923 14.1248 2.77039 14.3807C3.20909 14.527 3.68435 14.6001 4.12304 14.6001C4.52518 14.6001 4.92732 14.5635 5.32946 14.527L5.21979 13.613C4.48862 13.6861 3.68435 13.7592 3.06286 13.5399C2.62416 13.3571 2.29514 12.955 2.07579 12.2238C1.96612 11.8217 1.85644 11.383 1.74677 10.9808C1.49086 10.0669 1.27151 9.0798 1.27151 8.12929C1.27151 7.54436 1.38119 7.32501 1.63709 7.17878C1.92956 7.03254 2.29514 7.14222 2.51449 7.32501C2.66072 7.43468 2.80695 7.58092 2.88007 7.76371C2.91663 7.83682 2.91663 7.87338 2.95318 7.9465C2.98974 8.09273 3.06286 8.23896 3.09942 8.38519C3.09942 8.45831 3.09942 8.49487 3.13598 8.56798C3.17253 8.97012 3.20909 9.55505 3.75746 9.84752H3.79402C4.04993 9.99375 5.95095 10.9808 5.95095 10.9808C6.1703 11.0905 6.46276 11.0174 6.57244 10.798C6.68211 10.5787 6.60899 10.2862 6.38965 10.1765C4.78109 9.3357 4.34239 9.0798 4.19616 9.04324C4.08649 9.00668 4.04993 8.67766 4.04993 8.49487C4.04993 8.42175 4.04993 8.34864 4.01337 8.23896C3.97681 8.01961 3.90369 7.80026 3.83058 7.61747C3.79402 7.54436 3.75746 7.47124 3.7209 7.36157C3.57467 7.0691 3.31877 6.8132 3.06286 6.59385C2.51449 6.19171 1.81988 6.11859 1.27151 6.3745C0.394117 6.77664 0.394118 7.61747 0.394118 8.09273Z" fill="#252B61"/>
</svg>
