<svg xmlns="http://www.w3.org/2000/svg" width="42" height="42" viewBox="0 0 42 42" fill="none">
  <g clip-path="url(#clip0_2873_2440)">
    <path d="M19.3594 41.3438L19.6875 34.7812H22.3125L22.6406 41.3438H19.3594Z" fill="#8EA0B3"/>
    <path d="M21 36.0938C25.7117 36.0938 29.5312 32.2742 29.5312 27.5625C29.5312 22.8508 25.7117 19.0312 21 19.0312C16.2883 19.0312 12.4688 22.8508 12.4688 27.5625C12.4688 32.2742 16.2883 36.0938 21 36.0938Z" fill="#F2F2F2"/>
    <path d="M17.7188 32.1562V28.5469C17.7188 27.9377 17.9607 27.3535 18.3915 26.9227C18.8222 26.492 19.4065 26.25 20.0156 26.25H21.9844C22.5935 26.25 23.1778 26.492 23.6085 26.9227C24.0393 27.3535 24.2812 27.9377 24.2812 28.5469V32.1562H17.7188Z" fill="#4993F2"/>
    <path d="M21 25.5938C21.9967 25.5938 22.8047 24.7858 22.8047 23.7891C22.8047 22.7924 21.9967 21.9844 21 21.9844C20.0033 21.9844 19.1953 22.7924 19.1953 23.7891C19.1953 24.7858 20.0033 25.5938 21 25.5938Z" fill="#FFC173"/>
    <path d="M5.90625 14.4375C8.44331 14.4375 10.5 12.3808 10.5 9.84375C10.5 7.30669 8.44331 5.25 5.90625 5.25C3.36919 5.25 1.3125 7.30669 1.3125 9.84375C1.3125 12.3808 3.36919 14.4375 5.90625 14.4375Z" fill="#FAD033"/>
    <path d="M36.0938 7.29422L35.4336 6.5625C35.2321 6.32772 34.9821 6.13928 34.7009 6.0101C34.4197 5.88091 34.1139 5.81403 33.8045 5.81403C33.495 5.81403 33.1893 5.88091 32.9081 6.0101C32.6269 6.13928 32.3769 6.32772 32.1754 6.5625C31.7947 7.00209 31.5622 7.55042 31.5108 8.12965C31.4595 8.70887 31.5919 9.28956 31.8892 9.78928C32.532 10.8637 33.3735 11.806 34.3685 12.5659L36.0938 13.8738L37.8198 12.5659C38.8148 11.806 39.6563 10.8637 40.2991 9.78928C40.5964 9.28956 40.7288 8.70887 40.6775 8.12965C40.6261 7.55042 40.3936 7.00209 40.0129 6.5625C39.8114 6.32772 39.5614 6.13928 39.2802 6.0101C38.999 5.88091 38.6933 5.81403 38.3838 5.81403C38.0744 5.81403 37.7686 5.88091 37.4874 6.0101C37.2062 6.13928 36.9562 6.32772 36.7547 6.5625L36.0938 7.29422Z" fill="#FF6668"/>
    <path d="M21 4.59375C21.9061 4.59375 22.6406 3.85922 22.6406 2.95312C22.6406 2.04703 21.9061 1.3125 21 1.3125C20.0939 1.3125 19.3594 2.04703 19.3594 2.95312C19.3594 3.85922 20.0939 4.59375 21 4.59375Z" fill="#FFC173"/>
    <path d="M18.945 36.5098L18.7035 41.3109L20.016 41.3766L20.2502 36.7119C20.4983 36.7323 20.7477 36.75 21.001 36.75C21.2543 36.75 21.5037 36.7323 21.7517 36.7119L21.9847 41.3766L23.2972 41.3109L23.0564 36.5098C25.2567 36.0048 27.1941 34.7072 28.4988 32.8648C29.8036 31.0224 30.3842 28.7642 30.1301 26.5209C29.876 24.2777 28.8048 22.2065 27.121 20.7027C25.4371 19.1989 23.2586 18.3677 21.001 18.3677C18.7434 18.3677 16.5648 19.1989 14.881 20.7027C13.1972 22.2065 12.126 24.2777 11.8719 26.5209C11.6178 28.7642 12.1984 31.0224 13.5032 32.8648C14.8079 34.7072 16.7446 36.0048 18.945 36.5098ZM21.0003 19.6875C22.5579 19.6875 24.0804 20.1494 25.3755 21.0147C26.6705 21.88 27.6799 23.1099 28.2759 24.5489C28.8719 25.9878 29.0279 27.5712 28.724 29.0988C28.4202 30.6264 27.6701 32.0296 26.5688 33.131C25.4675 34.2323 24.0643 34.9823 22.5367 35.2862C21.0091 35.59 19.4257 35.4341 17.9867 34.8381C16.5477 34.242 15.3178 33.2327 14.4525 31.9376C13.5872 30.6426 13.1253 29.12 13.1253 27.5625C13.1276 25.4746 13.958 23.4729 15.4344 21.9965C16.9107 20.5202 18.9125 19.6898 21.0003 19.6875Z" fill="black"/>
    <path d="M20.3438 12.4688H21.6562V16.4062H20.3438V12.4688Z" fill="black"/>
    <path d="M17.7188 32.8125H24.2812C24.4553 32.8125 24.6222 32.7434 24.7453 32.6203C24.8684 32.4972 24.9375 32.3303 24.9375 32.1563V28.5469C24.9365 27.8682 24.7022 27.2105 24.2739 26.684C23.8455 26.1576 23.2492 25.7944 22.5848 25.6554C22.971 25.3304 23.2478 24.8945 23.3778 24.4069C23.5079 23.9192 23.4849 23.4034 23.3119 22.9292C23.1389 22.4551 22.8243 22.0456 22.4107 21.7563C21.9972 21.467 21.5047 21.3118 21 21.3118C20.4953 21.3118 20.0028 21.467 19.5893 21.7563C19.1757 22.0456 18.8611 22.4551 18.6881 22.9292C18.5151 23.4034 18.4921 23.9192 18.6222 24.4069C18.7522 24.8945 19.029 25.3304 19.4152 25.6554C18.7508 25.7944 18.1545 26.1576 17.7261 26.684C17.2978 27.2105 17.0635 27.8682 17.0625 28.5469V32.1563C17.0625 32.3303 17.1316 32.4972 17.2547 32.6203C17.3778 32.7434 17.5447 32.8125 17.7188 32.8125ZM21 22.6406C21.2271 22.6406 21.4492 22.708 21.638 22.8342C21.8269 22.9604 21.9741 23.1397 22.061 23.3496C22.1479 23.5594 22.1707 23.7903 22.1264 24.0131C22.0821 24.2359 21.9727 24.4405 21.8121 24.6011C21.6515 24.7618 21.4468 24.8711 21.224 24.9154C21.0013 24.9598 20.7704 24.937 20.5605 24.8501C20.3507 24.7632 20.1713 24.616 20.0451 24.4271C19.9189 24.2382 19.8516 24.0162 19.8516 23.7891C19.8519 23.4846 19.973 23.1927 20.1883 22.9774C20.4036 22.7621 20.6955 22.641 21 22.6406ZM18.375 28.5469C18.375 28.1118 18.5479 27.6945 18.8555 27.3868C19.1632 27.0791 19.5805 26.9063 20.0156 26.9063H21.9844C22.4195 26.9063 22.8368 27.0791 23.1445 27.3868C23.4522 27.6945 23.625 28.1118 23.625 28.5469V31.5H18.375V28.5469Z" fill="black"/>
    <path d="M5.90625 15.0938C6.9446 15.0938 7.95964 14.7858 8.82299 14.209C9.68635 13.6321 10.3593 12.8122 10.7566 11.8528C11.154 10.8935 11.2579 9.83793 11.0554 8.81953C10.8528 7.80113 10.3528 6.86567 9.61856 6.13144C8.88434 5.39722 7.94887 4.8972 6.93047 4.69463C5.91207 4.49206 4.85647 4.59602 3.89716 4.99338C2.93785 5.39074 2.11791 6.06365 1.54103 6.92701C0.964157 7.79037 0.65625 8.8054 0.65625 9.84375C0.657813 11.2357 1.21144 12.5701 2.19567 13.5543C3.17989 14.5386 4.51434 15.0922 5.90625 15.0938ZM5.90625 5.90625C6.68501 5.90625 7.44629 6.13718 8.09381 6.56984C8.74133 7.0025 9.24601 7.61745 9.54403 8.33694C9.84205 9.05642 9.92002 9.84812 9.76809 10.6119C9.61616 11.3757 9.24115 12.0773 8.69048 12.628C8.13981 13.1787 7.43822 13.5537 6.67442 13.7056C5.91062 13.8575 5.11892 13.7795 4.39943 13.4815C3.67995 13.1835 3.065 12.6788 2.63234 12.0313C2.19968 11.3838 1.96875 10.6225 1.96875 9.84375C1.96979 8.79978 2.38497 7.79887 3.12317 7.06067C3.86137 6.32247 4.86228 5.90729 5.90625 5.90625Z" fill="black"/>
    <path d="M3.9375 7.21875H5.25V8.53125H3.9375V7.21875Z" fill="black"/>
    <path d="M6.5625 7.21875H7.875V8.53125H6.5625V7.21875Z" fill="black"/>
    <path d="M5.90625 12.7969C6.60244 12.7969 7.27012 12.5203 7.76241 12.028C8.25469 11.5357 8.53125 10.8681 8.53125 10.1719H7.21875C7.21875 10.52 7.08047 10.8538 6.83433 11.1C6.58819 11.3461 6.25435 11.4844 5.90625 11.4844C5.55815 11.4844 5.22431 11.3461 4.97817 11.1C4.73203 10.8538 4.59375 10.52 4.59375 10.1719H3.28125C3.28125 10.8681 3.55781 11.5357 4.05009 12.028C4.54238 12.5203 5.21006 12.7969 5.90625 12.7969Z" fill="black"/>
    <path d="M33.9722 13.0889L35.7001 14.3968C35.8142 14.4833 35.9534 14.53 36.0965 14.53C36.2396 14.53 36.3788 14.4833 36.4929 14.3968L38.2188 13.0889C39.2811 12.2795 40.1788 11.2745 40.8635 10.1279C41.2301 9.50689 41.3925 8.78645 41.3277 8.06822C41.263 7.34998 40.9744 6.6702 40.5026 6.12478C40.2395 5.82176 39.9144 5.57876 39.5492 5.41224C39.1841 5.24571 38.7875 5.15953 38.3862 5.15953C37.9849 5.15953 37.5882 5.24571 37.2231 5.41224C36.858 5.57876 36.5329 5.82176 36.2698 6.12478L36.0939 6.31444L35.9206 6.12281C35.6575 5.81977 35.3323 5.57677 34.9671 5.41024C34.6019 5.24371 34.2053 5.15753 33.8039 5.15753C33.4025 5.15753 33.0059 5.24371 32.6407 5.41024C32.2755 5.57677 31.9503 5.81977 31.6872 6.12281C31.2156 6.66835 30.9271 7.34816 30.8625 8.06637C30.7979 8.78458 30.9603 9.50496 31.3269 10.1259C32.0115 11.2734 32.9094 12.2792 33.9722 13.0889ZM32.6597 7.00153C32.7999 6.83504 32.9747 6.7012 33.172 6.60938C33.3693 6.51756 33.5843 6.46998 33.8019 6.46998C34.0196 6.46998 34.2346 6.51756 34.4319 6.60938C34.6292 6.7012 34.804 6.83504 34.9441 7.00153L35.6043 7.73391C35.6674 7.79932 35.7431 7.85135 35.8267 7.88689C35.9104 7.92243 36.0004 7.94074 36.0913 7.94074C36.1822 7.94074 36.2721 7.92243 36.3558 7.88689C36.4395 7.85135 36.5151 7.79932 36.5782 7.73391L37.2384 7.00153C37.3816 6.83989 37.5574 6.71047 37.7543 6.62184C37.9512 6.5332 38.1647 6.48737 38.3806 6.48737C38.5965 6.48737 38.81 6.5332 39.0069 6.62184C39.2038 6.71047 39.3796 6.83989 39.5228 7.00153C39.8102 7.33602 39.9852 7.75235 40.0231 8.19171C40.061 8.63106 39.9599 9.07122 39.7341 9.45C39.135 10.4538 38.3499 11.334 37.4208 12.0435L36.0939 13.0502L34.765 12.0435C33.8356 11.3342 33.0502 10.4539 32.451 9.45C32.2252 9.07122 32.1241 8.63106 32.1621 8.19171C32.2 7.75235 32.375 7.33602 32.6624 7.00153H32.6597Z" fill="black"/>
    <path d="M20.3438 8.25955L18.5673 10.036L19.4952 10.964L21 9.45918L22.5048 10.964L23.4327 10.036L21.6562 8.25955V7.21874H23.625V5.90624H21.6562V5.14302C22.185 4.98539 22.6393 4.64271 22.9361 4.17765C23.2329 3.7126 23.3525 3.15623 23.2728 2.6103C23.1932 2.06436 22.9197 1.56534 22.5023 1.20447C22.085 0.843608 21.5517 0.64502 21 0.64502C20.4483 0.64502 19.915 0.843608 19.4977 1.20447C19.0803 1.56534 18.8068 2.06436 18.7272 2.6103C18.6475 3.15623 18.7671 3.7126 19.0639 4.17765C19.3607 4.64271 19.815 4.98539 20.3438 5.14302V5.90624H18.375V7.21874H20.3438V8.25955ZM20.0156 2.95312C20.0156 2.75843 20.0734 2.56811 20.1815 2.40623C20.2897 2.24435 20.4434 2.11818 20.6233 2.04367C20.8032 1.96917 21.0011 1.94967 21.192 1.98766C21.383 2.02564 21.5584 2.11939 21.6961 2.25706C21.8337 2.39473 21.9275 2.57013 21.9655 2.76108C22.0034 2.95203 21.9839 3.14995 21.9094 3.32982C21.8349 3.50969 21.7088 3.66343 21.5469 3.7716C21.385 3.87976 21.1947 3.93749 21 3.93749C20.7389 3.93749 20.4885 3.83378 20.3039 3.64918C20.1193 3.46457 20.0156 3.21419 20.0156 2.95312Z" fill="black"/>
    <path d="M27.5957 18.4883L30.9622 14.6248L31.9518 15.4872L28.5853 19.3507L27.5957 18.4883Z" fill="black"/>
    <path d="M10.0088 15.4723L10.9984 14.6099L14.3649 18.4734L13.3753 19.3358L10.0088 15.4723Z" fill="black"/>
  </g>
  <defs>
    <clipPath id="clip0_2873_2440">
      <rect width="42" height="42" fill="white"/>
    </clipPath>
  </defs>
</svg>