<svg width="41" height="40" viewBox="0 0 41 40" fill="none" xmlns="http://www.w3.org/2000/svg">
<rect x="0.125" y="0.100098" width="40" height="39.2" rx="19.6" fill="white"/>
<path d="M20.1145 20.3316C16.3829 20.2099 15.488 17.0149 15.2964 15.9834C14.9372 15.9002 14.6171 15.6969 14.389 15.4071C14.1287 15.0484 14.008 14.6071 14.0494 14.1658C14.0198 13.9281 14.0404 13.6867 14.11 13.4574C14.1796 13.2282 14.2965 13.016 14.4532 12.8348C14.5416 12.7441 14.6433 12.6674 14.7548 12.6072C14.0612 11.4875 13.7196 10.1854 13.7742 8.86938C14.2062 5.78279 16.6936 5.4824 17.4727 5.46502C17.8313 5.04797 18.2795 4.71741 18.7839 4.49808C19.7287 4.11699 20.773 4.0588 21.7542 4.33258C23.6832 4.83612 24.9695 5.80182 25.5798 7.2032C26.4487 9.195 25.6866 11.4876 25.2488 12.517C25.4157 12.5713 25.5696 12.6596 25.7006 12.7764C25.8789 12.9574 26.0132 13.1769 26.0933 13.418C26.1733 13.6591 26.197 13.9154 26.1624 14.1671C26.2041 14.6083 26.0835 15.0497 25.8231 15.4083C25.5948 15.6981 25.2746 15.9013 24.9153 15.9847C24.7238 17.0149 23.8309 20.2099 20.1145 20.3316ZM15.4462 13.2688C15.2994 13.262 15.1559 13.3131 15.0465 13.4111C14.9708 13.5172 14.9168 13.6372 14.8878 13.7643C14.8587 13.8914 14.8552 14.0229 14.8773 14.1513C14.879 14.179 14.878 14.2067 14.8744 14.2341C14.8519 14.4716 14.9132 14.7094 15.0477 14.9064C15.1316 15.0002 15.2334 15.0762 15.3471 15.13C15.4608 15.1839 15.5841 15.2145 15.7097 15.2201C15.8043 15.2312 15.8922 15.2747 15.9585 15.3432C16.0247 15.4116 16.0653 15.5008 16.0734 15.5958C16.0871 15.7497 16.4541 19.3845 20.1154 19.5045C23.7564 19.3845 24.1251 15.7497 24.1387 15.5949C24.147 15.5002 24.1877 15.4111 24.2539 15.3429C24.3202 15.2746 24.4079 15.2312 24.5024 15.2201C24.6281 15.2145 24.7514 15.184 24.8651 15.1301C24.9788 15.0762 25.0805 15.0002 25.1644 14.9064C25.2995 14.7085 25.3609 14.4694 25.3378 14.2308C25.3343 14.2042 25.3333 14.1773 25.3349 14.1505C25.3572 14.0179 25.3522 13.882 25.3201 13.7514C25.288 13.6208 25.2295 13.4981 25.1483 13.3909C25.019 13.2957 24.8582 13.2536 24.6989 13.2734C24.6224 13.2869 24.5435 13.2787 24.4714 13.2495C24.3993 13.2203 24.3369 13.1714 24.2914 13.1084C24.2458 13.0454 24.2189 12.9708 24.2138 12.8932C24.2087 12.8156 24.2255 12.7382 24.2624 12.6697C24.2777 12.6407 25.7933 9.76433 24.8193 7.52882C24.315 6.37362 23.214 5.56722 21.5461 5.13195C20.7445 4.9051 19.8905 4.94873 19.1162 5.25608C18.6756 5.44587 18.2917 5.74632 18.0015 6.12827C17.9597 6.18509 17.904 6.23017 17.8397 6.25916C17.7754 6.28815 17.7048 6.30007 17.6345 6.29377C17.5274 6.28508 14.9939 6.12124 14.5967 8.95337C14.5967 8.95337 14.4821 11.2063 15.7871 12.5716C15.844 12.6311 15.8818 12.7061 15.8958 12.7872C15.9098 12.8683 15.8994 12.9517 15.8657 13.0268C15.8347 13.1038 15.7801 13.1689 15.7097 13.2129C15.6393 13.2568 15.5567 13.2773 15.4739 13.2713L15.4462 13.2688Z" fill="#252B61"/>
<path d="M24.627 13.2787C24.5202 13.2788 24.4175 13.2376 24.3404 13.1637C24.2633 13.0898 24.2177 12.989 24.2132 12.8823C24.2083 12.7752 24.08 10.2757 22.214 10.0353C21.3605 10.1437 20.4938 10.0761 19.6675 9.83673C18.8411 9.59735 18.0725 9.19124 17.4091 8.64343C16.8815 9.04022 15.6659 10.2463 15.8997 12.8186C15.9028 12.9239 15.8656 13.0264 15.7957 13.1052C15.7259 13.184 15.6286 13.2332 15.5237 13.2428C15.4188 13.2523 15.3142 13.2215 15.2312 13.1566C15.1482 13.0917 15.0931 12.9976 15.0772 12.8935C14.7342 9.11966 17.1575 7.80972 17.2605 7.75593C17.3372 7.71591 17.4245 7.70093 17.5102 7.7131C17.5958 7.72527 17.6755 7.76398 17.738 7.82379C18.3277 8.35794 19.0259 8.75843 19.7847 8.99786C20.5435 9.2373 21.345 9.31004 22.1345 9.2111C22.1724 9.20497 22.2109 9.20358 22.2492 9.20696C24.3527 9.42584 24.9952 11.6858 25.0407 12.848C25.045 12.9575 25.0057 13.0642 24.9314 13.1447C24.857 13.2252 24.7538 13.2729 24.6444 13.2775L24.627 13.2787Z" fill="#252B61"/>
<path d="M31.7469 33.126H8.50311C8.39337 33.126 8.28813 33.0825 8.21054 33.0049C8.13295 32.9273 8.08936 32.822 8.08936 32.7123V28.0998C8.09231 26.642 8.67328 25.2448 9.70486 24.2147C10.7364 23.1846 12.1344 22.6056 13.5923 22.6047H14.3867C14.4964 22.6047 14.6016 22.6483 14.6792 22.7259C14.7568 22.8035 14.8004 22.9088 14.8004 23.0185C14.8004 23.1282 14.7568 23.2335 14.6792 23.3111C14.6016 23.3886 14.4964 23.4322 14.3867 23.4322H13.5923C12.3538 23.4329 11.1662 23.9246 10.2898 24.7996C9.41331 25.6745 8.9196 26.8614 8.91686 28.0998V32.2985H31.3331V28.0998C31.3317 26.8623 30.8395 25.6759 29.9645 24.8009C29.0895 23.9259 27.9031 23.4337 26.6656 23.4322H25.8141C25.7044 23.4322 25.5991 23.3886 25.5215 23.3111C25.4439 23.2335 25.4003 23.1282 25.4003 23.0185C25.4003 22.9088 25.4439 22.8035 25.5215 22.7259C25.5991 22.6483 25.7044 22.6047 25.8141 22.6047H26.6656C28.1223 22.6068 29.5188 23.1864 30.5489 24.2165C31.579 25.2466 32.1586 26.643 32.1606 28.0998V32.7123C32.1606 32.822 32.1171 32.9273 32.0395 33.0049C31.9619 33.0825 31.8566 33.126 31.7469 33.126Z" fill="#252B61"/>
<path d="M21.5076 33.1261C21.448 33.1261 21.3892 33.1133 21.335 33.0884C21.2809 33.0636 21.2328 33.0274 21.1939 32.9823C21.1551 32.9371 21.1264 32.8841 21.1099 32.8269C21.0934 32.7697 21.0895 32.7096 21.0984 32.6507L22.7728 21.5692C22.7817 21.5105 22.8031 21.4545 22.8355 21.4049C22.8679 21.3552 22.9106 21.3131 22.9607 21.2814C23.0108 21.2497 23.0671 21.2291 23.1259 21.2211C23.1846 21.2131 23.2444 21.2178 23.3012 21.2348L26.1908 22.1058C26.2484 22.1232 26.3015 22.1528 26.3464 22.1928C26.3913 22.2327 26.4269 22.282 26.4509 22.3371C26.4748 22.3922 26.4865 22.4519 26.485 22.512C26.4835 22.5721 26.469 22.6312 26.4424 22.685L25.2938 24.9897L25.96 25.7373C26.019 25.804 26.0549 25.888 26.0624 25.9768C26.0698 26.0656 26.0484 26.1544 26.0013 26.2301L21.8593 32.93C21.8222 32.9899 21.7704 33.0394 21.7089 33.0737C21.6473 33.108 21.578 33.1261 21.5076 33.1261ZM23.5201 22.165L22.2188 30.7764L25.137 26.0596L24.4903 25.3335C24.4353 25.2718 24.4 25.195 24.389 25.1131C24.378 25.0312 24.3918 24.9478 24.4287 24.8738L25.4829 22.7579L23.5201 22.165Z" fill="#252B61"/>
<path d="M18.6945 33.1262C18.624 33.1262 18.5546 33.1082 18.493 33.0739C18.4314 33.0396 18.3795 32.9901 18.3424 32.9301L14.1991 26.2314C14.152 26.1558 14.1306 26.067 14.1381 25.9782C14.1455 25.8894 14.1815 25.8054 14.2405 25.7386L14.9066 24.991L13.7581 22.6864C13.7315 22.6325 13.7169 22.5734 13.7155 22.5134C13.714 22.4533 13.7256 22.3936 13.7496 22.3385C13.7735 22.2833 13.8092 22.2341 13.8541 22.1941C13.899 22.1542 13.9521 22.1245 14.0096 22.1071L16.8993 21.2362C16.956 21.2192 17.0158 21.2145 17.0745 21.2226C17.1332 21.2307 17.1894 21.2512 17.2395 21.2829C17.2895 21.3146 17.3322 21.3567 17.3646 21.4063C17.397 21.4559 17.4183 21.5119 17.4272 21.5705L19.1025 32.652C19.1112 32.7107 19.1071 32.7706 19.0906 32.8276C19.0741 32.8846 19.0455 32.9373 19.0068 32.9823C18.9681 33.0273 18.9202 33.0634 18.8663 33.0882C18.8125 33.113 18.7539 33.126 18.6945 33.1262ZM15.0651 26.0585L17.9833 30.7753L16.6821 22.1651L14.7192 22.7567L15.773 24.8727C15.8099 24.9466 15.8238 25.03 15.8129 25.1119C15.802 25.1938 15.7668 25.2706 15.7118 25.3323L15.0651 26.0585Z" fill="#252B61"/>
<path d="M20.1322 25.4118C19.2375 25.4112 18.3438 25.357 17.4556 25.2496C17.4005 25.2446 17.347 25.2285 17.2982 25.2024C17.2495 25.1764 17.2064 25.1408 17.1716 25.0978C17.1369 25.0548 17.111 25.0052 17.0957 24.9521C17.0804 24.8989 17.0759 24.8432 17.0825 24.7883C17.0891 24.7334 17.1066 24.6804 17.1341 24.6323C17.1615 24.5843 17.1983 24.5423 17.2423 24.5087C17.2862 24.4752 17.3365 24.4507 17.39 24.4369C17.4436 24.4231 17.4994 24.4202 17.5541 24.4283C19.2451 24.6363 20.9551 24.6363 22.6461 24.4283C22.754 24.4166 22.8621 24.4478 22.9472 24.5151C23.0323 24.5823 23.0875 24.6803 23.1011 24.7879C23.1147 24.8956 23.0854 25.0042 23.0197 25.0905C22.9539 25.1767 22.8569 25.2337 22.7496 25.2492C21.8814 25.3581 21.0072 25.4125 20.1322 25.4118Z" fill="#252B61"/>
<path d="M23.1829 22.0446C23.1185 22.0443 23.055 22.0291 22.9976 22C22.9401 21.9709 22.8902 21.9288 22.8519 21.877C22.2371 21.0458 22.1258 19.3982 22.1154 19.2133C22.1091 19.1038 22.1465 18.9962 22.2195 18.9143C22.2924 18.8324 22.3949 18.7827 22.5044 18.7763C22.6136 18.7712 22.7204 18.809 22.8021 18.8817C22.8838 18.9544 22.9337 19.0562 22.9413 19.1653C22.9665 19.6005 23.1196 20.848 23.5168 21.385C23.5622 21.4465 23.5897 21.5194 23.5962 21.5955C23.6027 21.6717 23.588 21.7481 23.5538 21.8164C23.5195 21.8847 23.467 21.9422 23.402 21.9825C23.3371 22.0227 23.2622 22.0442 23.1858 22.0446H23.1829Z" fill="#252B61"/>
<path d="M17.0193 22.0447C16.9429 22.0443 16.8681 22.0228 16.8031 21.9825C16.7382 21.9423 16.6857 21.8848 16.6514 21.8165C16.6171 21.7482 16.6024 21.6717 16.6089 21.5956C16.6155 21.5195 16.6429 21.4466 16.6883 21.3851C17.0864 20.8473 17.239 19.6002 17.2643 19.1654C17.2674 19.111 17.2812 19.0578 17.305 19.0088C17.3287 18.9599 17.3618 18.916 17.4024 18.8798C17.4431 18.8436 17.4905 18.8158 17.5419 18.7979C17.5933 18.78 17.6477 18.7724 17.702 18.7756C17.7564 18.7787 17.8095 18.7926 17.8585 18.8163C17.9075 18.84 17.9514 18.8731 17.9876 18.9138C18.0238 18.9544 18.0516 19.0018 18.0695 19.0532C18.0873 19.1046 18.0949 19.159 18.0918 19.2133C18.0814 19.3983 17.9677 21.0459 17.3553 21.8771C17.3165 21.9295 17.2658 21.972 17.2074 22.0012C17.149 22.0303 17.0846 22.0452 17.0193 22.0447Z" fill="#252B61"/>
<path d="M28.4643 27.3269C28.3566 27.3269 28.2532 27.285 28.1759 27.2099C28.0987 27.1349 28.0537 27.0327 28.0506 26.9251C27.9732 24.2307 26.9487 23.383 26.9388 23.3747C26.8533 23.3068 26.7979 23.2081 26.7844 23.0998C26.771 22.9915 26.8006 22.8822 26.8668 22.7954C26.9326 22.7094 27.0297 22.6528 27.137 22.6379C27.2443 22.6231 27.3531 22.6511 27.4399 22.716C27.4945 22.7574 28.7875 23.7616 28.8781 26.9011C28.8812 27.0107 28.8407 27.1171 28.7654 27.1968C28.6902 27.2766 28.5863 27.3232 28.4767 27.3264L28.4643 27.3269Z" fill="#252B61"/>
<path d="M28.4665 29.7697C28.143 29.7697 27.8268 29.6739 27.5578 29.4942C27.2887 29.3146 27.079 29.0591 26.9552 28.7603C26.8313 28.4614 26.7989 28.1326 26.8619 27.8153C26.925 27.498 27.0807 27.2065 27.3095 26.9777C27.5382 26.7489 27.8296 26.5931 28.1469 26.53C28.4642 26.4669 28.7931 26.4992 29.0919 26.623C29.3908 26.7468 29.6463 26.9564 29.826 27.2254C30.0058 27.4944 30.1017 27.8106 30.1017 28.1341C30.1013 28.5677 29.9289 28.9834 29.6223 29.29C29.3158 29.5966 28.9001 29.7691 28.4665 29.7697ZM28.4665 27.326C28.3067 27.326 28.1504 27.3733 28.0175 27.462C27.8846 27.5508 27.7809 27.6769 27.7197 27.8246C27.6585 27.9722 27.6424 28.1347 27.6735 28.2915C27.7047 28.4483 27.7816 28.5923 27.8946 28.7053C28.0076 28.8184 28.1516 28.8954 28.3083 28.9266C28.4651 28.9578 28.6276 28.9418 28.7753 28.8807C28.9229 28.8195 29.0492 28.716 29.138 28.5831C29.2268 28.4502 29.2742 28.2939 29.2742 28.1341C29.274 27.9199 29.1888 27.7146 29.0374 27.5631C28.886 27.4116 28.6807 27.3264 28.4665 27.326Z" fill="#252B61"/>
<path d="M11.4699 27.3268C11.3651 27.3271 11.2641 27.2875 11.1873 27.2162C11.1105 27.1448 11.0636 27.047 11.0562 26.9424C10.8307 23.7669 12.5804 22.7519 12.6549 22.7102C12.7505 22.6562 12.8636 22.6425 12.9693 22.6719C13.075 22.7014 13.1647 22.7716 13.2187 22.8672C13.2726 22.9628 13.2863 23.0758 13.2569 23.1816C13.2275 23.2873 13.1572 23.377 13.0616 23.4309C12.9987 23.4682 11.6963 24.2721 11.8812 26.8841C11.8889 26.9936 11.8529 27.1016 11.7809 27.1845C11.709 27.2673 11.6071 27.3182 11.4977 27.326L11.4699 27.3268Z" fill="#252B61"/>
<path d="M10.6333 30.6397C10.5692 30.64 10.506 30.6254 10.4486 30.5971C10.3911 30.5689 10.3411 30.5276 10.3023 30.4767C10.1003 30.2115 9.9515 29.9097 9.86409 29.588C9.67202 28.9613 9.73504 28.2842 10.0394 27.7037C10.3438 27.1233 10.865 26.6864 11.4897 26.4881C11.786 26.4048 12.096 26.3814 12.4014 26.4191C12.7069 26.4569 13.0018 26.5552 13.2689 26.7082C13.7369 26.9787 14.1113 27.3855 14.3419 27.8743C14.5726 28.3632 14.6486 28.9108 14.5598 29.444C14.5418 29.5522 14.4815 29.6489 14.3922 29.7127C14.303 29.7765 14.192 29.8023 14.0837 29.7843C13.9755 29.7663 13.8788 29.706 13.815 29.6168C13.7512 29.5275 13.7254 29.4165 13.7434 29.3083C13.8042 28.9429 13.7526 28.5677 13.5955 28.2323C13.4385 27.8969 13.1833 27.6171 12.8638 27.4298C12.6915 27.3303 12.5011 27.2662 12.3038 27.2411C12.1064 27.216 11.9061 27.2305 11.7144 27.2838C11.2998 27.4224 10.9566 27.719 10.7592 28.109C10.5619 28.4991 10.5263 28.9513 10.6602 29.3674C10.72 29.5877 10.822 29.7942 10.9605 29.9756C11.0071 30.037 11.0357 30.1101 11.043 30.1867C11.0503 30.2634 11.036 30.3406 11.0019 30.4096C10.9677 30.4786 10.9149 30.5367 10.8495 30.5774C10.7841 30.618 10.7086 30.6396 10.6316 30.6397H10.6333Z" fill="#252B61"/>
<path d="M14.1575 29.7907C14.1414 29.7907 14.1248 29.7907 14.1083 29.7882L13.642 29.7332C13.588 29.7268 13.5358 29.7098 13.4884 29.6832C13.441 29.6567 13.3993 29.621 13.3656 29.5783C13.332 29.5356 13.3071 29.4867 13.2924 29.4344C13.2776 29.382 13.2733 29.3273 13.2797 29.2733C13.2862 29.2194 13.3031 29.1672 13.3297 29.1197C13.3563 29.0723 13.392 29.0306 13.4347 28.997C13.5209 28.929 13.6306 28.8981 13.7396 28.9111L14.2059 28.9665C14.3106 28.979 14.4067 29.031 14.4743 29.1118C14.542 29.1927 14.5763 29.2964 14.5701 29.4016C14.5639 29.5069 14.5178 29.6059 14.4411 29.6783C14.3644 29.7506 14.263 29.7906 14.1575 29.7907Z" fill="#252B61"/>
<path d="M10.6331 30.6436C10.5359 30.6438 10.4418 30.6097 10.3673 30.5474C10.2927 30.4851 10.2424 30.3986 10.2253 30.303C10.2081 30.2074 10.2251 30.1088 10.2734 30.0244C10.3216 29.9401 10.398 29.8754 10.4891 29.8418L10.9856 29.6585C11.0365 29.6395 11.0907 29.6307 11.145 29.6326C11.1994 29.6345 11.2528 29.6471 11.3023 29.6697C11.3517 29.6923 11.3963 29.7244 11.4333 29.7641C11.4704 29.8039 11.4993 29.8506 11.5183 29.9016C11.5373 29.9525 11.5461 30.0067 11.5442 30.061C11.5423 30.1154 11.5297 30.1688 11.5071 30.2183C11.4845 30.2677 11.4524 30.3123 11.4126 30.3493C11.3728 30.3864 11.3262 30.4152 11.2752 30.4343L10.7787 30.618C10.7321 30.6352 10.6828 30.6439 10.6331 30.6436Z" fill="#252B61"/>
</svg>
