<svg xmlns="http://www.w3.org/2000/svg" width="29" height="29" viewBox="0 0 29 29" fill="none">
  <path d="M24.7531 4.24722C19.0908 -1.41574 9.90982 -1.41574 4.24694 4.24722C-1.41595 9.91018 -1.41534 19.0907 4.24694 24.753C9.90922 30.4154 19.0908 30.416 24.7531 24.753C30.4153 19.0901 30.4159 9.91199 24.7531 4.24722ZM20.8 15.062L21.0199 14.6934L21.241 15.062C21.294 15.1507 21.3645 15.2277 21.4481 15.2885C21.5316 15.3492 21.6267 15.3924 21.7274 15.4154L22.1467 15.5109L21.8639 15.8347C21.796 15.9126 21.7446 16.0033 21.7126 16.1015C21.6806 16.1997 21.6688 16.3034 21.6778 16.4063L21.7165 16.8334L21.3208 16.6649C21.2252 16.6247 21.1224 16.6041 21.0187 16.6045C20.9149 16.6038 20.8121 16.6243 20.7166 16.6649L20.3209 16.8334L20.3589 16.4063C20.3683 16.3034 20.3567 16.1997 20.3248 16.1015C20.2929 16.0032 20.2414 15.9125 20.1735 15.8347L19.8907 15.5109L20.31 15.4154C20.4109 15.3934 20.5063 15.3513 20.5905 15.2914C20.6747 15.2316 20.746 15.1555 20.8 15.0674V15.062ZM14.8187 6.18723C15.1881 6.18711 15.5492 6.29654 15.8564 6.50167C16.1636 6.7068 16.403 6.99843 16.5445 7.33966C16.6859 7.68089 16.723 8.05641 16.651 8.41871C16.579 8.78101 16.4012 9.11383 16.14 9.37506C15.8789 9.6363 15.5461 9.81422 15.1839 9.88633C14.8216 9.95844 14.4461 9.92149 14.1048 9.78016C13.7635 9.63883 13.4718 9.39947 13.2666 9.09234C13.0614 8.78522 12.9518 8.42413 12.9518 8.05474C12.9537 7.56117 13.1508 7.08838 13.4999 6.73953C13.8491 6.39069 14.3221 6.1941 14.8157 6.19267L14.8187 6.18723ZM8.40423 6.56363C8.53163 6.49376 8.63644 6.38895 8.70631 6.26155L9.09298 5.56372L9.48026 6.26396C9.55019 6.39133 9.65498 6.49612 9.78234 6.56605L10.4614 6.94185L9.79261 7.29832C9.66036 7.36877 9.55174 7.47656 9.48026 7.60826L9.07788 8.35019L8.661 7.63061C8.59257 7.51103 8.49297 7.41226 8.37281 7.34484L7.69191 6.96058L8.40423 6.56363ZM8.89663 21.8723C8.76433 21.943 8.65572 22.051 8.58427 22.1828L8.18189 22.9248L7.76985 22.2046C7.70147 22.0847 7.60188 21.9855 7.48166 21.9176L6.80076 21.5339L7.51308 21.1406C7.64056 21.0709 7.74539 20.966 7.81516 20.8385L8.20244 20.1383L8.5891 20.8391C8.65904 20.9665 8.76383 21.0713 8.89119 21.1412L9.57028 21.5158L8.89663 21.8723ZM8.89663 16.0583C8.76433 16.129 8.65572 16.237 8.58427 16.3688L8.18189 17.1108L7.76985 16.3912C7.70142 16.2716 7.60181 16.1728 7.48166 16.1054L6.80076 15.7212L7.51308 15.3278C7.64044 15.2579 7.74523 15.1531 7.81516 15.0257L8.20244 14.3255L8.58971 15.0257C8.65964 15.1531 8.76443 15.2579 8.89179 15.3278L9.57088 15.7036L8.89663 16.0583ZM18.6238 16.912C18.6195 16.9193 18.6159 16.927 18.6129 16.9349L16.9091 20.9709C16.8785 21.0437 16.8338 21.1099 16.7776 21.1655C16.7215 21.2211 16.6549 21.2651 16.5817 21.295C16.5085 21.3248 16.4301 21.34 16.3511 21.3396C16.2721 21.3392 16.1939 21.3232 16.121 21.2926C16.0481 21.262 15.982 21.2173 15.9264 21.1611C15.8708 21.1049 15.8268 21.0383 15.7969 20.9651C15.767 20.892 15.7519 20.8136 15.7523 20.7345C15.7527 20.6555 15.7686 20.5773 15.7993 20.5044L15.8065 20.4857L16.7835 17.5995C16.7982 17.556 16.8019 17.5096 16.7944 17.4642C16.7868 17.4189 16.7682 17.3762 16.7402 17.3398C16.7122 17.3034 16.6756 17.2745 16.6337 17.2556C16.5918 17.2367 16.5459 17.2285 16.5001 17.2316L14.7009 17.3524C13.7542 17.3597 13.263 18.3505 12.8678 19.1468C12.799 19.2858 12.7337 19.4169 12.6685 19.5396C12.6511 19.5717 12.6405 19.6071 12.637 19.6435L12.335 22.8094C12.335 22.8184 12.335 22.8269 12.335 22.836C12.335 22.9962 12.2713 23.1499 12.158 23.2632C12.0447 23.3765 11.891 23.4401 11.7308 23.4401C11.5706 23.4401 11.4169 23.3765 11.3036 23.2632C11.1903 23.1499 11.1266 22.9962 11.1266 22.836V19.3462C11.1254 19.2564 11.1441 19.1675 11.1816 19.0858C11.1852 19.0804 11.1888 19.0756 11.1919 19.0701L12.8092 16.4516C12.8365 16.4075 12.8509 16.3566 12.8509 16.3048V13.1492C12.8511 13.1037 12.8401 13.0589 12.8191 13.0185C12.798 12.9782 12.7675 12.9436 12.7301 12.9178L10.0409 11.1052C9.99158 11.0719 9.93287 11.0553 9.8734 11.0578C9.81392 11.0603 9.75681 11.0818 9.71044 11.1191L7.56866 12.8447C7.44608 12.9464 7.2881 12.9953 7.12948 12.9806C6.97085 12.9658 6.82457 12.8887 6.72282 12.7661C6.62107 12.6435 6.57219 12.4856 6.58692 12.3269C6.60165 12.1683 6.67879 12.022 6.80137 11.9203L9.37332 9.84009L9.39386 9.82136C9.48913 9.72758 9.61281 9.66805 9.74554 9.65209C9.87826 9.63613 10.0125 9.66464 10.1273 9.73315C10.1317 9.73671 10.1364 9.73994 10.1412 9.74282L12.2715 11.0968C13.1959 11.6834 15.882 11.4418 16.81 11.0756L18.9464 10.2298C18.9984 10.2092 19.043 10.1735 19.0744 10.1273C19.1059 10.0811 19.1227 10.0265 19.1228 9.97059V7.14727C19.1228 6.98703 19.1865 6.83336 19.2998 6.72005C19.4131 6.60675 19.5667 6.54309 19.727 6.54309C19.8872 6.54309 20.0409 6.60675 20.1542 6.72005C20.2675 6.83336 20.3311 6.98703 20.3311 7.14727V10.5717C20.3311 10.6965 20.2925 10.8182 20.2205 10.9201C20.1486 11.022 20.0469 11.0991 19.9294 11.1409L19.9197 11.1445L17.2553 12.1982C17.2033 12.2188 17.1587 12.2545 17.1273 12.3007C17.0958 12.3469 17.079 12.4015 17.0789 12.4574V15.7459C17.0789 15.82 17.1083 15.891 17.1607 15.9433C17.213 15.9956 17.284 16.0251 17.358 16.0251H18.0915C18.2517 16.0251 18.4054 16.0887 18.5187 16.202C18.632 16.3153 18.6957 16.469 18.6957 16.6292C18.6955 16.7281 18.6706 16.8253 18.6232 16.912H18.6238ZM21.7286 21.8723C21.5961 21.943 21.4873 22.0509 21.4156 22.1828L21.0133 22.9248L20.6018 22.2046C20.5333 22.0847 20.4335 21.9857 20.313 21.9182L19.6327 21.5346L20.345 21.1412C20.4723 21.0711 20.577 20.9664 20.6471 20.8391L21.0338 20.1389L21.418 20.8416C21.4878 20.969 21.5926 21.0739 21.7201 21.1437L22.3986 21.5182L21.7286 21.8723Z" fill="#656565"/>
</svg>