
<svg xmlns="http://www.w3.org/2000/svg" width="36" height="35" viewBox="0 0 36 35" fill="none">
  <g clip-path="url(#clip0_2873_2463)">
    <path d="M26.4413 10.6033C26.2747 10.6818 26.0918 10.7258 25.9033 10.7258C25.5437 10.7258 25.2016 10.5734 24.9611 10.3064L21.0778 5.99177C20.6736 5.54298 20.4111 4.99088 20.3084 4.40322C18.6103 3.01394 16.5035 2.25806 14.2805 2.25806H12.7901C8.86392 2.25806 5.38537 4.61322 3.92723 8.2583C3.83521 8.48749 3.90352 8.75056 4.09602 8.9058C4.28795 9.0616 4.55892 9.07515 4.76497 8.93741L5.40852 8.50838C5.62811 8.3616 5.87706 8.27467 6.13166 8.24757L5.36392 9.01532C4.41158 9.96709 3.88715 11.2333 3.88715 12.5802C3.88715 13.4693 4.12311 14.346 4.57021 15.1149C4.61255 15.1872 4.67182 15.2448 4.73844 15.291C5.12174 14.5922 5.85618 14.1129 6.70973 14.1129H7.83876V11.8548H10.2617C11.8259 11.8548 13.3005 11.2587 14.4125 10.2347L14.0484 12.4193L15.165 12.3076C16.4894 12.1749 17.6805 11.5935 18.5815 10.7145L18.5696 10.7258H19.6936C21.2522 10.7258 22.5162 11.9897 22.5162 13.5484V14.1129H23.6452C24.343 14.1129 24.9588 14.4364 25.3732 14.9331C25.437 14.8677 25.49 14.7914 25.5166 14.6994L26.2578 12.106C26.3848 11.6618 26.4554 11.2017 26.4667 10.7393C26.4672 10.6925 26.4514 10.6485 26.4413 10.6033Z" fill="#F0BC5E"/>
    <path d="M23.0515 19.1935H23.6448C25.2012 19.1935 26.4674 17.9273 26.4674 16.3709C26.4674 14.8146 25.2012 13.5484 23.6448 13.5484H23.0803C23.0803 11.7092 21.6063 10.2109 19.7778 10.1658C20.322 9.36472 20.6901 8.42989 20.8177 7.40868L19.6977 7.26868C19.3979 9.66448 17.5108 11.5059 15.1082 11.7459L14.726 11.7842L14.9371 10.5175C15.4599 10.0049 15.9053 9.40198 16.2462 8.72061L15.2363 8.21537C14.2885 10.1121 12.3816 11.2903 10.2612 11.2903H7.27382V13.5484H6.7093C5.15293 13.5484 3.88672 14.8146 3.88672 16.3709C3.88672 17.9273 5.15293 19.1935 6.7093 19.1935H7.30261C7.5239 21.6339 9.16325 23.665 11.3869 24.4667C8.95551 25.6634 7.27382 28.1603 7.27382 31.0484C7.27382 33.2268 9.0464 35 11.2254 35H19.1287C21.3077 35 23.0803 33.2268 23.0803 31.0484C23.0803 28.1603 21.3986 25.6634 18.9672 24.4667C21.1914 23.665 22.8302 21.6339 23.0515 19.1935ZM23.6448 14.6774C24.5785 14.6774 25.3383 15.4372 25.3383 16.3709C25.3383 17.3046 24.5785 18.0645 23.6448 18.0645H23.0803V14.6774H23.6448ZM5.01575 16.3709C5.01575 15.4372 5.77559 14.6774 6.7093 14.6774H7.27382V18.0645H6.7093C5.77559 18.0645 5.01575 17.3046 5.01575 16.3709ZM16.2169 24.863L15.177 26.1839L14.1372 24.863C14.2947 24.8505 14.4522 24.8387 14.6125 24.8387H15.7416C15.9019 24.8387 16.0594 24.8505 16.2169 24.863ZM17.1884 25.4534L16.9688 27.7352L15.9775 26.9923L17.1884 25.4534ZM13.3847 27.7352L13.1651 25.4534L14.376 26.9923L13.3847 27.7352ZM16.3061 32.6911C16.3061 33.3414 15.7766 33.8709 15.1262 33.8709H11.2254C9.66906 33.8709 8.40285 32.6047 8.40285 31.0484C8.40285 30.8575 8.4147 30.6701 8.43164 30.4838H10.6609V30.8146L9.69728 31.7783L10.4955 32.5765L11.4591 31.6129H13.8324L14.0706 31.1359C14.2716 30.7334 14.6763 30.4838 15.1262 30.4838C15.7771 30.4838 16.3061 31.0134 16.3061 31.6637V32.6911ZM19.1287 33.8709H17.1105C17.3166 33.5255 17.4351 33.1218 17.4351 32.6911V31.6637C17.4351 31.6462 17.4306 31.6304 17.43 31.6129H18.8949L19.8586 32.5765L20.6568 31.7783L19.6932 30.8146V30.4838H21.9224C21.9394 30.6701 21.9512 30.8575 21.9512 31.0484C21.9512 32.6047 20.685 33.8709 19.1287 33.8709ZM21.7108 29.3548H19.6932V28.2258H18.5641V30.4838H17.1003C16.6962 29.8109 15.9668 29.3548 15.1262 29.3548C14.3026 29.3548 13.5563 29.7833 13.1414 30.4838H11.7899V28.2258H10.6609V29.3548H8.64333C9.14236 27.5997 10.3933 26.1619 12.0265 25.41L12.4527 29.8454L15.177 27.8024L17.9008 29.8454L18.327 25.41C19.9608 26.1619 21.2117 27.5997 21.7108 29.3548ZM16.8706 23.7096H15.7416H14.6125H13.4835C10.6824 23.7096 8.40285 21.4307 8.40285 18.629V12.4193H10.2612C11.4738 12.4193 12.6266 12.0959 13.6263 11.5144L13.3695 13.0544L15.2199 12.8692C16.5974 12.7315 17.8325 12.1585 18.7962 11.2903H19.6932C20.9385 11.2903 21.9512 12.303 21.9512 13.5484V18.629C21.9512 21.4307 19.6717 23.7096 16.8706 23.7096Z" fill="black"/>
    <path d="M11.79 19.1935C11.79 21.0615 13.3092 22.5806 15.1771 22.5806C17.0451 22.5806 18.5642 21.0615 18.5642 19.1935V18.0645H11.79V19.1935ZM17.4352 19.1935C17.4352 20.4388 16.4225 21.4515 15.1771 21.4515C13.9318 21.4515 12.9191 20.4388 12.9191 19.1935H17.4352Z" fill="black"/>
    <path d="M18.5648 12.9839C17.0084 12.9839 15.7422 14.2501 15.7422 15.8065H16.8712C16.8712 14.8728 17.6311 14.1129 18.5648 14.1129C19.4985 14.1129 20.2583 14.8728 20.2583 15.8065H21.3873C21.3873 14.2501 20.1211 12.9839 18.5648 12.9839Z" fill="black"/>
    <path d="M13.4839 15.8065H14.6129C14.6129 14.2501 13.3467 12.9839 11.7904 12.9839C10.234 12.9839 8.96777 14.2501 8.96777 15.8065H10.0968C10.0968 14.8728 10.8566 14.1129 11.7904 14.1129C12.7241 14.1129 13.4839 14.8728 13.4839 15.8065Z" fill="black"/>
    <path d="M24.5414 10.684C24.8886 11.069 25.3848 11.2903 25.903 11.2903C26.4213 11.2903 26.9175 11.069 27.2646 10.684L31.148 6.36887C31.7701 5.67847 32.1127 4.78597 32.1127 3.85508V3.75798C32.1127 1.68565 30.4271 0 28.3547 0C27.4442 0 26.5844 0.32121 25.903 0.909435C25.2217 0.320645 24.3613 0 23.4513 0C21.379 0 19.6934 1.68565 19.6934 3.75798V3.85508C19.6934 4.7854 20.036 5.6779 20.6581 6.36887L24.5414 10.684ZM20.8224 3.75798C20.8224 2.30831 22.0017 1.12903 23.4513 1.12903C24.1542 1.12903 24.8141 1.40226 25.3103 1.8996L25.903 2.49121L26.4963 1.89903C26.9926 1.40226 27.6525 1.12903 28.3547 1.12903C29.8044 1.12903 30.9837 2.30831 30.9837 3.75798V3.85508C30.9837 4.50597 30.7443 5.13032 30.3091 5.61355L26.4258 9.92871C26.1593 10.224 25.6467 10.224 25.3803 9.92871L21.497 5.61355C21.0617 5.13032 20.8224 4.50597 20.8224 3.85508V3.75798Z" fill="black"/>
    <path d="M24.9025 7.70959L25.7413 6.95427L23.1756 4.1029C23.1141 4.03459 23.0802 3.94652 23.0802 3.85507V3.75798C23.0802 3.52314 23.3184 3.34193 23.5403 3.39725L23.8033 2.29927C23.6882 2.27161 23.5702 2.25806 23.4511 2.25806C22.6241 2.25806 21.9512 2.93096 21.9512 3.75798V3.85507C21.9512 4.22596 22.0883 4.58273 22.3367 4.85822L24.9025 7.70959Z" fill="black"/>
    <path d="M31.5488 17.5H32.6779V19.1935H31.5488V17.5Z" fill="black"/>
    <path d="M29.3145 18.8964L30.1128 18.098L31.3103 19.2955L30.512 20.0939L29.3145 18.8964Z" fill="black"/>
    <path d="M28.7256 20.3226H30.4191V21.4516H28.7256V20.3226Z" fill="black"/>
    <path d="M29.3125 22.8792L30.51 21.6817L31.3084 22.48L30.1108 23.6775L29.3125 22.8792Z" fill="black"/>
    <path d="M31.5488 22.5807H32.6779V24.2742H31.5488V22.5807Z" fill="black"/>
    <path d="M32.9062 22.4895L33.7046 21.6912L34.9021 22.8887L34.1038 23.687L32.9062 22.4895Z" fill="black"/>
    <path d="M33.8066 20.3226H35.5002V21.4516H33.8066V20.3226Z" fill="black"/>
    <path d="M32.9043 19.288L34.1018 18.0904L34.9002 18.8888L33.7026 20.0863L32.9043 19.288Z" fill="black"/>
    <path d="M26.4678 25.9677H27.5968V28.2258H26.4678V25.9677Z" fill="black"/>
    <path d="M26.4678 29.3548H27.5968V31.6129H26.4678V29.3548Z" fill="black"/>
    <path d="M27.5967 28.2258H29.8547V29.3548H27.5967V28.2258Z" fill="black"/>
    <path d="M24.21 28.2258H26.468V29.3549H24.21V28.2258Z" fill="black"/>
    <path d="M2.75781 22.0161H3.88684V24.2742H2.75781V22.0161Z" fill="black"/>
    <path d="M2.75781 25.4032H3.88684V27.6613H2.75781V25.4032Z" fill="black"/>
    <path d="M3.88672 24.2742H6.14478V25.4032H3.88672V24.2742Z" fill="black"/>
    <path d="M0.5 24.2742H2.75806V25.4032H0.5V24.2742Z" fill="black"/>
    <path d="M30.9834 9.5968H32.1124V10.7258H30.9834V9.5968Z" fill="black"/>
    <path d="M30.9834 11.8549H32.1124V12.9839H30.9834V11.8549Z" fill="black"/>
    <path d="M32.1133 10.7258H33.2423V11.8549H32.1133V10.7258Z" fill="black"/>
    <path d="M29.8545 10.7258H30.9835V11.8549H29.8545V10.7258Z" fill="black"/>
    <path d="M32.1133 30.4839H33.2423V31.6129H32.1133V30.4839Z" fill="black"/>
    <path d="M32.1133 32.7419H33.2423V33.871H32.1133V32.7419Z" fill="black"/>
    <path d="M33.2422 31.6129H34.3712V32.7419H33.2422V31.6129Z" fill="black"/>
    <path d="M30.9834 31.6129H32.1124V32.7419H30.9834V31.6129Z" fill="black"/>
    <path d="M2.75781 1.12903H3.88684V2.25806H2.75781V1.12903Z" fill="black"/>
    <path d="M2.75781 3.38708H3.88684V4.51612H2.75781V3.38708Z" fill="black"/>
    <path d="M3.88672 2.25806H5.01575V3.38709H3.88672V2.25806Z" fill="black"/>
    <path d="M1.62891 2.25806H2.75794V3.38709H1.62891V2.25806Z" fill="black"/>
    <path d="M3.32227 29.9193H4.4513V31.0483H3.32227V29.9193Z" fill="black"/>
    <path d="M3.32227 32.1774H4.4513V33.3064H3.32227V32.1774Z" fill="black"/>
    <path d="M4.45117 31.0483H5.5802V32.1774H4.45117V31.0483Z" fill="black"/>
    <path d="M2.19336 31.0484H3.32239V32.1774H2.19336V31.0484Z" fill="black"/>
    <path d="M1.62891 9.03226H2.75794V10.1613H1.62891V9.03226Z" fill="black"/>
    <path d="M1.62891 11.2903H2.75794V12.4193H1.62891V11.2903Z" fill="black"/>
    <path d="M2.75781 10.1613H3.88684V11.2903H2.75781V10.1613Z" fill="black"/>
    <path d="M0.5 10.1613H1.62903V11.2903H0.5V10.1613Z" fill="black"/>
  </g>
  <defs>
    <clipPath id="clip0_2873_2463">
      <rect width="35" height="35" fill="white" transform="translate(0.5)"/>
    </clipPath>
  </defs>
</svg>