<svg xmlns="http://www.w3.org/2000/svg" width="72" height="72" viewBox="0 0 72 72" fill="none">
  <circle cx="36" cy="36" r="36" fill="#9747FF"/>
  <path d="M38.6292 32.6541L39.462 33.0272C39.5787 33.0795 39.7008 33.1042 39.8208 33.1042C40.1566 33.1042 40.4773 32.9107 40.6234 32.5844C40.8219 32.1414 40.6236 31.6214 40.1806 31.4229L39.3478 31.0498C38.9047 30.851 38.3849 31.0497 38.1864 31.4926C37.9879 31.9357 38.1862 32.4557 38.6292 32.6541Z" fill="white"/>
  <path d="M33.1804 33.104C33.3005 33.104 33.4226 33.0793 33.5392 33.0271L34.372 32.654C34.815 32.4555 35.0133 31.9355 34.8148 31.4925C34.6164 31.0495 34.0963 30.8512 33.6535 31.0497L32.8206 31.4228C32.3776 31.6213 32.1793 32.1413 32.3778 32.5843C32.524 32.9105 32.8446 33.104 33.1804 33.104Z" fill="white"/>
  <path d="M56.8219 45.0491C56.5805 44.6279 56.0433 44.4825 55.6223 44.7239C55.2012 44.9653 55.0557 45.5024 55.2971 45.9235L56.7267 48.4167C57.2746 49.3722 57.3931 50.4767 57.0604 51.5267C56.7276 52.5768 55.9946 53.4114 54.9964 53.8769C53.9984 54.3424 52.8875 54.3675 51.8694 53.9474C50.8511 53.5273 50.0812 52.7266 49.7014 51.6927L43.9388 36.0034L48.4125 33.9172L51.3623 39.0614C51.6037 39.4825 52.1408 39.6283 52.5619 39.3866C52.983 39.1451 53.1285 38.608 52.8871 38.1869L49.5355 32.3421C49.352 32.022 48.9952 31.8589 48.6466 31.9097L48.9407 28.5473C49.0769 26.9907 48.5087 25.4771 47.3819 24.3947L46.8417 23.8758C45.7589 19.075 41.4514 15.6172 36.5013 15.6172C31.5584 15.6172 27.2434 19.0778 26.1608 23.8758L25.6207 24.3946C24.4939 25.477 23.9257 26.9906 24.0619 28.5473L24.356 31.9097C24.0076 31.859 23.6507 32.0221 23.4671 32.3421L14.7512 47.5423C13.9671 48.9096 13.7905 50.5554 14.2666 52.0579C14.7428 53.5603 15.8351 54.804 17.2635 55.4701C18.0171 55.8216 18.8336 55.9979 19.651 55.9979H19.653L19.651 56.0001H53.3517L53.3504 55.9979H53.3517C54.169 55.9979 54.9856 55.8215 55.7392 55.4701C57.1676 54.804 58.2599 53.5603 58.7361 52.0579C59.2122 50.5554 59.0356 48.9096 58.2515 47.5423L56.8219 45.0491ZM49.2617 54.2422H23.741C24.2677 53.6884 24.6833 53.0287 24.9513 52.2989L27.5949 45.1015L30.1617 44.7009C30.4585 44.6546 30.7426 44.5764 31.0113 44.4709C32.4912 45.8611 34.4565 46.6472 36.5013 46.6472C38.5462 46.6472 40.5113 45.8611 41.9914 44.4709C42.2599 44.5765 42.5441 44.6546 42.8409 44.7009L45.4077 45.1015L48.0513 52.2989C48.3194 53.0287 48.735 53.6884 49.2617 54.2422ZM30.6727 31.2385L30.5118 29.3993L31.5563 26.6254C31.6385 26.4069 31.6932 26.1805 31.7225 25.9515C32.4101 25.5139 33.1479 25.1747 33.9255 24.9409C36.3037 26.9564 39.1565 28.2489 42.2295 28.7048L42.4909 29.3993L42.33 31.2385C42.2298 32.3839 42.3635 33.5424 42.7165 34.6338L42.4638 34.7517C42.0499 34.9447 41.8528 35.4226 42.0103 35.8513L42.4997 37.184C41.1266 39.1458 38.9119 40.3064 36.5014 40.3064C34.0903 40.3064 31.8761 39.1459 30.5031 37.1841L30.9926 35.8514C31.1501 35.4227 30.953 34.9448 30.5391 34.7518L30.2863 34.6339C30.6392 33.5424 30.7729 32.3839 30.6727 31.2385ZM41.2576 40.7253C41.9744 40.2844 42.6308 39.7421 43.2067 39.1092L44.7145 43.2142L43.1119 42.9641C42.7983 42.9152 42.511 42.8014 42.2598 42.6397C42.2585 42.6389 42.2573 42.6381 42.2561 42.6374C41.6506 42.2458 41.2576 41.4917 41.2576 40.7253ZM33.4317 41.535C34.3999 41.8807 35.4349 42.0642 36.5013 42.0642C37.5676 42.0642 38.6028 41.8807 39.5709 41.5349C39.7045 42.2568 40.0334 42.9106 40.5055 43.4378C39.388 44.3679 37.9714 44.8895 36.5013 44.8895C35.0313 44.8895 33.6146 44.3679 32.497 43.4378C32.9692 42.9106 33.298 42.2568 33.4317 41.535ZM31.745 40.7255C31.745 41.8108 30.9629 42.7967 29.8907 42.964L28.2881 43.2142L29.7958 39.1092C30.3718 39.7422 31.0282 40.2846 31.745 40.7255ZM47.1897 28.3941L46.8107 32.7246L44.3243 33.8841C44.0916 33.0776 44.0076 32.2302 44.081 31.3917L44.2594 29.3534C44.2709 29.2222 44.2528 29.0902 44.2063 28.967L43.0915 26.0062C42.9713 25.687 42.9877 25.328 43.1364 25.0211C43.3128 24.6571 43.6423 24.4075 44.0404 24.3362C44.1157 24.3228 44.1911 24.3161 44.2656 24.3161C44.5846 24.3161 44.8894 24.4378 45.1259 24.665L46.164 25.6623C46.9055 26.3744 47.2792 27.3701 47.1897 28.3941ZM36.5013 17.375C40.0224 17.375 43.1528 19.4723 44.5589 22.5723C44.2873 22.5463 44.0095 22.5561 43.7308 22.606C42.7724 22.7776 41.9792 23.3785 41.5546 24.2547C41.1967 24.9932 41.1573 25.8573 41.4465 26.6256L41.5076 26.7878C38.9947 26.2419 36.676 25.0566 34.7353 23.315C34.5189 23.1208 34.2201 23.0461 33.938 23.1158C33.0395 23.3373 32.1815 23.6722 31.3752 24.1147C30.9364 23.3148 30.1783 22.7682 29.2719 22.6059C28.9933 22.5561 28.7154 22.5463 28.4438 22.5723C29.8509 19.4736 32.9854 17.375 36.5013 17.375ZM26.8385 25.6623L27.8767 24.665C28.1683 24.3848 28.564 24.2651 28.9621 24.3362C29.3602 24.4075 29.6897 24.6571 29.8661 25.0211C30.0148 25.3279 30.0312 25.687 29.9111 26.006L28.7962 28.9669C28.7498 29.0901 28.7317 29.2221 28.7432 29.3533L28.9215 31.3916C28.9949 32.2301 28.911 33.0775 28.6782 33.884L26.1918 32.7246L25.8128 28.394C25.7235 27.3701 26.0971 26.3744 26.8385 25.6623ZM18.0064 53.877C17.0082 53.4115 16.2752 52.5769 15.9424 51.5268C15.6097 50.4768 15.7281 49.3723 16.276 48.4168L24.5904 33.9173L29.064 36.0035L23.3014 51.6928C22.9217 52.7267 22.1518 53.5274 21.1335 53.9475C20.1153 54.3676 19.0047 54.3425 18.0064 53.877Z" fill="white"/>
  <path d="M34.4801 36.8672C34.8234 37.2104 35.3799 37.2104 35.7231 36.8672C35.9309 36.6594 36.2071 36.545 36.5009 36.545C36.7948 36.545 37.071 36.6594 37.2789 36.8672C37.4505 37.0388 37.6754 37.1246 37.9003 37.1246C38.1252 37.1246 38.3502 37.0387 38.5218 36.8672C38.865 36.524 38.865 35.9674 38.5218 35.6242C37.982 35.0844 37.2644 34.7871 36.5009 34.7871C35.7375 34.7871 35.0199 35.0844 34.4801 35.6242C34.1368 35.9674 34.1368 36.5239 34.4801 36.8672Z" fill="white"/>
  <path d="M53.3202 23.1551L54.7435 23.9769L51.5536 25.7932C51.1318 26.0333 50.9845 26.57 51.2247 26.9919C51.3867 27.2765 51.6837 27.4361 51.9892 27.4361C52.1367 27.4361 52.2861 27.3989 52.4233 27.3208L56.9453 24.7461C57.2189 24.5902 57.3884 24.2998 57.3893 23.9849C57.3903 23.67 57.2227 23.3786 56.9499 23.2211L55.6467 22.4687L58.4987 21.1101C58.9369 20.9014 59.1231 20.3769 58.9143 19.9386C58.7056 19.5004 58.181 19.3145 57.7429 19.523L53.3817 21.6004C53.0869 21.7408 52.8942 22.033 52.8814 22.3592C52.8686 22.6853 53.0375 22.9919 53.3202 23.1551Z" fill="white"/>
  <path d="M48.074 20.6409C48.2357 20.7695 48.4287 20.832 48.6205 20.832C48.8792 20.832 49.1355 20.7184 49.309 20.5001L52.548 16.4275C52.744 16.1809 52.7932 15.8484 52.6769 15.5558C52.5606 15.2631 52.2965 15.055 51.9848 15.0104L50.4952 14.797L52.6368 12.4747C52.9659 12.1179 52.9433 11.5619 52.5865 11.2328C52.2296 10.9037 51.6737 10.9262 51.3446 11.2831L48.0697 14.8343C47.8484 15.0742 47.7784 15.4171 47.8878 15.7247C47.9972 16.0323 48.2681 16.2539 48.5912 16.3001L50.2182 16.5331L47.9334 19.406C47.631 19.7859 47.6941 20.3388 48.074 20.6409Z" fill="white"/>
  <path d="M14.5013 21.1102L17.3532 22.4688L16.0501 23.2212C15.7773 23.3787 15.6096 23.6701 15.6106 23.985C15.6116 24.2999 15.7809 24.5903 16.0546 24.7461L20.5766 27.3209C20.7139 27.3991 20.8633 27.4362 21.0107 27.4362C21.3163 27.4362 21.6132 27.2766 21.7753 26.992C22.0154 26.5702 21.8682 26.0335 21.4464 25.7933L18.2565 23.977L19.6798 23.1552C19.9625 22.992 20.1315 22.6855 20.1185 22.3592C20.1057 22.0331 19.913 21.7408 19.6183 21.6005L15.257 19.5231C14.8189 19.3144 14.2944 19.5004 14.0856 19.9387C13.8769 20.3769 14.0629 20.9015 14.5013 21.1102Z" fill="white"/>
  <path d="M22.5073 14.7971L21.0178 15.0105C20.706 15.0552 20.4419 15.2632 20.3256 15.5559C20.2093 15.8486 20.2585 16.1812 20.4546 16.4276L23.6936 20.5002C23.8671 20.7184 24.1233 20.8321 24.382 20.8321C24.5737 20.8321 24.7668 20.7697 24.9285 20.641C25.3084 20.3389 25.3715 19.7859 25.0693 19.4061L22.7843 16.5332L24.4113 16.3002C24.7344 16.2538 25.0053 16.0323 25.1147 15.7247C25.2241 15.4171 25.154 15.0743 24.9328 14.8343L21.6579 11.2831C21.3289 10.9264 20.7728 10.9036 20.4159 11.2328C20.059 11.5619 20.0365 12.1179 20.3656 12.4748L22.5073 14.7971Z" fill="white"/>
  <path d="M54.1016 42.9278C54.587 42.9278 54.9805 42.5343 54.9805 42.0488C54.9805 41.5634 54.587 41.1699 54.1016 41.1699C53.6162 41.1699 53.2227 41.5634 53.2227 42.0488C53.2227 42.5343 53.6162 42.9278 54.1016 42.9278Z" fill="white"/>
</svg>