<svg xmlns="http://www.w3.org/2000/svg" width="72" height="72" viewBox="0 0 72 72" fill="none">
  <circle cx="36" cy="36" r="36" fill="#9747FF"/>
  <path d="M40.1297 28.5164V27.0648C39.3293 27.0648 38.6781 26.4136 38.6781 25.6133H37.2266C37.2266 27.2141 38.5289 28.5164 40.1297 28.5164Z" fill="white"/>
  <path d="M32.8711 27.0648V28.5164C34.4719 28.5164 35.7742 27.2141 35.7742 25.6133H34.3226C34.3226 26.4137 33.6714 27.0648 32.8711 27.0648Z" fill="white"/>
  <path d="M38.675 29.9668H34.3203V31.4183H38.675V29.9668Z" fill="white"/>
  <path d="M42.9395 30.3131C42.9585 30.1987 42.9747 30.0834 42.9876 29.9672H43.0289C44.6297 29.9672 45.932 28.6648 45.932 27.0641C45.932 26.192 45.545 25.4092 44.9343 24.8766C46.4015 23.9847 47.3836 22.3709 47.3836 20.532V16.9031H46.6578C44.8707 16.9031 43.0811 16.4807 41.4826 15.6815L39.6949 14.7876C38.6644 14.2724 37.5107 14 36.3586 14C34.881 14 33.4499 14.4333 32.2204 15.2531L31.915 15.4566C29.2185 15.5757 27.0617 17.8068 27.0617 20.5321V27.0641C27.0617 28.6649 28.364 29.9673 29.9648 29.9673H30.0061C30.0191 30.0835 30.0352 30.1987 30.0543 30.3132C25.7554 31.473 22.707 35.3976 22.707 39.9167V45.9345H24.1586V56.8212C24.1586 58.0218 25.1354 58.9986 26.3359 58.9986H46.6578C47.8584 58.9986 48.8351 58.0218 48.8351 56.8212V45.9344H50.2867V39.9166C50.2867 35.3975 47.2382 31.473 42.9395 30.3131ZM31.4164 33.3407C31.8305 33.8529 32.3197 34.3019 32.868 34.6697V34.7051C32.868 36.3346 33.5157 37.8463 34.6299 38.9482C34.0495 39.1345 33.5021 39.4137 33.0068 39.7793C31.9769 38.157 31.4163 36.247 31.4163 34.3221V33.3407H31.4164ZM37.2226 24.161H41.5773V29.2414C41.5773 32.0428 39.2983 34.3218 36.4969 34.3218C33.6954 34.3218 31.4164 32.0428 31.4164 29.2414V21.9836C31.4164 21.5835 31.7421 21.2578 32.1422 21.2578H32.868V20.5321C32.868 20.1319 33.1936 19.8063 33.5938 19.8063C33.9939 19.8063 34.3195 20.1319 34.3195 20.5321V21.2578C34.3195 22.8586 35.6219 24.161 37.2226 24.161ZM36.4969 38.5736C35.3492 37.8796 34.5814 36.7292 34.3756 35.418C35.0413 35.6473 35.7544 35.7735 36.4969 35.7735C37.2393 35.7735 37.9525 35.6472 38.6181 35.418C38.4124 36.7293 37.6445 37.8796 36.4969 38.5736ZM36.3578 43.0313H36.636L38.6077 52.2325L36.4969 54.3432L34.3861 52.2324L36.3578 43.0313ZM36.7742 41.5797H36.2198L35.5353 40.2106C35.808 40.1562 36.0881 40.1281 36.3725 40.1281H36.4969H36.6214C36.9058 40.1281 37.1859 40.1562 37.4586 40.2106L36.7742 41.5797ZM38.3639 38.9481C39.478 37.8462 40.1257 36.3345 40.1257 34.705V34.6696C40.6741 34.3018 41.1633 33.8529 41.5773 33.3406V34.3218C41.5773 36.2467 41.0168 38.1567 39.9868 39.7789C39.4916 39.4134 38.9442 39.1342 38.3639 38.9481ZM43.0289 28.5156V25.6125C43.8293 25.6125 44.4805 26.2638 44.4805 27.0641C44.4805 27.8644 43.8292 28.5156 43.0289 28.5156ZM32.1422 16.9031H32.3619L33.0255 16.4608C34.0158 15.8006 35.1684 15.4516 36.3586 15.4516C37.2866 15.4516 38.2158 15.6709 39.0458 16.0859L40.8335 16.9798C42.4161 17.7711 44.165 18.2342 45.932 18.3343V20.5321C45.932 22.2846 44.6832 23.7507 43.0289 24.0879V22.5848C43.0289 21.067 42.4379 19.6404 41.3648 18.5672L40.3383 19.5936C41.1373 20.3926 41.5774 21.4549 41.5774 22.5848V22.7093C39.9766 22.7093 38.6743 21.407 38.6743 19.8062H37.2227C37.2227 20.9207 37.6441 21.9383 38.335 22.7093H37.2227C36.4223 22.7093 35.7712 22.0581 35.7712 21.2578V20.532C35.7712 19.3314 34.7944 18.3547 33.5938 18.3547C32.6129 18.3547 31.7816 19.0066 31.51 19.8997C30.6168 20.1713 29.965 21.0026 29.965 21.9835V24.1609C29.4364 24.1609 28.9408 24.3036 28.5134 24.5514V20.5321C28.5132 18.531 30.1412 16.9031 32.1422 16.9031ZM28.5132 27.0641C28.5132 26.2637 29.1645 25.6125 29.9648 25.6125V28.5156C29.1645 28.5156 28.5132 27.8645 28.5132 27.0641ZM26.3359 57.5469C25.9358 57.5469 25.6101 57.2213 25.6101 56.8211V45.9344H28.5132V53.4928L29.7522 54.7318C29.8894 54.8689 29.9649 55.0512 29.9649 55.2449V56.8211C29.9649 57.2212 29.6393 57.5468 29.2391 57.5468H26.3359V57.5469ZM47.3836 56.8211C47.3836 57.2213 47.058 57.5469 46.6578 57.5469H43.7547C43.3546 57.5469 43.0289 57.2213 43.0289 56.8211V55.2451C43.0289 55.0512 43.1044 54.8689 43.2416 54.732L44.4805 53.4928V45.9345H47.3836V56.8211ZM48.8351 44.4829H43.0289V41.5798H41.5773V45.9344H43.0289V52.8917L42.215 53.7054C41.8038 54.1167 41.5773 54.6636 41.5773 55.2451V56.8211C41.5773 57.0754 41.6216 57.3196 41.7021 57.5468H31.2915C31.3721 57.3196 31.4163 57.0754 31.4163 56.8211V55.245C31.4163 54.6634 31.1899 54.1166 30.7786 53.7054L29.9648 52.8916V45.9344H31.4163V41.5798H29.9648V44.4829H24.1585V39.9166C24.1585 36.2224 26.5422 32.9922 29.9648 31.8532V34.3219C29.9648 36.8182 30.7896 39.2925 32.2873 41.2894L32.7895 41.9588L33.3812 41.3672C33.6239 41.1244 33.8913 40.9152 34.1773 40.741L35.008 42.4025L32.8013 52.7005L36.4969 56.3959L40.1924 52.7004L37.9856 42.4024L38.8163 40.7409C39.1023 40.9151 39.3697 41.1242 39.6125 41.3671L40.2041 41.9588L40.7063 41.2893C42.2039 39.2924 43.0289 36.818 43.0289 34.3218V31.8531C46.4515 32.9921 48.8351 36.2224 48.8351 39.9165V44.4829Z" fill="white"/>
  <path d="M50.2875 18.3555H48.8359V24.1618H50.2875V18.3555Z" fill="white"/>
  <path d="M54.643 16.9023H53.1914V28.5148H54.643V16.9023Z" fill="white"/>
  <path d="M58.9984 18.3555H57.5469V27.0649H58.9984V18.3555Z" fill="white"/>
  <path d="M24.1586 16.9023H22.707V24.1602H24.1586V16.9023Z" fill="white"/>
  <path d="M19.807 18.3555H18.3555V22.7101H19.807V18.3555Z" fill="white"/>
  <path d="M15.4516 15.4512H14V27.0637H15.4516V15.4512Z" fill="white"/>
</svg>