<svg xmlns="http://www.w3.org/2000/svg" width="72" height="72" viewBox="0 0 72 72" fill="none">
  <circle cx="36" cy="36" r="36" fill="#9747FF"/>
  <path d="M58.6537 57.886H57.7844C57.7696 56.3643 57.637 50.3069 56.6277 48.3515C55.6847 46.5137 53.1429 45.4624 51.3674 44.9331L51.3527 44.9258C51.0064 44.8229 50.697 44.742 50.4317 44.6759L49.9971 44.5582L49.8865 42.4043C51.2127 41.6618 52.2588 40.3166 52.7598 38.5964C53.806 38.4199 54.5722 37.6554 54.5722 36.7439C54.5722 36.0969 54.1817 35.5088 53.5408 35.1633C53.8281 33.6416 53.9386 31.4877 52.7893 29.8631C52.1557 28.9736 51.22 28.3708 50.0044 28.0326V20.9901C50.0044 20.799 49.8497 20.6446 49.6582 20.6446H46.4828V16.1898C46.4828 15.6017 46.0039 15.1238 45.4145 15.1238H41.9371C41.7824 15.1238 41.6498 15.2268 41.6056 15.3738C41.5614 15.5208 41.6203 15.6825 41.7529 15.7634C41.9887 15.9104 42.1287 16.1677 42.1287 16.4471C42.1287 16.6896 42.0182 16.9175 41.834 17.0719C41.6498 17.2263 41.4067 17.2851 41.1636 17.241C40.8468 17.1822 40.5815 16.9249 40.5226 16.6088C40.4563 16.2706 40.5963 15.9398 40.8836 15.7634C41.0162 15.6825 41.0751 15.5208 41.0309 15.3738C40.9867 15.2268 40.8541 15.1238 40.6994 15.1238H37.222C36.9494 15.1238 36.6916 15.2268 36.5 15.4105C36.3011 15.2268 36.0432 15.1238 35.778 15.1238H33.0373C33.1257 14.9327 33.1699 14.7195 33.1699 14.499C33.1699 14.0506 32.971 13.6315 32.6248 13.3448C32.2785 13.0581 31.8291 12.9405 31.387 13.0287C30.7903 13.139 30.3114 13.6095 30.1935 14.2049C30.1346 14.5284 30.1714 14.8518 30.304 15.1312H27.5707C26.9813 15.1312 26.5098 15.609 26.5098 16.1971V20.652H23.3345C23.1429 20.652 22.9882 20.8063 22.9882 20.9975V28.6207C19.5034 29.8337 16.9912 33.1344 16.9912 37.0159C16.9912 37.9862 16.4754 38.8904 15.9303 39.8534C15.6429 40.3607 15.3482 40.8826 15.1272 41.4119C14.9946 41.7427 14.7883 42.2499 14.9578 42.7498C15.1346 43.2865 15.6945 43.6467 16.4975 43.7496C16.6007 43.7643 16.7038 43.7716 16.807 43.779C17.1974 43.8158 17.5658 43.8525 17.831 44.0363C18.2805 44.345 18.3541 44.992 18.4278 45.6683C18.4573 45.9403 18.4867 46.227 18.5457 46.4916C18.6046 46.7636 18.7004 47.0209 18.8256 47.2782C16.5491 48.572 15.0241 51.3214 15.0462 54.4016L15.0977 57.8934H14.3463C14.1547 57.8934 14 58.0478 14 58.2389C14 58.43 14.1547 58.5844 14.3463 58.5844H58.6537C58.8453 58.5844 59 58.43 59 58.2389C59 58.0404 58.8453 57.886 58.6537 57.886ZM56.0162 48.6676C56.9371 50.4539 57.0771 56.3864 57.0918 57.886H53.8502V52.8137C53.8502 52.6226 53.6955 52.4682 53.5039 52.4682C53.3124 52.4682 53.1577 52.6226 53.1577 52.8137V57.886H41.834V52.8137C41.834 52.6226 41.6793 52.4682 41.4877 52.4682C41.2962 52.4682 41.1415 52.6226 41.1415 52.8137V57.886H37.8998C37.9219 56.3864 38.0545 50.4539 38.9681 48.6676C39.7564 47.1312 41.9666 46.1755 43.5874 45.6683L45.6135 47.9766C45.6798 48.0574 45.7755 48.0942 45.8713 48.0942C45.945 48.0942 46.0187 48.0721 46.0776 48.0207L47.4848 46.9547L48.8919 48.0207C48.9509 48.0648 49.0246 48.0942 49.0982 48.0942C49.194 48.0942 49.2898 48.0501 49.3561 47.9766L51.3748 45.6609C53.0177 46.1755 55.2205 47.1312 56.0162 48.6676ZM45.2672 45.2272L46.9249 46.5284L45.9229 47.2855L44.3242 45.4624L44.6852 45.3669C44.9357 45.3007 45.1346 45.2492 45.2672 45.2272ZM49.7171 45.2272C49.8644 45.2566 50.0781 45.3081 50.3433 45.3742L50.6527 45.4624L49.054 47.2929L48.0521 46.5357L49.7171 45.2272ZM49.3045 44.6685L47.4921 46.0946L45.6798 44.6685L45.7755 42.7204C46.3207 42.9263 46.8954 43.0365 47.4921 43.0365C48.0889 43.0365 48.6636 42.9263 49.2087 42.7204L49.3045 44.6685ZM53.8797 36.7439C53.8797 37.3614 53.2682 37.8759 52.4578 37.9421C52.3104 37.9568 52.1852 38.0597 52.1483 38.1994C51.7063 39.9049 50.6822 41.2281 49.3929 41.8897C49.3782 41.8971 49.3708 41.8971 49.3561 41.9044C48.7741 42.1911 48.1478 42.3529 47.4921 42.3529C46.8364 42.3529 46.2028 42.1911 45.6282 41.9044C45.6135 41.8971 45.6061 41.8897 45.5914 41.8897C44.3021 41.2281 43.278 39.9049 42.836 38.1994C42.7991 38.0597 42.6739 37.9568 42.5265 37.9421C41.7161 37.8759 41.1046 37.3614 41.1046 36.7439C41.1046 36.2734 41.4877 35.8397 42.0476 35.6485L42.3865 36.538C42.4234 36.6336 42.5044 36.7144 42.6002 36.7439C42.696 36.7733 42.8065 36.7659 42.8949 36.7071C43.6906 36.1925 44.0147 34.1268 44.1326 32.8477C45.5103 33.8401 48.4646 33.105 48.6046 33.0682L50.5201 32.6419C50.9401 33.9945 52.3399 36.8909 52.4062 37.0306C52.4651 37.1482 52.583 37.229 52.7156 37.229H52.7304C52.8703 37.2217 52.9882 37.1335 53.0398 37.0085C53.0619 36.957 53.224 36.5307 53.3787 35.8911C53.6955 36.0969 53.8797 36.413 53.8797 36.7439ZM52.222 30.2601C53.4597 32.0023 53.0029 34.6046 52.6493 35.9205C52.1336 34.8178 51.2569 32.8771 51.1022 32.1567C51.0801 32.0685 51.0285 31.9876 50.9474 31.9361C50.8885 31.8994 50.8296 31.8847 50.7633 31.8847C50.7412 31.8847 50.7117 31.8847 50.6896 31.892L48.4425 32.3919C47.3964 32.6566 44.582 33.0682 44.1842 31.7965C44.1326 31.6347 43.9779 31.5392 43.8084 31.5539C43.639 31.5759 43.5138 31.7156 43.5064 31.8773C43.4474 33.127 43.2043 34.8987 42.8139 35.722L42.5634 35.0531C42.556 35.0384 42.5486 35.0237 42.5413 35.009C42.5265 34.9796 41.1046 32.3258 42.2024 30.4291C42.9244 29.1794 44.5968 28.5031 47.168 28.4222C49.6139 28.3561 51.3084 28.9736 52.222 30.2601ZM36.9568 15.9251C37.0305 15.8516 37.1189 15.8149 37.222 15.8149H39.9553C39.8301 16.0942 39.7859 16.4177 39.8522 16.7411C39.9627 17.3366 40.4489 17.807 41.0457 17.9173C41.4877 17.9982 41.9445 17.8806 42.2834 17.6012C42.6297 17.3145 42.8286 16.8955 42.8286 16.4471C42.8286 16.2265 42.777 16.0133 42.6886 15.8149H45.4219C45.6282 15.8149 45.7976 15.9839 45.7976 16.1898V24.3717C45.7976 24.5775 45.6282 24.7466 45.4219 24.7466H41.9445C41.7898 24.7466 41.6572 24.8495 41.613 24.9966C41.5688 25.1436 41.6351 25.3053 41.7603 25.3862C41.9961 25.5332 42.1361 25.7831 42.1361 26.0625C42.1361 26.3051 42.0329 26.533 41.8487 26.6873C41.6645 26.8417 41.4214 26.9079 41.1709 26.8564C40.8541 26.7976 40.5963 26.5403 40.5373 26.2316C40.471 25.8934 40.6184 25.5626 40.8983 25.3862C41.0309 25.3053 41.0899 25.1436 41.0457 24.9966C41.0015 24.8495 40.8689 24.7466 40.7141 24.7466H37.2367C37.0231 24.7466 36.861 24.5849 36.861 24.3717V21.6517C37.0673 21.7473 37.2957 21.7914 37.5314 21.7841C37.6125 21.7841 37.6935 21.7767 37.7746 21.7547C38.3713 21.6444 38.8502 21.1666 38.9607 20.5711C39.0491 20.1227 38.9312 19.6669 38.6439 19.3214C38.3566 18.9759 37.9366 18.7774 37.4946 18.7774H37.4872C37.4872 18.7774 37.4872 18.7774 37.4799 18.7774C37.4799 18.7774 37.4799 18.7774 37.4725 18.7774C37.2515 18.7774 37.0452 18.8215 36.8536 18.9097V16.1824C36.8463 16.0942 36.8831 15.9986 36.9568 15.9251ZM27.5707 15.8149H31.0481C31.2028 15.8149 31.3355 15.7119 31.3797 15.5649C31.4239 15.4179 31.3576 15.2562 31.2323 15.1753C30.945 14.9989 30.805 14.6681 30.8713 14.3299C30.9303 14.0138 31.1955 13.7565 31.5123 13.6977C31.5639 13.6903 31.6228 13.683 31.6744 13.683C31.8659 13.683 32.0427 13.7491 32.1901 13.8668C32.3743 14.0211 32.4848 14.249 32.4848 14.4916C32.4848 14.771 32.3448 15.0283 32.109 15.1679C31.9764 15.2488 31.9175 15.4105 31.9617 15.5576C32.0059 15.7046 32.1385 15.8075 32.2932 15.8075H35.7706C35.8738 15.8075 35.9622 15.8443 36.0359 15.9178C36.1095 15.9913 36.1464 16.0795 36.1464 16.1824V19.6522C36.1464 19.8066 36.2495 19.9389 36.3969 19.983C36.4337 19.9977 36.4779 19.9977 36.5147 19.9977C36.6252 19.9977 36.7358 19.9389 36.8021 19.836C36.9494 19.6007 37.1999 19.4684 37.4799 19.4611C37.7156 19.4611 37.944 19.5713 38.0987 19.7551C38.2534 19.9463 38.3197 20.1888 38.2682 20.4314C38.2092 20.7475 37.944 21.0048 37.6346 21.0636C37.5535 21.0783 37.4725 21.0783 37.3988 21.071C37.1557 21.0416 36.942 20.9093 36.8094 20.7034C36.7431 20.6005 36.64 20.5417 36.5221 20.5417C36.4853 20.5417 36.4484 20.5417 36.4042 20.5564C36.2569 20.6005 36.1537 20.7328 36.1537 20.8872V24.357C36.1537 24.5628 35.9843 24.7319 35.778 24.7319H32.3006C32.1459 24.7319 32.0133 24.8348 31.9691 24.9819C31.9249 25.1289 31.9912 25.2906 32.1164 25.3715C32.3522 25.5185 32.4921 25.7684 32.4921 26.0478C32.4921 26.2904 32.389 26.5183 32.1974 26.6726C32.0059 26.827 31.7701 26.8932 31.5196 26.8417C31.2028 26.7829 30.945 26.5256 30.886 26.2169C30.8197 25.8787 30.9671 25.5479 31.2471 25.3715C31.3797 25.2906 31.4386 25.1289 31.3944 24.9819C31.3502 24.8348 31.2176 24.7319 31.0629 24.7319H27.5781C27.3718 24.7319 27.2097 24.5628 27.2097 24.3644V21.0563C27.2171 21.0342 27.2245 21.0048 27.2245 20.9828C27.2245 20.9534 27.2171 20.9313 27.2097 20.9093V16.1824C27.195 15.9839 27.3644 15.8222 27.5707 15.8149ZM23.6734 21.343H26.5025V24.3791C26.5025 24.9672 26.9813 25.4376 27.5634 25.4376H30.2967C30.1714 25.717 30.1272 26.0404 30.1861 26.3639C30.304 26.9593 30.7829 27.4372 31.3797 27.5401C31.4754 27.5548 31.5639 27.5621 31.6596 27.5621C32.0133 27.5621 32.3522 27.4445 32.6248 27.2166C32.971 26.9299 33.1626 26.5109 33.1626 26.0625C33.1626 25.842 33.1184 25.6288 33.03 25.4376H35.7633C36.0432 25.4376 36.3011 25.3274 36.4926 25.1509C36.6842 25.3274 36.9347 25.4376 37.2146 25.4376H39.9479C39.8227 25.717 39.7785 26.0404 39.8374 26.3639C39.9553 26.9593 40.4342 27.4372 41.0309 27.5401C41.1267 27.5548 41.2151 27.5621 41.3109 27.5621C41.6645 27.5621 42.0034 27.4445 42.276 27.2166C42.6223 26.9299 42.8139 26.5109 42.8139 26.0625C42.8139 25.842 42.7696 25.6288 42.6812 25.4376H45.4145C46.0039 25.4376 46.4828 24.9598 46.4828 24.3717V21.3356H49.3119V27.8783C48.6562 27.7606 47.9416 27.7092 47.1459 27.7312C44.3168 27.8194 42.4528 28.606 41.6056 30.0836C40.5594 31.9067 41.3993 34.1709 41.7824 35.009C40.9646 35.303 40.4194 35.9646 40.4194 36.7365C40.4194 37.6481 41.1857 38.4126 42.2318 38.589C42.7328 40.3092 43.7863 41.6545 45.1051 42.397L44.9946 44.5582L44.582 44.6685C44.3021 44.7347 43.9779 44.8229 43.6169 44.9331H43.6095C41.8414 45.4624 39.2996 46.5137 38.3492 48.3515C37.3472 50.2996 37.222 56.3643 37.1999 57.886H36.0653L36.1095 54.5192C36.1316 51.5199 34.7318 48.8514 32.6027 47.4693C32.7574 47.3002 32.9342 47.1679 33.1257 47.0724C33.3689 46.9474 33.6341 46.8739 33.9214 46.793C34.1203 46.7342 34.3266 46.6827 34.5255 46.6092C34.9234 46.4622 35.6233 46.102 35.8001 45.3816C36.0138 44.5215 35.3654 43.8305 34.8423 43.2791C34.7466 43.1835 34.6582 43.0806 34.5771 42.9851C33.9067 42.2279 33.553 41.2208 33.5899 40.2136C33.6267 39.3094 33.9361 37.9936 34.7024 37.2584C34.7687 37.1923 34.8055 37.1041 34.8055 37.0085C34.8055 34.6267 33.8772 32.3919 32.1901 30.7158C30.5103 29.0397 28.2706 28.1135 25.891 28.1135C25.1248 28.1135 24.3806 28.2238 23.666 28.4075V21.343H23.6734ZM19.2161 46.3372C19.1645 46.102 19.1351 45.8521 19.113 45.5801C19.0319 44.8155 18.9361 43.9481 18.2289 43.4555C17.8089 43.1688 17.3153 43.1174 16.8733 43.0806C16.7775 43.0733 16.6744 43.0586 16.5786 43.0512C16.387 43.0292 15.7461 42.9189 15.6135 42.5219C15.5324 42.2867 15.6429 41.9779 15.7682 41.6618C15.9671 41.1693 16.2397 40.6915 16.527 40.1842C17.0943 39.1918 17.6837 38.1626 17.6837 37.0085C17.6837 32.4875 21.3674 28.8045 25.9057 28.8045C28.1012 28.8045 30.164 29.6573 31.7186 31.201C33.2362 32.7154 34.0909 34.7223 34.1277 36.8615C33.2952 37.751 32.9563 39.1404 32.9121 40.1769C32.8679 41.3604 33.2878 42.544 34.0688 43.4335C34.1572 43.5364 34.2529 43.6393 34.3487 43.7422C34.8129 44.2421 35.2549 44.7126 35.137 45.2125C35.0265 45.6462 34.5034 45.8888 34.2898 45.9697C34.113 46.0358 33.9288 46.0873 33.7446 46.1388C33.4425 46.227 33.1257 46.3152 32.8237 46.4622C32.5142 46.6166 32.2416 46.8445 31.9985 47.1238C31.5639 46.9033 31.1071 46.7342 30.6208 46.6313C30.3777 46.5798 29.9209 46.5357 29.4052 46.5063C29.0884 46.4843 28.7421 46.4769 28.418 46.4622V43.9775C29.8251 43.0586 30.9155 41.5222 31.3428 39.6623C32.2711 39.5888 33.0005 38.8169 33.0005 37.8759C33.0005 36.8835 32.1901 36.0822 31.2028 36.0822C31.1807 36.0822 31.1513 36.0822 31.1218 36.0896C31.1144 36.0896 31.0997 36.0896 31.0923 36.0822C30.6061 36.0381 27.4307 34.1121 24.6459 32.2669C24.5427 32.1934 24.4028 32.1934 24.2922 32.2522C24.1817 32.3111 24.1081 32.4287 24.1081 32.5536C24.1081 35.428 20.1223 36.0455 19.7466 36.0969L19.5329 36.0822C18.5457 36.0822 17.7426 36.8909 17.7426 37.8759C17.7426 38.8169 18.472 39.5961 19.4003 39.6623C19.8055 41.4193 20.7927 42.8821 22.0894 43.8158V46.4696C21.64 46.4916 21.2716 46.5137 20.9843 46.5431H20.9769C20.7412 46.5651 20.557 46.5945 20.4317 46.6239C20.0928 46.7048 19.7613 46.8151 19.4445 46.9547C19.3414 46.7563 19.2603 46.5504 19.2161 46.3372ZM30.8934 36.7439C30.9597 36.7806 31.0334 36.7953 31.1071 36.788C31.1144 36.788 31.1955 36.7733 31.2028 36.7733C31.8143 36.7733 32.308 37.2658 32.308 37.8759C32.308 38.4788 31.8143 38.9786 31.1807 38.9786H31.1734L31.1144 38.9713C30.9376 38.9492 30.7682 39.0742 30.7313 39.2506C30.1788 42.1323 27.9317 44.2274 25.3752 44.2274C22.8188 44.2274 20.5643 42.1323 20.0192 39.2506C19.9897 39.0889 19.8423 38.9713 19.6803 38.9713C19.6655 38.9713 19.6508 38.9713 19.6361 38.9713C19.6287 38.9713 19.5403 38.986 19.5329 38.986C18.9288 38.986 18.4352 38.4935 18.4352 37.8833C18.4352 37.2731 18.9288 36.7806 19.4961 36.7733L19.7318 36.7953H19.7981C19.8423 36.788 24.2333 36.244 24.749 33.1638C26.2372 34.1489 29.862 36.4719 30.8934 36.7439ZM25.3679 44.9111C26.193 44.9111 26.9887 44.7126 27.7254 44.3671V46.5725C26.915 47.0944 25.6184 47.8222 25.1321 47.8075C24.7122 47.8001 23.5555 47.1459 22.7819 46.6239V44.2495C23.5702 44.6759 24.4543 44.9111 25.3679 44.9111ZM22.3325 47.1606C22.7156 47.4179 23.7176 48.0648 24.5059 48.3588C23.9386 48.822 23.1135 49.3659 22.4651 49.3071C21.8536 49.2483 21.5 48.0427 21.3748 47.2194L22.3325 47.1606ZM28.1159 47.1459C28.4327 47.1532 28.7274 47.1679 28.9926 47.1753C28.8674 48.0133 28.5211 49.2483 27.9023 49.3071C27.2539 49.3659 26.4067 48.8073 25.8468 48.3441C26.6645 48.0427 27.6886 47.4179 28.1159 47.1459ZM20.5864 47.3002C20.6085 47.2929 20.6454 47.2855 20.6896 47.2782C20.8001 48.0795 21.1906 49.8732 22.3988 49.9908C22.4504 49.9982 22.502 49.9982 22.5609 49.9982C23.5702 49.9982 24.6532 49.1528 25.1837 48.6823C25.7141 49.1528 26.7972 49.9982 27.8065 49.9982C27.8581 49.9982 27.917 49.9982 27.9686 49.9908C29.1989 49.8732 29.5747 48.0207 29.6852 47.212C30.0535 47.2414 30.3261 47.2708 30.4735 47.3002C33.3762 47.9398 35.4612 50.9759 35.4317 54.5118L35.3875 57.886H32.3669V54.5192C32.3669 54.328 32.2122 54.1737 32.0206 54.1737C31.8291 54.1737 31.6744 54.328 31.6744 54.5192V57.886H19.4887V54.5192C19.4887 54.328 19.334 54.1737 19.1424 54.1737C18.9509 54.1737 18.7962 54.328 18.7962 54.5192V57.886H15.7755L15.724 54.3869C15.7092 50.9391 17.75 47.9619 20.5864 47.3002Z" fill="white"/>
  <path d="M27.4399 37.5458C27.7652 37.5458 28.0243 37.2867 28.0243 36.9614C28.0243 36.636 27.7652 36.377 27.4399 36.377C27.1145 36.377 26.8555 36.636 26.8555 36.9614C26.8555 37.2807 27.1206 37.5458 27.4399 37.5458Z" fill="white"/>
  <path d="M22.768 36.377C22.4427 36.377 22.1836 36.636 22.1836 36.9614C22.1836 37.2867 22.4427 37.5458 22.768 37.5458C23.0934 37.5458 23.3524 37.2867 23.3524 36.9614C23.3524 36.636 23.0873 36.377 22.768 36.377Z" fill="white"/>
  <path d="M25.2087 39.2365C25.1141 39.3321 25.084 39.5453 25.1399 39.7144C25.1786 39.8246 25.2431 39.8834 25.3119 39.8834C25.3464 39.8834 25.3851 39.8687 25.4152 39.832C25.6905 39.5453 25.7636 39.0013 25.613 38.325C25.5442 38.0163 25.5098 37.6855 25.5098 37.34V36.7225C25.5098 36.5313 25.4195 36.377 25.3076 36.377C25.1958 36.377 25.1055 36.5313 25.1055 36.7225V37.34C25.1055 37.7663 25.1485 38.178 25.2345 38.5676C25.3162 38.9131 25.3033 39.141 25.2087 39.2365Z" fill="white"/>
  <path d="M24.2766 41.0544C24.0658 41.0653 23.9118 41.1901 23.9361 41.3313C24.0091 41.8416 24.6414 42.2216 25.3953 42.2216C26.1573 42.2216 26.7815 41.8361 26.8544 41.3313C26.8707 41.1901 26.7247 41.0653 26.514 41.0544C26.3113 41.0381 26.1168 41.1413 26.1005 41.2824C26.0681 41.5267 25.7601 41.7113 25.3953 41.7113C25.0305 41.7113 24.7306 41.5267 24.69 41.2824C24.6738 41.1413 24.4874 41.0381 24.2766 41.0544Z" fill="white"/>
  <path d="M49.3586 35.793C49.1975 35.793 49.0664 36.0552 49.0664 36.3774C49.0664 36.6996 49.1975 36.9618 49.3586 36.9618C49.5197 36.9618 49.6508 36.6996 49.6508 36.3774C49.6508 36.0552 49.5197 35.793 49.3586 35.793Z" fill="white"/>
  <path d="M48.5513 35.1237C48.4426 35.2971 48.4618 35.5571 48.5897 35.6958C48.6472 35.7565 48.7112 35.7912 48.7815 35.7912C48.8647 35.7912 48.9542 35.7392 49.0118 35.6438C49.0629 35.5571 49.178 35.4184 49.3571 35.4184C49.5362 35.4184 49.6513 35.5658 49.7024 35.6438C49.8111 35.8172 49.9966 35.8432 50.1245 35.6958C50.2524 35.5485 50.2716 35.2971 50.1629 35.1237C49.76 34.4562 48.9606 34.4562 48.5513 35.1237Z" fill="white"/>
  <path d="M45.5637 35.4163C45.8016 35.4163 45.9545 35.5645 46.0225 35.643C46.0989 35.7389 46.2179 35.7912 46.3283 35.7912C46.4218 35.7912 46.5067 35.7563 46.5832 35.6953C46.7531 35.5471 46.7786 35.2943 46.6342 35.1199C46.0904 34.4574 45.0285 34.4574 44.4848 35.1199C44.3403 35.2943 44.3658 35.5558 44.5357 35.6953C44.7056 35.8435 44.9605 35.8173 45.0964 35.643C45.1729 35.5558 45.3258 35.4163 45.5637 35.4163Z" fill="white"/>
  <path d="M45.5571 35.793C45.2349 35.793 44.9727 36.0552 44.9727 36.3774C44.9727 36.6996 45.2349 36.9618 45.5571 36.9618C45.8793 36.9618 46.1415 36.6996 46.1415 36.3774C46.1415 36.0552 45.8793 35.793 45.5571 35.793Z" fill="white"/>
  <path d="M47.6098 41.0516C48.38 41.0516 49.008 40.5394 49.0666 39.8828H46.1445C46.2115 40.5322 46.8311 41.0516 47.6098 41.0516Z" fill="white"/>
  <path d="M47.4221 38.0889C47.3216 38.1812 47.2897 38.387 47.349 38.5503C47.3901 38.6567 47.4586 38.7135 47.5317 38.7135C47.5682 38.7135 47.6093 38.6993 47.6413 38.6638C47.76 38.5503 48.0203 38.2025 47.8285 37.4146C47.7737 37.1803 47.7418 36.9319 47.7418 36.6764V35.5406C47.7418 35.3561 47.6459 35.207 47.5271 35.207C47.4084 35.207 47.3125 35.3561 47.3125 35.5406V36.6764C47.3125 37.0171 47.349 37.3436 47.4221 37.6488C47.4723 37.805 47.4997 38.0179 47.4221 38.0889Z" fill="white"/>
</svg>