<svg xmlns="http://www.w3.org/2000/svg" width="72" height="72" viewBox="0 0 72 72" fill="none">
  <circle cx="36" cy="36" r="36" fill="#9747FF"/>
  <path d="M48.3946 41.6799L40.8557 39.3237V38.0578C43.0493 36.911 44.7072 34.9517 45.4751 32.5985H45.9368C46.7068 32.5985 47.4453 32.2926 47.9899 31.7481C48.5344 31.2036 48.8403 30.4651 48.8403 29.695C48.8403 28.925 48.5344 28.1865 47.9899 27.642C47.4453 27.0975 46.7068 26.7916 45.9368 26.7916V23.4359C47.2593 22.6723 48.3579 21.5745 49.1223 20.2524C49.8867 18.9304 50.2901 17.4306 50.292 15.9035V13.7259C50.292 13.5911 50.2545 13.4589 50.1836 13.3443C50.1127 13.2296 50.0113 13.1369 49.8908 13.0766C49.7702 13.0163 49.6352 12.9908 49.501 13.0029C49.3667 13.015 49.2385 13.0643 49.1306 13.1452C47.4162 14.4345 45.2715 15.0151 43.1407 14.7668L34.4774 13.7672C33.021 13.5996 31.5457 13.7938 30.1823 14.3325C28.8188 14.8713 27.6093 15.738 26.6608 16.8559C25.7123 17.9738 25.0542 19.3083 24.7447 20.7413C24.4352 22.1743 24.4839 23.6616 24.8865 25.0712L25.5093 27.2525C24.979 27.5888 24.5723 28.0882 24.3504 28.6756C24.1284 29.263 24.1032 29.9066 24.2786 30.5095C24.4539 31.1125 24.8204 31.6422 25.3227 32.0189C25.8251 32.3957 26.4362 32.5991 27.0641 32.5985H27.5258C28.2937 34.9517 29.9516 36.911 32.1452 38.0578V39.3237L24.6063 41.6799C23.423 42.0453 22.3884 42.7811 21.6548 43.7788C20.9211 44.7766 20.5273 45.9835 20.5313 47.2219V57.2782C20.5313 57.4707 20.6078 57.6553 20.7439 57.7914C20.88 57.9276 21.0646 58.004 21.2572 58.004H51.7438C51.9363 58.004 52.1209 57.9276 52.257 57.7914C52.3932 57.6553 52.4696 57.4707 52.4696 57.2782V47.2219C52.4736 45.9835 52.0798 44.7766 51.3461 43.7788C50.6125 42.7811 49.5779 42.0453 48.3946 41.6799ZM41.4262 41.0223L40.3969 44.6233L37.725 43.2877L40.3323 40.6811L41.4262 41.0223ZM47.3885 29.695C47.3885 30.0801 47.2356 30.4493 46.9633 30.7216C46.6911 30.9938 46.3218 31.1468 45.9368 31.1468H45.8134C45.8917 30.6668 45.933 30.1814 45.9368 29.695V28.2433C46.3218 28.2433 46.6911 28.3963 46.9633 28.6685C47.2356 28.9408 47.3885 29.31 47.3885 29.695ZM26.2809 24.672C25.9436 23.4918 25.9027 22.2465 26.1617 21.0467C26.4208 19.8469 26.9719 18.7295 27.7661 17.7935C28.5603 16.8576 29.5731 16.132 30.7148 15.6812C31.8565 15.2303 33.0918 15.0681 34.3112 15.2088L42.9745 16.2084C45.0019 16.4468 47.0531 16.0445 48.8403 15.0578V15.9035C48.8382 17.828 48.0727 19.673 46.7119 21.0338C45.3511 22.3947 43.506 23.1601 41.5816 23.1622H37.1443C38.3203 22.2819 39.3037 21.1703 40.034 19.8958L38.7739 19.1699C37.9541 20.6015 36.7712 21.7915 35.3446 22.6199C33.918 23.4482 32.2981 23.8857 30.6485 23.8881H27.79C27.5975 23.8881 27.4129 23.9645 27.2767 24.1007C27.1406 24.2368 27.0641 24.4214 27.0641 24.6139V26.7916C27.0046 26.7916 26.9494 26.8054 26.8914 26.809L26.2809 24.672ZM27.0641 31.1468C26.6791 31.1468 26.3098 30.9938 26.0376 30.7216C25.7653 30.4493 25.6124 30.0801 25.6124 29.695C25.6124 29.31 25.7653 28.9408 26.0376 28.6685C26.3098 28.3963 26.6791 28.2433 27.0641 28.2433V29.695C27.0679 30.1814 27.1092 30.6668 27.1875 31.1468H27.0641ZM28.5159 29.695V25.3398H30.6485C31.9722 25.3377 33.2843 25.0916 34.5188 24.6139H41.5816C42.5713 24.6119 43.5534 24.44 44.485 24.1058V29.695C44.485 31.8127 43.6438 33.8436 42.1464 35.341C40.649 36.8384 38.6181 37.6796 36.5005 37.6796C34.3828 37.6796 32.3519 36.8384 30.8545 35.341C29.3571 33.8436 28.5159 31.8127 28.5159 29.695ZM36.5005 39.1314C37.4865 39.1308 38.4663 38.9751 39.4039 38.6697V39.5567L36.5005 42.4602L33.597 39.5567V38.6697C34.5346 38.9751 35.5144 39.1308 36.5005 39.1314ZM32.6679 40.6811L35.2752 43.2877L32.6032 44.6233L31.574 41.0186L32.6679 40.6811ZM21.983 47.2219C21.9801 46.2931 22.2755 45.3879 22.8256 44.6396C23.3757 43.8912 24.1516 43.3392 25.0389 43.0649L30.1854 41.4542L31.4448 45.8617C31.4739 45.9643 31.5254 46.0593 31.5955 46.1398C31.6656 46.2203 31.7525 46.2843 31.8502 46.3274C31.9479 46.3704 32.0538 46.3914 32.1605 46.3888C32.2672 46.3862 32.372 46.3601 32.4675 46.3124L35.7746 44.6611V56.5523H27.0641V50.0195H25.6124V56.5523H21.983V47.2219ZM51.0179 56.5523H47.3885V50.0195H45.9368V56.5523H37.2263V44.6611L40.5312 46.3175C40.6323 46.3665 40.7434 46.3913 40.8557 46.3901C41.0135 46.3901 41.1671 46.3387 41.2931 46.2436C41.4191 46.1485 41.5107 46.0149 41.554 45.8631L42.8155 41.4542L47.9641 43.0634C48.8513 43.3382 49.6269 43.8906 50.1766 44.6392C50.7263 45.3878 51.0212 46.2932 51.0179 47.2219V56.5523Z" fill="white"/>
  <path d="M37.949 35.5011H39.4007C39.4007 34.7311 39.0948 33.9926 38.5503 33.4481C38.0058 32.9036 37.2673 32.5977 36.4972 32.5977C35.7272 32.5977 34.9887 32.9036 34.4442 33.4481C33.8997 33.9926 33.5938 34.7311 33.5938 35.5011H35.0455C35.0455 35.1161 35.1984 34.7469 35.4707 34.4746C35.743 34.2024 36.1122 34.0494 36.4972 34.0494C36.8823 34.0494 37.2515 34.2024 37.5238 34.4746C37.796 34.7469 37.949 35.1161 37.949 35.5011Z" fill="white"/>
  <path d="M43.7569 48.5684H39.4017C39.2091 48.5684 39.0245 48.6448 38.8884 48.781C38.7523 48.9171 38.6758 49.1017 38.6758 49.2942V52.9236C38.6759 53.0759 38.7239 53.2243 38.813 53.3478C38.9021 53.4713 39.0278 53.5636 39.1723 53.6117L41.3499 54.3376C41.4987 54.3879 41.6599 54.3879 41.8086 54.3376L43.9863 53.6117C44.1307 53.5636 44.2564 53.4713 44.3455 53.3478C44.4346 53.2243 44.4826 53.0759 44.4828 52.9236V49.2942C44.4828 49.1017 44.4063 48.9171 44.2702 48.781C44.134 48.6448 43.9494 48.5684 43.7569 48.5684ZM43.031 52.4002L41.5793 52.8844L40.1275 52.4002V50.0201H43.031V52.4002Z" fill="white"/>
  <path d="M26.4274 34.0498C24.4989 34.0497 22.5777 33.8132 20.7068 33.3457L20.3555 34.7539C22.3413 35.2501 24.3805 35.5011 26.4274 35.5015V34.0498Z" fill="white"/>
  <path d="M20.7068 39.109C22.5777 38.6414 24.4989 38.405 26.4274 38.4049V36.9531C24.3805 36.9535 22.3413 37.2046 20.3555 37.7008L20.7068 39.109Z" fill="white"/>
  <path d="M22.7077 39.8568H21.256C21.2582 40.1771 21.1898 40.4939 21.0555 40.7847C20.9213 41.0755 20.7245 41.3331 20.4793 41.5391C20.2341 41.7452 19.9465 41.8946 19.6369 41.9767C19.3273 42.0589 19.0035 42.0717 18.6884 42.0143C18.3733 41.957 18.0747 41.8308 17.8139 41.6448C17.5532 41.4588 17.3367 41.2176 17.1798 40.9384C17.023 40.6591 16.9297 40.3487 16.9065 40.0293C16.8834 39.7099 16.931 39.3892 17.0459 39.0903C17.1101 38.9207 17.1084 38.7332 17.0413 38.5647C16.9741 38.3962 16.8463 38.259 16.683 38.1801C16.313 38.0053 16.0002 37.7289 15.7812 37.3832C15.5621 37.0375 15.4459 36.6367 15.4459 36.2275C15.4459 35.8182 15.5621 35.4174 15.7812 35.0717C16.0002 34.726 16.313 34.4497 16.683 34.2749C16.8463 34.1959 16.9741 34.0587 17.0413 33.8902C17.1084 33.7218 17.1101 33.5343 17.0459 33.3646C16.931 33.0657 16.8834 32.7451 16.9065 32.4256C16.9297 32.1062 17.023 31.7958 17.1798 31.5165C17.3367 31.2373 17.5532 30.9961 17.8139 30.8101C18.0747 30.6241 18.3733 30.498 18.6884 30.4406C19.0035 30.3832 19.3273 30.3961 19.6369 30.4782C19.9465 30.5603 20.2341 30.7098 20.4793 30.9158C20.7245 31.1218 20.9213 31.3794 21.0555 31.6702C21.1898 31.961 21.2582 32.2778 21.256 32.5981H22.7077C22.7077 31.6355 22.3254 30.7124 21.6447 30.0318C20.9641 29.3511 20.0409 28.9688 19.0784 28.9688C18.1158 28.9688 17.1927 29.3511 16.512 30.0318C15.8314 30.7124 15.449 31.6355 15.449 32.5981C15.4503 32.8281 15.4746 33.0574 15.5216 33.2826C15.0512 33.6163 14.6676 34.0577 14.4029 34.5701C14.1381 35.0824 14 35.6508 14 36.2275C14 36.8042 14.1381 37.3725 14.4029 37.8848C14.6676 38.3972 15.0512 38.8387 15.5216 39.1723C15.4746 39.3975 15.4503 39.6268 15.449 39.8568C15.449 40.8194 15.8314 41.7425 16.512 42.4232C17.1927 43.1038 18.1158 43.4862 19.0784 43.4862C20.0409 43.4862 20.9641 43.1038 21.6447 42.4232C22.3254 41.7425 22.7077 40.8194 22.7077 39.8568Z" fill="white"/>
  <path d="M52.2948 33.3457C50.4239 33.8132 48.5027 34.0497 46.5742 34.0498V35.5015C48.6211 35.5011 50.6603 35.2501 52.6461 34.7539L52.2948 33.3457Z" fill="white"/>
  <path d="M46.5742 38.4049C48.5027 38.405 50.4239 38.6414 52.2948 39.109L52.6461 37.7008C50.6603 37.2046 48.6211 36.9535 46.5742 36.9531V38.4049Z" fill="white"/>
  <path d="M57.4752 33.2826C57.5222 33.0574 57.5465 32.8281 57.5478 32.5981C57.5478 31.6355 57.1654 30.7124 56.4848 30.0318C55.8041 29.3511 54.881 28.9688 53.9184 28.9688C52.9559 28.9688 52.0327 29.3511 51.3521 30.0318C50.6714 30.7124 50.2891 31.6355 50.2891 32.5981H51.7408C51.7386 32.2778 51.807 31.961 51.9413 31.6702C52.0755 31.3794 52.2723 31.1218 52.5175 30.9158C52.7627 30.7098 53.0503 30.5603 53.3599 30.4782C53.6695 30.3961 53.9933 30.3832 54.3084 30.4406C54.6235 30.498 54.9221 30.6241 55.1829 30.8101C55.4436 30.9961 55.6601 31.2373 55.817 31.5165C55.9738 31.7958 56.0671 32.1062 56.0903 32.4256C56.1134 32.7451 56.0658 33.0657 55.9509 33.3646C55.8867 33.5343 55.8884 33.7218 55.9556 33.8902C56.0227 34.0587 56.1505 34.1959 56.3138 34.2749C56.6838 34.4497 56.9966 34.726 57.2156 35.0717C57.4347 35.4174 57.5509 35.8182 57.5509 36.2275C57.5509 36.6367 57.4347 37.0375 57.2156 37.3832C56.9966 37.7289 56.6838 38.0053 56.3138 38.1801C56.1505 38.259 56.0227 38.3962 55.9556 38.5647C55.8884 38.7332 55.8867 38.9207 55.9509 39.0903C56.0658 39.3892 56.1134 39.7099 56.0903 40.0293C56.0671 40.3487 55.9738 40.6591 55.817 40.9384C55.6601 41.2176 55.4436 41.4588 55.1829 41.6448C54.9221 41.8308 54.6235 41.957 54.3084 42.0143C53.9933 42.0717 53.6695 42.0589 53.3599 41.9767C53.0503 41.8946 52.7627 41.7452 52.5175 41.5391C52.2723 41.3331 52.0755 41.0755 51.9413 40.7847C51.807 40.4939 51.7386 40.1771 51.7408 39.8568H50.2891C50.2891 40.8194 50.6714 41.7425 51.3521 42.4232C52.0327 43.1038 52.9559 43.4862 53.9184 43.4862C54.881 43.4862 55.8041 43.1038 56.4848 42.4232C57.1654 41.7425 57.5478 40.8194 57.5478 39.8568C57.5465 39.6268 57.5222 39.3975 57.4752 39.1723C57.9456 38.8387 58.3292 38.3972 58.5939 37.8848C58.8587 37.3725 58.9968 36.8042 58.9968 36.2275C58.9968 35.6508 58.8587 35.0824 58.5939 34.5701C58.3292 34.0577 57.9456 33.6163 57.4752 33.2826Z" fill="white"/>
  <path d="M41.255 26.8686L38.3516 28.3203L39.0008 29.6188L41.9042 28.1671L41.255 26.8686Z" fill="white"/>
  <path d="M31.743 26.8675L31.0938 28.166L33.9971 29.6177L34.6464 28.3192L31.743 26.8675Z" fill="white"/>
</svg>