<svg xmlns="http://www.w3.org/2000/svg" width="72" height="72" viewBox="0 0 72 72" fill="none">
  <circle cx="36" cy="36" r="36" fill="#9747FF"/>
  <path d="M27.8586 25.1091C27.7039 25.1261 27.6026 25.2661 27.6293 25.4188C27.6559 25.5715 27.8053 25.686 27.9546 25.669C28.1093 25.6521 28.2107 25.5121 28.184 25.3594C28.1573 25.2025 28.0133 25.0922 27.8586 25.1091Z" fill="white"/>
  <path d="M48.8474 33.8822C48.7597 33.7801 48.6646 33.7072 48.5622 33.6489C48.6134 33.5905 48.6573 33.5322 48.7085 33.4666C48.7743 33.3645 48.8474 33.2552 48.8913 33.102C48.8987 33.0656 48.906 33.0218 48.9133 32.9781C48.9206 32.9344 48.9133 32.8833 48.906 32.8396C48.8987 32.7885 48.884 32.7448 48.8621 32.6938C48.8401 32.65 48.8182 32.6063 48.7889 32.5698C48.6719 32.4167 48.5329 32.3438 48.4086 32.2928C48.2842 32.2417 48.1598 32.2126 48.0428 32.1907C48.0209 32.1834 47.9989 32.1834 47.977 32.1834C48.0209 32.1251 48.0574 32.0595 48.1013 31.9939C48.1745 31.8699 48.2476 31.7314 48.2988 31.571C48.35 31.4106 48.3793 31.2137 48.3208 30.995C48.2842 30.8857 48.233 30.7836 48.1452 30.6888C48.0574 30.594 47.9258 30.5211 47.8087 30.4993C47.6844 30.4701 47.5746 30.4774 47.4795 30.492C47.3845 30.5065 47.2967 30.5357 47.2235 30.5649C47.1577 30.5867 47.1065 30.6159 47.048 30.6451C47.0333 30.6159 47.026 30.5795 47.0114 30.5503C46.9456 30.4118 46.8578 30.2951 46.7627 30.193C46.6603 30.091 46.5505 30.0108 46.4335 29.9452C46.3165 29.8795 46.1921 29.8285 46.0678 29.7921L46.0239 29.7775H46.0092C46.0019 29.7775 45.9946 29.7775 45.9873 29.7702L45.9434 29.7629C45.9142 29.7629 45.8776 29.7556 45.8483 29.7556C45.8264 29.7556 45.7971 29.7629 45.7752 29.7629C45.7532 29.7629 45.724 29.7702 45.702 29.7775L45.6435 29.7921L45.585 29.8066L45.5338 29.8285C45.4021 29.8795 45.2997 29.9452 45.1973 30.0108C45.1022 30.0764 45.0071 30.142 44.9193 30.2076C44.5682 30.4774 44.2683 30.7617 43.9757 31.0534C43.8294 31.1992 43.6904 31.345 43.5514 31.4835C43.5368 31.4179 43.5148 31.345 43.4783 31.2794C43.4051 31.1263 43.2515 30.9804 43.0833 30.9221C42.9223 30.8565 42.776 30.8565 42.6517 30.8711C42.5273 30.8857 42.4176 30.9148 42.3006 30.9586C42.2201 30.995 42.1323 31.0315 42.0519 31.0679C41.4081 31.3814 40.9107 31.7897 40.545 32.2053C40.1792 32.6209 39.9305 33.0364 39.7623 33.4083C39.594 33.7801 39.4989 34.1155 39.4477 34.3998C39.4331 34.4727 39.4258 34.5383 39.4185 34.6039C39.4112 34.6696 39.4038 34.7279 39.3965 34.7862C39.3892 34.8445 39.3892 34.9029 39.3892 34.9539V35.0341V35.0997C39.3892 35.2237 39.3819 35.3403 39.3819 35.4278C39.3746 35.4278 39.3673 35.4278 39.3673 35.4278C39.1917 35.4351 39.0088 35.4424 38.8333 35.4497C38.7455 35.457 38.6431 35.4642 38.5407 35.4861C38.431 35.508 38.3139 35.5444 38.1896 35.6174C38.1603 35.6319 38.131 35.6538 38.1018 35.683L38.0579 35.7194L37.9921 35.7559C37.9555 35.8069 37.9116 35.8507 37.875 35.9017L37.7287 36.1131C37.3483 36.6745 36.9826 37.2213 36.6168 37.7754C35.1612 39.9626 33.8664 41.9238 32.6887 43.659C32.5424 43.8778 32.3961 44.0892 32.2498 44.3006C32.1035 44.5121 31.9645 44.7162 31.8182 44.913C31.7451 45.0151 31.6792 45.1099 31.6061 45.212C31.5329 45.3067 31.4671 45.4015 31.394 45.4963C31.3208 45.5911 31.255 45.6859 31.1891 45.7733C31.1526 45.8171 31.1233 45.8608 31.0867 45.9046C31.0502 45.9483 31.0209 45.9848 30.9843 46.0212C30.9185 46.0941 30.8527 46.1452 30.8088 46.167C30.7576 46.1962 30.7502 46.1889 30.7429 46.1889C30.7429 46.1889 30.7137 46.1743 30.6917 46.1379C30.6698 46.1014 30.6551 46.0577 30.6478 45.9848C30.6405 45.9119 30.6478 45.8317 30.6625 45.7296C30.6771 45.6275 30.6917 45.5182 30.7064 45.4161C30.7356 45.2047 30.7576 45.0005 30.7795 44.7964C30.7795 44.7818 30.7795 44.7672 30.7868 44.7526C30.8161 44.7381 30.8527 44.7089 30.8892 44.6797C30.9624 44.6214 31.0648 44.5412 31.1818 44.4246C31.2989 44.3079 31.4378 44.1548 31.6061 43.9652C31.9353 43.5788 32.3742 43.0247 32.8935 42.2155C33.1569 41.8072 33.4348 41.3406 33.7421 40.8084C34.042 40.2688 34.3638 39.6637 34.7223 38.9857C35.1685 38.1399 35.6293 37.2432 36.1341 36.361L36.1414 36.3537C36.1414 36.3464 36.1487 36.3464 36.1487 36.3391C36.156 36.3173 36.1633 36.2954 36.1706 36.2735C36.1706 36.2589 36.1779 36.2516 36.1779 36.2371C36.1779 36.2225 36.1779 36.2225 36.1853 36.2152C36.1853 36.2006 36.1853 36.186 36.1926 36.1714V36.1496V36.135C36.1926 36.1204 36.1926 36.0985 36.1853 36.084L36.1779 36.0475C36.1706 35.9965 36.156 35.9673 36.1414 35.9381C36.1194 35.8798 36.0975 35.8288 36.0682 35.785C36.017 35.6903 35.9731 35.6101 35.9219 35.5299C35.878 35.457 35.8268 35.3913 35.7829 35.3257C35.9658 35.2237 36.2218 35.0487 36.6022 34.757C36.8143 34.5894 37.0631 34.3925 37.341 34.1373C37.6263 33.8894 37.9482 33.5905 38.2993 33.2187C38.4748 33.0291 38.6577 32.825 38.8479 32.5917C39.0308 32.3511 39.2283 32.0959 39.3746 31.7314C39.3892 31.6876 39.4112 31.6293 39.4258 31.5783C39.4331 31.5564 39.4404 31.5273 39.4477 31.4981L39.4624 31.4106C39.4624 31.396 39.4697 31.3814 39.4697 31.3669V31.3158C39.4697 31.2794 39.4697 31.2429 39.4697 31.2137C39.4697 31.1919 39.4697 31.1846 39.4624 31.17L39.455 31.1335C39.4477 31.1044 39.4477 31.0825 39.4404 31.0534C39.4185 30.944 39.3892 30.8346 39.338 30.7253C39.2868 30.6159 39.2136 30.4993 39.1112 30.4045C39.0161 30.3097 38.8918 30.2295 38.7674 30.1712C38.7016 30.142 38.6358 30.1201 38.5626 30.1056C38.6211 30.0181 38.6723 29.9233 38.7235 29.8066C38.7748 29.6827 38.826 29.5442 38.8186 29.3473C38.8113 29.2525 38.7894 29.1359 38.7235 29.0338C38.6577 28.9245 38.5699 28.8515 38.4822 28.8005C38.3944 28.7495 38.3139 28.7203 38.2408 28.7057C38.1676 28.6839 38.0945 28.6766 38.0286 28.6693C37.897 28.6547 37.7799 28.662 37.6702 28.6693C37.6921 28.5964 37.7068 28.5235 37.7141 28.4433C37.7214 28.3558 37.7214 28.2537 37.7068 28.1516C37.6921 28.0496 37.6556 27.9402 37.597 27.8381C37.5385 27.7361 37.4581 27.6486 37.3703 27.5903C37.3264 27.5538 37.2825 27.5319 37.2386 27.5101C37.1874 27.4882 37.1362 27.4663 37.085 27.4444C36.9753 27.4153 36.8509 27.4007 36.7412 27.4226C36.6315 27.4371 36.5291 27.4736 36.4413 27.5173C36.3535 27.5611 36.2804 27.6121 36.2145 27.6632C36.1706 27.6996 36.1267 27.7361 36.0828 27.7725C36.0609 27.7142 36.0316 27.6559 35.9878 27.5975C35.9365 27.5246 35.8561 27.4444 35.761 27.3934C35.6659 27.3424 35.5635 27.3205 35.4757 27.3132C35.3806 27.3059 35.3148 27.3205 35.2343 27.3351C35.1612 27.3569 35.088 27.3715 35.0295 27.4007C34.8978 27.4517 34.7881 27.5246 34.6857 27.6048C34.4882 27.7652 34.3419 27.9402 34.2102 28.1298C33.9542 28.4943 33.7786 28.8807 33.625 29.2525C33.6031 29.3036 33.5884 29.3473 33.5665 29.3984C33.5372 29.3546 33.5007 29.3182 33.4641 29.289C33.4056 29.238 33.3324 29.2015 33.2666 29.1796C33.1349 29.1359 33.0179 29.1286 32.9082 29.1286C32.7984 29.1286 32.7107 29.1432 32.6156 29.1505C32.4254 29.1723 32.2205 29.2088 32.023 29.34C31.928 29.4056 31.8402 29.4931 31.789 29.6025C31.7378 29.7046 31.7158 29.8066 31.7012 29.9014C31.6939 29.9962 31.6939 30.0837 31.6939 30.1566C31.6939 30.2368 31.7012 30.3097 31.7012 30.3826C31.7158 30.6815 31.7378 30.9586 31.7597 31.2065C31.8182 31.7022 31.8694 32.0959 31.9133 32.3657C31.9206 32.3948 31.9206 32.424 31.928 32.4532C31.8841 32.4386 31.8329 32.424 31.789 32.4094C31.628 32.3657 31.4598 32.3292 31.2842 32.3146C31.1087 32.3001 30.9331 32.3001 30.7502 32.3365C30.5747 32.373 30.3991 32.4386 30.2528 32.5334C29.9529 32.7229 29.7627 32.9854 29.6091 33.2187C29.5725 33.277 29.536 33.3354 29.4994 33.3937C29.4628 33.452 29.4336 33.503 29.397 33.5614C29.3311 33.6634 29.258 33.7655 29.1922 33.8676C29.0532 34.0644 28.9142 34.254 28.7825 34.4363C28.5192 34.7935 28.2924 35.107 28.1022 35.3622C27.934 35.5882 27.8023 35.7777 27.7072 35.9236C27.3342 35.6903 27.0196 35.5444 26.7709 35.4351C27.1805 34.7935 27.378 34.3852 27.3415 34.3633C27.2976 34.3342 27.0123 34.6987 26.5222 35.3039C25.8346 34.7862 24.8251 34.2102 23.5889 33.7291C22.9379 33.4739 22.2356 33.2479 21.4968 33.0583L21.3578 33.0219L21.2115 32.9854C21.1091 32.9635 21.014 32.9489 20.9116 32.9344C20.7068 32.9052 20.502 32.8906 20.2899 32.8906C20.0924 32.8906 19.8948 32.8979 19.6973 32.9271C19.7559 32.7885 19.8071 32.6427 19.8656 32.4969C19.8948 32.4094 19.9314 32.3147 19.9534 32.2199C19.9607 32.198 19.968 32.1688 19.9753 32.147C19.9826 32.1251 19.9899 32.0959 19.9973 32.0668C20.0046 32.0376 20.0119 32.0157 20.0119 31.9793L20.0192 31.9282V31.8991C20.0265 31.8189 20.0411 31.7606 20.0485 31.7241C20.0485 31.7168 20.0558 31.7168 20.0558 31.7095H20.0924C20.1436 31.7168 20.2167 31.7314 20.3045 31.746C20.48 31.7824 20.6483 31.8116 20.8238 31.848C20.9921 31.8845 21.1603 31.9137 21.3213 31.9428C21.4822 31.9793 21.6504 32.0157 21.8114 32.0522C23.1866 32.3803 24.2472 32.7375 25.0738 33.0364C25.4908 33.1895 25.8419 33.3208 26.1491 33.4447C26.4564 33.5687 26.7124 33.6634 26.9318 33.7436C26.9611 33.7509 26.9904 33.7655 27.0196 33.7728C27.0489 33.7801 27.0781 33.7947 27.1001 33.802C27.1513 33.8165 27.1879 33.8311 27.2171 33.8384C27.2464 33.853 27.261 33.8603 27.2756 33.8603C27.2903 33.8676 27.2976 33.8676 27.3049 33.8822C27.3415 33.9259 27.3415 34.028 27.3268 34.1009C27.3195 34.1738 27.3049 34.2394 27.3122 34.2759C27.3122 34.3196 27.3268 34.3415 27.3488 34.3561C27.3707 34.3706 27.4 34.3706 27.4366 34.3561C27.4731 34.3342 27.5317 34.2977 27.5902 34.2175C27.6194 34.1738 27.656 34.1228 27.678 34.0498C27.7072 33.9769 27.7219 33.8749 27.6926 33.7509C27.678 33.6926 27.6487 33.627 27.6048 33.5614C27.5609 33.503 27.5024 33.452 27.4512 33.4228C27.4 33.3864 27.3415 33.3572 27.2903 33.3354C27.2683 33.3208 27.2464 33.3135 27.2244 33.2989L27.1952 33.2843C27.1805 33.277 27.1659 33.2697 27.1586 33.2624C26.9465 33.1531 26.6978 33.0219 26.3978 32.876C26.3393 32.8469 26.2808 32.8177 26.215 32.7885C26.2296 32.5625 26.2515 32.3365 26.2808 32.1178C26.3247 31.848 26.3832 31.4616 26.4564 31.4398C26.471 31.4252 26.4929 31.4179 26.5295 31.4106C26.5661 31.4033 26.6246 31.4106 26.6831 31.4179C26.7416 31.4252 26.8148 31.4471 26.8879 31.4616C26.9684 31.4762 27.0416 31.4908 27.122 31.4981C27.4293 31.5273 27.7365 31.5054 28.0218 31.4325C28.307 31.3596 28.5704 31.2356 28.7971 31.0825C29.0239 30.9294 29.2141 30.7399 29.3677 30.5357C29.5213 30.3316 29.6384 30.1201 29.7188 29.8941C29.7993 29.6754 29.8432 29.4567 29.8651 29.2525C29.8724 29.1505 29.8798 29.0484 29.8871 28.9536C29.8871 28.8516 29.8798 28.7568 29.8798 28.6693C29.8505 28.5308 29.8432 28.4506 29.8505 28.3777C29.8505 28.3412 29.8578 28.3047 29.8651 28.2756C29.8724 28.2464 29.8798 28.2245 29.8944 28.2027C29.9237 28.1589 29.9675 28.1152 30.0187 28.086C30.07 28.0496 30.1285 28.0277 30.187 28.0058C30.304 27.9621 30.4211 27.9329 30.5235 27.9038C30.7356 27.8454 30.9039 27.7725 30.999 27.6923C31.094 27.6048 31.1014 27.5319 31.0867 27.5319C31.0721 27.5246 31.0428 27.5757 30.9477 27.6267C30.86 27.6777 30.699 27.7142 30.4869 27.7506C30.3772 27.7652 30.2601 27.7871 30.1212 27.8236C30.0553 27.8454 29.9822 27.8673 29.909 27.9038C29.8359 27.9402 29.7554 27.9912 29.6969 28.0787C29.6676 28.1225 29.6457 28.1662 29.6311 28.2173C29.6164 28.2683 29.6091 28.312 29.6018 28.3558C29.5872 28.4506 29.5872 28.538 29.5872 28.6328V28.7349C29.4921 28.7568 29.3604 28.8078 29.2068 28.8297C29.0751 28.8588 28.9288 28.8661 28.7825 28.8588C28.6362 28.8516 28.4972 28.8224 28.3656 28.7786C28.1095 28.6912 27.9779 28.6037 27.8755 28.5818C27.7731 28.5526 27.7072 28.5818 27.6487 28.6328C27.5902 28.6839 27.5536 28.7495 27.6121 28.8734C27.6414 28.9317 27.6926 29.0047 27.7877 29.0849C27.8828 29.1651 28.0145 29.2452 28.1973 29.3109C28.3802 29.3765 28.5996 29.3984 28.8118 29.3765C29.0166 29.3546 29.2141 29.289 29.3677 29.2015C29.4482 29.1505 29.5213 29.0994 29.5798 29.0484C29.5725 29.0921 29.5725 29.1286 29.5652 29.1723C29.536 29.3619 29.4848 29.5515 29.4043 29.7337C29.3238 29.916 29.2141 30.0983 29.0751 30.266C28.7972 30.6013 28.3948 30.8638 27.9194 30.9659C27.6853 31.0169 27.4293 31.0315 27.1805 30.995C27.1147 30.9877 27.0562 30.9732 26.9904 30.9586C26.9245 30.944 26.8514 30.9221 26.7709 30.9075C26.6904 30.893 26.6027 30.8784 26.4929 30.8857C26.3905 30.893 26.2589 30.9221 26.1565 31.0023C26.054 31.0752 25.9809 31.1846 25.937 31.2721C25.8931 31.3669 25.8712 31.4543 25.8492 31.5345C25.8126 31.6876 25.7834 31.8408 25.7541 31.9939C25.7249 32.1615 25.7029 32.3365 25.681 32.5042C25.5639 32.4532 25.4396 32.4021 25.3152 32.3511C24.4813 32.0084 23.3987 31.622 21.9796 31.2794C21.9065 31.2648 21.8333 31.2502 21.7602 31.2283C21.7602 31.1554 21.7602 31.0825 21.7528 31.0023C22.7038 30.8784 23.6255 30.1712 23.8669 29.0703C23.9181 29.0849 23.9693 29.0921 24.0205 29.0994C24.4155 29.1651 24.5252 29.0994 24.5618 29.0047C24.5984 28.9099 24.5325 28.7932 24.2034 28.6037C24.0424 28.5089 23.8084 28.3995 23.5158 28.2245C23.3695 28.1371 23.2158 28.035 23.0549 27.911C22.9013 27.7871 22.7477 27.6194 22.616 27.4153C22.4917 27.2111 22.4039 26.9778 22.3892 26.7445C22.3819 26.6279 22.3966 26.5185 22.4331 26.4019C22.4697 26.2925 22.5209 26.1831 22.5868 26.0884C22.7257 25.8915 22.9232 25.7603 23.15 25.6947C23.3768 25.629 23.6182 25.6436 23.8157 25.7238C23.9181 25.7603 24.0132 25.8186 24.1009 25.8769C24.1887 25.9425 24.2619 26.0155 24.335 26.0884C24.474 26.2415 24.5837 26.4019 24.6642 26.5331C24.8324 26.8101 24.9202 26.9924 24.9714 26.9778C24.9861 26.9778 24.9934 26.956 25.0007 26.9268C25.0592 26.9705 25.1177 26.9924 25.1616 26.9851C25.5493 26.9487 25.4176 25.7238 25.4176 25.7238C25.4176 25.7238 25.9589 24.6521 25.8639 24.0907C25.8639 24.0834 25.8639 24.0834 25.8639 24.0761C25.7541 23.3908 26.2442 22.7492 26.9318 22.6836C27.0562 22.7273 27.1732 22.7711 27.283 22.8221C27.5609 23.2085 27.8169 23.5439 28.0364 23.8647C27.9925 23.8647 27.9486 23.8647 27.8901 23.8793C27.7731 23.9011 27.6268 23.9449 27.4658 24.0324C27.2976 24.1199 27.1367 24.2511 26.9977 24.3969C26.8587 24.5427 26.7563 24.7104 26.6831 24.8708C26.61 25.0239 26.5807 25.177 26.5734 25.2791C26.5734 25.3884 26.588 25.4468 26.6246 25.4614C26.6612 25.4686 26.7124 25.4322 26.7709 25.3593C26.8367 25.2864 26.9099 25.1916 27.005 25.0822C27.1952 24.8708 27.4658 24.6594 27.7219 24.5281C27.9779 24.3969 28.1315 24.3386 28.2193 24.2657C28.2339 24.2511 28.2485 24.2438 28.2558 24.2292C28.5046 24.6448 28.6947 25.0604 28.8922 25.4249C28.9215 25.4686 28.9435 25.5197 28.9654 25.5634C28.98 25.5853 28.9947 25.6072 29.002 25.629L29.0093 25.6436L29.0239 25.6655L29.0532 25.7092C29.1263 25.8186 29.2141 25.9061 29.2946 25.9717C29.4555 26.1102 29.6018 26.1977 29.7188 26.2852C29.9602 26.4748 30.1797 26.6352 30.3626 26.7737C30.5454 26.9049 30.7064 27.0143 30.8088 27.0945C30.9112 27.1747 30.9551 27.2403 30.9916 27.2986C31.0502 27.4153 31.0428 27.4809 31.0794 27.5028C31.094 27.5101 31.1233 27.5101 31.1526 27.4736C31.1818 27.4371 31.2184 27.3642 31.2184 27.2549C31.2184 27.1966 31.2038 27.1382 31.1745 27.0653C31.1453 26.9924 31.1014 26.9268 31.0502 26.8612C30.999 26.7956 30.9331 26.7299 30.8673 26.6643C30.8014 26.5987 30.7283 26.5258 30.6478 26.4456C30.4869 26.2852 30.2894 26.1102 30.0553 25.8915C29.9237 25.7749 29.792 25.6801 29.6823 25.5707C29.6237 25.5197 29.5799 25.4614 29.5506 25.4103L29.5433 25.3885L29.536 25.3812L29.5286 25.3666C29.5213 25.3447 29.5067 25.3228 29.4994 25.301C29.4774 25.2572 29.4555 25.2135 29.4336 25.1624C29.258 24.7979 29.0824 24.3532 28.8045 23.8647C28.5704 23.4418 28.2632 23.0263 27.9559 22.5815C28.7459 22.4211 29.4189 22.0347 29.3604 21.1817C29.2141 19.1913 24.3277 19.2059 23.1354 19.9277C21.9357 20.6495 22.5575 21.1744 22.5575 21.1744C22.5575 21.1744 18.2124 22.1659 17.3858 25.7384C16.786 28.3485 18.8561 28.6766 18.8854 28.8297C18.9073 28.9828 19.8875 30.7544 21.0872 30.9732C21.0872 31.0096 21.0945 31.0388 21.0945 31.0752C21.0506 31.0679 21.0067 31.0606 20.9555 31.0461C20.7873 31.0169 20.619 30.9804 20.4435 30.9513C20.363 30.9367 20.2606 30.9148 20.1362 30.9002C20.0704 30.893 19.9973 30.893 19.9168 30.9075C19.8363 30.9221 19.7412 30.9513 19.6608 31.0023C19.4925 31.1044 19.3974 31.2648 19.3535 31.396C19.3097 31.5345 19.295 31.6439 19.2877 31.746V31.7824V31.8043C19.2877 31.8116 19.2804 31.8335 19.2804 31.848C19.2804 31.8626 19.2731 31.8845 19.2658 31.8991C19.2584 31.9137 19.2584 31.9355 19.2511 31.9501C19.2292 32.023 19.2072 32.1032 19.178 32.1834C19.0683 32.4969 18.9439 32.8177 18.8196 33.1458C18.3148 33.3135 17.8174 33.5614 17.3566 33.8894C16.7421 34.3269 16.1935 34.8883 15.7473 35.5372C15.5205 35.8652 15.3157 36.2079 15.1401 36.5797C15.0597 36.762 14.9865 36.9443 14.906 37.1265C14.8256 37.3088 14.7524 37.4984 14.6793 37.6806C14.1014 39.1825 13.6406 40.7792 13.3114 42.4196C12.9749 44.06 12.7481 45.7296 12.6165 47.3773C12.4848 49.025 12.4336 50.6509 12.4336 52.2038V52.8672V52.8745C12.4409 53.0787 12.6092 53.2391 12.814 53.2318C19.7851 53.086 23.2817 52.962 24.9787 52.8381H25.0007C25.0885 52.8308 25.1616 52.7725 25.1836 52.685C25.4908 51.5476 25.52 51.2341 25.4396 51.2049C25.3664 51.1831 25.2055 51.4237 24.8251 52.3933C23.1061 52.3423 19.712 52.3569 13.1797 52.4881C13.1797 52.3933 13.1797 52.2986 13.1797 52.2038C13.1724 50.6654 13.2163 49.0615 13.3406 47.4356C13.4577 45.8098 13.6698 44.1621 13.9844 42.5581C14.2916 40.9469 14.7232 39.3794 15.2572 37.9066C15.323 37.7171 15.3962 37.5421 15.4693 37.3598C15.5425 37.1849 15.6083 37.0026 15.6887 36.8276C15.8424 36.4922 16.0252 36.1642 16.2301 35.8652C16.6324 35.2528 17.1298 34.7279 17.6784 34.3196C18.0881 34.0134 18.527 33.7801 18.9805 33.6197C19.0536 33.6561 19.1487 33.6707 19.2365 33.6489C19.5803 33.5468 19.9387 33.4885 20.2972 33.4812C20.4727 33.4739 20.6556 33.4885 20.8312 33.503C20.9189 33.5103 21.0067 33.5249 21.0945 33.5395L21.2262 33.5687L21.3652 33.5978C22.0893 33.7582 22.7843 33.9551 23.4207 34.1665C24.7008 34.5966 25.7614 35.1216 26.471 35.5663L26.4856 35.5736C26.5149 35.5882 26.5441 35.5955 26.5734 35.5955C26.5807 35.5955 26.5807 35.6028 26.588 35.6028C26.8514 35.7632 27.2171 35.9819 27.6487 36.31C27.8608 36.4777 28.0949 36.6745 28.3217 36.9151C28.5558 37.1557 28.7752 37.4546 28.9947 37.8046C29.1044 37.9796 29.2068 38.1764 29.3238 38.3805C29.3823 38.4826 29.4336 38.5847 29.4921 38.694C29.5433 38.8034 29.6018 38.9055 29.653 39.0221C29.8578 39.4742 30.0261 39.9772 30.1285 40.5532C30.2309 41.1292 30.2748 41.7707 30.2748 42.4561C30.2675 43.1487 30.2163 43.8923 30.1138 44.687C30.0919 44.8839 30.0626 45.088 30.0334 45.2994C30.0187 45.4015 30.0041 45.5109 29.9895 45.6202C29.9749 45.7369 29.9602 45.8681 29.9675 46.0139C29.9749 46.0868 29.9822 46.1598 30.0041 46.2472C30.0261 46.3274 30.0626 46.4076 30.1065 46.4878C30.1504 46.5607 30.2089 46.6337 30.2821 46.6993C30.3552 46.7649 30.4503 46.8159 30.5527 46.8524C30.6625 46.8815 30.7722 46.8888 30.8746 46.8742C30.977 46.8597 31.0721 46.8232 31.1453 46.7795C31.2989 46.6993 31.4086 46.5972 31.5037 46.4951C31.5549 46.4441 31.5915 46.4003 31.6354 46.3493C31.6719 46.2983 31.7158 46.2545 31.7524 46.2035C31.8329 46.1087 31.906 46.0067 31.9792 45.9119C32.0523 45.8171 32.1255 45.715 32.1986 45.613C32.2718 45.5109 32.3449 45.4161 32.4107 45.314C32.557 45.1099 32.7033 44.9057 32.8496 44.6943C32.9959 44.4829 33.1422 44.2715 33.2958 44.0527C34.4882 42.3175 35.7903 40.3563 37.2459 38.1691C37.6117 37.6223 37.9774 37.0682 38.3505 36.5214L38.4895 36.3173C38.5041 36.3027 38.5114 36.2808 38.526 36.2662L38.5334 36.2589C38.5553 36.2808 38.5553 36.2735 38.3285 36.0256C38.7455 36.4849 38.4456 36.1496 38.5407 36.2516C38.548 36.2516 38.548 36.2444 38.5553 36.2444C38.5772 36.2298 38.6211 36.2152 38.6723 36.2006C38.7309 36.186 38.7967 36.1787 38.8772 36.1714C39.0381 36.1642 39.199 36.1569 39.3599 36.1496C39.4404 36.1423 39.5209 36.1496 39.6013 36.1496C39.6818 36.1496 39.7623 36.1496 39.8427 36.1569C41.1448 36.2152 42.4542 36.6016 43.6099 37.2796C43.6831 37.3234 43.7489 37.3671 43.8221 37.4109C43.8952 37.4546 43.9611 37.4984 44.0342 37.5494C44.1732 37.6442 44.3195 37.7462 44.4585 37.841C44.5316 37.8921 44.5975 37.9358 44.656 37.9868C44.7145 38.0306 44.773 38.0816 44.8096 38.1254C44.8535 38.1691 44.8827 38.2129 44.8974 38.2493C44.9047 38.2639 44.9047 38.2785 44.912 38.2858V38.2931V38.3076V38.3368C44.9047 38.4389 44.8681 38.592 44.8096 38.7378C44.7584 38.8909 44.6852 39.044 44.6121 39.2044L44.5024 39.4523C44.4877 39.496 44.4658 39.5398 44.4512 39.5908L44.4073 39.7147C44.3414 39.8751 44.2902 40.0355 44.2244 40.1959C43.705 41.4645 42.9955 42.6748 42.2128 43.8267C41.4301 44.9787 40.5669 46.065 39.6525 47.093C38.7382 48.121 37.7799 49.0906 36.7778 49.9728C36.2804 50.4103 35.7683 50.8331 35.2343 51.2049C34.971 51.3945 34.7003 51.5695 34.4297 51.7153C34.2907 51.7955 34.159 51.8538 34.02 51.9194L33.8006 52.0069C33.7274 52.0361 33.6543 52.058 33.5811 52.0871C32.4034 52.51 31.1599 52.6777 29.9822 52.5756C29.6896 52.5464 29.397 52.51 29.1117 52.4517C28.8264 52.4006 28.5484 52.3204 28.2778 52.2329C27.7365 52.058 27.2244 51.8247 26.749 51.5476C25.8053 50.9935 25.0373 50.2499 24.4813 49.426C23.9254 48.6022 23.5596 47.7127 23.2085 46.8961C23.1866 46.8451 23.1646 46.7941 23.1427 46.743C23.1207 46.692 23.1061 46.6409 23.0842 46.5899C23.0476 46.4878 23.0037 46.3931 22.9671 46.291C22.9013 46.0941 22.8281 45.8973 22.7769 45.7004C22.6599 45.314 22.5868 44.9349 22.5209 44.5704C22.4112 43.8413 22.3892 43.1706 22.4258 42.5946C22.4624 42.0113 22.5429 41.5228 22.6233 41.1219C22.7989 40.3272 22.9671 39.9116 22.9306 39.897C22.9159 39.8897 22.8647 39.9918 22.7843 40.1886C22.7404 40.2834 22.6965 40.4147 22.6453 40.5605C22.5868 40.7063 22.5429 40.8813 22.4843 41.0854C22.3746 41.4864 22.2722 41.9822 22.2137 42.5727C22.1552 43.1633 22.1479 43.8486 22.2429 44.6068C22.2942 44.9859 22.36 45.3796 22.4697 45.7806C22.5209 45.9848 22.5868 46.1889 22.6526 46.3931C22.6892 46.4951 22.7257 46.5972 22.7623 46.7066C22.7843 46.7576 22.7989 46.8086 22.8208 46.867C22.8428 46.918 22.8647 46.969 22.8794 47.0201C23.0476 47.4356 23.2158 47.8658 23.4207 48.3105C23.6182 48.7553 23.8522 49.2 24.1375 49.6447C24.7081 50.5269 25.5127 51.3362 26.5076 51.9413C27.005 52.2475 27.5463 52.5027 28.1242 52.6995C28.4095 52.7943 28.7094 52.8818 29.0093 52.9401C29.3092 53.0058 29.6237 53.0495 29.9383 53.086C31.1965 53.2099 32.5131 53.0495 33.7786 52.6121C33.8591 52.5829 33.9396 52.561 34.0127 52.5246L34.2468 52.4298C34.4004 52.3642 34.5687 52.2913 34.715 52.2038C35.0149 52.0434 35.3075 51.8611 35.5781 51.6643C36.1341 51.2779 36.668 50.855 37.1801 50.4103C38.2115 49.5208 39.199 48.5365 40.1353 47.5013C41.0716 46.4587 41.9641 45.3578 42.776 44.1913C43.588 43.0174 44.3268 41.7853 44.8827 40.4438C44.9559 40.2761 45.0144 40.1084 45.0802 39.9408L45.1241 39.8168C45.1388 39.7804 45.1534 39.7439 45.168 39.7075L45.2704 39.4741C45.3436 39.3138 45.4167 39.1461 45.4826 38.9638C45.5484 38.7815 45.6142 38.592 45.6289 38.3441C45.6289 38.3149 45.6289 38.2785 45.6289 38.242V38.191L45.6216 38.1327C45.6069 38.0525 45.585 37.9796 45.5484 37.9212C45.4899 37.79 45.4094 37.6952 45.3363 37.615C45.2558 37.5348 45.1827 37.4619 45.1022 37.4036C45.0802 37.3817 45.0583 37.3671 45.029 37.3525C45.051 37.3307 45.0802 37.3088 45.1095 37.2796C45.2192 37.1776 45.3582 37.0609 45.5338 36.937C45.6216 36.8786 45.7166 36.8203 45.8264 36.762C45.9361 36.7037 46.0458 36.6381 46.1702 36.5797C46.4189 36.4558 46.6895 36.3318 46.9968 36.1933C47.304 36.0475 47.6332 35.8652 47.9477 35.6319C48.1086 35.5153 48.2623 35.3913 48.4159 35.2528C48.5768 35.1143 48.7304 34.9539 48.8621 34.7425C48.9279 34.6331 48.9864 34.5019 48.9937 34.3342C49.0011 34.254 48.9864 34.1665 48.9645 34.079C48.9425 34.0207 48.8987 33.9478 48.8474 33.8822ZM20.0558 31.6366C20.0558 31.6293 20.0558 31.6293 20.0558 31.6366V31.6366ZM32.0523 31.1335C32.0523 30.8857 32.0523 30.6159 32.0596 30.3243C32.0669 30.1785 32.0596 30.0181 32.0816 29.8941C32.0889 29.8285 32.1108 29.7775 32.1401 29.7337C32.162 29.69 32.1986 29.6608 32.2425 29.6317C32.3376 29.5733 32.4839 29.5515 32.6448 29.5369C32.8131 29.5296 32.9959 29.5223 33.0837 29.566C33.1276 29.5879 33.1422 29.6025 33.1569 29.6389C33.1715 29.6754 33.1861 29.741 33.1934 29.8285C33.2008 30.0181 33.2154 30.2149 33.23 30.4191C33.2373 30.5284 33.3105 30.6232 33.4129 30.6524C33.5519 30.6961 33.6982 30.6159 33.7421 30.4774L33.7494 30.4628C33.8518 30.1274 33.9908 29.7702 34.1444 29.4202C34.298 29.0776 34.4809 28.7276 34.7003 28.4287C34.81 28.2829 34.9344 28.1443 35.0661 28.0496C35.1319 28.0058 35.1977 27.9621 35.2636 27.9402C35.2928 27.9256 35.3294 27.9256 35.3587 27.911C35.3879 27.911 35.4245 27.9038 35.4318 27.9038C35.4464 27.9038 35.4464 27.911 35.4464 27.911C35.4464 27.911 35.4464 27.911 35.4538 27.9183C35.4684 27.9402 35.4903 27.9985 35.4977 28.0787C35.505 28.1516 35.5123 28.2391 35.505 28.3339C35.505 28.3777 35.4977 28.4287 35.4903 28.4724C35.483 28.5162 35.4757 28.5672 35.4684 28.6037C35.4538 28.6839 35.4684 28.7641 35.505 28.837C35.2489 29.0703 34.9051 29.515 34.6784 29.9087C34.3273 30.5065 34.4224 30.6815 34.5979 30.7836C34.7735 30.8857 34.971 30.8784 35.3221 30.2805C35.5562 29.8795 35.7756 29.3473 35.8488 29.0047C35.9512 28.9901 36.0463 28.9317 36.0975 28.8297L36.1048 28.8224C36.1267 28.7786 36.1633 28.7203 36.1926 28.6766C36.2218 28.6255 36.2584 28.5745 36.295 28.5308C36.3681 28.436 36.4413 28.3485 36.5144 28.2683C36.5876 28.1954 36.6754 28.1298 36.7412 28.1006C36.7778 28.086 36.807 28.0787 36.8217 28.0714C36.8436 28.0714 36.8582 28.0714 36.8729 28.0787C36.8802 28.0787 36.8948 28.086 36.9021 28.0933C36.9094 28.1006 36.9314 28.1079 36.9387 28.1152C36.9606 28.1298 36.968 28.1443 36.9753 28.1589C36.9899 28.1881 37.0045 28.2391 36.9899 28.3266C36.9826 28.4068 36.946 28.5089 36.9094 28.611C36.8875 28.662 36.8655 28.713 36.8363 28.7568C36.8217 28.7786 36.807 28.8078 36.7924 28.8297C36.7778 28.8516 36.7631 28.8807 36.7558 28.8953C36.7046 28.9755 36.6754 29.0849 36.7046 29.1869C36.7119 29.2015 36.7119 29.2161 36.7192 29.238C36.4632 29.4786 36.1414 29.9087 35.9219 30.2805C35.5708 30.8784 35.6659 31.0534 35.8415 31.1554C36.017 31.2575 36.2145 31.2502 36.5656 30.6524C36.7778 30.2878 36.9826 29.8066 37.0704 29.464C37.0923 29.464 37.1216 29.4567 37.1435 29.4567H37.1508C37.2313 29.4348 37.3337 29.4202 37.4288 29.4056C37.5239 29.3911 37.619 29.3765 37.7068 29.3765C37.7945 29.3692 37.8823 29.3692 37.9555 29.3765C37.9921 29.3765 38.0286 29.3838 38.0506 29.3911H38.0652C38.0579 29.4129 38.0506 29.4494 38.0359 29.4858C37.9774 29.6171 37.875 29.7702 37.7653 29.9014C37.7214 29.9525 37.6775 30.0108 37.6336 30.0545C37.5897 30.1056 37.5385 30.1566 37.5019 30.193C37.4142 30.2805 37.3776 30.4045 37.3995 30.5284C37.1801 30.769 36.946 31.0971 36.7778 31.3887C36.4267 31.9866 36.5217 32.1615 36.6973 32.2636C36.8729 32.3657 37.0704 32.3584 37.4215 31.7606C37.5897 31.4689 37.7507 31.1117 37.8531 30.8128H37.8604L37.875 30.8055L37.9189 30.7909C37.9408 30.7836 37.9555 30.7836 37.9774 30.7763C38.014 30.769 38.0506 30.7617 38.0945 30.7617C38.1676 30.7544 38.2408 30.7544 38.3066 30.7617C38.4383 30.7763 38.526 30.8128 38.5846 30.8784C38.6138 30.9075 38.6431 30.944 38.665 30.995C38.687 31.0461 38.7016 31.0971 38.7162 31.1554C38.7235 31.17 38.7235 31.1846 38.7235 31.1992L38.7309 31.221V31.2356V31.2575V31.2648V31.2794C38.7309 31.2939 38.7235 31.3012 38.7235 31.3158C38.7235 31.3231 38.7235 31.3377 38.7162 31.3523C38.7089 31.3814 38.7016 31.4033 38.6943 31.4325C38.6065 31.6658 38.4456 31.9064 38.2846 32.1251C38.1237 32.3438 37.9555 32.5407 37.7945 32.7229C37.4727 33.0875 37.1728 33.3937 36.9168 33.6561C36.6534 33.9186 36.434 34.1373 36.2511 34.3269C35.9292 34.6477 35.7171 34.8737 35.5854 35.0268C35.366 34.7425 35.1246 34.48 34.8759 34.2248C34.3711 33.7218 33.8079 33.2697 33.2081 32.9198C32.9082 32.7448 32.5936 32.5917 32.2718 32.475C32.1986 32.4532 32.1328 32.424 32.0596 32.4021C32.0596 32.3584 32.0669 32.3146 32.0669 32.2636C32.0743 32.0303 32.0669 31.6293 32.0523 31.1335ZM30.1504 38.7888C30.0919 38.6649 30.0334 38.5555 29.9675 38.4389C29.9017 38.3295 29.8432 38.2201 29.7847 38.1181C29.6676 37.9139 29.5433 37.7171 29.4189 37.5348C29.1702 37.163 28.9069 36.8495 28.6435 36.5943C28.3802 36.3391 28.1169 36.1496 27.8755 35.9819C27.8608 35.9673 27.8389 35.96 27.8243 35.9454C27.9413 35.8288 28.1022 35.6684 28.2851 35.4642C28.5046 35.2309 28.7679 34.9393 29.0532 34.6039C29.1995 34.4363 29.3531 34.254 29.514 34.0571C29.5945 33.9624 29.6749 33.8603 29.7554 33.7436C29.792 33.6926 29.8286 33.6343 29.8724 33.5759C29.909 33.5249 29.9456 33.4666 29.9822 33.4156C30.1358 33.2114 30.304 33.0146 30.5089 32.8979C30.6113 32.8396 30.721 32.8031 30.838 32.7885C30.9551 32.774 31.0867 32.774 31.2184 32.7958C31.3501 32.8104 31.4891 32.8469 31.628 32.8906C31.767 32.9344 31.9133 32.9854 32.0523 33.0437C32.3303 33.1604 32.6082 33.2989 32.8789 33.4739C33.4129 33.8092 33.9249 34.2394 34.3858 34.7206C34.6125 34.9612 34.832 35.2164 35.0368 35.4788C35.1392 35.6101 35.2343 35.7486 35.3148 35.8798C35.3587 35.9454 35.3952 36.0111 35.4245 36.0767C35.4245 36.084 35.4318 36.0913 35.4318 36.0985C34.9344 36.9516 34.4736 37.8046 34.0493 38.6211C33.6982 39.2992 33.3763 39.9043 33.091 40.4365C32.8057 40.9688 32.5351 41.4354 32.301 41.8363C31.8255 42.6456 31.4452 43.2143 31.1745 43.6299C31.0355 43.834 30.9331 44.009 30.8453 44.1475C30.838 44.1548 30.8307 44.1694 30.8234 44.1767C30.8746 43.5788 30.9039 43.0102 30.8965 42.4634C30.8819 41.7416 30.8234 41.0708 30.7064 40.4438C30.5893 39.8314 30.3918 39.27 30.1504 38.7888ZM45.8556 30.3243C45.8703 30.2514 45.8629 30.2951 45.8483 30.3534C45.8483 30.3462 45.8483 30.3389 45.8556 30.3316V30.3243ZM48.4378 34.5237C48.3573 34.6696 48.233 34.8081 48.1013 34.9393C47.9623 35.0705 47.8234 35.2018 47.6844 35.3111C47.4064 35.5444 47.1138 35.7267 46.8285 35.8871C46.5432 36.0475 46.2653 36.1933 46.0239 36.3391C45.8995 36.412 45.7898 36.4849 45.6874 36.5579C45.585 36.6308 45.4826 36.7037 45.3948 36.7766C45.2192 36.9297 45.0949 37.0755 44.9925 37.1922C44.9632 37.2286 44.9413 37.2578 44.9193 37.2869C44.9047 37.2796 44.8901 37.2651 44.8754 37.2578C44.7291 37.1557 44.5828 37.0536 44.4365 36.9516C44.3634 36.9005 44.2829 36.8495 44.2098 36.7985C44.1293 36.7474 44.0562 36.6964 43.9757 36.6526C42.7248 35.9017 41.2984 35.4788 39.872 35.4132C39.8062 35.4059 39.7476 35.4059 39.6818 35.4059C39.7111 35.333 39.7403 35.2455 39.7623 35.1289C39.7696 35.0851 39.7842 35.0341 39.7915 34.9903C39.8062 34.9466 39.8135 34.8956 39.8281 34.8445C39.8427 34.7935 39.8574 34.7425 39.872 34.6841C39.8866 34.6258 39.9086 34.5675 39.9232 34.5092C40.0037 34.2613 40.1134 33.9769 40.2816 33.6634C40.4499 33.3499 40.684 33 41.0131 32.65C41.3423 32.3074 41.7812 31.9647 42.3371 31.7095C42.403 31.6804 42.4761 31.6439 42.5493 31.6147C42.5858 31.6002 42.6517 31.5856 42.6956 31.5783C42.7468 31.571 42.7833 31.5783 42.7907 31.5856V31.5929C42.798 31.6074 42.8126 31.6512 42.8126 31.7168C42.8126 31.7824 42.8126 31.8553 42.798 31.9355C42.776 32.0959 42.7248 32.2782 42.6663 32.4605C42.6224 32.599 42.659 32.7594 42.776 32.8615C42.9296 32.9927 43.1637 32.9781 43.3027 32.825C43.4124 32.6938 43.5368 32.5552 43.6685 32.4167C43.9245 32.1324 44.1951 31.848 44.4731 31.5637C44.7511 31.2867 45.0437 31.0096 45.3436 30.769C45.4167 30.7107 45.4972 30.6524 45.5703 30.6013C45.6435 30.5503 45.724 30.5065 45.7825 30.4847L45.8044 30.4774L45.8191 30.4701L45.8337 30.4628L45.8483 30.4701C45.9215 30.4847 45.9946 30.5211 46.0604 30.5503C46.1263 30.5867 46.1848 30.6305 46.236 30.6742C46.2872 30.7253 46.3238 30.7763 46.3457 30.8273C46.375 30.8784 46.3823 30.9294 46.3823 30.9732C46.3823 31.0169 46.3677 31.0679 46.3457 31.119L46.3384 31.1335C46.3238 31.17 46.3092 31.2065 46.3092 31.2429C46.2214 31.3012 46.119 31.3887 45.9654 31.5127C45.8483 31.6147 45.7093 31.7387 45.5777 31.8626C45.446 31.9939 45.3216 32.1251 45.2192 32.249C45.0144 32.4969 44.8901 32.7156 44.9486 32.7958C45.0144 32.876 45.2485 32.8031 45.5411 32.6646C45.6874 32.5917 45.841 32.5042 46.0019 32.4021C46.1555 32.3074 46.3165 32.198 46.4555 32.0741C46.6822 31.8772 46.8066 31.7022 46.8505 31.5637C46.8651 31.5564 46.8724 31.5491 46.887 31.5418C47.0553 31.396 47.2747 31.2502 47.4576 31.1773C47.5454 31.1408 47.6332 31.1263 47.6478 31.1335C47.6551 31.1408 47.6624 31.1481 47.6697 31.1627C47.6844 31.1919 47.6844 31.2721 47.6551 31.3596C47.6332 31.4471 47.582 31.5491 47.5308 31.6439C47.4795 31.746 47.4137 31.8408 47.3406 31.9355C47.304 31.9866 47.2674 32.0303 47.2308 32.0741C47.2235 32.0813 47.2235 32.0886 47.2162 32.0959C47.0992 32.1251 46.9382 32.198 46.7261 32.3365C46.1775 32.6938 45.5338 33.3281 45.6508 33.4957C45.7678 33.6634 46.5944 33.3135 47.1431 32.9562C47.2674 32.876 47.3625 32.8031 47.4283 32.7375H47.6478C47.7429 32.7448 47.838 32.7521 47.9331 32.7667C48.0209 32.7813 48.1086 32.8031 48.1818 32.825C48.2549 32.8469 48.2988 32.8833 48.3135 32.8979C48.3208 32.9052 48.3208 32.9052 48.3208 32.9125V32.9271V32.9562C48.3135 33 48.2769 33.0729 48.233 33.1385C48.1525 33.2552 48.0501 33.3718 47.9404 33.4812C47.838 33.4666 47.699 33.4812 47.5161 33.5249C47.2382 33.5905 46.9236 33.7145 46.6895 33.853C46.4555 33.9915 46.3092 34.1373 46.3384 34.2394C46.3677 34.3342 46.5798 34.3633 46.8431 34.3561C47.1065 34.3488 47.4283 34.305 47.6917 34.2467C47.9331 34.1884 48.0794 34.1228 48.1598 34.0498C48.1964 34.0644 48.2403 34.079 48.2696 34.0936C48.35 34.13 48.4085 34.1738 48.4451 34.2102C48.4817 34.254 48.489 34.2759 48.4963 34.3269C48.4963 34.3852 48.4744 34.4508 48.4378 34.5237Z" fill="white"/>
  <path d="M49.0137 14.8667C48.933 14.6952 48.8524 14.5164 48.7497 14.352C48.6984 14.2662 48.6544 14.1804 48.603 14.0946C48.5444 14.0159 48.493 13.9302 48.4344 13.8515C48.3244 13.6871 48.1924 13.5369 48.0677 13.3796C47.943 13.2223 47.7964 13.0865 47.6497 12.9435C47.063 12.393 46.3664 11.9354 45.6037 11.6137C44.841 11.292 44.0124 11.0989 43.1764 11.056C42.333 11.006 41.4897 11.1275 40.6977 11.3706C39.9057 11.6137 39.1577 11.9783 38.4904 12.443C37.8304 12.9078 37.2437 13.4583 36.7597 14.066C36.701 14.1446 36.635 14.2161 36.5764 14.2948C36.525 14.3734 36.4664 14.4521 36.415 14.5307C36.3637 14.6094 36.305 14.688 36.2537 14.7738C36.2024 14.8596 36.1584 14.9382 36.107 15.024C35.909 15.3529 35.755 15.6889 35.6157 16.0321C35.337 16.7185 35.1537 17.4048 35.0364 18.084C34.919 18.7632 34.8897 19.4496 35.0144 20.1002C35.0804 20.4219 35.183 20.7365 35.3224 21.0225C35.469 21.3085 35.6524 21.5659 35.865 21.7804C36.0777 21.9948 36.305 22.1807 36.5324 22.338C36.6497 22.4167 36.767 22.4882 36.8844 22.5525C36.943 22.5883 37.0017 22.6169 37.0677 22.6455C37.1044 22.6598 37.119 22.6669 37.141 22.6812C37.163 22.6955 37.185 22.7098 37.2144 22.7241C37.2657 22.7527 37.3244 22.7956 37.383 22.8242C37.449 22.8599 37.5077 22.8814 37.5737 22.91C37.6984 22.9529 37.8157 22.9815 37.9257 23.0172C38.1457 23.0744 38.3144 23.1531 38.4464 23.2818C38.5857 23.4033 38.681 23.5606 38.7544 23.7179C38.8277 23.8752 38.8644 24.0325 38.8864 24.1898C38.9304 24.4972 38.901 24.7689 38.8717 24.9905C38.8424 25.2121 38.8057 25.3837 38.791 25.4981C38.7837 25.5339 38.7837 25.5696 38.7764 25.5982C37.7717 25.6483 37.075 25.7841 37.0824 25.8699C37.0897 25.9414 37.5077 25.9772 38.153 26.0272C37.9477 26.2703 37.8377 26.5777 37.8377 26.8994C37.845 27.2426 37.9844 27.5787 38.241 27.8217C38.4904 28.0648 38.8057 28.1935 39.099 28.2579C39.1137 28.2579 39.121 28.265 39.1357 28.265C39.1137 28.4151 39.1137 28.5724 39.1284 28.7226C39.1797 29.1301 39.385 29.5019 39.6857 29.7593C39.8324 29.888 40.001 29.9881 40.1697 30.0524C40.3457 30.1239 40.5217 30.1525 40.6904 30.1668C41.035 30.1882 41.3577 30.0881 41.5924 29.9523C41.8344 29.8093 41.9957 29.6234 42.0984 29.459C42.201 29.2874 42.2377 29.1373 42.2524 29.0372C42.2597 28.9299 42.2524 28.8799 42.223 28.8727C42.201 28.8656 42.157 28.9085 42.1057 28.9871C42.047 29.0658 41.9737 29.173 41.8637 29.2874C41.7464 29.4018 41.5924 29.509 41.4017 29.5877C41.211 29.6592 40.9764 29.6949 40.7417 29.652C40.6244 29.6306 40.507 29.5948 40.397 29.5376C40.287 29.4804 40.1917 29.4089 40.1037 29.316C39.9277 29.1373 39.8177 28.8942 39.803 28.6511C39.7957 28.5438 39.8104 28.4366 39.8324 28.3294H39.913C40.1697 28.3365 40.4264 28.3437 40.6757 28.3508C41.1304 28.3651 41.563 28.3794 41.981 28.3866C41.981 28.3937 41.9884 28.4009 41.9884 28.4009C42.0397 28.5581 42.069 28.6725 42.0984 28.744C42.1277 28.8155 42.1717 28.8513 42.223 28.8656C42.2744 28.8799 42.3257 28.8656 42.3844 28.7941C42.4357 28.7297 42.4944 28.6082 42.509 28.4009C42.597 28.4009 42.6777 28.4009 42.7657 28.408H42.9197C42.971 28.408 43.037 28.408 43.0957 28.4009C43.1617 28.3937 43.235 28.3794 43.3084 28.3437C43.3817 28.3079 43.4477 28.2579 43.499 28.2007C43.5944 28.0863 43.6164 27.9719 43.6457 27.8861C43.6677 27.7931 43.6824 27.7145 43.697 27.6287C43.7264 27.4643 43.7484 27.3141 43.7557 27.1711C43.7704 26.9924 43.7704 26.8351 43.7704 26.7064C44.533 26.8422 45.0244 26.9352 45.3397 26.9638C45.7577 27.0067 45.875 26.9423 45.9044 26.8494C45.9337 26.7565 45.8677 26.6421 45.479 26.4633C45.3837 26.4204 45.2664 26.3775 45.1197 26.3275C44.9804 26.2774 44.8117 26.2274 44.621 26.1773C44.3864 26.113 44.115 26.0486 43.7997 25.9772C43.9024 25.8699 44.0124 25.6697 44.115 25.3265C44.2324 24.9405 44.2984 24.4757 44.2984 24.104C44.2984 23.9109 44.2764 23.7393 44.247 23.6249C44.7017 23.5463 45.2297 23.4105 45.809 23.1602C46.4617 22.8742 47.195 22.4453 47.8697 21.7518C48.0457 21.5873 48.1924 21.3871 48.361 21.1941C48.5077 20.9796 48.669 20.7723 48.7937 20.5292C49.0577 20.0502 49.2777 19.5068 49.4097 18.9134C49.5417 18.3128 49.593 17.6622 49.5344 16.9759C49.4977 16.2895 49.329 15.5745 49.0137 14.8667ZM48.713 18.7561C48.5957 19.2923 48.4124 19.7713 48.185 20.1932C48.075 20.4076 47.9357 20.6007 47.811 20.7866C47.6644 20.9653 47.5397 21.1441 47.3857 21.2942C46.799 21.9234 46.1537 22.3309 45.567 22.6097C44.9804 22.8885 44.445 23.0458 43.9904 23.1388C43.0737 23.3104 42.487 23.2675 42.135 23.2675C41.783 23.246 41.6584 23.2675 41.651 23.3175C41.6364 23.3676 41.739 23.4319 42.091 23.5463C42.179 23.5677 42.289 23.5892 42.4064 23.6106C42.465 23.6249 42.531 23.6321 42.6044 23.6464C42.6777 23.6535 42.751 23.6607 42.8317 23.6678C42.9124 23.675 43.0004 23.6821 43.0957 23.6893H43.389C43.5577 23.6964 43.7484 23.675 43.9464 23.6535C43.895 23.7465 43.8437 23.868 43.7924 24.0039C43.6677 24.3399 43.521 24.7546 43.411 25.1121C43.301 25.4695 43.2644 25.684 43.279 25.8199C43.279 25.8342 43.2864 25.8485 43.2864 25.8628C43.2277 25.8556 43.1764 25.8413 43.1104 25.8342C42.4724 25.7269 41.7757 25.6411 41.0864 25.5982C40.397 25.5553 39.715 25.541 39.121 25.5625C39.0184 25.5625 38.9157 25.5696 38.8204 25.5768C38.8277 25.5553 38.8424 25.5267 38.8497 25.4981C38.8937 25.3837 38.9524 25.2193 39.0037 24.9977C39.055 24.776 39.1137 24.49 39.0917 24.1469C39.0844 23.9753 39.0477 23.7894 38.9744 23.6035C38.901 23.4176 38.7984 23.2246 38.6297 23.0601C38.549 22.9743 38.4537 22.9028 38.3437 22.8385C38.2337 22.7741 38.1164 22.7313 38.0064 22.6955C37.8964 22.6598 37.779 22.624 37.6837 22.5811C37.6324 22.5597 37.5884 22.5382 37.5444 22.5096C37.5004 22.481 37.4564 22.4524 37.3977 22.4167C37.3684 22.3952 37.339 22.3809 37.3097 22.3595C37.2804 22.338 37.2364 22.3237 37.2144 22.3094C37.163 22.2808 37.1117 22.2522 37.053 22.2165C36.943 22.1521 36.8404 22.0806 36.7377 22.0091C36.5324 21.859 36.327 21.6874 36.151 21.4872C35.975 21.287 35.821 21.0654 35.7037 20.8152C35.5864 20.5649 35.5057 20.2933 35.4617 20.0001C35.3664 19.421 35.4104 18.7918 35.535 18.1555C35.6597 17.5121 35.8504 16.8615 36.1217 16.2252C36.261 15.9106 36.415 15.596 36.6057 15.2957C36.6497 15.2242 36.701 15.1456 36.745 15.0669C36.789 14.9883 36.8477 14.9239 36.899 14.8453C36.9504 14.7738 37.0017 14.7023 37.053 14.6308C37.1117 14.5593 37.1704 14.495 37.2217 14.4235C37.6764 13.8658 38.2264 13.3653 38.8424 12.9507C39.4584 12.536 40.1477 12.2071 40.8737 11.9998C41.5997 11.7853 42.355 11.6852 43.1104 11.7424C43.8657 11.7924 44.6064 11.9712 45.2884 12.2643C45.9704 12.5574 46.5937 12.965 47.107 13.4583C47.6204 13.9516 48.0237 14.5307 48.3024 15.1527C48.5884 15.7747 48.735 16.411 48.7937 17.0188C48.867 17.6408 48.8304 18.227 48.713 18.7561Z" fill="white"/>
  <path d="M52.5269 15.3163C52.897 15.146 53.3561 14.9513 53.7467 14.7972C54.1374 14.6431 54.3635 14.5457 54.4869 14.4403C54.6102 14.3348 54.6308 14.2294 54.6102 14.1158C54.5965 14.0022 54.5485 13.913 54.3909 13.8725C54.2333 13.84 53.966 13.8481 53.5274 14.0185C53.0889 14.1888 52.616 14.497 52.2802 14.8134C51.9444 15.1297 51.7594 15.4299 51.8142 15.5191C51.8759 15.6002 52.1569 15.4785 52.5269 15.3163Z" fill="white"/>
  <path d="M44.0322 9.91826C44.234 9.97127 44.7124 8.71409 44.9366 7.75227C45.1684 6.79803 45.0338 6.60869 44.832 6.55568C44.6302 6.50266 44.4284 6.61626 44.1966 7.57051C43.9649 8.52476 43.8304 9.86524 44.0322 9.91826Z" fill="white"/>
  <path d="M34.9029 12.7254C35.059 12.6186 34.5907 11.4727 34.1484 10.6826C33.706 9.89258 33.5174 9.85699 33.3613 9.96376C33.2052 10.0705 33.1467 10.2769 33.589 11.0599C34.0248 11.8428 34.7468 12.825 34.9029 12.7254Z" fill="white"/>
  <path d="M32.0238 21.4705C31.0657 21.7102 30.9522 21.9005 31.0018 22.0909C31.0515 22.2812 31.236 22.401 32.1941 22.1614C33.1522 21.9217 34.4154 21.4423 34.3657 21.252C34.3231 21.0616 32.9819 21.2308 32.0238 21.4705Z" fill="white"/>
  <path d="M51.725 22.425C52.1469 22.715 52.4259 22.8238 52.5975 22.8528C52.7763 22.8746 52.8478 22.8166 52.8979 22.7223C52.9479 22.6353 52.9551 22.5337 52.855 22.396C52.7548 22.2582 52.5331 22.0841 52.1326 21.8158C51.7321 21.5475 51.2672 21.2284 50.8882 20.9746C50.5091 20.728 50.2087 20.5467 50.1372 20.6265C50.0657 20.699 50.2374 21.0108 50.5449 21.3734C50.8596 21.736 51.303 22.1421 51.725 22.425Z" fill="white"/>
  <path d="M45.4936 18.0664C45.4786 18.0306 45.4636 18.0019 45.4411 17.9661L45.3736 17.8801C45.3511 17.8515 45.3286 17.8228 45.2987 17.8013L45.2237 17.7225C45.1712 17.6796 45.1187 17.6366 45.0663 17.6008C44.8489 17.4575 44.6315 17.3572 44.429 17.2569C44.2341 17.1566 44.0617 17.0564 43.9642 16.9417C43.9567 16.9274 43.9418 16.9131 43.9343 16.8988C43.9268 16.8916 43.9193 16.8844 43.9193 16.8773L43.9118 16.8558C43.9043 16.8415 43.8968 16.8271 43.8893 16.8056C43.8818 16.7913 43.8743 16.7698 43.8743 16.7555C43.8593 16.6839 43.8593 16.6051 43.8743 16.5191C43.9043 16.3472 43.9867 16.1538 44.0767 15.9389C44.1667 15.7311 44.2491 15.5234 44.3391 15.3157C44.429 15.1079 44.5115 14.9002 44.6015 14.6996C44.6464 14.5993 44.6914 14.4847 44.7289 14.3558C44.7664 14.2268 44.7814 14.0836 44.7664 13.9331C44.7439 13.7827 44.6839 13.6323 44.5715 13.5105C44.4515 13.3816 44.2716 13.3028 44.0992 13.2956C43.9268 13.2884 43.7768 13.3386 43.6569 13.3959C43.5294 13.4532 43.4245 13.5248 43.327 13.6036C42.9672 13.8902 42.6523 14.1982 42.3524 14.5062C42.0601 14.8142 41.7752 15.1151 41.4978 15.4016C40.9505 15.9819 40.4333 16.5334 39.961 17.0277C39.901 17.0922 39.8485 17.1495 39.7886 17.2139C39.7361 17.2713 39.6761 17.3357 39.6161 17.4074C39.5562 17.479 39.5037 17.5578 39.4737 17.6509C39.4362 17.744 39.4287 17.8443 39.4362 17.9303C39.4512 18.1165 39.5337 18.267 39.6311 18.3959C39.7286 18.5177 39.8485 18.6108 39.9535 18.6968C40.8156 19.3056 41.3854 19.6781 41.5353 19.7498C41.5353 19.7641 41.5428 19.7713 41.5428 19.7713C41.4678 19.7498 41.3029 19.979 40.9206 21.0463C40.8231 21.3114 40.7107 21.6266 40.5757 21.9991C40.5607 22.042 40.5382 22.0993 40.5232 22.1638C40.5082 22.2283 40.4932 22.3071 40.5007 22.4002C40.5082 22.4933 40.5532 22.6008 40.6282 22.6867C40.7032 22.7655 40.8081 22.8157 40.8981 22.8372C40.9955 22.8587 41.093 22.8658 41.1979 22.8443C41.3029 22.8228 41.3779 22.787 41.4603 22.744C41.6103 22.6581 41.7152 22.5578 41.8127 22.4718C42.225 22.1137 42.6898 21.7054 43.2221 21.2397C43.4844 21.0034 43.7618 20.7598 44.0617 20.4948C44.2116 20.3658 44.3616 20.2297 44.519 20.0864C44.6764 19.9432 44.8339 19.8071 45.0063 19.6495C45.1712 19.4919 45.3361 19.32 45.4636 19.0836C45.5236 18.969 45.576 18.84 45.5985 18.7111C45.6285 18.575 45.6285 18.4317 45.5985 18.2884C45.5535 18.2097 45.5311 18.1309 45.4936 18.0664Z" fill="white"/>
  <path d="M57.4228 27.9105C57.4077 27.8286 57.3926 27.7541 57.3699 27.6871C57.3246 27.5456 57.2641 27.4115 57.1886 27.2774C57.1206 27.1434 57.0374 27.0168 56.9392 26.8827C56.8863 26.8157 56.8334 26.7561 56.7579 26.6891C56.7201 26.6593 56.6747 26.6295 56.6067 26.6071C56.5765 26.5922 56.5312 26.5848 56.4934 26.5848C56.4707 26.5848 56.4556 26.5848 56.4405 26.5848C56.4254 26.5848 56.4103 26.5848 56.4027 26.5922C56.3045 26.6146 56.2289 26.6369 56.1458 26.6667C56.0702 26.6965 55.9871 26.7263 55.9116 26.7561C55.7982 26.8082 55.6773 26.8604 55.564 26.9125C55.2693 26.7114 54.9368 26.5475 54.5741 26.4433C54.5816 26.3465 54.5816 26.2496 54.5816 26.1528C54.5816 25.9964 54.5816 25.84 54.5741 25.6761L54.5665 25.6091L54.559 25.5495L54.5514 25.5048L54.5439 25.4825L54.5363 25.4527L54.5212 25.4229C54.5212 25.4155 54.5212 25.4155 54.5136 25.408C54.5061 25.4006 54.5061 25.3931 54.4985 25.3782C54.4834 25.3633 54.4759 25.341 54.4607 25.3261C54.4532 25.3186 54.4456 25.3112 54.4456 25.3112L54.4305 25.3038C54.3625 25.2516 54.3096 25.2367 54.2643 25.2144C54.2189 25.1995 54.1736 25.1846 54.1283 25.1771C53.9545 25.1399 53.7807 25.1176 53.6144 25.1101C53.4406 25.1027 53.2668 25.1101 53.0855 25.1399C52.9948 25.1548 52.8966 25.1771 52.7832 25.2293C52.7681 25.2367 52.753 25.2442 52.7379 25.2516C52.7228 25.2591 52.7077 25.2665 52.6926 25.2814C52.6623 25.3038 52.6246 25.341 52.6019 25.3857C52.549 25.4751 52.5414 25.5123 52.5263 25.5644C52.481 25.7506 52.4659 25.9145 52.4432 26.0858C52.4357 26.19 52.4281 26.3018 52.4205 26.406C52.073 26.5029 51.7329 26.6518 51.4231 26.8604C51.3551 26.8157 51.2871 26.7784 51.2115 26.7412C51.1511 26.704 51.0906 26.6742 51.0226 26.6369C50.9546 26.6071 50.8942 26.5699 50.8111 26.5401C50.7657 26.5252 50.7355 26.5103 50.6448 26.4954C50.6297 26.4954 50.6221 26.4954 50.607 26.4954C50.5844 26.4954 50.5617 26.4954 50.539 26.5029C50.5315 26.5029 50.5164 26.5103 50.5088 26.5103C50.4937 26.5103 50.4937 26.5178 50.4937 26.5178L50.4635 26.5327C50.4408 26.5401 50.4332 26.5475 50.4181 26.555C50.403 26.5624 50.3879 26.5699 50.3803 26.5773C50.2897 26.6369 50.2368 26.6965 50.1839 26.7561C50.0781 26.8678 49.995 26.987 49.9119 27.1136C49.8287 27.2328 49.7607 27.3594 49.7003 27.5009C49.67 27.5679 49.6398 27.6424 49.6172 27.7169C49.5945 27.7988 49.5718 27.8807 49.5718 28.0073C49.5718 28.0371 49.5794 28.0744 49.5869 28.1116C49.5945 28.1339 49.602 28.1563 49.6096 28.1712C49.6172 28.1935 49.6323 28.2159 49.6398 28.2308C49.6776 28.2903 49.7078 28.3201 49.7456 28.3499C49.8061 28.4095 49.8665 28.4542 49.9194 28.4989C49.9799 28.5436 50.0328 28.5883 50.0932 28.6329C49.9723 29.0947 49.9723 29.5863 50.1008 30.0406C50.0705 30.0555 50.0403 30.0778 50.0025 30.1002C49.9496 30.13 49.9043 30.1598 49.8514 30.197C49.7985 30.2342 49.7532 30.264 49.6852 30.3311C49.6776 30.3385 49.67 30.346 49.6549 30.3609C49.6474 30.3758 49.6398 30.3832 49.6247 30.3981L49.6096 30.4279C49.6096 30.4353 49.602 30.4353 49.602 30.4428C49.5945 30.4502 49.5945 30.4577 49.5869 30.4726C49.5794 30.4875 49.5718 30.5098 49.5718 30.5322C49.5718 30.5471 49.5718 30.5471 49.5643 30.5619C49.5567 30.6364 49.5567 30.6737 49.5643 30.7184C49.5718 30.8003 49.5945 30.8599 49.6096 30.9269C49.6474 31.0461 49.6927 31.1578 49.7456 31.262C49.8514 31.4706 49.9647 31.6642 50.1234 31.8579C50.1612 31.9026 50.2065 31.9547 50.267 31.9994C50.3274 32.0441 50.3879 32.0962 50.5012 32.1409C50.5315 32.1483 50.5692 32.1558 50.5995 32.1632H50.6977L50.7355 32.1558L50.7657 32.1483C50.7884 32.1409 50.8035 32.1409 50.8186 32.1334C50.8866 32.1186 50.9395 32.0962 50.9924 32.0739C51.1662 32.0068 51.3249 31.9324 51.4836 31.8579C51.8085 32.059 52.1485 32.2005 52.4885 32.2899V32.6325C52.4885 32.7293 52.4961 32.8187 52.5037 32.9229C52.5037 32.9453 52.5112 32.9751 52.5112 32.9974C52.5112 33.0197 52.5188 33.0495 52.5263 33.0793C52.5263 33.0942 52.5339 33.1091 52.5339 33.124C52.5414 33.1464 52.5414 33.1538 52.549 33.1836L52.5641 33.2208L52.5868 33.2655C52.6019 33.2879 52.6246 33.3102 52.6397 33.3326C52.6548 33.3475 52.6548 33.3475 52.6623 33.3475L52.6775 33.3623C52.7606 33.4219 52.821 33.4368 52.8739 33.4592C52.9268 33.4741 52.9797 33.489 53.025 33.4964C53.1233 33.5188 53.214 33.5262 53.3046 33.5336C53.486 33.5485 53.6598 33.5485 53.8336 33.5336C53.9242 33.5262 54.0074 33.5188 54.098 33.4964C54.1887 33.4741 54.2794 33.4517 54.3927 33.3921C54.423 33.3772 54.4532 33.3549 54.4834 33.3326L54.5287 33.2879C54.5439 33.273 54.559 33.2506 54.5665 33.2283C54.5968 33.1836 54.6043 33.1613 54.6119 33.1315C54.6194 33.1017 54.627 33.0868 54.6345 33.057C54.6572 32.9676 54.6648 32.8931 54.6799 32.8187C54.7101 32.5952 54.7252 32.3867 54.7328 32.1856C55.1106 32.059 55.4279 31.8802 55.6849 31.6866C55.8587 31.7834 56.0249 31.8728 56.1911 31.9473C56.244 31.9696 56.2969 31.9919 56.3574 32.0143L56.4027 32.0292C56.4254 32.0366 56.4405 32.0366 56.4632 32.0441C56.4783 32.0441 56.4934 32.0441 56.5009 32.0515H56.5236H56.5614C56.6218 32.0441 56.6294 32.0292 56.6521 32.0217C56.7276 31.9845 56.7654 31.9398 56.8108 31.9026C56.8485 31.8653 56.8788 31.8281 56.909 31.7908C57.0223 31.6493 57.1054 31.5153 57.1659 31.3961C57.2263 31.2769 57.2717 31.1727 57.3095 31.0759C57.3699 30.8897 57.385 30.7481 57.3624 30.6588C57.3397 30.5694 57.2944 30.5471 57.2792 30.5545C57.2868 30.5545 57.2868 30.5322 57.2641 30.4949C57.2415 30.4651 57.2112 30.4204 57.1583 30.3683C57.0677 30.2715 56.9165 30.1523 56.7201 30.0034C56.7805 29.8172 56.8259 29.6012 56.841 29.3554C56.8485 29.1171 56.8259 28.8415 56.7503 28.5659C56.8259 28.5287 56.909 28.484 56.9845 28.4393C57.0374 28.4095 57.0979 28.3723 57.1508 28.3425C57.2112 28.3052 57.2641 28.268 57.3246 28.2159C57.3397 28.201 57.3548 28.1861 57.3775 28.1637C57.385 28.1488 57.4001 28.1414 57.4077 28.119C57.4228 28.0967 57.4304 28.0595 57.4304 28.052C57.4379 27.9924 57.4304 27.9552 57.4228 27.9105ZM52.9193 30.629C52.753 30.5545 52.5566 30.4353 52.3903 30.2566C52.3072 30.1672 52.2316 30.0629 52.1712 29.9512C52.1107 29.8395 52.073 29.7129 52.0578 29.5788C52.0427 29.4448 52.0503 29.3033 52.0881 29.1692C52.1258 29.0351 52.1939 28.9011 52.2845 28.7894C52.4659 28.5585 52.7455 28.3797 53.0553 28.2978C53.3651 28.2233 53.7051 28.2308 53.9998 28.3276C54.2945 28.4244 54.5514 28.6106 54.7025 28.8415C54.7781 28.9532 54.831 29.0724 54.8537 29.1915C54.8839 29.3107 54.8839 29.4224 54.8688 29.5267C54.8386 29.7427 54.7554 29.9214 54.6496 30.0555C54.5439 30.197 54.423 30.3013 54.3096 30.3758C54.2492 30.413 54.1963 30.4502 54.1434 30.4726C54.1132 30.4875 54.0905 30.5024 54.0678 30.5098C54.0451 30.5247 54.0149 30.5322 53.9923 30.5396C53.9469 30.5619 53.9016 30.5768 53.8638 30.5917C53.826 30.6066 53.7882 30.6215 53.758 30.6364C53.69 30.6588 53.6447 30.6811 53.6069 30.7035C53.5313 30.7407 53.5011 30.7779 53.5011 30.8152C53.5086 30.7928 53.2593 30.7779 52.9193 30.629Z" fill="white"/>
  <path d="M27.625 16.63L27.6326 16.6836L27.6403 16.7294C27.6479 16.76 27.6555 16.783 27.6631 16.8059C27.6937 16.9053 27.7318 16.9894 27.77 17.0811C27.8539 17.2493 27.9378 17.4022 28.0675 17.5628C28.0828 17.5857 28.098 17.601 28.1209 17.6239L28.1819 17.6851L28.2277 17.708L28.243 17.7233L28.2659 17.7386C28.304 17.7616 28.3269 17.7769 28.3956 17.7998C28.4261 17.8074 28.4566 17.8151 28.4871 17.8151H28.571L28.6016 17.8074L28.6244 17.7998C28.6397 17.7998 28.655 17.7921 28.6702 17.7921C28.7236 17.7769 28.7694 17.7616 28.8152 17.7463C28.9449 17.7004 29.0593 17.6469 29.1661 17.5934C29.395 17.7386 29.6392 17.838 29.8757 17.9068V18.1285C29.8757 18.205 29.8833 18.2815 29.8833 18.3579C29.8833 18.3808 29.8833 18.3961 29.8909 18.4191C29.8909 18.442 29.8986 18.4649 29.8986 18.4879C29.8986 18.5032 29.9062 18.5108 29.9062 18.5261C29.9138 18.5414 29.9138 18.549 29.9214 18.5796L29.9367 18.6178L29.9443 18.6331C29.9443 18.6331 29.952 18.6484 29.9596 18.6637C29.9748 18.6867 29.9901 18.7096 30.013 18.7325C30.0283 18.7478 30.0283 18.7478 30.0283 18.7478L30.0435 18.7555C30.1198 18.8166 30.1732 18.8243 30.219 18.8472C30.2648 18.8625 30.3105 18.8701 30.3487 18.8778C30.4326 18.8931 30.5013 18.9007 30.5776 18.9084C30.7225 18.9237 30.8599 18.9237 30.9972 18.9084C31.0658 18.9007 31.1345 18.8931 31.2108 18.8778C31.2871 18.8625 31.3558 18.8472 31.4626 18.786C31.5007 18.7631 31.577 18.7019 31.6228 18.6331C31.6457 18.5873 31.6533 18.572 31.6609 18.5414C31.6686 18.5185 31.6762 18.5032 31.6762 18.4802C31.6915 18.4038 31.7067 18.3426 31.7143 18.2891C31.7372 18.1209 31.7449 17.968 31.7525 17.8227C32.0195 17.7233 32.2484 17.5934 32.4391 17.4481C32.5688 17.5169 32.6833 17.5781 32.8053 17.6316C32.8435 17.6469 32.8893 17.6698 32.935 17.6851L32.9732 17.7004C32.9885 17.708 33.0037 17.708 33.019 17.708C33.0342 17.708 33.0419 17.708 33.0571 17.7157H33.0724H33.1105C33.1716 17.708 33.1716 17.7004 33.1944 17.6851C33.2097 17.6775 33.2326 17.6698 33.2479 17.6545L33.2784 17.6316L33.3089 17.6087L33.3318 17.5857C33.3623 17.5551 33.3852 17.5246 33.4081 17.494C33.4996 17.3793 33.5607 17.2723 33.6064 17.1729C33.6522 17.0735 33.6904 16.9894 33.7132 16.9129C33.759 16.76 33.7666 16.6453 33.7438 16.5765C33.7361 16.5612 33.7361 16.5459 33.7285 16.5307C33.7209 16.5154 33.7132 16.5077 33.7056 16.5001C33.6904 16.4848 33.6751 16.4848 33.6675 16.4924C33.6751 16.4924 33.6751 16.4695 33.6598 16.4466C33.6446 16.416 33.6217 16.3854 33.5835 16.3395C33.5149 16.2631 33.4004 16.1637 33.2555 16.0566C33.3013 15.9114 33.3394 15.7432 33.347 15.552C33.3547 15.3686 33.3394 15.1621 33.286 14.9481C33.3394 14.9175 33.3928 14.8869 33.4538 14.8563C33.4996 14.8334 33.5378 14.8028 33.5835 14.7799C33.6293 14.7493 33.6751 14.7187 33.7209 14.6805C33.7361 14.6728 33.7514 14.6575 33.759 14.6346C33.7666 14.6193 33.7743 14.6117 33.7819 14.5964C33.7895 14.5811 33.7895 14.5734 33.7972 14.5581C33.7972 14.5505 33.8048 14.5429 33.8048 14.5429V14.5352C33.8048 14.5123 33.8124 14.4893 33.8124 14.4664L33.8048 14.4129C33.7972 14.3441 33.7819 14.2906 33.759 14.2294C33.7209 14.1147 33.6751 14.0077 33.6217 13.9006C33.5683 13.7936 33.5072 13.6866 33.4233 13.5872C33.4004 13.5642 33.3852 13.5337 33.3547 13.5107C33.3394 13.4954 33.3318 13.4878 33.3165 13.4725L33.2707 13.4343C33.2555 13.419 33.2326 13.4113 33.2173 13.3961C33.1944 13.3808 33.1792 13.3731 33.141 13.3578C33.1105 13.3502 33.08 13.3425 33.0419 13.3425C33.019 13.3425 33.0113 13.3425 32.9961 13.3425C32.9808 13.3425 32.9732 13.3425 32.9579 13.3502C32.874 13.3655 32.813 13.3884 32.7519 13.4113C32.6909 13.4343 32.6299 13.4572 32.5688 13.4878C32.4849 13.526 32.401 13.5642 32.3247 13.6025C32.1111 13.4572 31.8669 13.3349 31.5999 13.2508C31.5999 13.182 31.6075 13.1208 31.6075 13.052C31.6075 12.9297 31.6075 12.8074 31.5999 12.6697L31.5923 12.6162L31.5846 12.5551L31.577 12.5168L31.5694 12.5015L31.5618 12.4786L31.5846 12.448L31.577 12.4327C31.5694 12.4251 31.5694 12.4174 31.5618 12.4098C31.5541 12.3945 31.5389 12.3792 31.5236 12.3639C31.516 12.3563 31.5084 12.3563 31.5084 12.3486L31.5007 12.341C31.4855 12.3333 31.4702 12.3181 31.4549 12.3104L31.4321 12.2951C31.4244 12.2951 31.4244 12.2875 31.4168 12.2875L31.3558 12.2569C31.3176 12.2492 31.2795 12.234 31.2413 12.2263C31.0964 12.1957 30.9667 12.1804 30.8293 12.1728C30.692 12.1651 30.5547 12.1728 30.4097 12.1957C30.3334 12.211 30.2571 12.2263 30.158 12.2722L30.1198 12.2951C30.1045 12.3028 30.0969 12.3104 30.0817 12.3257C30.0511 12.3563 30.0206 12.3792 29.9977 12.4174C29.952 12.5015 29.9443 12.5321 29.9367 12.578C29.8986 12.7309 29.8833 12.8609 29.868 12.9985C29.8604 13.0673 29.8528 13.1361 29.8528 13.2126C29.601 13.289 29.3569 13.3961 29.1356 13.5413C29.0898 13.5184 29.0517 13.4878 29.0059 13.4649C28.9067 13.4113 28.8152 13.3578 28.6931 13.3043C28.655 13.289 28.6321 13.2737 28.5482 13.2661C28.5405 13.2661 28.5253 13.2661 28.5176 13.2661C28.4947 13.2661 28.4719 13.2661 28.4566 13.2737C28.4337 13.2737 28.4108 13.2814 28.4108 13.289L28.3879 13.2967C28.3727 13.3043 28.3574 13.312 28.3422 13.3196C28.3269 13.3272 28.3116 13.3349 28.304 13.3425C28.2659 13.3655 28.2354 13.3961 28.2125 13.419L28.1743 13.4572L28.1438 13.4954C28.0599 13.5872 27.9912 13.6866 27.9225 13.786C27.8615 13.8854 27.8005 13.9847 27.7547 14.0994C27.7394 14.13 27.7318 14.1529 27.7166 14.1835C27.7089 14.2141 27.6937 14.2447 27.686 14.2753C27.6784 14.3059 27.6631 14.3441 27.6631 14.3823C27.6631 14.4052 27.6555 14.4205 27.6555 14.4435V14.5199C27.6555 14.5429 27.6631 14.5811 27.6708 14.6193C27.6784 14.6346 27.6784 14.6575 27.686 14.6728C27.6937 14.6881 27.7089 14.7111 27.7166 14.7263C27.7547 14.7799 27.7776 14.8028 27.8081 14.8334C27.8615 14.8869 27.9073 14.9175 27.9531 14.9557C27.9912 14.9863 28.0217 15.0092 28.0522 15.0322C27.9683 15.3762 27.976 15.7355 28.0522 16.0796C28.0446 16.0872 28.0294 16.0949 28.0217 16.1025C27.9836 16.1255 27.9454 16.1484 27.8997 16.179C27.8615 16.2096 27.8157 16.2325 27.7623 16.2937C27.7547 16.3013 27.7471 16.3089 27.7394 16.3166C27.7318 16.3242 27.7242 16.3319 27.7089 16.3548L27.6937 16.3777C27.6937 16.3854 27.686 16.3854 27.686 16.393C27.6784 16.4007 27.6784 16.4083 27.6708 16.4236C27.6631 16.4389 27.6555 16.4618 27.6555 16.4771V16.5001C27.6555 16.5307 27.6479 16.5536 27.6479 16.5842V16.6148L27.625 16.63ZM30.3029 16.5307C30.1732 16.4695 30.0283 16.3778 29.9138 16.2325C29.8528 16.1637 29.7994 16.0872 29.7612 15.9955C29.7154 15.9114 29.6926 15.812 29.6849 15.7126C29.6773 15.6132 29.6849 15.5138 29.7155 15.4144C29.746 15.315 29.7917 15.2233 29.8604 15.1316C29.9977 14.9634 30.2037 14.8334 30.425 14.7722C30.6539 14.7187 30.9056 14.7263 31.1193 14.8028C31.3329 14.8793 31.5236 15.0169 31.6304 15.1851C31.6838 15.2692 31.722 15.3533 31.7372 15.4374C31.7601 15.5215 31.7601 15.6056 31.7525 15.682C31.7372 15.8349 31.6762 15.9649 31.5999 16.0719C31.5236 16.179 31.4397 16.2554 31.3558 16.3166C31.2718 16.3777 31.1955 16.4236 31.1269 16.4542C30.9896 16.523 30.898 16.5612 30.837 16.5995C30.7759 16.6377 30.7607 16.6759 30.7607 16.7141C30.7454 16.6759 30.5623 16.6606 30.3029 16.5307Z" fill="white"/>
</svg>