<svg xmlns="http://www.w3.org/2000/svg" width="72" height="72" viewBox="0 0 72 72" fill="none">
  <circle cx="36" cy="36" r="36" fill="#9747FF"/>
  <path d="M55.991 62.225L55.4013 58.9164C55.0052 56.637 53.3821 54.8069 51.1653 54.14L48.8863 53.455C48.4694 53.3299 48.0255 53.3997 47.6674 53.6464C47.5364 53.7366 47.424 53.8465 47.332 53.9702L46.075 53.5892L45.8417 51.5895C46.7528 50.8636 47.6397 49.9189 48.4623 48.7803C48.8419 48.255 49.1266 47.7829 49.3412 47.3136C50.9679 47.1595 52.2448 45.7868 52.2448 44.1211C52.2448 43.1421 51.6801 42.2929 50.8596 41.8805C51.8959 40.5463 52.1184 38.322 51.3502 35.9057C51.2399 35.5588 50.8693 35.3671 50.5223 35.4772C50.1753 35.5875 49.9835 35.9583 50.0938 36.3052C50.7247 38.2896 50.5811 40.1215 49.7982 41.097C49.4826 40.1303 48.7875 39.2472 47.81 38.6108C46.6913 37.8824 45.5463 37.8442 44.4391 37.8073C42.7743 37.7518 41.0537 37.6932 38.7535 35.4986L38.7268 35.239H39.1642C41.9467 35.239 44.425 33.9132 46.002 31.8607C47.0863 32.2188 48.0191 32.8755 48.7785 33.8188C48.9087 33.9806 49.0997 34.0646 49.2924 34.0646C49.4374 34.0646 49.5836 34.0169 49.7053 33.9188C49.9889 33.6904 50.0337 33.2755 49.8054 32.992C48.9722 31.9571 47.9243 31.1848 46.7409 30.726C47.4057 29.5045 47.7836 28.1053 47.7836 26.6195C47.7834 21.8666 43.9168 18 39.164 18H35.7771C35.4129 18 35.1179 18.2951 35.1179 18.6592C35.1179 19.0232 35.4129 19.3184 35.7771 19.3184H39.164C43.1898 19.3184 46.4651 22.5937 46.4651 26.6195C46.4651 30.6453 43.1897 33.9205 39.164 33.9205H24.2432C23.7426 33.4243 23.0542 33.1171 22.2952 33.1171C21.5363 33.1171 20.8479 33.4243 20.3473 33.9205H19.6208C18.0768 33.9205 16.6013 33.4447 15.3536 32.5444C15.0585 32.3315 14.6462 32.398 14.4333 32.6932C14.2202 32.9885 14.2869 33.4005 14.5821 33.6135C16.0512 34.6736 17.7873 35.2351 19.6038 35.2385C19.5539 35.4463 19.5267 35.6628 19.5267 35.8857C19.5267 37.4122 20.7687 38.6542 22.2952 38.6542C23.8218 38.6542 25.0638 37.4122 25.0638 35.8857C25.0638 35.663 25.0366 35.4466 24.9867 35.2389H31.6983C31.3089 36.1407 31.1054 37.1868 31.1054 38.3238C31.1054 39.4693 31.4353 41.0454 32.2383 42.0261C31.5566 42.4746 31.1054 43.246 31.1054 44.121C31.1054 45.7884 32.3849 47.1622 34.0139 47.3139C34.2265 47.7848 34.5094 48.2565 34.8878 48.7802C35.7106 49.9192 36.5978 50.8641 37.5091 51.5901L37.2731 53.6081L36.0276 53.9826C35.9339 53.8536 35.818 53.7396 35.6826 53.6463C35.3246 53.3995 34.8803 53.3298 34.4639 53.4549L32.1846 54.14C31.2268 54.4165 30.165 55.0658 29.3827 55.9259C28.6386 56.7657 28.1428 57.7998 27.9492 58.9135L27.359 62.2249C27.2951 62.5833 27.5339 62.9256 27.8923 62.9895C28.2507 63.0534 28.5931 62.8147 28.6569 62.4562L29.2476 59.1421C29.3994 58.2686 29.7859 57.4604 30.3655 56.8046C30.8938 56.2484 31.6501 55.6642 32.5641 55.4025L34.8433 54.7176C34.8837 54.7054 34.9152 54.7186 34.9344 54.7318C34.9617 54.7506 34.9766 54.7767 34.979 54.8094C35.2366 58.3915 36.8205 62.4144 36.8878 62.5839C36.9905 62.8425 37.2384 63 37.5007 63C37.5816 63 37.6639 62.985 37.7438 62.9533C38.0822 62.819 38.2475 62.4357 38.1132 62.0975C38.0983 62.06 36.7005 58.5105 36.3444 55.2641L37.2292 54.998C37.3135 55.5442 37.5358 56.0624 37.8801 56.4895C38.074 56.7302 38.2968 56.9487 38.5423 57.139C38.6624 57.2321 38.8045 57.2772 38.9457 57.2772C39.1424 57.2772 39.3372 57.1894 39.4671 57.0219C39.6901 56.7341 39.6377 56.3201 39.35 56.097C39.1855 55.9695 39.0364 55.8232 38.9066 55.6622C38.6035 55.2862 38.4632 54.7837 38.5216 54.2835L38.7387 52.4272C39.7264 52.9874 40.7213 53.2848 41.6751 53.2848C42.6291 53.2848 43.6244 52.9874 44.6122 52.4268L44.8289 54.2838C44.8872 54.7838 44.7468 55.2861 44.4439 55.662C43.8755 56.3671 42.9994 56.7412 41.8403 56.7739C41.4763 56.7841 41.1897 57.0874 41.1999 57.4513C41.2099 57.8089 41.503 58.0919 41.8585 58.0919C41.8647 58.0919 41.871 58.0919 41.8774 58.0917C43.8235 58.0369 44.9054 57.1901 45.4704 56.4893C45.8181 56.0578 46.0414 55.5336 46.1237 54.9815L47.012 55.2508C46.9361 56.0713 46.7984 57.1479 46.5492 58.2935L45.9604 60.4118C45.7531 61.0052 45.5194 61.551 45.266 62.0344C45.0969 62.3567 45.2211 62.7552 45.5434 62.9243C45.6412 62.9756 45.7459 62.9999 45.8492 62.9999C46.0863 62.9999 46.3156 62.8715 46.4334 62.6469C46.72 62.1005 46.9821 61.4877 47.2124 60.8252C47.217 60.812 47.2212 60.7987 47.2249 60.7853L47.8244 58.6285C47.8277 58.6166 47.8306 58.6047 47.8333 58.5926C48.1608 57.0933 48.3065 55.7077 48.3711 54.8092C48.3735 54.7765 48.3885 54.7504 48.4158 54.7316C48.4349 54.7184 48.4661 54.7051 48.5069 54.7174L50.7859 55.4023C52.5216 55.9245 53.7925 57.3574 54.103 59.1448L54.6932 62.4561C54.7571 62.8145 55.0987 63.0531 55.4578 62.9895C55.8161 62.9257 56.0549 62.5834 55.991 62.225ZM49.7988 45.848C49.9447 45.0585 49.9794 44.1555 49.9866 42.9594C50.5229 43.0743 50.9264 43.5512 50.9264 44.121C50.9264 44.8914 50.462 45.5544 49.7988 45.848ZM22.2952 37.3359C21.4956 37.3359 20.845 36.6853 20.845 35.8857C20.845 35.086 21.4956 34.4355 22.2952 34.4355C23.0949 34.4355 23.7454 35.086 23.7454 35.8857C23.7454 36.6853 23.0949 37.3359 22.2952 37.3359ZM37.4013 35.2389L37.4522 35.7336C37.0365 37.0032 36.5538 37.9637 35.6095 38.5187C34.4657 39.1909 33.7157 40.2126 33.4693 41.399C32.791 40.8562 32.4238 39.3983 32.4238 38.3237C32.4238 37.1291 32.6825 36.0709 33.1731 35.2388H37.4013V35.2389ZM32.4238 44.121C32.4238 43.5447 32.8366 43.0632 33.3822 42.9556C33.3892 44.1577 33.4229 45.065 33.566 45.8551C32.8948 45.5649 32.4238 44.8972 32.4238 44.121ZM35.9565 48.0082C34.7487 46.3365 34.6987 45.4394 34.6987 42.2735C34.6987 41.1993 35.2742 40.2449 36.2773 39.6553C37.3693 39.0135 37.9815 38.0259 38.4099 36.9636C40.8165 39.0054 42.7846 39.0713 44.3952 39.1249C45.4481 39.1599 46.2799 39.1877 47.0907 39.7156C47.8543 40.2127 48.6701 41.1457 48.6701 42.2735C48.6701 45.5406 48.5601 46.3938 47.3938 48.0082C45.5764 50.5237 43.492 51.9664 41.6752 51.9664C39.8584 51.9664 37.7739 50.5237 35.9565 48.0082Z" fill="white"/>
  <path d="M12.3184 26.6194C12.3184 22.5936 15.5937 19.3184 19.6195 19.3184H32.6567C33.0208 19.3184 33.3159 19.0232 33.3159 18.6592C33.3159 18.2951 33.0208 18 32.6567 18H19.6195C14.8667 18 11 21.8667 11 26.6195C11 28.2335 11.4489 29.8074 12.2984 31.1711C12.4234 31.3717 12.6385 31.4818 12.8585 31.4818C12.9775 31.4818 13.098 31.4496 13.2065 31.3821C13.5155 31.1896 13.6099 30.7831 13.4174 30.474C12.6985 29.3197 12.3184 27.9868 12.3184 26.6194Z" fill="white"/>
  <path d="M44.3545 41.9941C43.9904 41.9941 43.6953 42.2893 43.6953 42.6533V43.7959C43.6953 44.1599 43.9904 44.4551 44.3545 44.4551C44.7186 44.4551 45.0137 44.1599 45.0137 43.7959V42.6533C45.0137 42.2893 44.7186 41.9941 44.3545 41.9941Z" fill="white"/>
  <path d="M39.0811 41.9941C38.7169 41.9941 38.4219 42.2893 38.4219 42.6533V43.7959C38.4219 44.1599 38.7169 44.4551 39.0811 44.4551C39.4452 44.4551 39.7402 44.1599 39.7402 43.7959V42.6533C39.7402 42.2893 39.4452 41.9941 39.0811 41.9941Z" fill="white"/>
  <path d="M43.7875 47.6113C43.1477 47.538 42.4886 47.6127 41.8818 47.8276C41.2971 48.0349 40.7546 48.3752 40.3129 48.8118C40.0541 49.0678 40.0516 49.4852 40.3076 49.744C40.4366 49.8744 40.6064 49.9397 40.7764 49.9397C40.9438 49.9397 41.1114 49.8763 41.2398 49.7493C41.5445 49.4479 41.9188 49.2131 42.3221 49.0702C42.8508 48.8829 43.3288 48.8857 43.6369 48.9211C43.9976 48.9626 44.3255 48.7031 44.367 48.3414C44.4086 47.9798 44.1492 47.6529 43.7875 47.6113Z" fill="white"/>
  <path d="M29.6309 38.5225C29.6309 37.432 28.7437 36.5449 27.6533 36.5449C26.5629 36.5449 25.6758 37.432 25.6758 38.5225C25.6758 39.6129 26.5629 40.5 27.6533 40.5C28.7437 40.5 29.6309 39.6129 29.6309 38.5225ZM26.9941 38.5225C26.9941 38.1589 27.2898 37.8633 27.6533 37.8633C28.0168 37.8633 28.3125 38.1589 28.3125 38.5225C28.3125 38.886 28.0168 39.1816 27.6533 39.1816C27.2898 39.1816 26.9941 38.886 26.9941 38.5225Z" fill="white"/>
  <path d="M40.7077 46.1022C41.0141 46.3066 41.3733 46.4087 41.7325 46.4087C42.0917 46.4087 42.4509 46.3065 42.7574 46.1022C43.0602 45.9002 43.1421 45.4909 42.9401 45.1881C42.7381 44.8853 42.3291 44.8034 42.0259 45.0053C41.8589 45.1168 41.6064 45.1169 41.4389 45.0053C41.1359 44.8035 40.7267 44.8853 40.5248 45.1882C40.3229 45.491 40.4048 45.9002 40.7077 46.1022Z" fill="white"/>
  <path d="M32.3227 23.2C32.2158 23.0067 32.0894 22.8135 31.9403 22.6208C30.9721 21.3702 28.9761 20.56 27.0894 20.6524C25.8217 20.7138 24.7719 21.1659 24.0708 21.9397C22.5075 21.3959 20.8489 21.686 19.63 22.3919C18.6602 22.9533 17.9599 23.7489 17.5883 24.6505C17.3629 24.3 17.2723 23.7411 17.4732 23.1757C17.6039 22.836 17.4344 22.4545 17.0946 22.3239C16.7544 22.193 16.3733 22.3628 16.2427 22.7025C15.9498 23.4643 15.9676 24.309 16.2916 25.0203C16.5089 25.4971 16.8528 25.8858 17.2834 26.1492C17.2807 26.4932 17.3226 26.8419 17.4116 27.1899C17.737 28.4623 18.6152 29.4877 19.8845 30.0771C20.2743 30.2581 20.6938 30.3951 21.1383 30.4878C21.5757 31.6703 23.112 32.5598 24.6565 32.5462C25.9306 32.5462 27.0692 31.9788 27.8937 30.9235C28.1911 30.543 28.3297 30.0523 28.3704 29.5301C29.1398 30.161 30.0208 30.7607 31.1183 31.1406C32.1723 31.5055 33.3062 31.5237 34.3816 31.246C35.6791 31.8771 37.2221 31.9362 38.6366 31.4054C40.0833 30.8624 41.1854 29.7861 41.74 28.3745C42.3253 26.8845 41.9265 25.0385 40.7476 23.7808C40.2858 23.2882 39.5035 22.6786 38.292 22.3734C37.9664 21.7645 37.5426 21.1665 37.0222 20.5904C36.7783 20.3202 36.3613 20.2991 36.0912 20.543C35.8211 20.787 35.7999 21.2038 36.0439 21.474C36.2543 21.707 36.4459 21.9427 36.6184 22.1801C35.7178 22.1842 34.6624 22.3435 33.4321 22.7372C33.0404 22.8623 32.6722 23.0189 32.3227 23.2ZM20.2906 23.5328C21.1086 23.0593 22.1878 22.8326 23.2438 23.0757C21.8891 24.788 20.0969 25.4509 18.7575 25.2674C19.0377 24.5001 19.6507 23.9031 20.2906 23.5328ZM20.9646 27.7757C20.8401 28.1725 20.7889 28.6013 20.8084 29.0357C19.5778 28.5617 18.8177 27.7225 18.6312 26.5824C19.5236 26.6956 20.497 26.5397 21.4514 26.121C22.6267 25.6056 23.6681 24.7442 24.4907 23.6126C24.6951 23.7482 24.8936 23.9074 25.0839 24.0926C25.5312 24.5278 25.9851 25.3123 26.3465 26.1813C25.2462 25.5422 23.9692 25.3119 22.2633 26.1839C21.6408 26.5021 21.1918 27.0526 20.9646 27.7757ZM22.16 29.3044C22.0959 28.9103 22.1145 28.5147 22.2225 28.1706C22.3429 27.7871 22.5585 27.5137 22.8632 27.3578C24.501 26.5209 25.4775 27.0278 26.6551 28.0273C25.9715 28.5289 25.2337 28.9178 24.3788 29.1077C23.5519 29.2915 22.8125 29.3482 22.16 29.3044ZM26.8549 30.1119C26.0578 31.1323 25.0737 31.2756 24.3893 31.216C23.7507 31.1606 23.2001 30.9149 22.8398 30.6295C23.4237 30.6128 24.0347 30.5347 24.6647 30.3948C25.5738 30.1928 26.3609 29.8169 27.0735 29.343C27.0585 29.6719 26.9898 29.9392 26.8549 30.1119ZM27.995 26.8745C27.9927 26.867 27.9904 26.8594 27.9881 26.8518C27.5215 25.321 26.7425 23.8671 26.0033 23.1478C25.7816 22.932 25.5513 22.7424 25.3149 22.5772C25.9127 22.1081 26.6809 21.992 27.1533 21.9691C28.6141 21.898 30.1887 22.5117 30.8978 23.4277C31.0192 23.5844 31.1194 23.7415 31.2021 23.8995C30.334 24.5335 29.574 25.298 28.8285 26.0481C28.5492 26.3292 28.2732 26.607 27.995 26.8745ZM31.5494 29.8947C30.394 29.4947 29.5021 28.7868 28.6692 28.0517C29.0439 27.7016 29.4053 27.338 29.7635 26.9774C30.3623 26.375 30.945 25.7886 31.5654 25.2834C31.5903 25.6239 31.5856 25.9763 31.5807 26.346C31.5643 27.5675 31.5464 28.9131 32.7411 30.1106C32.3347 30.0978 31.9329 30.0275 31.5494 29.8947ZM38.9282 24.0201C39.2502 24.1963 39.5373 24.4172 39.7856 24.6822C40.7483 25.7092 40.8374 27.0661 40.5128 27.8923C40.0967 28.9516 39.2658 29.7608 38.1733 30.1709C37.5421 30.4078 36.8797 30.4917 36.244 30.4248C36.972 29.9531 37.6178 29.3267 38.1198 28.5684C39.0465 27.1683 39.3076 25.5914 38.9282 24.0201ZM37.3936 23.545C38.0074 25.0289 37.8926 26.523 37.0204 27.8406C36.4069 28.7676 35.5014 29.4515 34.5092 29.8153C32.866 28.8328 32.88 27.7824 32.899 26.3637C32.9072 25.7595 32.9157 25.1128 32.7798 24.4502C33.1127 24.2666 33.462 24.1117 33.834 23.9927C35.1713 23.5647 36.3749 23.4175 37.3936 23.545Z" fill="white"/>
</svg>