<svg width="41" height="40" viewBox="0 0 41 40" fill="none" xmlns="http://www.w3.org/2000/svg">
<rect x="0.5" width="40" height="39.2" rx="19.6" fill="white"/>
<path d="M24.4422 23.7228C24.4983 23.6339 24.5544 23.5468 24.6105 23.4563C27.1343 19.3924 28.4043 15.8374 28.386 12.8913C28.3748 10.8644 27.5392 8.92422 26.0618 7.4947C24.5844 6.06518 22.5853 5.26255 20.5013 5.26221C18.4173 5.26186 16.4179 6.06383 14.94 7.49287C13.4621 8.9219 12.6258 10.8618 12.6139 12.8887C12.5954 15.8374 13.8657 19.3928 16.3894 23.4563C16.4455 23.5468 16.5016 23.6339 16.5577 23.7228C11.2445 24.3614 7.72217 26.2084 7.72217 28.4012C7.72217 31.1543 13.3337 33.3107 20.4998 33.3107C27.666 33.3107 33.2775 31.1543 33.2775 28.4012C33.2775 26.2084 29.7551 24.3614 24.4422 23.7228ZM13.4641 12.8913C13.4588 11.9893 13.637 11.0951 13.9883 10.2602C14.3396 9.42539 14.8571 8.66633 15.5111 8.02672C16.1651 7.38711 16.9427 6.87957 17.7991 6.5333C18.6555 6.18702 19.5738 6.00885 20.5013 6.00902C21.4288 6.00919 22.347 6.18771 23.2033 6.5343C24.0596 6.88088 24.8369 7.38871 25.4907 8.02856C26.1444 8.66841 26.6617 9.42767 27.0127 10.2626C27.3636 11.0976 27.5414 11.9919 27.5358 12.8939C27.5722 18.7672 21.9268 26.0111 20.4998 27.7482C19.0729 26.0111 13.4272 18.767 13.4641 12.8913ZM20.4998 32.4838C13.365 32.4838 8.57239 30.3727 8.57239 28.4012C8.57239 26.6528 12.1261 25.0261 17.0586 24.4985C18.0126 25.9472 19.0535 27.34 20.176 28.6696C20.2159 28.7153 20.2655 28.7521 20.3214 28.7772C20.3773 28.8024 20.4382 28.8155 20.4998 28.8155C20.5615 28.8155 20.6223 28.8024 20.6783 28.7772C20.7342 28.7521 20.7838 28.7153 20.8236 28.6696C21.9462 27.34 22.9872 25.9472 23.9413 24.4985C28.8726 25.0261 32.4275 26.6519 32.4275 28.4012C32.4273 30.3727 27.6347 32.4838 20.4998 32.4838Z" fill="#242C61"/>
<path d="M17.0243 30.0889C15.1378 29.854 13.6234 29.4405 12.7615 28.9252C12.7139 28.8956 12.6608 28.8756 12.6052 28.8662C12.5496 28.8568 12.4926 28.8583 12.4375 28.8706C12.3825 28.8828 12.3306 28.9056 12.2847 28.9376C12.2388 28.9697 12.2 29.0102 12.1704 29.057C12.1408 29.1038 12.1211 29.1558 12.1125 29.2101C12.1038 29.2643 12.1063 29.3197 12.1199 29.373C12.1335 29.4263 12.1578 29.4764 12.1915 29.5205C12.2252 29.5645 12.2676 29.6016 12.3162 29.6295C13.2789 30.2051 14.9128 30.6597 16.9164 30.909C16.9345 30.9112 16.9527 30.9123 16.9709 30.9123C17.0786 30.9118 17.1821 30.8715 17.2605 30.7995C17.3389 30.7276 17.3863 30.6294 17.3931 30.5248C17.3998 30.4202 17.3655 30.317 17.2971 30.2361C17.2286 30.1552 17.1311 30.1025 17.0243 30.0889Z" fill="#242C61"/>
<path d="M21.2137 30.2863C20.6212 30.2995 20.0042 30.2964 19.402 30.2749C19.3462 30.2729 19.2905 30.2817 19.2381 30.3006C19.1858 30.3195 19.1377 30.3483 19.0968 30.3853C19.0559 30.4222 19.0228 30.4667 18.9996 30.5161C18.9763 30.5655 18.9633 30.6189 18.9612 30.6732C18.9592 30.7275 18.9681 30.7816 18.9876 30.8326C19.0071 30.8835 19.0366 30.9302 19.0747 30.97C19.1127 31.0098 19.1584 31.042 19.2092 31.0646C19.26 31.0872 19.3148 31.0999 19.3707 31.1019C19.7443 31.1151 20.1237 31.122 20.4998 31.122C20.7471 31.122 20.9917 31.1191 21.2336 31.1135C21.3463 31.1109 21.4534 31.0649 21.5313 30.9856C21.6091 30.9063 21.6514 30.8002 21.6488 30.6905C21.6482 30.636 21.6364 30.5821 21.6141 30.5321C21.5918 30.4821 21.5594 30.4369 21.5189 30.3992C21.4783 30.3615 21.4304 30.3321 21.378 30.3128C21.3256 30.2934 21.2698 30.2844 21.2137 30.2863Z" fill="#242C61"/>
<path d="M24.0895 12.8913C24.0894 12.2007 23.8787 11.5257 23.4842 10.9516C23.0897 10.3774 22.529 9.92997 21.873 9.66578C21.217 9.40158 20.4952 9.33252 19.7988 9.46731C19.1025 9.60211 18.4629 9.93472 17.9609 10.4231C17.4589 10.9114 17.117 11.5336 16.9786 12.2109C16.8401 12.8882 16.9113 13.5903 17.183 14.2283C17.4548 14.8662 17.915 15.4115 18.5054 15.7951C19.0957 16.1787 19.7898 16.3835 20.4998 16.3834C21.4516 16.3823 22.3641 16.014 23.0371 15.3593C23.71 14.7047 24.0885 13.8171 24.0895 12.8913ZM17.7601 12.8913C17.7602 12.3643 17.921 11.8492 18.2221 11.411C18.5232 10.9729 18.9511 10.6314 19.4517 10.4298C19.9523 10.2282 20.5032 10.1755 21.0346 10.2784C21.566 10.3812 22.0541 10.6351 22.4372 11.0077C22.8203 11.3804 23.0812 11.8552 23.1869 12.3721C23.2925 12.889 23.2383 13.4248 23.0309 13.9116C22.8235 14.3985 22.4724 14.8147 22.0218 15.1074C21.5713 15.4002 21.0416 15.5565 20.4998 15.5565C19.7734 15.5557 19.0769 15.2747 18.5632 14.775C18.0496 14.2753 17.7608 13.5979 17.7601 12.8913Z" fill="#242C61"/>
</svg>
