<svg xmlns="http://www.w3.org/2000/svg" width="68" height="68" viewBox="0 0 68 68" fill="none">
  <circle cx="34" cy="34" r="34" fill="#C2CBF8"/>
  <path d="M47 34.2353C46.0089 18.5995 23.0416 20.9623 21.895 33.7034C21.7099 35.7774 22.4807 36.8237 19.4884 40.6837C18.0186 43.0762 20.2369 43.0923 21.275 43.122C20.2025 44.0503 21.1984 44.8638 21.8 45.0412C20.6127 45.5282 20.9606 46.6217 22.0195 46.986C20.2776 51.098 23.356 51.248 27.6993 50.359L28.36 53.0926C28.4908 53.6317 28.9568 54 29.509 54H41.8181C42.2251 54 42.5762 53.8139 42.802 53.4721C43.0278 53.1335 43.0669 52.7355 42.9105 52.3576C38.8729 42.5323 46.7742 42.6799 47 34.2353ZM41.0808 35.9026C40.9228 36.51 40.6827 37.0852 40.3754 37.6148C40.3004 37.7447 40.2964 37.8876 40.3643 38.0199L40.8686 39.018C40.9548 39.1841 40.9228 39.3775 40.792 39.5091L39.7858 40.5208C39.6549 40.6524 39.4626 40.6845 39.2974 40.5978L38.3048 40.0908C38.1739 40.0226 38.0311 40.0274 37.9018 40.102C37.3752 40.4109 36.8022 40.6524 36.199 40.8113C36.0562 40.8498 35.95 40.9501 35.9045 41.0913L35.5606 42.156C35.504 42.3333 35.346 42.4472 35.1601 42.4472H33.7373C33.5522 42.4472 33.3934 42.3333 33.3368 42.156L32.9928 41.0913C32.9474 40.9501 32.8412 40.8506 32.6984 40.8113C32.0943 40.6524 31.5222 40.4109 30.9956 40.102C30.8663 40.0266 30.7243 40.0226 30.5926 40.0908L29.6 40.5978C29.4348 40.6845 29.2425 40.6524 29.1116 40.5208L28.1054 39.5091C27.9745 39.3775 27.945 39.1841 28.0288 39.018L28.5331 38.0199C28.6009 37.8884 28.5961 37.7447 28.5219 37.6148C28.2147 37.0852 27.9745 36.5091 27.8166 35.9026C27.7783 35.759 27.6785 35.6523 27.5381 35.6065L26.4792 35.2607C26.3028 35.2038 26.1895 35.0449 26.1895 34.8579V33.4274C26.1895 33.2412 26.3028 33.0816 26.4792 33.0246L27.5397 32.6788C27.6777 32.6331 27.7775 32.5264 27.8158 32.3828C27.9738 31.7754 28.2139 31.2001 28.5211 30.6706C28.5961 30.5406 28.6001 30.3978 28.5323 30.2654L28.028 29.2673C27.9442 29.1012 27.9738 28.9078 28.1046 28.7763L29.1108 27.7645C29.2417 27.6329 29.434 27.6008 29.5992 27.6875L30.5918 28.1946C30.7227 28.2628 30.8679 28.258 30.9948 28.1833C31.5214 27.8744 32.0943 27.6329 32.6976 27.4741C32.8404 27.4356 32.9466 27.3353 32.992 27.1941L33.336 26.1294C33.3926 25.9521 33.5506 25.8381 33.7365 25.8381H35.1593C35.3444 25.8381 35.5032 25.9521 35.5598 26.1294L35.9037 27.1941C35.9492 27.3353 36.0554 27.4348 36.1982 27.4741C36.8022 27.6329 37.3744 27.8744 37.901 28.1833C38.0303 28.2588 38.1723 28.2628 38.304 28.1946L39.2966 27.6875C39.4618 27.6008 39.6541 27.6329 39.785 27.7645L40.7912 28.7763C40.922 28.9078 40.954 29.1012 40.8678 29.2673L40.3635 30.2654C40.2956 30.397 40.3004 30.5406 40.3746 30.6706C40.6819 31.2001 40.922 31.7762 41.08 32.3828C41.1183 32.5264 41.2181 32.6331 41.3585 32.6788L42.4174 33.0246C42.5937 33.0816 42.707 33.2404 42.707 33.4274V34.8579C42.707 35.0441 42.5937 35.2038 42.4174 35.2607L41.3585 35.6065C41.2189 35.6523 41.1191 35.759 41.0808 35.9026ZM34.4491 29.707C32.0177 29.707 30.0364 31.6992 30.0364 34.1439C30.0364 36.5862 32.0177 38.5792 34.4491 38.5792C36.878 38.5792 38.8617 36.587 38.8617 34.1439C38.8617 31.6992 36.878 29.707 34.4491 29.707ZM36.8892 33.3664L34.4148 35.8544C34.157 36.1136 33.7405 36.1136 33.4852 35.8544L32.0058 34.3669C31.748 34.1102 31.748 33.6914 32.0058 33.4322C32.2635 33.1755 32.68 33.1755 32.9354 33.4322L33.9488 34.4512L35.9596 32.4317C36.2173 32.1725 36.6339 32.1725 36.8892 32.4317C37.1469 32.6884 37.1469 33.1073 36.8892 33.3664ZM30.3317 17.8918V16.3866C30.3317 16.1387 30.5328 15.9365 30.7793 15.9365H33.2514V13.4501C33.2514 13.2022 33.4525 13 33.699 13H35.1968C35.4409 13 35.642 13.2022 35.642 13.4501V15.9357H38.1141C38.3606 15.9357 38.5617 16.1379 38.5617 16.3858V17.8918C38.5617 18.1373 38.3606 18.3395 38.1141 18.3395H35.642V20.8252C35.642 21.0731 35.4409 21.2753 35.1968 21.2753H33.699C33.4525 21.2753 33.2514 21.0731 33.2514 20.8252V18.3403H30.7793C30.5336 18.3403 30.3317 18.1373 30.3317 17.8918ZM40.6053 20.696C40.6053 20.3301 40.8997 20.034 41.2636 20.034H42.3647V18.9292C42.3647 18.5634 42.6592 18.2673 43.0206 18.2673C43.3845 18.2673 43.6789 18.5634 43.6789 18.9292V20.0349H44.7801C45.1424 20.0349 45.436 20.3309 45.436 20.6968C45.436 21.061 45.1416 21.3587 44.7801 21.3587H43.6789V22.4643C43.6789 22.8302 43.3845 23.1262 43.0206 23.1262C42.6584 23.1262 42.3647 22.8302 42.3647 22.4643V21.3587H41.2636C40.8997 21.3579 40.6053 21.0602 40.6053 20.696ZM23.4582 20.696C23.4582 20.3301 23.7526 20.034 24.1141 20.034H25.2152V18.9292C25.2152 18.5634 25.5097 18.2673 25.8736 18.2673C26.2358 18.2673 26.5319 18.5634 26.5319 18.9292V20.0349H27.6314C27.9953 20.0349 28.2897 20.3309 28.2897 20.6968C28.2897 21.061 27.9953 21.3587 27.6314 21.3587H26.5319V22.4643C26.5319 22.8302 26.2358 23.1262 25.8736 23.1262C25.5097 23.1262 25.2152 22.8302 25.2152 22.4643V21.3587H24.1141C23.7518 21.3579 23.4582 21.0602 23.4582 20.696Z" fill="black"/>
</svg>