<svg xmlns="http://www.w3.org/2000/svg" width="25" height="25" viewBox="0 0 25 25" fill="none">
  <path d="M21.7426 2.19849H3.25737C2.80799 2.19902 2.37718 2.37779 2.05944 2.69556C1.7417 3.01334 1.56298 3.44417 1.5625 3.89355V16.6257C1.56299 17.075 1.74172 17.5058 2.05946 17.8236C2.3772 18.1413 2.80801 18.32 3.25737 18.3205H10.3593L9.9101 20.4282H8.12227C7.83002 20.4284 7.54981 20.5446 7.34313 20.7512C7.13644 20.9578 7.02017 21.238 7.01982 21.5302V22.411C7.0198 22.4623 7.0299 22.5131 7.04952 22.5605C7.06915 22.6079 7.09792 22.651 7.1342 22.6873C7.17047 22.7236 7.21354 22.7523 7.26094 22.772C7.30834 22.7916 7.35914 22.8017 7.41044 22.8017H17.5896C17.6409 22.8017 17.6917 22.7916 17.7391 22.772C17.7865 22.7523 17.8295 22.7236 17.8658 22.6873C17.9021 22.651 17.9309 22.6079 17.9505 22.5605C17.9701 22.5131 17.9802 22.4623 17.9802 22.411V21.5302C17.9798 21.238 17.8636 20.9578 17.6569 20.7512C17.4502 20.5446 17.17 20.4284 16.8777 20.4282H15.0899L14.6407 18.3205H21.7426C22.192 18.32 22.6228 18.1413 22.9405 17.8236C23.2583 17.5058 23.437 17.075 23.4375 16.6257V3.89355C23.437 3.44417 23.2583 3.01334 22.9406 2.69556C22.6228 2.37779 22.192 2.19902 21.7426 2.19849ZM3.25737 2.97974H21.7426C21.9849 2.98 22.2171 3.07637 22.3884 3.24769C22.5597 3.41901 22.656 3.65129 22.6562 3.89355V14.6115H2.34375V3.89355C2.34397 3.65129 2.44029 3.41901 2.61157 3.24769C2.78286 3.07637 3.01511 2.98 3.25737 2.97974ZM17.1989 21.5302V22.0204H7.80105V21.5302C7.80123 21.4451 7.83514 21.3636 7.89535 21.3034C7.95556 21.2433 8.03716 21.2095 8.12225 21.2094H16.8777C16.9628 21.2095 17.0444 21.2433 17.1046 21.3034C17.1649 21.3636 17.1988 21.4451 17.1989 21.5302ZM14.291 20.4282H10.709L11.1584 18.3205H13.8416L14.291 20.4282ZM21.7426 17.5393C19.4491 17.5393 3.25739 17.5393 3.25739 17.5393C3.01516 17.539 2.78292 17.4427 2.61163 17.2714C2.44035 17.1001 2.34401 16.8679 2.34375 16.6257V15.3928H22.6562V16.6257C22.656 16.8679 22.5597 17.1001 22.3884 17.2714C22.2171 17.4427 21.9849 17.539 21.7426 17.5393Z" fill="#464343"/>
  <path d="M13.1587 16.0754H11.9258C11.8222 16.0754 11.7228 16.1166 11.6496 16.1899C11.5763 16.2631 11.5352 16.3625 11.5352 16.4661C11.5352 16.5697 11.5763 16.669 11.6496 16.7423C11.7228 16.8155 11.8222 16.8567 11.9258 16.8567H13.1587C13.261 16.8547 13.3584 16.8127 13.43 16.7396C13.5017 16.6666 13.5418 16.5684 13.5418 16.4661C13.5418 16.3638 13.5017 16.2655 13.43 16.1925C13.3584 16.1195 13.261 16.0774 13.1587 16.0754Z" fill="#464343"/>
  <path d="M13.1279 9.7656H14.6904C14.7417 9.76562 14.7925 9.75552 14.8399 9.7359C14.8873 9.71627 14.9304 9.6875 14.9667 9.65122C15.0029 9.61495 15.0317 9.57188 15.0513 9.52448C15.071 9.47708 15.0811 9.42628 15.0811 9.37498V5.99878C15.0811 5.94748 15.071 5.89668 15.0513 5.84928C15.0317 5.80188 15.0029 5.75881 14.9667 5.72254C14.9304 5.68626 14.8873 5.65749 14.8399 5.63786C14.7925 5.61824 14.7417 5.60814 14.6904 5.60815H13.1279C13.0766 5.60814 13.0258 5.61824 12.9784 5.63786C12.931 5.65749 12.888 5.68626 12.8517 5.72254C12.8154 5.75881 12.7866 5.80188 12.767 5.84928C12.7474 5.89668 12.7373 5.94748 12.7373 5.99878V9.37498C12.7373 9.42628 12.7474 9.47708 12.767 9.52448C12.7866 9.57188 12.8154 9.61495 12.8517 9.65122C12.888 9.6875 12.931 9.71627 12.9784 9.7359C13.0258 9.75552 13.0766 9.76562 13.1279 9.7656ZM13.5186 6.3894H14.2998V8.98435H13.5186V6.3894Z" fill="#464343"/>
  <path d="M16.2529 9.76562H17.8154C17.8667 9.76564 17.9175 9.75554 17.9649 9.73592C18.0123 9.71629 18.0554 9.68752 18.0917 9.65124C18.1279 9.61497 18.1567 9.5719 18.1763 9.5245C18.196 9.4771 18.2061 9.4263 18.2061 9.375V7.03125C18.2061 6.97995 18.196 6.92915 18.1763 6.88175C18.1567 6.83435 18.1279 6.79128 18.0917 6.75501C18.0554 6.71873 18.0123 6.68996 17.9649 6.67033C17.9175 6.65071 17.8667 6.64061 17.8154 6.64063H16.2529C16.2016 6.64061 16.1508 6.65071 16.1034 6.67033C16.056 6.68996 16.013 6.71873 15.9767 6.75501C15.9404 6.79128 15.9116 6.83435 15.892 6.88175C15.8724 6.92915 15.8623 6.97995 15.8623 7.03125V9.375C15.8623 9.4263 15.8724 9.4771 15.892 9.5245C15.9116 9.5719 15.9404 9.61497 15.9767 9.65124C16.013 9.68752 16.056 9.71629 16.1034 9.73592C16.1508 9.75554 16.2016 9.76564 16.2529 9.76562ZM16.6436 7.42188H17.4248V8.98438H16.6436V7.42188Z" fill="#464343"/>
  <path d="M19.3779 9.76562H20.9404C20.9917 9.76564 21.0425 9.75554 21.0899 9.73592C21.1373 9.71629 21.1804 9.68752 21.2167 9.65124C21.2529 9.61497 21.2817 9.5719 21.3013 9.5245C21.321 9.4771 21.3311 9.4263 21.3311 9.375V4.6875C21.3311 4.6362 21.321 4.5854 21.3013 4.538C21.2817 4.4906 21.2529 4.44753 21.2167 4.41126C21.1804 4.37498 21.1373 4.34621 21.0899 4.32658C21.0425 4.30696 20.9917 4.29686 20.9404 4.29688H19.3779C19.3266 4.29686 19.2758 4.30696 19.2284 4.32658C19.181 4.34621 19.138 4.37498 19.1017 4.41126C19.0654 4.44753 19.0366 4.4906 19.017 4.538C18.9974 4.5854 18.9873 4.6362 18.9873 4.6875V9.375C18.9873 9.4263 18.9974 9.4771 19.017 9.5245C19.0366 9.5719 19.0654 9.61497 19.1017 9.65124C19.138 9.68752 19.181 9.71629 19.2284 9.73592C19.2758 9.75554 19.3266 9.76564 19.3779 9.76562ZM19.7686 5.07812H20.5498V8.98438H19.7686V5.07812Z" fill="#464343"/>
  <path d="M13.128 12.8905H14.3243C14.3929 12.8905 14.4602 12.8725 14.5196 12.8383C14.579 12.804 14.6283 12.7548 14.6627 12.6954L15.2006 11.7644L16.0772 13.5379C16.1092 13.6007 16.1575 13.6537 16.217 13.6914C16.2766 13.7291 16.3452 13.7502 16.4156 13.7523C16.4861 13.7545 16.5558 13.7376 16.6175 13.7036C16.6793 13.6696 16.7307 13.6196 16.7665 13.5588L17.846 11.6711L18.5678 12.7211C18.6037 12.7734 18.6518 12.8161 18.7078 12.8456C18.7639 12.8751 18.8264 12.8905 18.8897 12.8905H20.9405C21.0441 12.8905 21.1435 12.8494 21.2167 12.7761C21.29 12.7029 21.3311 12.6035 21.3311 12.4999C21.3311 12.3963 21.29 12.2969 21.2167 12.2237C21.1435 12.1504 21.0441 12.1093 20.9405 12.1093H19.0953L18.1375 10.7162C18.0995 10.6625 18.0486 10.6192 17.9896 10.5902C17.9306 10.5612 17.8652 10.5474 17.7995 10.5501C17.7338 10.5529 17.6698 10.572 17.6134 10.6057C17.5569 10.6395 17.5098 10.6868 17.4764 10.7434L16.4525 12.5341L15.5778 10.7644C15.5457 10.7019 15.4974 10.6492 15.4381 10.6116C15.3787 10.574 15.3104 10.553 15.2401 10.5507C15.1699 10.5484 15.1004 10.5649 15.0387 10.5986C14.977 10.6322 14.9254 10.6817 14.8893 10.7419L14.0988 12.1093H13.128C13.0258 12.1113 12.9284 12.1534 12.8568 12.2264C12.7852 12.2994 12.7451 12.3976 12.7451 12.4999C12.7451 12.6022 12.7852 12.7004 12.8568 12.7734C12.9284 12.8464 13.0258 12.8885 13.128 12.8905Z" fill="#464343"/>
  <path d="M4.05984 5.88721H10.1359C10.2382 5.88521 10.3356 5.84317 10.4072 5.77013C10.4788 5.69709 10.519 5.59887 10.519 5.49657C10.519 5.39427 10.4788 5.29605 10.4072 5.22301C10.3356 5.14998 10.2381 5.10795 10.1359 5.10596H4.05984C3.95756 5.10795 3.86014 5.14998 3.78851 5.22302C3.71688 5.29606 3.67676 5.39428 3.67676 5.49658C3.67676 5.59888 3.71688 5.6971 3.78851 5.77014C3.86014 5.84318 3.95756 5.88521 4.05984 5.88721Z" fill="#464343"/>
  <path d="M4.05984 8.10547H5.06425C5.16653 8.10347 5.26395 8.06144 5.33558 7.9884C5.40721 7.91535 5.44733 7.81713 5.44732 7.71483C5.44732 7.61253 5.40719 7.51431 5.33556 7.44127C5.26393 7.36824 5.16651 7.32621 5.06423 7.32422H4.05984C3.95756 7.32621 3.86014 7.36824 3.78851 7.44128C3.71688 7.51432 3.67676 7.61254 3.67676 7.71484C3.67676 7.81714 3.71688 7.91537 3.78851 7.9884C3.86014 8.06144 3.95756 8.10347 4.05984 8.10547Z" fill="#464343"/>
  <path d="M10.3516 7.8125C10.3516 7.7612 10.3415 7.7104 10.3219 7.663C10.3023 7.6156 10.2735 7.57253 10.2372 7.53626C10.2009 7.49998 10.1579 7.47121 10.1105 7.45158C10.0631 7.43196 10.0123 7.42186 9.96097 7.42188H6.38965C6.28605 7.42188 6.18669 7.46303 6.11343 7.53629C6.04018 7.60954 5.99902 7.7089 5.99902 7.8125C5.99902 7.9161 6.04018 8.01546 6.11343 8.08871C6.18669 8.16197 6.28605 8.20312 6.38965 8.20312H9.96097C10.0123 8.20314 10.0631 8.19304 10.1105 8.17342C10.1579 8.15379 10.2009 8.12502 10.2372 8.08874C10.2735 8.05247 10.3023 8.0094 10.3219 7.962C10.3415 7.9146 10.3516 7.8638 10.3516 7.8125Z" fill="#464343"/>
  <path d="M4.05984 10.3237H7.55029C7.65257 10.3217 7.74999 10.2797 7.82162 10.2067C7.89324 10.1336 7.93337 10.0354 7.93336 9.93309C7.93336 9.83079 7.89323 9.73257 7.8216 9.65954C7.74997 9.5865 7.65255 9.54447 7.55026 9.54248H4.05984C3.95756 9.54447 3.86014 9.58651 3.78851 9.65954C3.71688 9.73258 3.67676 9.8308 3.67676 9.93311C3.67676 10.0354 3.71688 10.1336 3.78851 10.2067C3.86014 10.2797 3.95756 10.3217 4.05984 10.3237Z" fill="#464343"/>
  <path d="M8.71805 10.3237H10.1352C10.2388 10.3237 10.3382 10.2826 10.4114 10.2093C10.4847 10.1361 10.5258 10.0367 10.5258 9.93311C10.5258 9.82951 10.4847 9.73015 10.4114 9.65689C10.3382 9.58364 10.2388 9.54248 10.1352 9.54248H8.71805C8.61576 9.54447 8.51834 9.58651 8.44672 9.65954C8.37509 9.73258 8.33496 9.8308 8.33496 9.93311C8.33496 10.0354 8.37509 10.1336 8.44672 10.2067C8.51834 10.2797 8.61576 10.3217 8.71805 10.3237Z" fill="#464343"/>
  <path d="M4.05984 12.5417H10.1359C10.2382 12.5398 10.3356 12.4977 10.4072 12.4247C10.4788 12.3516 10.519 12.2534 10.519 12.1511C10.519 12.0488 10.4788 11.9506 10.4072 11.8776C10.3356 11.8045 10.2381 11.7625 10.1359 11.7605H4.05984C3.95756 11.7625 3.86014 11.8045 3.78851 11.8776C3.71688 11.9506 3.67676 12.0488 3.67676 12.1511C3.67676 12.2534 3.71688 12.3516 3.78851 12.4247C3.86014 12.4977 3.95756 12.5398 4.05984 12.5417Z" fill="#464343"/>
</svg>