<svg xmlns="http://www.w3.org/2000/svg" width="30" height="29" viewBox="0 0 30 29" fill="none">
  <g opacity="0.8">
    <path d="M23.9417 19.8167C24.6091 19.8167 25.1501 19.2757 25.1501 18.6083C25.1501 17.941 24.6091 17.4 23.9417 17.4C23.2744 17.4 22.7334 17.941 22.7334 18.6083C22.7334 19.2757 23.2744 19.8167 23.9417 19.8167Z" fill="black"/>
    <path d="M16.6917 19.8167C17.3591 19.8167 17.9001 19.2757 17.9001 18.6083C17.9001 17.941 17.3591 17.4 16.6917 17.4C16.0244 17.4 15.4834 17.941 15.4834 18.6083C15.4834 19.2757 16.0244 19.8167 16.6917 19.8167Z" fill="black"/>
    <path d="M20.3163 11.6C18.6912 11.6 17.1026 12.0819 15.7513 12.9847C14.4001 13.8876 13.347 15.1709 12.7251 16.6723C12.1032 18.1737 11.9405 19.8258 12.2575 21.4196C12.5745 23.0135 13.3571 24.4776 14.5062 25.6267C15.6553 26.7758 17.1194 27.5584 18.7133 27.8754C20.3072 28.1925 21.9593 28.0298 23.4607 27.4079C24.9621 26.786 26.2453 25.7328 27.1482 24.3816C28.051 23.0304 28.5329 21.4417 28.5329 19.8166C28.5305 17.6382 27.6641 15.5497 26.1237 14.0093C24.5833 12.4689 22.4947 11.6024 20.3163 11.6ZM14.5163 18.6083C14.5163 18.1781 14.6438 17.7576 14.8828 17.3999C15.1218 17.0423 15.4615 16.7635 15.8589 16.5989C16.2564 16.4343 16.6937 16.3912 17.1156 16.4751C17.5375 16.559 17.9251 16.7662 18.2292 17.0704C18.5334 17.3745 18.7406 17.7621 18.8245 18.184C18.9084 18.6059 18.8653 19.0432 18.7007 19.4406C18.5361 19.8381 18.2573 20.1778 17.8996 20.4168C17.542 20.6557 17.1215 20.7833 16.6913 20.7833C16.1146 20.7827 15.5618 20.5533 15.154 20.1456C14.7463 19.7378 14.5169 19.185 14.5163 18.6083ZM22.7218 23.3049C22.5759 23.8308 22.2617 24.2944 21.8272 24.6247C21.3928 24.955 20.8621 25.1339 20.3163 25.1339C19.7705 25.1339 19.2398 24.955 18.8053 24.6247C18.3709 24.2944 18.0566 23.8308 17.9107 23.3049C17.8824 23.1797 17.9049 23.0485 17.9734 22.94C18.0418 22.8315 18.1505 22.7546 18.2756 22.7263C18.4008 22.698 18.532 22.7205 18.6405 22.7889C18.749 22.8574 18.8259 22.9661 18.8542 23.0912C18.9515 23.4029 19.1458 23.6753 19.4088 23.8687C19.6719 24.0621 19.9898 24.1664 20.3163 24.1664C20.6428 24.1664 20.9607 24.0621 21.2237 23.8687C21.4867 23.6753 21.6811 23.4029 21.7784 23.0912C21.8086 22.9672 21.8863 22.86 21.9948 22.7926C22.1032 22.7253 22.2338 22.7032 22.3584 22.7311C22.4822 22.7598 22.5898 22.836 22.6578 22.9434C22.7259 23.0508 22.7489 23.1806 22.7218 23.3049ZM23.9413 20.7833C23.5111 20.7833 23.0906 20.6557 22.7329 20.4168C22.3752 20.1778 22.0965 19.8381 21.9318 19.4406C21.7672 19.0432 21.7242 18.6059 21.8081 18.184C21.892 17.7621 22.0991 17.3745 22.4033 17.0704C22.7075 16.7662 23.0951 16.559 23.517 16.4751C23.9389 16.3912 24.3762 16.4343 24.7736 16.5989C25.171 16.7635 25.5107 17.0423 25.7497 17.3999C25.9887 17.7576 26.1163 18.1781 26.1163 18.6083C26.1156 19.185 25.8863 19.7378 25.4785 20.1456C25.0708 20.5533 24.5179 20.7827 23.9413 20.7833Z" fill="black"/>
    <path d="M13.3079 9.18339C13.9753 9.18339 14.5163 8.6424 14.5163 7.97506C14.5163 7.30771 13.9753 6.76672 13.3079 6.76672C12.6406 6.76672 12.0996 7.30771 12.0996 7.97506C12.0996 8.6424 12.6406 9.18339 13.3079 9.18339Z" fill="black"/>
    <path d="M5.81703 28.0334H8.23369C8.29598 28.0339 8.35774 28.0219 8.41529 27.9981C8.47284 27.9743 8.525 27.9391 8.56864 27.8947C8.61561 27.8504 8.65301 27.797 8.67853 27.7377C8.70405 27.6784 8.71715 27.6146 8.71703 27.55C8.71703 27.4218 8.6661 27.2989 8.57546 27.2083C8.48482 27.1176 8.36188 27.0667 8.23369 27.0667H5.81703C5.17609 27.0667 4.5614 26.8121 4.10818 26.3589C3.65497 25.9057 3.40036 25.291 3.40036 24.65V21.75C3.40036 21.6218 3.45128 21.4989 3.54192 21.4083C3.63257 21.3176 3.7555 21.2667 3.88369 21.2667H4.29453C4.30832 21.2678 4.32213 21.2647 4.33418 21.2579C4.34624 21.2511 4.35599 21.2409 4.36219 21.2285C4.36739 21.2203 4.36961 21.2105 4.36846 21.2008C4.36732 21.1911 4.36289 21.1822 4.35591 21.1753L2.97793 19.3604C2.97065 19.3514 2.96134 19.3442 2.95075 19.3395C2.94016 19.3348 2.9286 19.3327 2.91703 19.3334C2.90552 19.3329 2.89408 19.3352 2.88365 19.3401C2.87322 19.345 2.86411 19.3523 2.85709 19.3614L1.48104 21.1729V21.1753C1.47429 21.1823 1.47006 21.1913 1.46901 21.2009C1.46796 21.2106 1.47015 21.2203 1.47524 21.2285C1.48145 21.2409 1.4912 21.2511 1.50325 21.2579C1.51531 21.2647 1.52911 21.2678 1.54291 21.2667H1.95036C2.07855 21.2667 2.20149 21.3176 2.29213 21.4083C2.38277 21.4989 2.43369 21.6218 2.43369 21.75V24.65C2.43472 25.547 2.7915 26.407 3.42578 27.0413C4.06005 27.6756 4.92002 28.0323 5.81703 28.0334Z" fill="black"/>
    <path d="M6.05794 9.18339C6.72529 9.18339 7.26628 8.6424 7.26628 7.97506C7.26628 7.30771 6.72529 6.76672 6.05794 6.76672C5.3906 6.76672 4.84961 7.30771 4.84961 7.97506C4.84961 8.6424 5.3906 9.18339 6.05794 9.18339Z" fill="black"/>
    <path d="M9.68301 17.4C10.3013 17.3984 10.9175 17.3267 11.5197 17.1863C11.9585 15.7293 12.7513 14.4036 13.8273 13.3276C14.9033 12.2516 16.229 11.4588 17.686 11.0199C18.0664 9.35944 17.921 7.62175 17.27 6.04752C16.6191 4.47328 15.4948 3.14039 14.0528 2.2334C12.6108 1.32642 10.9225 0.890212 9.22162 0.985193C7.52076 1.08017 5.89151 1.70164 4.55947 2.76354C3.22743 3.82544 2.25852 5.27522 1.78689 6.91214C1.31526 8.54907 1.36425 10.2921 1.92709 11.9C2.48992 13.5078 3.53874 14.9009 4.92833 15.8863C6.31791 16.8717 7.9795 17.4007 9.68301 17.4ZM13.308 5.79995C13.7382 5.79995 14.1587 5.92751 14.5164 6.1665C14.8741 6.40549 15.1528 6.74518 15.3174 7.14261C15.4821 7.54004 15.5251 7.97736 15.4412 8.39927C15.3573 8.82118 15.1501 9.20873 14.846 9.51291C14.5418 9.81709 14.1542 10.0242 13.7323 10.1082C13.3104 10.1921 12.8731 10.149 12.4757 9.98439C12.0782 9.81977 11.7386 9.54099 11.4996 9.18332C11.2606 8.82564 11.133 8.40512 11.133 7.97495C11.1336 7.3983 11.363 6.84545 11.7708 6.4377C12.1785 6.02995 12.7314 5.80059 13.308 5.79995ZM12.0886 13.4284C12.1023 13.4904 12.1037 13.5545 12.0927 13.617C12.0817 13.6795 12.0585 13.7393 12.0243 13.7928C11.9902 13.8464 11.9459 13.8927 11.8939 13.9291C11.8419 13.9655 11.7832 13.9913 11.7212 14.005C11.6868 14.0126 11.6516 14.0165 11.6163 14.0166C11.5071 14.0166 11.4011 13.9795 11.3156 13.9115C11.2301 13.8435 11.1702 13.7485 11.1456 13.642C11.0635 13.3214 10.873 13.0391 10.6064 12.8431C10.3398 12.647 10.0135 12.5494 9.68301 12.5666C9.35262 12.5496 9.02652 12.6473 8.76002 12.8434C8.49352 13.0394 8.30305 13.3216 8.22092 13.642C8.19259 13.7671 8.11572 13.8759 8.00722 13.9443C7.89873 14.0127 7.76748 14.0353 7.64237 14.0069C7.51726 13.9786 7.40853 13.9018 7.34009 13.7933C7.27166 13.6848 7.24913 13.5535 7.27746 13.4284C7.40968 12.8949 7.72036 12.4227 8.15792 12.0901C8.59547 11.7575 9.13361 11.5846 9.68301 11.5999C10.2324 11.5846 10.7705 11.7575 11.2081 12.0901C11.6457 12.4227 11.9563 12.8949 12.0886 13.4284ZM6.05801 5.79995C6.48818 5.79995 6.90869 5.92751 7.26637 6.1665C7.62405 6.40549 7.90282 6.74518 8.06744 7.14261C8.23207 7.54004 8.27514 7.97736 8.19121 8.39927C8.10729 8.82118 7.90014 9.20873 7.59596 9.51291C7.29178 9.81709 6.90424 10.0242 6.48233 10.1082C6.06042 10.1921 5.6231 10.149 5.22567 9.98439C4.82824 9.81977 4.48855 9.54099 4.24956 9.18332C4.01057 8.82564 3.88301 8.40512 3.88301 7.97495C3.88365 7.3983 4.113 6.84545 4.52075 6.4377C4.92851 6.02995 5.48136 5.80059 6.05801 5.79995Z" fill="black"/>
    <path d="M24.1832 0.966668H21.7665C21.7041 0.966039 21.6422 0.978048 21.5846 1.00197C21.5269 1.02589 21.4747 1.06123 21.4311 1.10587C21.3843 1.15013 21.347 1.20348 21.3216 1.26266C21.2962 1.32184 21.2831 1.38559 21.2832 1.45C21.2832 1.57819 21.3341 1.70113 21.4248 1.79177C21.5154 1.88241 21.6383 1.93333 21.7665 1.93333H24.1832C24.8241 1.93333 25.4388 2.18795 25.892 2.64116C26.3453 3.09437 26.5999 3.70906 26.5999 4.35V7.25C26.5999 7.37819 26.5489 7.50113 26.4583 7.59177C26.3677 7.68241 26.2447 7.73333 26.1165 7.73333H25.7057C25.6919 7.73225 25.6781 7.7353 25.666 7.74211C25.654 7.74891 25.6442 7.75915 25.638 7.77152C25.6329 7.77979 25.6308 7.78954 25.6319 7.7992C25.633 7.80885 25.6374 7.81784 25.6443 7.82468L27.0233 9.64008C27.0296 9.65038 27.0384 9.65889 27.049 9.66479C27.0595 9.67069 27.0714 9.67379 27.0834 9.67379C27.0955 9.67379 27.1074 9.67069 27.1179 9.66479C27.1285 9.65889 27.1373 9.65038 27.1436 9.64008L28.5192 7.83V7.8271C28.5259 7.82015 28.5302 7.81115 28.5312 7.80151C28.5323 7.79188 28.5301 7.78218 28.525 7.77393C28.5188 7.76156 28.509 7.75132 28.497 7.74452C28.4849 7.73772 28.4711 7.73467 28.4573 7.73575H28.0499C27.9217 7.73575 27.7987 7.68483 27.7081 7.59419C27.6175 7.50354 27.5665 7.38061 27.5665 7.25242V4.35C27.5656 3.45296 27.2089 2.59292 26.5746 1.95861C25.9403 1.32431 25.0802 0.967563 24.1832 0.966668Z" fill="black"/>
  </g>
</svg>