<svg xmlns="http://www.w3.org/2000/svg" width="24" height="24" viewBox="0 0 24 24" fill="none">
  <path d="M20.1071 2.06789C19.9698 1.93059 19.7472 1.93064 19.61 2.06803L19.022 2.65631C18.8455 2.55984 18.6432 2.50495 18.4282 2.50495C17.7433 2.50495 17.1861 3.0622 17.1861 3.74714C17.1861 4.43208 17.7433 4.98933 18.4282 4.98933C19.1132 4.98933 19.6704 4.43208 19.6704 3.74714C19.6704 3.53231 19.6155 3.33 19.5192 3.15352L20.1073 2.56505C20.2446 2.42775 20.2445 2.20514 20.1071 2.06789ZM18.4282 4.2862C18.131 4.2862 17.8892 4.04437 17.8892 3.74714C17.8892 3.44991 18.131 3.20808 18.4282 3.20808C18.5767 3.20808 18.7114 3.26845 18.809 3.36591C18.8092 3.36609 18.8094 3.36628 18.8096 3.36652C18.907 3.46411 18.9673 3.59873 18.9673 3.74719C18.9673 4.04437 18.7255 4.2862 18.4282 4.2862ZM23.6484 8.02458H22.2422C22.048 8.02458 21.8906 8.18198 21.8906 8.37614V8.61891H20.7742C20.6574 8.41627 20.439 8.2792 20.1888 8.2792H19.6519V7.28803C21.1188 6.77962 22.1754 5.38486 22.1754 3.74714C22.1754 1.68094 20.4945 0 18.4282 0C17.5733 0 16.737 0.295547 16.0734 0.832219C15.4198 1.36092 14.9581 2.10122 14.7735 2.9168C14.7307 3.10617 14.8494 3.29442 15.0388 3.33731C15.2282 3.3802 15.4164 3.26142 15.4593 3.07205C15.6091 2.40994 15.9843 1.80867 16.5156 1.37897C17.0622 0.936797 17.7236 0.703125 18.4282 0.703125C20.1067 0.703125 21.4723 2.06864 21.4723 3.74714C21.4723 5.42564 20.1067 6.79116 18.4282 6.79116C17.0566 6.79116 15.8483 5.86786 15.4899 4.5458C15.4391 4.35839 15.2458 4.24762 15.0587 4.29848C14.8713 4.3493 14.7606 4.54238 14.8114 4.72978C15.1415 5.94755 16.0572 6.89044 17.2046 7.28817V8.2792H16.6677C16.4142 8.2792 16.1931 8.41973 16.0775 8.62687C15.098 8.69189 14.2557 7.97245 14.2547 6.97781V4.98656C14.2547 2.23697 12.0186 0 9.27 0C6.52144 0 4.28531 2.23697 4.28531 4.98656V8.625H1.75781C0.788531 8.625 0 9.41353 0 10.3828V22.2422C0 23.2115 0.788531 24 1.75781 24H8.19591C9.16519 24 9.95372 23.2115 9.95372 22.2422V16.7283C9.95372 16.5341 9.79636 16.3768 9.60216 16.3768C9.40795 16.3768 9.25059 16.5341 9.25059 16.7283V22.2422C9.25059 22.8237 8.77744 23.2969 8.19591 23.2969H1.75781C1.17628 23.2969 0.703125 22.8237 0.703125 22.2422V21.2106H5.31347C5.76577 21.2106 6.13378 20.8426 6.13378 20.3903V17.9921C6.13378 17.5398 5.76577 17.1718 5.31347 17.1718H0.703125V15.4532H5.31347C5.76577 15.4532 6.13378 15.0852 6.13378 14.6329V12.2347C6.13378 11.7824 5.76577 11.4144 5.31347 11.4144H0.703125V10.3828C0.703125 9.80123 1.17628 9.32812 1.75781 9.32812H8.19591C8.77744 9.32812 9.25059 9.80123 9.25059 10.3828V15.0877C9.25059 15.2819 9.40795 15.4393 9.60216 15.4393C9.79636 15.4393 9.95372 15.2819 9.95372 15.0877V10.3828C9.95372 9.41353 9.16519 8.625 8.19591 8.625H6.37828V4.98656C6.37828 3.39131 7.6755 2.09344 9.26995 2.09344C10.8645 2.09344 12.1617 3.39131 12.1617 4.98656V6.97781C12.1591 9.10223 13.9516 10.8161 16.0773 10.7203C16.1982 10.9366 16.4256 11.0724 16.6866 11.0681V11.8402C16.6866 11.8652 16.6731 11.8876 16.6521 11.8982C15.743 12.3549 14.9693 13.1447 14.4146 14.1824C13.8552 15.2288 13.5595 16.4572 13.5595 17.7347C13.5595 19.3908 14.055 20.9517 14.9549 22.1296C15.8761 23.3357 17.1098 24 18.4284 24C19.7471 24 20.9806 23.3357 21.9018 22.1296C22.8015 20.9517 23.2969 19.3909 23.2969 17.7347C23.2969 16.4572 23.0012 15.2288 22.4419 14.1824C21.8872 13.1447 21.1137 12.3549 20.2051 11.8984C20.1833 11.8874 20.1698 11.8651 20.1698 11.8402V11.0681C20.4252 11.0745 20.6548 10.9366 20.7743 10.7283H21.8906V10.9712C21.8906 11.1653 22.048 11.3228 22.2422 11.3228H23.6484C23.8426 11.3228 24 11.1653 24 10.9712V8.37619C24 8.18198 23.8426 8.02458 23.6484 8.02458ZM5.31347 17.8749C5.37811 17.8749 5.43066 17.9274 5.43066 17.9921V20.3903C5.43066 20.4549 5.37811 20.5075 5.31347 20.5075H0.703125V17.8749H5.31347ZM5.31347 12.1175C5.37811 12.1175 5.43066 12.1701 5.43066 12.2347V14.6329C5.43066 14.6976 5.37811 14.7501 5.31347 14.7501H0.703125V12.1175H5.31347ZM15.9918 10.0172C14.2815 10.0615 12.8643 8.6902 12.8648 6.97781V4.98656C12.8648 3.00361 11.2522 1.39031 9.27 1.39031C7.2878 1.39031 5.6752 3.00361 5.6752 4.98656V8.625H4.98848V4.98656C4.98848 2.62467 6.90919 0.703125 9.27005 0.703125C11.6309 0.703125 13.5516 2.62467 13.5516 4.98656V6.97781C13.5501 8.30442 14.6632 9.38044 15.9919 9.33V10.0172H15.9918ZM17.9077 7.4572C18.0784 7.4812 18.2521 7.49428 18.4282 7.49428C18.6049 7.49428 18.7785 7.48111 18.9487 7.4573V8.2792H17.9076V7.4572H17.9077ZM16.695 8.98233H20.1615V10.365H16.695V8.98233ZM22.5938 17.7347C22.5938 20.8017 20.7252 23.2969 18.4284 23.2969C16.1314 23.2969 14.2627 20.8017 14.2627 17.7347C14.2627 15.4323 15.3497 13.3393 16.9685 12.5261C17.2283 12.3948 17.3897 12.132 17.3897 11.8402V11.0681H19.4668V11.8402C19.4668 12.1323 19.6285 12.3952 19.8892 12.5265C21.5069 13.3394 22.5938 15.4324 22.5938 17.7347ZM21.8906 10.0252H20.8646V9.32203H21.8906V10.0252ZM23.2969 10.6196H22.5938V8.72775H23.2969V10.6196Z" fill="#464343"/>
</svg>