<svg xmlns="http://www.w3.org/2000/svg" width="68" height="68" viewBox="0 0 68 68" fill="none">
  <circle cx="34" cy="34" r="34" fill="#C2CBF8"/>
  <path d="M44.0273 29.3196H46.7937L45.4105 25.8613L44.0273 29.3196Z" fill="black"/>
  <path d="M37.2812 35.8992H42.5761C42.4623 35.5788 42.2521 35.3014 41.9745 35.1051C41.6968 34.9087 41.3652 34.8031 41.0251 34.8027H38.8322C38.4921 34.8031 38.1605 34.9087 37.8829 35.1051C37.6052 35.3014 37.3951 35.5788 37.2812 35.8992Z" fill="black"/>
  <path d="M33.0625 29.3196H35.8289L34.4457 25.8613L33.0625 29.3196Z" fill="black"/>
  <path d="M34.4436 32.0607C34.9296 32.0602 35.4017 31.8984 35.786 31.6008C36.1702 31.3031 36.4449 30.8865 36.5669 30.416H32.3203C32.4424 30.8865 32.717 31.3031 33.1013 31.6008C33.4855 31.8984 33.9576 32.0602 34.4436 32.0607Z" fill="black"/>
  <path d="M39.9307 20C37.9789 20 36.071 20.5788 34.4482 21.6631C32.8254 22.7474 31.5606 24.2886 30.8137 26.0918C30.0668 27.895 29.8714 29.8791 30.2521 31.7934C30.6329 33.7076 31.5727 35.466 32.9528 36.8461C34.3329 38.2261 36.0913 39.166 38.0055 39.5468C39.9197 39.9275 41.9039 39.7321 43.7071 38.9852C45.5103 38.2383 47.0515 36.9735 48.1358 35.3507C49.2201 33.7278 49.7989 31.8199 49.7989 29.8682C49.7958 27.2519 48.7552 24.7437 46.9052 22.8937C45.0552 21.0437 42.547 20.003 39.9307 20ZM47.9771 29.32H48.1542C48.2996 29.32 48.439 29.3777 48.5418 29.4805C48.6447 29.5833 48.7024 29.7228 48.7024 29.8682C48.7024 30.7406 48.3559 31.5773 47.739 32.1941C47.1221 32.811 46.2854 33.1576 45.413 33.1576C44.5406 33.1576 43.7039 32.811 43.0871 32.1941C42.4702 31.5773 42.1236 30.7406 42.1236 29.8682C42.1236 29.7228 42.1814 29.5833 42.2842 29.4805C42.387 29.3777 42.5265 29.32 42.6719 29.32H42.8489L44.6033 24.9341H42.0458C41.9473 25.3109 41.7502 25.6546 41.4748 25.93C41.1994 26.2054 40.8557 26.4024 40.4789 26.5009V33.7058H41.0272C41.7539 33.7067 42.4506 33.9958 42.9645 34.5096C43.4784 35.0235 43.7675 35.7202 43.7683 36.447C43.7683 36.5924 43.7106 36.7318 43.6077 36.8346C43.5049 36.9375 43.3655 36.9952 43.2201 36.9952H36.6413C36.4959 36.9952 36.3565 36.9375 36.2536 36.8346C36.1508 36.7318 36.0931 36.5924 36.0931 36.447C36.0939 35.7202 36.383 35.0235 36.8969 34.5096C37.4108 33.9958 38.1075 33.7067 38.8342 33.7058H39.3825V26.5009C39.0057 26.4024 38.6619 26.2054 38.3866 25.93C38.1112 25.6546 37.9141 25.3109 37.8156 24.9341H35.2581L37.0124 29.32H37.1895C37.3349 29.32 37.4744 29.3777 37.5772 29.4805C37.68 29.5833 37.7378 29.7228 37.7378 29.8682C37.7378 30.7406 37.3912 31.5773 36.7743 32.1941C36.1574 32.811 35.3208 33.1576 34.4484 33.1576C33.576 33.1576 32.7393 32.811 32.1224 32.1941C31.5055 31.5773 31.159 30.7406 31.159 29.8682C31.159 29.7228 31.2167 29.5833 31.3195 29.4805C31.4224 29.3777 31.5618 29.32 31.7072 29.32H31.8843L33.6386 24.9341H32.8037V23.8376H37.8162C37.9358 23.3675 38.2087 22.9506 38.5918 22.6528C38.9748 22.3551 39.4461 22.1934 39.9312 22.1934C40.4164 22.1934 40.8877 22.3551 41.2707 22.6528C41.6538 22.9506 41.9267 23.3675 42.0463 23.8376H47.0577V24.9341H46.2228L47.9771 29.32Z" fill="black"/>
  <path d="M39.9285 25.482C40.5341 25.482 41.025 24.9911 41.025 24.3855C41.025 23.78 40.5341 23.2891 39.9285 23.2891C39.3229 23.2891 38.832 23.78 38.832 24.3855C38.832 24.9911 39.3229 25.482 39.9285 25.482Z" fill="black"/>
  <path d="M18.3533 39.5752L19.8884 40.3427C19.9794 40.3882 20.056 40.4582 20.1095 40.5447C20.1631 40.6313 20.1915 40.7311 20.1915 40.8328V42.687L20.9848 43.0833C21.0761 43.1288 21.1528 43.1988 21.2064 43.2855C21.2601 43.3722 21.2885 43.4721 21.2885 43.574C21.2885 43.6759 21.2601 43.7758 21.2064 43.8625C21.1528 43.9492 21.0761 44.0192 20.9848 44.0647L20.3818 44.3673C20.3254 44.3954 20.278 44.4387 20.2449 44.4922C20.2118 44.5458 20.1942 44.6075 20.1942 44.6705C20.1942 44.7334 20.2118 44.7952 20.2449 44.8487C20.278 44.9023 20.3254 44.9455 20.3818 44.9736C20.655 45.1098 20.8847 45.3198 21.0449 45.5797C21.205 45.8397 21.2893 46.1392 21.288 46.4445V47.609C21.288 47.823 21.3355 48.0344 21.427 48.2279C21.5186 48.4214 21.6519 48.5922 21.8174 48.7279C21.9829 48.8637 22.1764 48.9611 22.3841 49.013C22.5917 49.065 22.8083 49.0702 23.0182 49.0284L25.2194 48.5898C25.9978 48.4395 26.803 48.5144 27.5403 48.8057C28.2777 49.097 28.9166 49.5927 29.3821 50.2345L30.8903 52.3457H43.5545L41.3352 45.6913C40.8277 44.1682 40.9461 42.506 41.6642 41.0702L41.8741 40.6497C39.2695 41.1238 36.5812 40.6383 34.3069 39.2831C32.0327 37.9279 30.3263 35.7947 29.5036 33.2783C28.681 30.7619 28.7977 28.0327 29.8323 25.5957C30.8668 23.1588 32.7492 21.1791 35.1309 20.023C34.8973 20.0082 34.6649 20 34.4264 20H31.507C28.6524 20.0033 25.9156 21.1388 23.8971 23.1574C21.8786 25.1759 20.7431 27.9126 20.7398 30.7673C20.7397 31.1723 20.8335 31.5718 21.0139 31.9345C21.2174 32.3418 21.3096 32.7956 21.2813 33.25C21.253 33.7044 21.1052 34.1433 20.8527 34.5221L18.1082 38.6437C18.0576 38.7196 18.0237 38.8053 18.0087 38.8952C17.9938 38.9852 17.9981 39.0772 18.0214 39.1654C18.0447 39.2535 18.0865 39.3357 18.144 39.4064C18.2016 39.4772 18.2734 39.5349 18.355 39.5757L18.3533 39.5752Z" fill="black"/>
  <path d="M45.4124 32.0607C45.8984 32.0602 46.3705 31.8984 46.7547 31.6008C47.139 31.3031 47.4136 30.8865 47.5357 30.416H43.2891C43.4111 30.8865 43.6858 31.3031 44.07 31.6008C44.4542 31.8984 44.9263 32.0602 45.4124 32.0607Z" fill="black"/>
</svg>