<svg xmlns="http://www.w3.org/2000/svg" width="21" height="24" viewBox="0 0 21 24" fill="none">
  <path d="M20.7718 15.0804C20.0669 10.5098 17.2811 5.51548 14.8139 4.39064C14.0753 4.05318 13.1679 4.28565 12.6617 4.94181C12.3243 5.37675 12.0693 5.89793 11.9231 6.4566C11.7731 6.11165 11.6943 5.73295 11.6943 5.35425V0.363699C11.6943 0.161227 11.5331 0 11.3307 0H9.66588C9.46341 0 9.30218 0.161227 9.30218 0.363699V5.35425C9.30218 5.74045 9.22344 6.1154 9.07722 6.46035C8.93099 5.90543 8.67602 5.37675 8.33857 4.94556C7.83239 4.28565 6.92502 4.05318 6.18637 4.39439C3.71921 5.51548 0.937101 10.5098 0.22845 15.0804C-0.225237 17.9787 -0.00401784 20.5546 0.899606 22.9618C0.910855 22.9955 0.929602 23.0293 0.952099 23.0593C1.39829 23.6292 1.86697 23.9329 2.38815 23.9892C2.44814 23.9967 2.50438 24.0004 2.56437 24.0004C3.1268 24.0004 3.73046 23.7192 4.42411 23.138L7.68616 20.9258C9.60964 19.6248 10.6108 17.3863 10.292 15.0804L9.57215 9.85362C9.50091 9.32495 9.75962 8.81127 10.2096 8.6088C10.3033 8.56755 10.4008 8.54131 10.4945 8.53006C10.5883 8.53756 10.6857 8.5638 10.7795 8.6088C11.2294 8.81127 11.4919 9.32495 11.4206 9.85737L10.7007 15.0804C10.3858 17.3826 11.3831 19.6248 13.3066 20.9258L16.5387 23.1193C17.3373 23.7829 17.9935 24.0604 18.6046 23.9929C19.1258 23.9367 19.5982 23.6329 20.0407 23.063C20.0632 23.033 20.0819 23.003 20.0932 22.9655C21.0043 20.5546 21.2255 17.9787 20.7718 15.0804ZM19.4408 22.6543C19.1371 23.033 18.8371 23.2318 18.5334 23.2655C18.1397 23.3067 17.6373 23.078 16.9811 22.5344L13.7191 20.3184C12.0281 19.1748 11.1469 17.2026 11.4244 15.1741L12.1443 9.95111C12.2605 9.09998 11.8256 8.27509 11.0832 7.94139C10.8995 7.8589 10.7082 7.81016 10.5208 7.79891C10.5058 7.79891 10.4908 7.79891 10.4758 7.79891C10.2883 7.81016 10.1008 7.8589 9.9171 7.94139C9.17845 8.27509 8.74351 9.09998 8.85975 9.94736L9.57965 15.1704C9.85711 17.1988 8.97973 19.1673 7.28497 20.3147L3.99667 22.5494C3.37051 23.0705 2.87183 23.303 2.47064 23.258C2.16693 23.2243 1.86697 23.0255 1.56326 22.6468C0.723381 20.3747 0.520909 17.9337 0.952099 15.1854C1.61576 10.896 4.25539 6.06665 6.49383 5.0468C6.92876 4.84807 7.46494 4.9868 7.76865 5.38425C8.1286 5.84543 8.37606 6.4341 8.4623 7.04152L8.52604 7.5102C8.54479 7.65643 8.65352 7.77641 8.79975 7.81391C8.94598 7.84765 9.09596 7.79516 9.1822 7.67143L9.36217 7.42021C9.80461 6.8203 10.0371 6.10415 10.0371 5.3505V0.727398H10.9744V5.35425C10.9744 6.0929 11.2144 6.8278 11.6456 7.42021L11.8256 7.67518C11.9118 7.79516 12.0655 7.8514 12.208 7.81766C12.3543 7.78391 12.4592 7.66393 12.4817 7.51395L12.5455 7.04527C12.6317 6.43785 12.8792 5.84918 13.2391 5.38425C13.5428 4.99055 14.079 4.85182 14.514 5.05054C16.7486 6.06665 19.392 10.8997 20.0519 15.1891C20.4831 17.9412 20.2844 20.3822 19.4408 22.6543Z" fill="#464343"/>
  <path d="M17.8021 11.0384C17.3371 11.6608 16.6022 11.4096 16.2685 11.2484C16.246 10.3973 15.8861 9.60611 14.8662 9.06619C14.69 8.97245 14.4688 9.03994 14.375 9.21617C14.2813 9.39239 14.3488 9.61361 14.525 9.70735C15.2224 10.0785 15.5561 10.6185 15.5411 11.4021C15.5336 11.7246 15.4699 12.0883 15.3461 12.497C15.2712 12.6432 14.4725 14.1092 12.594 14.7654C12.4028 14.8329 12.3053 15.0391 12.3691 15.2303C12.4216 15.3803 12.5603 15.474 12.714 15.474C12.7553 15.474 12.7928 15.4665 12.834 15.4553C13.5464 15.2078 14.1201 14.8554 14.5775 14.4917C14.2326 15.5528 14.1801 16.5276 14.4163 17.4088C14.2738 17.7162 13.9551 18.2824 13.5914 18.4586C13.4114 18.5449 13.3327 18.7623 13.4189 18.9423C13.4827 19.0735 13.6101 19.1485 13.7489 19.1485C13.8014 19.1485 13.8539 19.1373 13.9064 19.1148C14.2663 18.9423 14.5588 18.6011 14.765 18.2824C14.885 18.5036 15.0237 18.7211 15.1849 18.9311C15.2562 19.0248 15.3649 19.0698 15.4736 19.0698C15.5524 19.0698 15.6311 19.0435 15.6949 18.9948C15.8523 18.8711 15.8823 18.6424 15.7586 18.4849C14.8887 17.3675 14.765 16.0365 15.3686 14.4242C15.8898 15.0054 16.7335 16.1939 16.2423 17.3713C16.1635 17.555 16.2535 17.7687 16.4372 17.8475C16.4822 17.8662 16.531 17.8737 16.576 17.8737C16.7185 17.8737 16.8534 17.7912 16.9134 17.6487C17.2134 16.9288 17.1534 16.2352 16.9397 15.6203C17.5171 15.5303 17.7796 15.1966 17.8133 15.1478C17.9258 14.9866 17.892 14.7729 17.7346 14.6529C17.5808 14.5329 17.3521 14.5629 17.2284 14.7167C17.2209 14.7279 17.0522 14.9229 16.621 14.9191C16.3023 14.3567 15.9086 13.9218 15.6761 13.693C15.9011 13.1719 16.111 12.5944 16.2085 12.017C16.4522 12.1033 16.726 12.1708 17.0147 12.1708C17.4946 12.1708 17.997 11.9983 18.3832 11.4809C18.5032 11.3196 18.4695 11.0909 18.3082 10.9709C18.1508 10.8434 17.922 10.8772 17.8021 11.0384Z" fill="#464343"/>
  <path d="M8.59724 14.7689C6.73 14.1165 5.92011 12.6392 5.84512 12.5005C5.72139 12.0918 5.6539 11.7281 5.65015 11.4056C5.63515 10.622 5.97261 10.0821 6.66626 9.71462C6.84249 9.62089 6.90998 9.39967 6.81624 9.22344C6.7225 9.04722 6.50128 8.97598 6.32506 9.07346C5.30895 9.61339 4.949 10.4083 4.92275 11.2557C4.5928 11.4169 3.8579 11.6681 3.38922 11.0419C3.26923 10.8807 3.04052 10.847 2.87929 10.9669C2.71806 11.0869 2.68432 11.3157 2.8043 11.4769C3.1905 11.9943 3.69293 12.1668 4.17286 12.1668C4.46157 12.1668 4.73528 12.103 4.979 12.0131C5.07648 12.5905 5.28645 13.1716 5.51142 13.6891C5.27895 13.9215 4.88526 14.3565 4.56655 14.9151C4.14661 14.9226 3.97414 14.7352 3.95914 14.7164C3.83915 14.5589 3.61794 14.5252 3.45671 14.6414C3.29173 14.7577 3.25799 14.9864 3.37422 15.1476C3.40797 15.1964 3.67043 15.5301 4.24785 15.62C4.03788 16.2312 3.97789 16.9286 4.27409 17.6485C4.33034 17.7872 4.46907 17.8735 4.61155 17.8735C4.65654 17.8735 4.70528 17.866 4.75028 17.8472C4.934 17.7685 5.02399 17.5585 4.94525 17.3711C4.45782 16.1975 5.30145 15.0089 5.81888 14.424C6.42629 16.0362 6.29881 17.3673 5.42893 18.4809C5.3052 18.6384 5.3352 18.8671 5.49267 18.9908C5.56016 19.0433 5.6389 19.0658 5.71389 19.0658C5.82263 19.0658 5.92761 19.0171 6.0026 18.9271C6.16383 18.7171 6.30256 18.4996 6.42254 18.2784C6.63252 18.5971 6.92122 18.9383 7.28117 19.1108C7.33367 19.1333 7.38616 19.1446 7.43865 19.1446C7.57363 19.1446 7.70486 19.0696 7.76861 18.9383C7.85484 18.7584 7.77985 18.5409 7.59613 18.4547C7.23243 18.2784 6.90998 17.7123 6.77125 17.4048C7.01121 16.5199 6.95497 15.5451 6.61002 14.484C7.0637 14.8477 7.64112 15.2001 8.35352 15.4476C8.39477 15.4626 8.43226 15.4663 8.47351 15.4663C8.62349 15.4663 8.76597 15.3726 8.81846 15.2226C8.88595 15.0426 8.78471 14.8327 8.59724 14.7689Z" fill="#464343"/>
</svg>