<svg xmlns="http://www.w3.org/2000/svg" width="42" height="27" viewBox="0 0 42 27" fill="none">
  <path d="M23.4576 0.118231C24.3109 -0.0176391 25.1818 -0.0328658 26.0409 0.0543959C26.7144 0.122917 27.3732 0.28397 28.0286 0.44678C29.2631 0.765959 30.4262 1.3399 31.4517 2.09538C32.3308 2.71617 33.122 3.4658 33.7615 4.33373C34.507 5.30064 35.112 6.38643 35.4728 7.55597C35.9308 9.05699 36.1931 10.6476 35.9758 12.2136C36.8092 12.4491 37.625 12.7817 38.3202 13.3076C39.2672 13.9349 40.0121 14.8233 40.5773 15.8007C40.9509 16.4555 41.1735 17.1829 41.3269 17.9184C41.5659 18.9094 41.5553 19.9565 41.3082 20.9451C41.146 21.7199 40.8865 22.4806 40.4725 23.1588C40.134 23.7052 39.7427 24.2189 39.2965 24.6827C38.4777 25.4399 37.5307 26.09 36.4537 26.415C35.7884 26.6112 35.1062 26.7694 34.4139 26.8267C26.917 26.8262 19.4207 26.8267 11.9238 26.8262C11.6779 26.8203 11.4172 26.9111 11.1842 26.7951C10.9517 26.6921 10.8158 26.4279 10.8486 26.1784C10.9066 25.9623 11.0524 25.7562 11.2808 25.7035C11.5525 25.6473 11.8284 25.7275 12.1019 25.724C19.4793 25.7246 26.8573 25.7228 34.2347 25.7251C35.5009 25.6783 36.7553 25.2601 37.782 24.5152C39.2098 23.488 40.1691 21.8423 40.3536 20.0924C40.6066 17.9887 39.7111 15.7808 38.0444 14.4666C37.1032 13.6988 35.936 13.2379 34.736 13.0851C35.2426 10.6757 34.8221 8.0731 33.5454 5.96301C32.705 4.54574 31.5021 3.35043 30.0889 2.50534C28.2705 1.41661 26.093 0.936969 23.9859 1.15834C22.2301 1.32877 20.5253 1.97942 19.1062 3.02832C17.9935 3.83593 17.0647 4.88717 16.3642 6.06784C16.1563 6.4286 15.9853 6.8081 15.8026 7.18174C14.5856 6.88716 13.2825 6.95334 12.1066 7.38438C10.6987 7.90151 9.47523 8.92639 8.75606 10.247C8.27934 11.1015 7.99998 12.0672 7.96719 13.0464C7.06704 13.0775 6.16163 13.235 5.34172 13.621C3.80849 14.2968 2.57102 15.6157 2.00118 17.1928C1.57307 18.3565 1.48757 19.6449 1.78098 20.8514C2.188 22.6353 3.42372 24.2013 5.05475 25.0259C5.96485 25.4868 6.98095 25.724 8.00057 25.7257C8.4726 25.7175 8.94639 25.748 9.4155 25.6853C9.64097 25.6718 9.90803 25.6197 10.0931 25.7855C10.2161 25.8803 10.2682 26.0332 10.3074 26.1784C10.3309 26.4162 10.1932 26.6429 9.9906 26.7594C9.82018 26.8139 9.64448 26.8578 9.4641 26.8455C8.6032 26.7852 7.73175 26.8964 6.87788 26.7348C6.22195 26.6083 5.56485 26.4578 4.94875 26.1948C4.11127 25.8399 3.36984 25.2923 2.70337 24.6798C1.90572 23.8364 1.22637 22.849 0.894303 21.7263C0.672928 20.9439 0.486691 20.1404 0.500747 19.3228C0.504847 18.5644 0.681127 17.8218 0.880833 17.0944C1.16312 16.1129 1.7148 15.2297 2.37775 14.4608C2.77951 13.9805 3.27204 13.587 3.78682 13.2338C4.72152 12.5539 5.85182 12.2142 6.98037 12.0292C7.09574 11.5062 7.21638 10.9814 7.41668 10.4836C7.71536 9.74513 8.15869 9.07163 8.66762 8.46197C9.17421 7.84938 9.81432 7.36505 10.4837 6.94338C11.4758 6.32377 12.6395 6.04148 13.7897 5.90737C14.1417 5.88746 14.4983 5.86872 14.8486 5.9226C14.9581 5.93431 15.0682 5.94251 15.1783 5.95012C15.4067 5.49507 15.6825 5.06521 15.983 4.65525C16.4597 3.97122 17.0131 3.33989 17.6415 2.79113C18.8562 1.74516 20.2682 0.898316 21.8248 0.479577C22.3648 0.341364 22.9065 0.204907 23.4576 0.118231Z" fill="#66BCFE"/>
  <path d="M23.9858 1.15836C26.093 0.936984 28.2705 1.41663 30.0889 2.50535C31.5021 3.35044 32.705 4.54575 33.5454 5.96302C34.8221 8.07312 35.2426 10.6757 34.736 13.0851C35.936 13.238 37.1032 13.6989 38.0443 14.4666C39.7111 15.7808 40.6066 17.9887 40.3536 20.0924C40.1691 21.8423 39.2098 23.488 37.782 24.5152C36.7553 25.2602 35.5009 25.6783 34.2347 25.7252C26.8573 25.7228 19.4793 25.7246 12.1019 25.724C11.8284 25.7275 11.5525 25.6473 11.2808 25.7035C11.0524 25.7562 10.9065 25.9623 10.8486 26.1785C10.6682 26.1802 10.4878 26.1802 10.3074 26.1785C10.2682 26.0332 10.2161 25.8804 10.0931 25.7855C9.90802 25.6197 9.64096 25.6719 9.41549 25.6853C8.94638 25.748 8.47259 25.7175 8.00056 25.7257C6.98094 25.724 5.96484 25.4868 5.05474 25.0259C3.42371 24.2013 2.18799 22.6353 1.78097 20.8514C1.48756 19.645 1.57306 18.3565 2.00117 17.1928C2.57101 15.6157 3.80848 14.2968 5.34171 13.621C6.16162 13.235 7.06703 13.0775 7.96718 13.0464C7.99997 12.0672 8.27933 11.1015 8.75605 10.247C9.47522 8.92641 10.6986 7.90152 12.1065 7.38439C13.2825 6.95336 14.5856 6.88718 15.8026 7.18176C15.9853 6.80811 16.1563 6.42861 16.3642 6.06785C17.0646 4.88719 17.9935 3.83595 19.1062 3.02834C20.5252 1.97944 22.2301 1.32878 23.9858 1.15836ZM20.7952 15.3293C20.3771 15.4195 20.0064 15.7053 19.819 16.0907C19.6333 16.4543 19.6152 16.9 19.7785 17.2748C19.956 17.7129 20.3654 18.0455 20.8298 18.1299C21.3112 18.2277 21.8318 18.0379 22.1522 17.6696C22.4807 17.3006 22.5979 16.7559 22.438 16.2874C22.2348 15.6139 21.484 15.1671 20.7952 15.3293ZM28.9381 15.3293C28.5018 15.423 28.1176 15.7311 27.9384 16.1404C27.7486 16.5469 27.7727 17.0412 27.9964 17.4289C28.2154 17.8236 28.6318 18.0988 29.0804 18.1463C29.7375 18.2294 30.404 17.7797 30.5885 17.146C30.7495 16.6505 30.599 16.0778 30.2295 15.7147C29.8997 15.3803 29.3972 15.2274 28.9381 15.3293ZM20.3214 18.3103C20.0778 18.3513 19.8728 18.5533 19.826 18.7958C19.7504 19.1407 20.0597 19.5114 20.414 19.4944C20.8649 19.4956 21.3153 19.4956 21.7662 19.4944C22.1375 19.5103 22.4532 19.1003 22.3367 18.7466C22.2623 18.4766 21.9888 18.2792 21.7077 18.3009C21.2456 18.3091 20.7829 18.2892 20.3214 18.3103ZM28.4625 18.3103C28.2382 18.3483 28.045 18.5264 27.9829 18.7448C27.8646 19.0985 28.1809 19.5103 28.5527 19.495C29.0025 19.4956 29.4529 19.4956 29.9032 19.495C30.257 19.512 30.565 19.1448 30.4942 18.8004C30.4403 18.5029 30.1475 18.2763 29.8453 18.3003C29.3844 18.3097 28.9229 18.2886 28.4625 18.3103ZM21.9929 19.9922C22.2922 20.9275 23.0195 21.7158 23.9372 22.0713C24.8725 22.4479 25.9794 22.3559 26.8403 21.8312C27.5325 21.4236 28.0485 20.7501 28.3003 19.9905C28.0854 19.9928 27.8716 19.9928 27.6573 19.9911C27.4494 20.5047 27.0845 20.9539 26.6195 21.2567C25.9923 21.6731 25.1847 21.8019 24.4579 21.6069C23.6368 21.3996 22.9475 20.7735 22.6318 19.9917C22.4187 19.9922 22.2055 19.9922 21.9929 19.9922Z" fill="#B3DEFF"/>
  <path d="M20.7953 15.3293C21.484 15.1671 22.2348 15.6139 22.438 16.2874C22.5979 16.7559 22.4808 17.3006 22.1522 17.6696C21.8319 18.0379 21.3112 18.2277 20.8298 18.1299C20.3654 18.0455 19.9561 17.7129 19.7786 17.2748C19.6152 16.9 19.6334 16.4543 19.819 16.0906C20.0064 15.7053 20.3771 15.4195 20.7953 15.3293Z" fill="#343434"/>
  <path d="M28.9378 15.3293C29.397 15.2274 29.8995 15.3803 30.2292 15.7147C30.5987 16.0778 30.7492 16.6505 30.5882 17.146C30.4037 17.7797 29.7372 18.2294 29.0801 18.1463C28.6315 18.0988 28.2151 17.8236 27.9961 17.4289C27.7724 17.0412 27.7484 16.5469 27.9381 16.1404C28.1173 15.7311 28.5015 15.423 28.9378 15.3293Z" fill="#343434"/>
  <path d="M20.3214 18.3103C20.7829 18.2892 21.2455 18.3091 21.7076 18.3009C21.9887 18.2792 22.2622 18.4766 22.3366 18.7466C22.4531 19.1003 22.1375 19.5102 21.7662 19.4944C21.3152 19.4956 20.8649 19.4956 20.4139 19.4944C20.0596 19.5114 19.7504 19.1407 19.8259 18.7958C19.8728 18.5533 20.0778 18.3512 20.3214 18.3103Z" fill="#FE8A6F"/>
  <path d="M28.4629 18.3102C28.9232 18.2886 29.3847 18.3096 29.8456 18.3003C30.1478 18.2763 30.4406 18.5029 30.4945 18.8004C30.5653 19.1448 30.2573 19.512 29.9036 19.495C29.4532 19.4956 29.0028 19.4956 28.5531 19.495C28.1812 19.5102 27.8649 19.0985 27.9832 18.7448C28.0453 18.5263 28.2386 18.3483 28.4629 18.3102Z" fill="#FE8A6F"/>
  <path d="M21.9932 19.9922C22.2058 19.9922 22.4189 19.9922 22.6321 19.9916C22.9478 20.7735 23.6371 21.3996 24.4582 21.6069C25.185 21.8019 25.9926 21.673 26.6198 21.2567C27.0848 20.9539 27.4497 20.5047 27.6576 19.9911C27.8719 19.9928 28.0857 19.9928 28.3006 19.9905C28.0488 20.7501 27.5328 21.4236 26.8406 21.8312C25.9797 22.3559 24.8728 22.4479 23.9375 22.0713C23.0198 21.7158 22.2924 20.9275 21.9932 19.9922Z" fill="#343434"/>
</svg>