<svg xmlns="http://www.w3.org/2000/svg" width="34" height="33" viewBox="0 0 34 33" fill="none">
  <path d="M19.859 30.6321C19.859 30.6321 19.7346 30.0909 20.2689 29.8983C21.1477 29.5815 21.5462 29.1261 21.5462 29.1261L22.4729 29.1174L23.3074 29.8405C23.3074 29.8405 25.062 29.9057 24.9551 31.1967C24.9551 31.1967 24.9639 31.6745 24.1143 31.7387C24.1143 31.7387 24.0136 32.1239 23.3289 32.2308C22.6442 32.3378 20.3528 32.5732 20.0433 31.6316C19.7339 30.6901 19.859 30.6321 19.859 30.6321Z" fill="white"/>
  <path d="M23.3077 29.8403L22.4731 29.1173L21.5464 29.126C21.4704 29.2066 21.3875 29.2804 21.2988 29.3468C21.4083 29.4924 21.5343 29.6249 21.6744 29.7414L22.5483 30.5046C22.6055 30.5499 22.6558 30.6033 22.6976 30.663C22.7394 30.7355 22.7649 30.8162 22.7721 30.8995C22.8065 31.1828 22.7383 31.469 22.5799 31.7063C22.3738 32.0126 22.0453 32.1981 21.6944 32.3321C22.2412 32.3474 22.7883 32.3135 23.3291 32.2309C24.0138 32.1239 24.1145 31.7387 24.1145 31.7387C24.9641 31.6745 24.9552 31.1968 24.9552 31.1968C25.0623 29.9056 23.3077 29.8403 23.3077 29.8403Z" fill="#D3D3E2"/>
  <path d="M7.74219 30.3482L10.2196 26.8697L13.6692 24.1292C13.6692 24.1292 14.2974 26.6716 16.3144 27.823L13.2454 31.189C13.2454 31.189 10.0223 33.7171 7.74219 30.3482Z" fill="#A2D2F9"/>
  <path d="M13.6693 24.1292L11.339 25.9804L9.83203 27.3966C9.94464 27.7023 10.0849 27.9972 10.2509 28.2774C10.0484 28.7274 10.0051 29.2328 10.128 29.7107C10.6497 31.8359 13.1871 31.1636 13.593 30.8076L16.3147 27.823C14.2975 26.6717 13.6693 24.1292 13.6693 24.1292Z" fill="#839FDD"/>
  <path d="M14.9561 20.503C14.9578 20.47 14.9585 20.4384 14.9592 20.4067L14.9561 20.4058V20.503Z" fill="#FFBD76"/>
  <path d="M19.2857 11.0112C19.2857 11.0112 16.214 7.30512 12.7941 10.8388C12.7941 10.8388 10.3798 13.0779 10.8968 17.3021L12.5501 17.0996L13.8271 18.9806L14.1559 18.6952C14.1559 18.6952 14.9924 19.0356 14.9591 20.4069C15.1019 20.446 20.2362 21.7885 20.4062 13.0713C20.4059 13.0711 20.4636 11.8734 19.2857 11.0112Z" fill="#FFBD76"/>
  <path d="M18.3807 17.7531C18.0696 17.5038 17.9298 17.0883 17.9236 16.6897C17.9173 16.2911 18.0274 15.9009 18.1366 15.5175C17.126 15.8989 16.9998 14.1245 16.9998 14.1245C14.2889 14.0066 13.2571 11.0296 13.9962 9.86694C13.5543 10.1363 13.1501 10.4631 12.7941 10.8388C12.7941 10.8388 10.3798 13.0778 10.8968 17.302L12.5501 17.0996L13.8271 18.9806L14.1559 18.6952C14.1559 18.6952 14.9924 19.0355 14.9591 20.4069C15.0658 20.4361 17.9551 21.1918 19.483 17.9442C19.0991 18.0377 18.6842 17.9964 18.3807 17.7531Z" fill="#F4884D"/>
  <path d="M14.9561 20.503C14.9578 20.47 14.9585 20.4384 14.9592 20.4067L14.9561 20.4058V20.503Z" fill="#F4884D"/>
  <path d="M7.83842 29.9501L10.2828 26.8198L11.064 27.823C11.064 27.823 10.9762 28.4558 11.2211 28.7987C11.466 29.1416 12.2499 29.3538 12.2499 29.3538L12.9848 28.5781L13.9352 27.5248C13.9352 27.5248 13.7814 26.0332 12.9848 26.202L12.7154 26.3L12.4927 24.8795L15.2876 22.8219L14.9563 19.6376L14.1559 18.6951L12.7154 16.8697C12.7154 16.8697 10.511 16.6247 8.20822 19.8336C5.90548 23.0425 5.88119 26.5753 6.66488 28.1143C7.44856 29.6534 7.83842 29.9501 7.83842 29.9501Z" fill="#FFD1D2"/>
  <path d="M13.2328 28.3025C13.2171 28.2983 13.2012 28.2944 13.1856 28.2898C12.8952 28.1993 12.6381 28.0248 12.4469 27.7883C12.2556 27.5518 12.1388 27.2639 12.111 26.961C12.1127 26.8921 12.0987 26.8238 12.0702 26.7611C12.0419 26.7193 12.0062 26.683 11.9649 26.654C10.5789 25.5386 10.0006 23.6747 9.92783 21.8973C9.60146 22.7892 9.57143 23.784 9.13121 24.6256C8.90033 25.0579 8.57135 25.4301 8.17065 25.7123C7.76994 25.9945 7.30868 26.1789 6.82385 26.2506C6.62296 26.2797 6.41903 26.2811 6.21777 26.2547C6.26793 27.0117 6.42937 27.6531 6.66426 28.1143C7.44815 29.6535 7.83768 29.9501 7.83768 29.9501L10.2821 26.8198L11.0634 27.823C11.0634 27.823 10.9754 28.4558 11.2204 28.7987C11.4653 29.1416 12.2492 29.3538 12.2492 29.3538L12.9841 28.578L13.2328 28.3025Z" fill="#F796A4"/>
  <path d="M15.2868 22.8219L14.9555 19.6375L14.1553 18.695L14.018 18.5211C13.9204 18.6877 13.8534 18.8703 13.82 19.0604C13.6189 20.066 13.7616 21.1864 13.9344 21.3875C14.1133 21.6188 14.2302 21.8918 14.2742 22.1809C13.6488 23.6174 12.4342 22.946 12.4342 22.946C12.2684 23.4911 12.3811 24.3063 12.4977 24.8712L15.2868 22.8219Z" fill="#F796A4"/>
  <path d="M3.15137 6.44882H30.9704C30.9704 6.44882 28.8138 5.42311 27.9101 4.29663C27.0063 3.17014 24.8817 1.26802 22.0447 2.09685C22.0447 2.09685 20.1637 2.63871 19.2397 1.77807C18.3157 0.917426 15.5417 -0.26206 12.3539 2.31993C12.3539 2.31993 10.9513 3.40378 8.84743 3.46753C8.8477 3.46753 4.78665 2.86357 3.15137 6.44882Z" fill="#9494B2"/>
  <path d="M27.9097 4.29661C27.8688 4.24561 27.8253 4.19308 27.7793 4.139C26.753 3.80022 25.7686 3.2453 24.7037 3.347C23.7599 3.43729 22.9511 4.03129 22.066 4.37C21.1187 4.73035 20.085 4.79811 19.0988 4.5645C18.2439 4.3599 17.4546 3.93467 16.6011 3.72452C15.5034 3.45754 14.3487 3.55522 13.3115 4.00278C12.668 4.28255 12.0713 4.69703 11.3819 4.82732C10.6244 4.9706 9.83281 4.74739 9.16575 4.3603C8.96052 4.2412 8.76617 4.10428 8.58495 3.9511C8.3988 3.79384 8.22775 3.61952 8.07404 3.43043C6.81437 3.44983 4.34108 3.84075 3.15137 6.44913H30.9704C30.9704 6.44913 28.8135 5.4231 27.9097 4.29661Z" fill="#696987"/>
  <path d="M12.5498 29.2571C12.5498 29.2571 12.9911 28.2232 13.5926 27.9601C13.5926 27.9601 13.8653 28.4205 14.8518 28.5192C15.8384 28.6179 16.0686 29.0374 16.0686 29.3538C16.0686 29.6702 15.7513 30.4923 15.3509 30.624C14.9505 30.7557 12.5498 29.2571 12.5498 29.2571Z" fill="#FFCAC0"/>
  <path d="M13.7432 23.9171C13.7432 23.9171 14.6092 26.8435 15.7411 27.6069L17.0512 25.762C17.0512 25.762 17.2039 26.9453 18.0691 27.7341C18.9343 28.5229 19.8247 30.1528 19.8247 30.1528L21.0461 29.7172L21.8975 29.032L20.232 22.772C20.232 22.772 19.7485 21.8051 19.2142 21.8051C18.6798 21.8051 17.8206 22.0595 17.8206 22.0595C17.8206 22.0595 17.2293 21.7796 16.7967 22.0595C16.3642 22.3395 13.7432 23.9171 13.7432 23.9171Z" fill="#FFCAC0"/>
  <path d="M19.8247 30.1527L21.0461 29.7171L21.5801 29.2875C21.5494 29.105 21.4954 28.9272 21.4195 28.7585C21.3186 28.5364 21.1819 28.1604 21.1796 27.9166C20.8176 28.1421 20.6429 28.1965 19.9916 28.0131C19.4349 27.8564 17.9752 25.5094 17.4555 24.4293C17.4347 24.3857 17.4025 24.3485 17.3624 24.3215C17.3223 24.2946 17.2758 24.2788 17.2275 24.276C17.1793 24.2731 17.1312 24.2832 17.0881 24.3052C17.0451 24.3272 17.0088 24.3603 16.9829 24.4011C16.9258 24.4956 16.8866 24.5999 16.8675 24.7086C16.8264 24.9122 16.9827 25.1988 16.4753 25.3018C16.2363 25.3501 15.9897 25.3466 15.7522 25.2915C15.5147 25.2365 15.2917 25.1311 15.0983 24.9826C14.6565 24.6414 14.3961 24.1327 14.2828 23.5919C13.9617 23.7856 13.7432 23.9172 13.7432 23.9172C13.7432 23.9172 14.6092 26.8435 15.7411 27.6069L17.0512 25.7621C17.0512 25.7621 17.2039 26.9453 18.0691 27.7341C18.9343 28.523 19.8247 30.1527 19.8247 30.1527Z" fill="#F29797"/>
  <path d="M21.8977 29.0318L20.2318 22.772C20.2318 22.772 19.7482 21.805 19.2139 21.805C18.6796 21.805 17.8203 22.0595 17.8203 22.0595C17.8203 22.0595 19.909 24.7127 21.071 29.6969L21.8977 29.0318Z" fill="#F29797"/>
  <path d="M12.4922 17.2247L13.743 19.2095C13.743 19.2095 14.3537 17.4559 14.7862 17.3021C14.7862 17.3021 16.2996 19.1586 17.8204 16.9957C19.3411 14.8327 18.9338 12.5425 18.9338 12.5425C18.9338 12.5425 16.9236 15.2609 14.2008 14.4256C14.2008 14.4256 13.9209 13.1787 13.1575 13.4841C12.394 13.7894 12.7503 15.0506 12.7503 15.0506L13.4883 15.5452C13.4883 15.5452 12.9207 17.0214 12.4922 17.2247Z" fill="#FFCAC0"/>
  <path d="M14.3471 14.4672L14.1553 14.6622C14.1553 14.6622 16.9477 16.3284 18.9823 13.3527C18.9889 13.0818 18.9725 12.8108 18.9334 12.5427C18.9334 12.5427 16.995 15.1634 14.3471 14.4672Z" fill="#F29797"/>
  <path d="M31.0005 6.11896C27.7417 4.78292 26.2501 0.766361 22.0429 1.75795C19.3991 2.51074 19.7632 1.00825 17.5187 0.528563C15.3827 0.0567294 13.3656 1.1524 11.6902 2.36706C10.5632 3.18295 9.61909 3.21965 8.28107 3.16262C7.14548 3.14942 6.08228 3.34921 5.09987 3.94076C4.13871 4.51939 3.48743 5.43349 2.837 6.34264C2.59121 6.6863 2.98365 6.79269 3.12027 6.80107C4.03767 6.8575 28.7745 6.73844 30.791 6.73844C31.3683 6.73864 31.3365 6.24496 31.0005 6.11896ZM25.3886 6.22799C21.1454 6.24562 7.78119 6.19882 3.67249 6.22799C4.65681 4.5446 6.14617 3.67696 8.09858 3.70884C9.22434 3.71584 10.3056 3.78197 11.3354 3.24387C12.2939 2.74306 13.0976 2.00611 14.0901 1.55843C15.4629 0.925685 17.169 0.723197 18.5117 1.53473C18.9574 1.79801 19.3398 2.16173 19.8166 2.37234C21.8701 3.09834 22.9823 1.16309 25.9183 3.06692C27.3458 4.01369 28.4608 5.40016 29.9382 6.25796C28.4243 6.18707 26.9013 6.22799 25.3886 6.22799Z" fill="#4C373C"/>
  <path d="M16.6492 15.581C16.8007 15.717 17.0953 15.8683 17.2904 15.7488C17.3146 15.7342 17.3345 15.7136 17.3484 15.6891C17.3622 15.6645 17.3695 15.6368 17.3695 15.6086C17.3695 15.5804 17.3622 15.5527 17.3484 15.5281C17.3345 15.5035 17.3146 15.4829 17.2904 15.4683C17.1466 15.4072 16.9785 15.4406 16.857 15.3235C16.7749 15.2568 16.7368 15.1656 16.6677 15.0893C16.6515 15.0737 16.6316 15.0626 16.6099 15.0569C16.5882 15.0513 16.5654 15.0513 16.5437 15.0571C16.522 15.0628 16.5021 15.074 16.486 15.0897C16.4699 15.1053 16.4581 15.1248 16.4518 15.1463C16.3957 15.3012 16.5431 15.4856 16.6492 15.581Z" fill="#4C373C"/>
  <path d="M3.75104 9.2536C3.76655 9.57097 3.76384 9.88898 3.74292 10.206C3.7191 10.5775 4.28326 10.569 4.31712 10.206C4.3457 9.86449 4.33183 9.52072 4.2758 9.18258C4.22894 8.88545 3.73606 8.95528 3.75104 9.2536Z" fill="#4C373C"/>
  <path d="M10.8812 10.206C10.9099 9.86447 10.896 9.52069 10.8399 9.18256C10.7934 8.88556 10.3006 8.95525 10.3155 9.25357C10.331 9.57095 10.3283 9.88895 10.3074 10.206C10.2835 10.5775 10.8478 10.5691 10.8812 10.206Z" fill="#4C373C"/>
  <path d="M24.0991 10.206C24.1277 9.86444 24.1138 9.52066 24.0577 9.18253C24.0112 8.88553 23.5184 8.95522 23.5333 9.25354C23.5488 9.57092 23.5461 9.88892 23.5252 10.206C23.5011 10.5774 24.0656 10.5691 24.0991 10.206Z" fill="#4C373C"/>
  <path d="M30.6498 10.206C30.6784 9.86444 30.6645 9.52066 30.6085 9.18253C30.562 8.88553 30.0691 8.95522 30.084 9.25354C30.0996 9.57092 30.0968 9.88892 30.0759 10.206C30.0521 10.5774 30.6163 10.5691 30.6498 10.206Z" fill="#4C373C"/>
  <path d="M3.75104 19.8106C3.76655 20.128 3.76384 20.446 3.74292 20.763C3.7191 21.1346 4.28326 21.126 4.31712 20.763C4.34571 20.4215 4.33183 20.0778 4.2758 19.7396C4.22894 19.4424 3.73606 19.5123 3.75104 19.8106Z" fill="#4C373C"/>
  <path d="M24.0991 20.7631C24.1277 20.4215 24.1138 20.0778 24.0577 19.7397C24.0112 19.4427 23.5184 19.5123 23.5333 19.8106C23.5488 20.128 23.5461 20.446 23.5252 20.7631C23.5011 21.1346 24.0656 21.1261 24.0991 20.7631Z" fill="#4C373C"/>
  <path d="M30.084 19.8106C30.0996 20.128 30.0968 20.446 30.0759 20.763C30.0521 21.1346 30.6163 21.126 30.6498 20.763C30.6784 20.4215 30.6645 20.0778 30.6085 19.7396C30.562 19.4424 30.0691 19.5123 30.084 19.8106Z" fill="#4C373C"/>
  <path d="M7.58543 15.1066C7.61402 14.7651 7.60012 14.4213 7.54405 14.0832C7.49785 13.7862 7.00469 13.8559 7.01961 14.1541C7.03515 14.4715 7.03244 14.7895 7.01149 15.1066C6.9874 15.4781 7.5519 15.4697 7.58543 15.1066Z" fill="#4C373C"/>
  <path d="M26.7881 14.1541C26.8037 14.4715 26.801 14.7896 26.78 15.1066C26.7562 15.4781 27.3204 15.4697 27.3539 15.1066C27.3825 14.7651 27.3686 14.4213 27.3126 14.0832C27.2661 13.786 26.7732 13.8559 26.7881 14.1541Z" fill="#4C373C"/>
  <path d="M26.7881 24.8952C26.8037 25.2126 26.801 25.5306 26.78 25.8477C26.7562 26.2191 27.3204 26.2107 27.3539 25.8477C27.3825 25.5061 27.3686 25.1623 27.3126 24.8242C27.2661 24.5272 26.7732 24.5971 26.7881 24.8952Z" fill="#4C373C"/>
  <path d="M24.4211 29.8048C24.1459 29.6564 23.8805 29.653 23.5856 29.5855C22.9842 29.4295 22.8646 28.8156 22.1297 28.8714C21.8195 27.17 21.4519 25.4733 20.9169 23.8268C20.6426 23.0764 20.3567 21.9524 19.5746 21.5925C19.0477 21.3891 18.3493 21.5215 17.852 21.8037C17.3271 21.45 16.6751 21.8049 16.1713 22.0359C15.9184 22.1469 15.6709 22.2698 15.4283 22.4021C15.3682 21.8033 15.3125 21.2024 15.2408 20.6045C18.3906 21.0329 20.2022 18.8753 20.6284 14.5958C20.7574 13.2996 20.763 11.6108 19.549 10.7986C19.3902 10.6875 19.3214 10.6704 19.2341 10.5561C17.7359 8.64677 14.8045 8.65826 13.0358 10.1748C10.9331 11.9422 10.4055 14.7846 10.386 17.3919C6.99232 19.4304 5.38377 23.7718 6.17002 27.5887C6.36802 28.547 6.7794 29.5703 7.57648 30.1785C7.38211 31.3539 9.37419 32.0271 10.2825 32.2022C11.9214 32.5963 13.118 31.8404 14.2118 30.6914C15.5523 31.3488 16.6432 29.9641 16.2934 29.026C17.0775 28.2053 16.3491 27.2242 16.3491 27.2242C16.3491 27.2242 16.8204 26.4892 16.9579 26.243C17.1299 26.7027 17.3606 27.1383 17.6443 27.5388C18.247 28.4171 18.9026 29.2767 19.564 30.1122C19.3435 30.5393 19.5678 31.0125 19.6856 31.4376C19.7475 31.6573 19.799 31.8879 19.9382 32.0738C20.2161 32.4452 20.7681 32.5243 21.198 32.5635C21.7797 32.6163 22.372 32.5517 22.9536 32.5188C23.3709 32.4932 23.9401 32.466 24.1803 32.0806C25.6831 32.0735 25.4694 30.3647 24.4211 29.8048ZM19.483 22.1236C20.008 22.6618 20.2065 23.4972 20.448 24.196C20.9358 25.7584 21.2607 27.3657 21.5984 28.9655C21.4602 29.008 21.3246 29.0587 21.1923 29.1173C20.4956 26.7049 19.8687 24.1304 18.2556 22.1456C18.663 22.0044 19.1194 21.8778 19.483 22.1236ZM13.9343 20.3548C13.9978 19.9732 14.0028 19.5899 14.0384 19.2068C14.0677 19.1329 14.0923 19.0573 14.112 18.9803C14.65 19.2942 14.6766 19.9732 14.7356 20.5561C14.8072 21.2635 14.8805 21.9707 14.9554 22.6778C14.8146 22.762 14.6789 22.8529 14.5432 22.9458C14.8519 21.8374 14.0083 21.283 13.9343 20.355V20.3548ZM13.6718 15.377C13.6542 15.3436 13.6282 15.3153 13.5963 15.2951C13.5645 15.2749 13.5279 15.2634 13.4902 15.2617C12.8559 15.2167 12.603 14.4408 12.9493 13.9545C13.1287 13.7026 13.5055 13.5772 13.7198 13.863C13.8601 14.05 13.8277 14.3022 13.963 14.4884C13.9881 14.5414 14.0267 14.5869 14.0751 14.6203C14.1234 14.6537 14.1796 14.6737 14.2381 14.6784C15.8672 15.1528 17.7391 14.3671 18.7616 13.071C18.7544 14.0642 18.5613 15.1042 18.1448 16.0169C18.0183 15.9729 17.9732 15.835 17.8651 15.7694C17.8446 15.758 17.8219 15.7514 17.7985 15.75C17.7751 15.7485 17.7517 15.7524 17.73 15.7612C17.7083 15.7701 17.6888 15.7836 17.6731 15.801C17.6573 15.8183 17.6457 15.839 17.639 15.8614C17.5734 16.0762 17.7908 16.286 17.9654 16.3741C17.8384 16.612 17.6911 16.8385 17.5251 17.0511C17.3414 16.781 16.8387 16.4977 16.525 16.6824C16.4963 16.7 16.4755 16.728 16.467 16.7605C16.4585 16.7931 16.4629 16.8277 16.4793 16.857C16.6427 17.1084 17.1167 17.0579 17.1935 17.3805C16.2534 18.1857 14.9825 17.3524 14.3852 16.5051C14.2318 16.2991 13.9021 16.4753 14.0325 16.7112C14.1578 16.9348 14.3134 17.14 14.4949 17.3208C14.1278 17.7103 13.8581 18.1812 13.7078 18.6949C13.4782 18.2348 13.1967 17.8024 12.8688 17.4064C13.1374 17.0958 13.945 15.7328 13.6718 15.3772V15.377ZM15.3927 9.67103C16.6832 9.45666 18.0769 9.93971 18.8658 10.9999C19.0566 11.2187 19.3599 11.3213 19.5609 11.5468C20.1285 12.1833 20.1277 13.1846 20.1041 13.9833C20.0004 15.9026 19.7365 18.0463 18.1591 19.4426C17.2703 20.2576 16.0405 20.195 15.1797 20.1277C15.172 20.0723 15.1647 20.0167 15.1567 19.9613C15.0762 19.4026 14.8127 18.7217 14.2298 18.5621C14.3749 18.2144 14.5818 17.8959 14.8405 17.622C16.9214 19.1737 18.353 17.2753 18.884 15.3214C19.1758 14.4065 19.287 13.4436 19.2114 12.4863C19.1766 12.0868 18.7729 12.1979 18.6834 12.3372C17.7839 13.7678 16.2331 14.4994 14.584 14.2922C14.5108 14.2822 14.4427 14.2492 14.3895 14.1979C14.3363 14.1467 14.3008 14.0798 14.288 14.007C14.1447 13.2277 13.2112 12.9403 12.6502 13.6014C12.0556 14.3162 12.3947 15.4332 13.2535 15.662C13.1367 16.0187 12.9825 16.3621 12.7936 16.6865C12.6784 16.784 12.5174 16.7936 12.3423 16.8021C11.9424 16.7493 11.514 16.862 11.1268 17.0207C10.7201 14.1741 12.2771 10.2403 15.3927 9.67103ZM7.75607 29.8231C6.56041 28.4742 6.36347 26.5825 6.51864 24.8269C6.74713 22.0706 8.16461 19.3965 10.5341 17.9042C11.0326 17.5675 11.6073 17.3606 12.206 17.3023C12.7472 18.082 13.6369 18.9553 13.46 19.9789C13.4156 20.2736 13.4087 20.5548 13.502 20.8411C13.6808 21.3896 14.1049 21.8521 14.0916 22.4535C14.0293 23.7506 13.5626 23.8544 12.6581 24.5239C12.6138 23.6659 12.6869 22.4053 12.7637 21.5491C12.8689 20.3714 13.0431 18.6474 11.7982 17.9583C11.5936 17.8449 11.3508 18.1285 11.5395 18.2935C12.6685 19.2812 12.3328 20.7694 12.2325 22.1017C12.1305 23.4524 12.1296 24.8251 12.5005 26.1362C11.9537 26.528 11.4134 27.0105 11.0582 27.5718C10 26.0775 10.071 24.1322 10.0904 22.375C10.112 21.7234 10.2174 21.0665 10.2084 20.4157C10.2055 20.2052 9.89328 20.1564 9.83764 20.3655C9.66189 21.0263 9.65284 21.7581 9.62776 22.4383C9.59311 23.8632 9.58856 25.3551 10.0778 26.7075C9.20154 27.6672 8.45092 28.7268 7.75607 29.8231ZM14.0502 26.7125C13.8306 26.2861 13.4808 25.8937 12.9571 25.9615C12.9266 25.8502 12.8475 25.0932 12.8475 25.0932C12.8475 25.0932 13.3811 24.6404 13.612 24.4149C13.9757 25.7503 14.699 26.9699 15.7404 27.8833C15.637 28.0372 15.5344 28.1917 15.4355 28.3486C15.297 28.3181 15.1562 28.2989 15.0146 28.2912C14.5733 28.3016 14.2461 28.2009 13.9652 27.8414C14.0893 27.6827 14.1636 27.4908 14.1787 27.2898C14.1939 27.0889 14.1491 26.888 14.0502 26.7125ZM13.4241 27.5886C13.1021 27.9299 12.7311 28.2343 12.4924 28.646C12.4194 28.7722 12.3736 28.9661 12.2703 29.0677C12.0465 29.2875 11.6088 28.8301 11.4935 28.6316C11.3278 28.3466 11.3858 28.0887 11.5072 27.8129C11.8379 27.4593 12.1623 27.0996 12.5438 26.798C12.7823 26.6095 13.0831 26.362 13.3471 26.6551C13.6078 26.9448 13.7014 27.2884 13.4241 27.5886ZM10.8863 31.7671C10.1735 31.7294 8.06581 31.1677 8.03631 30.3053C8.05918 30.2761 8.07145 30.2399 8.07109 30.2028C8.74812 29.1552 9.46422 28.1397 10.2945 27.2075C10.4477 27.516 10.6376 27.8048 10.8601 28.0678C10.7533 28.6882 11.1957 29.3126 11.8164 29.632C11.9186 29.6915 12.0351 29.722 12.1534 29.7203C12.2717 29.7185 12.3873 29.6845 12.4877 29.622C12.8446 29.944 13.2417 30.2185 13.6691 30.4385C12.8839 31.196 12.0574 31.8605 10.8863 31.7671ZM15.7452 29.8531C15.4313 30.4428 14.8323 30.4559 14.3015 30.1522C13.7716 29.9165 13.2812 29.6006 12.8475 29.2157C13.0501 28.8158 13.3285 28.4592 13.6673 28.1657C14.0154 28.5455 14.3722 28.7183 14.9267 28.7454C15.6407 28.7496 16.1603 29.122 15.7452 29.8533V29.8531ZM19.9139 29.7169C19.139 28.5038 18.0139 27.4948 17.4509 26.1529C17.2699 25.6566 17.2793 25.1796 17.2356 24.664C17.2342 24.6231 17.2184 24.584 17.191 24.5536C17.1635 24.5232 17.1262 24.5035 17.0856 24.498C17.045 24.4924 17.0038 24.5015 16.9692 24.5235C16.9347 24.5454 16.909 24.579 16.8968 24.618C16.7957 24.9059 16.76 25.2127 16.7923 25.516C16.444 26.0831 16.1336 26.6611 15.7647 27.2151C14.8803 26.3488 14.3047 25.2285 14.032 24.0244C14.8917 23.2614 15.8883 22.6684 16.969 22.2768C17.2558 22.1731 17.4531 22.1347 17.7117 22.3422C17.9383 22.5242 18.1113 22.7794 18.2727 23.0173C19.5906 24.9488 20.0476 27.2867 20.8169 29.4549C20.4978 29.5032 20.1711 29.5554 19.9139 29.7171V29.7169ZM23.7012 31.8344C23.5775 31.973 23.1899 31.9628 23.0186 31.9717C22.2697 32.0007 21.4985 32.1182 20.7614 31.9304C20.4585 31.8451 20.351 31.7303 20.2652 31.4191C19.6652 29.8459 20.3498 30.2882 21.4656 29.8402C21.7986 29.992 21.7505 30.5169 22.1996 30.6661C22.6739 30.8744 23.3193 30.8459 23.6497 31.3035C23.7261 31.4304 23.8066 31.7165 23.7012 31.8346V31.8344ZM24.6537 31.3337C24.5816 31.4679 24.424 31.4987 24.2695 31.507C24.1686 30.8757 23.6286 30.5076 23.0499 30.3711C22.831 30.3069 22.5128 30.2919 22.3285 30.1588C22.0742 29.9559 22.0201 29.5086 21.6481 29.4336C22.7549 29.088 22.5796 29.9641 23.5388 30.1302C23.942 30.2053 24.3518 30.2729 24.5595 30.6821C24.6449 30.8506 24.7482 31.1576 24.6537 31.3339V31.3337Z" fill="#4C373C"/>
</svg>