<svg xmlns="http://www.w3.org/2000/svg" width="24" height="29" viewBox="0 0 24 29" fill="none">
  <path d="M18.7539 28.2056L18.7959 28.4595L19.3822 28.3626L19.2496 27.5596L19.2054 27.4766C19.1023 27.7499 18.9491 27.9961 18.7539 28.2056Z" fill="#656565"/>
  <path d="M7.22656 28.3233L7.79406 28.5001L9.8722 21.8262H9.24969L7.22656 28.3233Z" fill="#656565"/>
  <path d="M3.15637 22.5067C3.08867 22.4998 3.02292 22.4875 2.9582 22.4727L1.13672 28.3223L1.70422 28.4991L3.57381 22.495C3.49237 22.5074 3.4095 22.5154 3.32469 22.5154C3.26897 22.5154 3.21282 22.5126 3.15637 22.5067Z" fill="#656565"/>
  <path d="M11.4933 20.8515C11.481 20.847 11.4684 20.8435 11.456 20.8395L11.4869 20.8396L11.4677 20.8034H10.8434H9.26482L6.65554 20.8034C6.02421 20.8034 5.45464 20.5384 5.04874 20.1152L4.95265 21.0487C4.94082 21.1634 4.91648 21.2738 4.88281 21.3798H10.3796H11.117C11.3639 21.3798 11.5722 21.5565 11.6125 21.8001L12.7125 28.4595L13.2988 28.3626L12.3124 22.3905L11.4933 20.8515Z" fill="#656565"/>
  <path d="M2.74518 10.5605H1.13466C0.773281 10.5605 0.442078 10.7267 0.225972 11.0163C0.0098361 11.306 -0.0550968 11.6708 0.0478152 12.0171L1.93956 18.3867L2.74518 10.5605Z" fill="#656565"/>
  <path d="M18.566 17.7382C18.2563 17.1565 17.6511 16.793 16.992 16.793H14.1406C14.3976 16.9857 14.6149 17.2342 14.7718 17.5288L19.0904 25.6425C19.2821 26.0026 19.3672 26.3991 19.3474 26.7963L19.7367 27.5276C20.0574 28.1299 20.6742 28.4732 21.3122 28.4731C21.5948 28.4731 21.8815 28.4058 22.1485 28.2637C23.0177 27.8011 23.3473 26.7212 22.8846 25.8519L18.566 17.7382Z" fill="#656565"/>
  <path d="M10.4173 10.4677C10.1528 10.5266 9.88231 10.5563 9.61358 10.5563C7.90322 10.5563 6.3918 9.34311 6.01961 7.67135C5.92796 7.25955 5.91042 6.84844 5.95632 6.45117L4.35558 6.80749C3.80333 6.93041 3.43456 7.43193 3.45877 7.978L2.14305 20.7595C2.07588 21.4126 2.55079 21.9966 3.20378 22.0637C3.24513 22.0679 3.2862 22.0701 3.32697 22.0701C3.92872 22.0701 4.445 21.6146 4.50798 21.003L5.48699 11.4922L5.82696 11.5273L5.0268 19.3006C5.30497 19.9232 5.92843 20.3577 6.65437 20.3577H10.8421H11.7342L15.5498 27.5262C15.8704 28.1286 16.4873 28.4719 17.1253 28.4717C17.4078 28.4717 17.6946 28.4044 17.9616 28.2624C18.8307 27.7998 19.1604 26.7199 18.6977 25.8506L14.379 17.7369C14.0694 17.1551 13.4642 16.7916 12.8051 16.7916H12.5381C11.4456 16.8536 10.6499 17.1388 10.5443 17.5279C10.3638 18.1931 9.75669 18.6577 9.06802 18.6577C8.93292 18.6577 8.79783 18.6397 8.66637 18.604C8.27183 18.4969 7.94273 18.2426 7.73944 17.8879C7.53614 17.5331 7.48318 17.1206 7.59027 16.7261C8.01325 15.1679 9.39653 14.1467 11.5068 13.8205L10.5623 11.5823L10.8969 11.4961L11.9965 14.1021C10.2802 14.279 8.41838 14.9797 7.92009 16.8156C7.74814 17.4492 8.12236 18.1023 8.7559 18.2742C8.86022 18.3025 8.96484 18.316 9.06802 18.316C9.59127 18.316 10.0708 17.9677 10.2145 17.4384C10.4779 16.4685 12.6901 16.3668 13.6568 16.4684C14.0768 16.515 14.4877 16.335 14.7398 15.9971C14.9915 15.6591 15.0456 15.2131 14.8818 14.8246L13.2243 10.8963L12.495 9.16795C11.9885 9.80382 11.2707 10.2777 10.4173 10.4677Z" fill="#656565"/>
  <path d="M12.4426 8.66738C13.4341 7.10901 12.9746 5.04191 11.4162 4.05038C9.85784 3.05886 7.79074 3.51838 6.79922 5.07675C5.8077 6.63513 6.26722 8.70223 7.82559 9.69375C9.38396 10.6853 11.4511 10.2258 12.4426 8.66738Z" fill="#656565"/>
  <path d="M14.8528 6.98408C14.8806 7.00135 14.912 7.01006 14.9433 7.01006C14.9803 7.01006 15.0173 6.99801 15.048 6.97422L16.5693 5.79639C16.6438 5.73863 16.6575 5.63126 16.5997 5.55667C16.542 5.48195 16.4346 5.46844 16.36 5.5262L15.2051 6.42034L15.6014 4.5183C15.6161 4.44763 15.5848 4.37522 15.523 4.33764C15.4613 4.29977 15.3827 4.30513 15.3265 4.3507L14.1609 5.29534C14.0877 5.35483 14.0764 5.46235 14.1358 5.53563C14.1954 5.6092 14.303 5.62052 14.3761 5.56088L15.169 4.91835L14.7761 6.80429C14.7615 6.87438 14.7921 6.94607 14.8528 6.98408Z" fill="#656565"/>
  <path d="M16.7319 4.75216C16.7718 4.75216 16.8115 4.73809 16.8432 4.71081L18.1559 3.58218C18.2275 3.52065 18.2357 3.4127 18.1742 3.34116C18.1126 3.26963 18.0047 3.26164 17.9332 3.32302L17.0017 4.12385L17.3899 2.26055C17.404 2.19278 17.3759 2.12329 17.3186 2.0844C17.2613 2.04522 17.1864 2.04479 17.1285 2.0831L15.9752 2.84373C15.8964 2.89568 15.8747 3.00161 15.9267 3.0804C15.9787 3.15933 16.0845 3.1811 16.1634 3.12901L16.9709 2.59647L16.5646 4.54639C16.5497 4.61806 16.582 4.6912 16.645 4.72835C16.672 4.74432 16.702 4.75216 16.7319 4.75216Z" fill="#656565"/>
  <path d="M14.0278 3.17382C14.0548 3.18978 14.0848 3.19763 14.1147 3.19763C14.1546 3.19763 14.1944 3.18355 14.2261 3.15627L15.5388 2.0275C15.6104 1.96597 15.6185 1.85802 15.557 1.78647C15.4954 1.71494 15.3876 1.70695 15.316 1.76833L14.3845 2.56931L14.7727 0.705867C14.7868 0.638096 14.7587 0.568601 14.7014 0.529716C14.6442 0.490533 14.5692 0.490102 14.5113 0.528408L13.358 1.28904C13.2792 1.34099 13.2576 1.44692 13.3095 1.52572C13.3615 1.60465 13.4673 1.62628 13.5463 1.57432L14.3537 1.04178L13.9474 2.99185C13.9325 3.06354 13.9649 3.13668 14.0278 3.17382Z" fill="#656565"/>
</svg>