<svg xmlns="http://www.w3.org/2000/svg" width="44" height="29" viewBox="0 0 44 29" fill="none">
  <path d="M24.6382 0.126899C25.7639 -0.047835 26.9198 -0.0434349 28.043 0.14827C29.2699 0.374545 30.4975 0.683786 31.61 1.26393C32.7521 1.84282 33.7961 2.61215 34.7118 3.50531C35.9186 4.7649 36.9117 6.25705 37.4699 7.91703C37.4887 7.98051 37.5088 8.04463 37.5302 8.10811C38.0205 9.71591 38.3046 11.4218 38.0689 13.0993C38.2392 13.1974 38.4416 13.2112 38.6232 13.2816C39.4473 13.5368 40.2015 13.9736 40.8829 14.4972C41.661 15.0579 42.2782 15.8077 42.7986 16.6072C43.4278 17.5595 43.7314 18.6789 43.9231 19.792C44.0608 20.6839 44.0111 21.601 43.7943 22.4765C43.6233 23.293 43.353 24.095 42.9225 24.8128C42.5466 25.4269 42.1079 26.0033 41.6063 26.5193C41.0576 27.014 40.4699 27.4709 39.8206 27.8267C38.7886 28.3911 37.6182 28.6469 36.4598 28.7909C28.686 28.7927 20.9116 28.7915 13.1378 28.7915C12.6771 28.7946 12.2157 28.7758 11.7569 28.8235C11.3766 28.8411 11.0416 28.4747 11.1051 28.0963C11.1567 27.9166 11.2491 27.7343 11.4232 27.6469C11.7211 27.4797 12.0668 27.613 12.3855 27.608C20.1775 27.6092 27.9695 27.6079 35.7615 27.6086C36.9809 27.6475 38.209 27.3521 39.2807 26.7707C40.0852 26.3383 40.7879 25.7267 41.358 25.0158C42.595 23.4533 43.0947 21.3301 42.6591 19.3829C42.2436 17.3464 40.8194 15.5481 38.9319 14.6776C38.2461 14.3325 37.4925 14.161 36.7401 14.039C37.292 11.4255 36.8193 8.60214 35.4177 6.32557C34.5101 4.82524 33.2235 3.56187 31.7162 2.66809C29.6282 1.42735 27.1059 0.940859 24.7055 1.30416C22.4496 1.62408 20.3189 2.71083 18.7136 4.32429C17.7406 5.29225 16.9732 6.45379 16.4207 7.70773C14.8826 7.33689 13.2107 7.50031 11.7927 8.21119C9.59913 9.25771 8.08246 11.5726 8.01081 14.0038C7.04474 14.0346 6.07365 14.2056 5.19369 14.6179C3.75182 15.2552 2.55194 16.418 1.86808 17.8379C1.38725 18.8354 1.15218 19.9517 1.188 21.0573C1.25274 22.6777 1.89951 24.2773 3.02146 25.4539C3.99192 26.5067 5.31186 27.217 6.71539 27.4848C7.50609 27.6387 8.31377 27.6105 9.11516 27.6067C9.44137 27.5979 9.76821 27.5118 10.0944 27.5658C10.3308 27.6337 10.4772 27.8644 10.5206 28.0963C10.5413 28.3371 10.4112 28.6243 10.1742 28.7054C10.014 28.8015 9.80341 28.811 9.61736 28.8122C8.7374 28.7475 7.84802 28.86 6.97309 28.7148C5.91526 28.5332 4.85302 28.2528 3.93095 27.6846C2.98814 27.1095 2.13081 26.3754 1.5073 25.4571C0.861162 24.606 0.438154 23.6016 0.223193 22.5576C-0.061536 21.4552 -0.077878 20.2842 0.197423 19.178C0.376557 18.3043 0.669457 17.4463 1.1484 16.6896C1.5953 15.9969 2.10127 15.3313 2.73547 14.8002C3.52994 14.1377 4.42184 13.567 5.41997 13.2678C5.92217 13.1207 6.43129 12.9887 6.94983 12.9139C7.08057 12.3332 7.21256 11.7492 7.44198 11.198C7.8455 10.2351 8.4621 9.37147 9.18178 8.62037C10.0234 7.84601 10.9888 7.17472 12.0806 6.80828C13.2598 6.43179 14.5124 6.20174 15.7488 6.38653C16.036 5.81393 16.3981 5.28345 16.7777 4.7693C17.7934 3.35508 19.1762 2.23314 20.6929 1.39529C21.9129 0.722756 23.273 0.360716 24.6382 0.126899Z" fill="#66BCFE"/>
  <path d="M24.7056 1.30417C27.106 0.940877 29.6283 1.42737 31.7163 2.66811C33.2236 3.56189 34.5102 4.82526 35.4178 6.32558C36.8195 8.60216 37.2921 11.4256 36.7403 14.039C37.4926 14.161 38.2463 14.3326 38.932 14.6776C40.8195 15.5482 42.2438 17.3464 42.6592 19.3829C43.0948 21.3301 42.5951 23.4533 41.3582 25.0159C40.7881 25.7267 40.0854 26.3383 39.2808 26.7708C38.2092 27.3522 36.981 27.6476 35.7616 27.6086C27.9696 27.608 20.1776 27.6092 12.3856 27.608C12.0669 27.613 11.7212 27.4797 11.4233 27.6469C11.2492 27.7343 11.1568 27.9166 11.1052 28.0963C10.9104 28.0982 10.7155 28.0982 10.5207 28.0963C10.4773 27.8644 10.3309 27.6337 10.0946 27.5659C9.76834 27.5118 9.4415 27.5979 9.11528 27.6067C8.3139 27.6105 7.50622 27.6388 6.71552 27.4848C5.31199 27.217 3.99205 26.5068 3.02158 25.454C1.89964 24.2773 1.25287 22.6777 1.18813 21.0573C1.1523 19.9517 1.38738 18.8354 1.86821 17.8379C2.55206 16.4181 3.75195 15.2553 5.19382 14.6179C6.07378 14.2056 7.04487 14.0346 8.01094 14.0038C8.08259 11.5726 9.59926 9.25773 11.7929 8.21121C13.2109 7.50033 14.8828 7.33691 16.4208 7.70775C16.9733 6.45381 17.7407 5.29226 18.7137 4.32431C20.319 2.71085 22.4498 1.6241 24.7056 1.30417ZM19.9193 16.8065C20.1393 17.0598 20.4403 17.2678 20.7917 17.2502C20.5202 17.7437 20.5704 18.3747 20.8954 18.8304C21.2266 19.3156 21.8615 19.5815 22.4378 19.4545C23.0664 19.3408 23.5761 18.7914 23.6591 18.1604C23.7804 17.3992 23.2304 16.6123 22.4762 16.4564C21.5811 16.2176 20.8112 17.1591 19.9193 16.8065ZM30.2173 16.5853C29.5812 16.8932 29.2242 17.6814 29.4316 18.3609C29.6114 19.0592 30.3361 19.5627 31.0532 19.4772C31.5353 19.4275 31.9898 19.139 32.2255 18.7129C32.4838 18.2748 32.5008 17.7047 32.2575 17.2559C32.5253 17.1799 32.7604 17.0189 32.9395 16.8071C32.5397 16.9504 32.0891 16.892 31.7314 16.667C31.2871 16.3741 30.6899 16.337 30.2173 16.5853ZM24.6767 21.9693C23.9382 22.4074 23.3882 23.1258 23.1135 23.9354C23.3454 23.936 23.578 23.9373 23.8106 23.9348C24.2744 22.7229 25.6214 21.931 26.9068 22.139C27.9231 22.2635 28.8339 22.9838 29.2053 23.936C29.4366 23.9367 29.6679 23.936 29.8999 23.9367C29.5623 22.8933 28.7314 22.0215 27.6918 21.6626C26.7075 21.3075 25.5686 21.4231 24.6767 21.9693Z" fill="#B3DEFF"/>
  <path d="M19.9189 16.8065C20.8108 17.1591 21.5808 16.2175 22.4758 16.4564C23.2301 16.6123 23.7801 17.3992 23.6588 18.1604C23.5758 18.7914 23.066 19.3408 22.4375 19.4545C21.8611 19.5815 21.2263 19.3156 20.8951 18.8304C20.5701 18.3747 20.5198 17.7436 20.7914 17.2502C20.44 17.2678 20.1389 17.0598 19.9189 16.8065Z" fill="#343434"/>
  <path d="M30.2168 16.5852C30.6895 16.337 31.2866 16.3741 31.731 16.667C32.0886 16.892 32.5393 16.9504 32.939 16.8071C32.7599 17.0189 32.5248 17.1798 32.2571 17.2559C32.5003 17.7047 32.4833 18.2748 32.225 18.7128C31.9893 19.139 31.5349 19.4275 31.0528 19.4772C30.3356 19.5626 29.6109 19.0592 29.4311 18.3609C29.2237 17.6814 29.5807 16.8932 30.2168 16.5852Z" fill="#343434"/>
  <path d="M24.6765 21.9693C25.5684 21.4231 26.7073 21.3075 27.6916 21.6626C28.7312 22.0215 29.5621 22.8933 29.8996 23.9367C29.6677 23.936 29.4364 23.9367 29.2051 23.936C28.8336 22.9838 27.9229 22.2635 26.9065 22.139C25.6212 21.931 24.2742 22.7229 23.8103 23.9348C23.5778 23.9373 23.3452 23.936 23.1133 23.9354C23.388 23.1258 23.9379 22.4074 24.6765 21.9693Z" fill="#343434"/>
</svg>