<svg xmlns="http://www.w3.org/2000/svg" width="44" height="29" viewBox="0 0 44 29" fill="none">
  <path d="M23.5676 0.345036C25.3336 -0.113753 27.214 -0.115639 28.9807 0.34315C30.4608 0.653619 31.8755 1.27518 33.0979 2.16637C33.9758 2.77473 34.7816 3.49371 35.4465 4.3321C36.4527 5.56643 37.2439 6.98805 37.6587 8.53097C37.8988 9.48563 38.12 10.4541 38.1408 11.4427C38.1867 12.0077 38.1106 12.5715 38.0968 13.1358C39.2658 13.3897 40.3178 14.0113 41.2304 14.7686C42.4446 15.8333 43.3798 17.2618 43.7248 18.8518C43.9159 19.5922 44.0353 20.3564 43.9907 21.1232C43.9643 21.8346 43.7895 22.5291 43.6085 23.2147C43.3169 24.258 42.7431 25.1976 42.0518 26.0228C41.4447 26.7487 40.6767 27.3269 39.8609 27.8001C38.8717 28.3551 37.7473 28.6077 36.6343 28.7686C36.4703 28.7975 36.3025 28.7868 36.1372 28.7881C28.1769 28.7875 20.2159 28.7881 12.2556 28.7875C12.0074 28.7799 11.7497 28.8698 11.5096 28.7736C11.2369 28.6762 11.0647 28.3771 11.1061 28.0924C11.1665 27.8391 11.3607 27.6021 11.6316 27.5714C11.9037 27.5412 12.1746 27.6097 12.4473 27.6034C20.4076 27.6015 28.3686 27.604 36.3289 27.6028C37.5544 27.5311 38.7605 27.1364 39.788 26.4627C40.6905 25.8481 41.4598 25.0266 41.982 24.0651C42.5514 23.0124 42.8481 21.8101 42.8116 20.6122C42.7676 19.3609 42.3868 18.1184 41.6973 17.0714C41.1235 16.2349 40.3901 15.4958 39.5121 14.9804C38.9383 14.6555 38.3318 14.3808 37.6895 14.2237C37.3784 14.1357 37.0554 14.1087 36.7412 14.0383C37.1974 11.8751 36.9454 9.5755 36.0643 7.54991C35.1348 5.47279 33.5428 3.69043 31.5543 2.57613C29.6871 1.50144 27.4767 1.03825 25.3349 1.2337C23.4495 1.38454 21.6149 2.06455 20.0789 3.1669C18.6617 4.17561 17.4959 5.53564 16.7153 7.0905C16.6148 7.29349 16.5261 7.50278 16.4193 7.70263C15.4527 7.46821 14.439 7.45941 13.4629 7.6379C12.101 7.91192 10.8315 8.61204 9.86993 9.61384C8.7638 10.7941 8.05551 12.3729 8.0222 13.9987C7.65831 14.044 7.28751 14.0195 6.92676 14.0974C5.44669 14.3293 4.05399 15.0665 3.0258 16.1569C1.50676 17.7507 0.855031 20.1258 1.34964 22.2726C1.62743 23.5246 2.25654 24.708 3.17977 25.603C4.17151 26.6299 5.51771 27.2841 6.91922 27.5192C7.60426 27.6355 8.30124 27.5952 8.9932 27.6047C9.364 27.6135 9.73355 27.4978 10.1037 27.56C10.3356 27.6329 10.4846 27.8604 10.5229 28.0924C10.5543 28.3689 10.3759 28.6228 10.1364 28.7435C9.96545 28.7717 9.79577 28.8227 9.62042 28.8082C9.09627 28.7705 8.57086 28.7937 8.04608 28.7881C7.20141 28.8044 6.37119 28.6134 5.56233 28.3909C4.49581 28.0911 3.53172 27.5022 2.70024 26.7807C2.22763 26.393 1.83797 25.9141 1.48477 25.4182C0.895882 24.632 0.489257 23.7163 0.274946 22.7591C0.0782318 21.9986 -0.0418076 21.2111 0.0134985 20.4243C0.0468079 19.7286 0.220896 19.0511 0.39687 18.3805C0.702311 17.3026 1.30565 16.331 2.03846 15.492C2.53998 14.8937 3.176 14.428 3.82522 14.0012C4.76417 13.3985 5.85772 13.0874 6.95002 12.9127C7.08388 12.3314 7.21398 11.745 7.44526 11.1932C7.84937 10.2297 8.46653 9.36559 9.1874 8.61456C10.1018 7.77302 11.1671 7.0553 12.3738 6.71467C12.6905 6.62731 13.0092 6.54435 13.3316 6.4815C14.1241 6.30364 14.9461 6.27724 15.7506 6.38471C16.1195 5.65317 16.6022 4.98698 17.1043 4.34279C17.7737 3.50314 18.5781 2.77473 19.4618 2.16637C20.6816 1.27895 22.0907 0.654876 23.5676 0.345036Z" fill="#66BCFE"/>
  <path d="M25.3348 1.23369C27.4766 1.03823 29.687 1.50142 31.5542 2.57612C33.5427 3.69041 35.1346 5.47278 36.0641 7.5499C36.9453 9.57548 37.1973 11.8751 36.741 14.0383C37.0552 14.1087 37.3783 14.1357 37.6894 14.2237C38.3317 14.3808 38.9382 14.6555 39.512 14.9804C40.39 15.4958 41.1234 16.2348 41.6972 17.0713C42.3866 18.1184 42.7675 19.3609 42.8115 20.6122C42.8479 21.8101 42.5513 23.0124 41.9819 24.0651C41.4596 25.0266 40.6904 25.848 39.7879 26.4627C38.7603 27.1364 37.5543 27.5311 36.3287 27.6028C28.3684 27.604 20.4075 27.6015 12.4472 27.6034C12.1744 27.6097 11.9035 27.5412 11.6314 27.5713C11.3605 27.6021 11.1663 27.8391 11.106 28.0923C10.9118 28.0942 10.7176 28.0942 10.5228 28.0923C10.4844 27.8604 10.3355 27.6329 10.1036 27.56C9.7334 27.4978 9.36386 27.6134 8.99305 27.6046C8.3011 27.5952 7.60412 27.6354 6.91908 27.5192C5.51757 27.2841 4.17137 26.6299 3.17963 25.6029C2.25639 24.708 1.62729 23.5246 1.3495 22.2726C0.854887 20.1258 1.50662 17.7507 3.02565 16.1569C4.05384 15.0665 5.44655 14.3293 6.92662 14.0974C7.28736 14.0195 7.65817 14.044 8.02205 13.9987C8.05536 12.3728 8.76366 10.7941 9.86978 9.61382C10.8314 8.61203 12.1009 7.9119 13.4628 7.63789C14.4388 7.4594 15.4526 7.4682 16.4192 7.70262C16.526 7.50276 16.6146 7.29348 16.7152 7.09048C17.4957 5.53563 18.6616 4.1756 20.0788 3.16689C21.6148 2.06454 23.4493 1.38453 25.3348 1.23369ZM21.7845 16.4479C21.3018 16.5485 20.8763 16.8935 20.689 17.351C20.4986 17.7784 20.5376 18.2912 20.7745 18.6928C21.0931 19.2629 21.8102 19.579 22.445 19.4131C23.2067 19.249 23.7504 18.4351 23.5939 17.669C23.4631 16.8526 22.5921 16.2587 21.7845 16.4479ZM30.5184 16.4485C30.0534 16.5478 29.6417 16.8721 29.4463 17.3077C29.2451 17.7294 29.264 18.2435 29.4902 18.652C29.7869 19.2258 30.4807 19.5601 31.1142 19.4281C31.6673 19.327 32.1443 18.8977 32.2958 18.3547C32.4617 17.8224 32.2832 17.2115 31.8778 16.8344C31.5227 16.4957 30.9986 16.3442 30.5184 16.4485ZM23.0527 21.8019C23.0527 22.052 23.0534 22.3022 23.0521 22.5523C25.314 22.5504 27.5765 22.5511 29.8384 22.5523C29.8347 22.3053 29.834 22.059 29.8391 21.8126C27.5778 21.7862 25.3146 21.8069 23.0527 21.8019Z" fill="#B3DEFF"/>
  <path d="M21.7847 16.4479C22.5923 16.2587 23.4634 16.8526 23.5941 17.669C23.7506 18.4351 23.207 19.249 22.4452 19.4131C21.8105 19.579 21.0934 19.2629 20.7747 18.6928C20.5378 18.2912 20.4988 17.7784 20.6893 17.351C20.8766 16.8935 21.302 16.5485 21.7847 16.4479Z" fill="#343434"/>
  <path d="M30.5189 16.4485C30.9991 16.3442 31.5232 16.4957 31.8783 16.8344C32.2837 17.2115 32.4622 17.8224 32.2963 18.3547C32.1448 18.8977 31.6678 19.327 31.1147 19.4282C30.4812 19.5601 29.7874 19.2258 29.4907 18.652C29.2645 18.2435 29.2456 17.7294 29.4467 17.3077C29.6422 16.8721 30.0539 16.5478 30.5189 16.4485Z" fill="#343434"/>
  <path d="M23.0534 21.8019C25.3153 21.8069 27.5784 21.7862 29.8397 21.8126C29.8346 22.0589 29.8353 22.3053 29.839 22.5523C27.5772 22.551 25.3146 22.5504 23.0527 22.5523C23.054 22.3022 23.0534 22.052 23.0534 21.8019Z" fill="#343434"/>
</svg>